%TF.GenerationSoftware,KiCad,Pcbnew,7.0.6-0*%
%TF.CreationDate,2023-07-25T21:46:34-07:00*%
%TF.ProjectId,84CP02,38344350-3032-42e6-9b69-6361645f7063,rev?*%
%TF.SameCoordinates,Original*%
%TF.FileFunction,Copper,L3,Inr*%
%TF.FilePolarity,Positive*%
%FSLAX46Y46*%
G04 Gerber Fmt 4.6, Leading zero omitted, Abs format (unit mm)*
G04 Created by KiCad (PCBNEW 7.0.6-0) date 2023-07-25 21:46:34*
%MOMM*%
%LPD*%
G01*
G04 APERTURE LIST*
%TA.AperFunction,ComponentPad*%
%ADD10R,1.700000X1.700000*%
%TD*%
%TA.AperFunction,ComponentPad*%
%ADD11O,1.700000X1.700000*%
%TD*%
%TA.AperFunction,ViaPad*%
%ADD12C,0.800000*%
%TD*%
G04 APERTURE END LIST*
D10*
%TO.N,Net-(J3-Pin_1)*%
%TO.C,J3*%
X145796000Y-122174000D03*
D11*
%TO.N,GND*%
X148336000Y-122174000D03*
%TO.N,Net-(J3-Pin_3)*%
X145796000Y-124714000D03*
%TO.N,GND*%
X148336000Y-124714000D03*
%TO.N,Net-(J3-Pin_5)*%
X145796000Y-127254000D03*
%TO.N,GND*%
X148336000Y-127254000D03*
%TO.N,Net-(J3-Pin_7)*%
X145796000Y-129794000D03*
%TO.N,GND*%
X148336000Y-129794000D03*
%TD*%
D10*
%TO.N,VCC*%
%TO.C,J4*%
X149606000Y-56896000D03*
D11*
%TO.N,GND*%
X149606000Y-59436000D03*
%TO.N,VCC*%
X147066000Y-56896000D03*
%TO.N,GND*%
X147066000Y-59436000D03*
%TO.N,VCC*%
X144526000Y-56896000D03*
%TO.N,GND*%
X144526000Y-59436000D03*
%TD*%
D10*
%TO.N,VCC*%
%TO.C,J1*%
X135636000Y-56515000D03*
D11*
X135636000Y-59055000D03*
%TO.N,/J1-3*%
X135636000Y-61595000D03*
%TO.N,/J1-4*%
X135636000Y-64135000D03*
%TO.N,/J1-5*%
X135636000Y-66675000D03*
%TO.N,/J1-6*%
X135636000Y-69215000D03*
%TO.N,/J1-7*%
X135636000Y-71755000D03*
%TO.N,/J1-8*%
X135636000Y-74295000D03*
%TO.N,/J1-9*%
X135636000Y-76835000D03*
%TO.N,/J1-10*%
X135636000Y-79375000D03*
%TO.N,/J1-11*%
X135636000Y-81915000D03*
%TO.N,/J1-12*%
X135636000Y-84455000D03*
%TO.N,/J1-13*%
X135636000Y-86995000D03*
%TO.N,/J1-14*%
X135636000Y-89535000D03*
%TO.N,/J1-15*%
X135636000Y-92075000D03*
%TO.N,/J1-16*%
X135636000Y-94615000D03*
%TO.N,/J1-17*%
X135636000Y-97155000D03*
%TO.N,/J1-18*%
X135636000Y-99695000D03*
%TO.N,/J1-19*%
X135636000Y-102235000D03*
%TO.N,/J1-20*%
X135636000Y-104775000D03*
%TO.N,/J1-21*%
X135636000Y-107315000D03*
%TO.N,/J1-22*%
X135636000Y-109855000D03*
%TO.N,/J1-23*%
X135636000Y-112395000D03*
%TO.N,/J1-24*%
X135636000Y-114935000D03*
%TO.N,/J1-25*%
X135636000Y-117475000D03*
%TO.N,/J1-26*%
X135636000Y-120015000D03*
%TO.N,/J1-27*%
X135636000Y-122555000D03*
%TO.N,/J1-28*%
X135636000Y-125095000D03*
%TO.N,GND*%
X135636000Y-127635000D03*
X135636000Y-130175000D03*
%TD*%
D10*
%TO.N,VCC*%
%TO.C,J2*%
X158496000Y-56515000D03*
D11*
X158496000Y-59055000D03*
%TO.N,/J2-3*%
X158496000Y-61595000D03*
%TO.N,/J2-4*%
X158496000Y-64135000D03*
%TO.N,/J2-5*%
X158496000Y-66675000D03*
%TO.N,/J2-6*%
X158496000Y-69215000D03*
%TO.N,/J2-7*%
X158496000Y-71755000D03*
%TO.N,/J2-8*%
X158496000Y-74295000D03*
%TO.N,/J2-9*%
X158496000Y-76835000D03*
%TO.N,/J2-10*%
X158496000Y-79375000D03*
%TO.N,/J2-11*%
X158496000Y-81915000D03*
%TO.N,/J2-12*%
X158496000Y-84455000D03*
%TO.N,/J2-13*%
X158496000Y-86995000D03*
%TO.N,/J2-14*%
X158496000Y-89535000D03*
%TO.N,/J2-15*%
X158496000Y-92075000D03*
%TO.N,/J2-16*%
X158496000Y-94615000D03*
%TO.N,/J2-17*%
X158496000Y-97155000D03*
%TO.N,/J2-18*%
X158496000Y-99695000D03*
%TO.N,/J2-19*%
X158496000Y-102235000D03*
%TO.N,/J2-20*%
X158496000Y-104775000D03*
%TO.N,/J2-21*%
X158496000Y-107315000D03*
%TO.N,/J2-22*%
X158496000Y-109855000D03*
%TO.N,/J2-23*%
X158496000Y-112395000D03*
%TO.N,/J2-24*%
X158496000Y-114935000D03*
%TO.N,/J2-25*%
X158496000Y-117475000D03*
%TO.N,/J2-26*%
X158496000Y-120015000D03*
%TO.N,/J2-27*%
X158496000Y-122555000D03*
%TO.N,/J2-28*%
X158496000Y-125095000D03*
%TO.N,GND*%
X158496000Y-127635000D03*
X158496000Y-130175000D03*
%TD*%
D12*
%TO.N,VCC*%
X148296500Y-90638457D03*
X148259000Y-96139000D03*
X147915100Y-81248699D03*
%TO.N,GND*%
X147200149Y-92202000D03*
X146939000Y-85344000D03*
X147409500Y-97371500D03*
X147200149Y-94219702D03*
%TO.N,/J1-3*%
X151130000Y-61595000D03*
X150303409Y-99869225D03*
%TO.N,/J1-4*%
X152400000Y-61595000D03*
X150749000Y-82804000D03*
%TO.N,/J1-5*%
X154992500Y-93345000D03*
X155702000Y-66040000D03*
%TO.N,/J1-6*%
X141969500Y-65532000D03*
X142500897Y-85425897D03*
%TO.N,/J1-7*%
X138117497Y-68834000D03*
X152014559Y-84504255D03*
X138176000Y-63208500D03*
X152273000Y-64389000D03*
%TO.N,/J1-8*%
X148973902Y-71717500D03*
X151092728Y-105410000D03*
%TO.N,/J1-9*%
X143764000Y-72136000D03*
X144336000Y-95885000D03*
%TO.N,/J1-10*%
X148259000Y-98298000D03*
X148844000Y-73152000D03*
%TO.N,/J1-11*%
X141694500Y-81915000D03*
X141776397Y-86150397D03*
%TO.N,/J1-12*%
X137668000Y-84455000D03*
X137630500Y-71827451D03*
X153035000Y-93345000D03*
X153416000Y-69342000D03*
%TO.N,/J1-15*%
X139319000Y-67691000D03*
X145750649Y-98173856D03*
X145796000Y-67272500D03*
X137630500Y-92075000D03*
%TO.N,/J1-16*%
X136906000Y-94615000D03*
X136906000Y-70485000D03*
X152250640Y-83194574D03*
X150749000Y-66727000D03*
%TO.N,/J1-17*%
X150674586Y-114554000D03*
X138436000Y-101150503D03*
X151092728Y-107150500D03*
X138435500Y-113740000D03*
%TO.N,/J1-18*%
X150927500Y-76237500D03*
X140208000Y-102870000D03*
X150927500Y-77686500D03*
X138842500Y-76327000D03*
%TO.N,/J1-19*%
X140970000Y-104902000D03*
X139795500Y-79756000D03*
%TO.N,/J1-20*%
X148347136Y-88773000D03*
X147885500Y-111050736D03*
%TO.N,/J1-21*%
X153797000Y-97155000D03*
X153892228Y-112927932D03*
%TO.N,/J1-22*%
X149643500Y-107315000D03*
X149897500Y-112972745D03*
%TO.N,/J1-23*%
X140462000Y-113015500D03*
X137630500Y-93074503D03*
%TO.N,/J1-24*%
X154305000Y-116078000D03*
X154813000Y-96139000D03*
%TO.N,/J1-25*%
X145288000Y-101600000D03*
X145923000Y-117475000D03*
%TO.N,/J1-26*%
X139263748Y-119578748D03*
X139319000Y-116025500D03*
X153416000Y-98552000D03*
X153055500Y-116877500D03*
%TO.N,/J1-27*%
X141694500Y-87965589D03*
X137922000Y-122555000D03*
%TO.N,/J1-28*%
X152362500Y-87630000D03*
X151638000Y-125476000D03*
%TO.N,/J2-3*%
X149352000Y-63500000D03*
X150368000Y-80518000D03*
%TO.N,/J2-4*%
X154940000Y-64389000D03*
X152152393Y-92576607D03*
%TO.N,/J2-5*%
X141245609Y-97290743D03*
X141224000Y-63843500D03*
%TO.N,/J2-6*%
X143463373Y-95178226D03*
X144145000Y-69088000D03*
%TO.N,/J2-7*%
X157353000Y-88265000D03*
%TO.N,/J2-8*%
X145235500Y-89142048D03*
X145542000Y-71628000D03*
%TO.N,/J2-11*%
X155613000Y-78359000D03*
X155829000Y-101092000D03*
%TO.N,/J2-12*%
X145766500Y-70358000D03*
X155613000Y-77089000D03*
X155067000Y-69977000D03*
X145187629Y-97308629D03*
%TO.N,/J2-13*%
X140520000Y-86995000D03*
X140520500Y-68834000D03*
X156840701Y-68584299D03*
X156596000Y-85598000D03*
%TO.N,/J2-14*%
X142694541Y-113015500D03*
X156595500Y-113652432D03*
X142695541Y-109728000D03*
%TO.N,/J2-15*%
X151548500Y-123317000D03*
X157353000Y-123825000D03*
X151130966Y-101727967D03*
X157353000Y-93218000D03*
%TO.N,/J2-16*%
X155791500Y-67534484D03*
X156574199Y-90164700D03*
X142875000Y-67945000D03*
X142785479Y-84218205D03*
%TO.N,/J2-17*%
X153566049Y-73912926D03*
X145316500Y-73854000D03*
X144653000Y-79248000D03*
X154993000Y-94622792D03*
%TO.N,/J2-18*%
X146393500Y-110998000D03*
X156120500Y-102870000D03*
X146335500Y-90404355D03*
X155422431Y-112649000D03*
%TO.N,/J2-19*%
X137082963Y-116205000D03*
X136779000Y-95758000D03*
X155575000Y-117221000D03*
X156120500Y-104013000D03*
%TO.N,/J2-21*%
X155220500Y-107315000D03*
X154981051Y-72771000D03*
%TO.N,/J2-22*%
X140466299Y-108580701D03*
X141097000Y-93349997D03*
%TO.N,/J2-23*%
X144412950Y-90791050D03*
X143795500Y-114464500D03*
%TO.N,/J2-24*%
X151638000Y-115977500D03*
X151034000Y-86610294D03*
%TO.N,/J2-25*%
X137541000Y-96651983D03*
X137807463Y-118237000D03*
%TO.N,/J2-26*%
X138684000Y-99822000D03*
X140795541Y-119634000D03*
%TO.N,/J2-27*%
X137985500Y-98798553D03*
X139192000Y-121666000D03*
%TO.N,/J2-28*%
X142494000Y-127889000D03*
X142688800Y-91753200D03*
%TO.N,Net-(J3-Pin_1)*%
X143510000Y-121666000D03*
X143148400Y-100457000D03*
%TO.N,Net-(J3-Pin_3)*%
X144399000Y-104013000D03*
%TO.N,Net-(J3-Pin_5)*%
X145669000Y-119126000D03*
X150114000Y-119126000D03*
X144907000Y-102743000D03*
%TO.N,Net-(J3-Pin_7)*%
X150114000Y-94742000D03*
X147472400Y-108483400D03*
X150368228Y-109093000D03*
%TD*%
%TA.AperFunction,Conductor*%
%TO.N,GND*%
G36*
X144369236Y-55295267D02*
G01*
X144436171Y-55315287D01*
X144481660Y-55368320D01*
X144491256Y-55437528D01*
X144461912Y-55500937D01*
X144402945Y-55538415D01*
X144389018Y-55541573D01*
X144191361Y-55574556D01*
X143978430Y-55647656D01*
X143978419Y-55647661D01*
X143780427Y-55754808D01*
X143780422Y-55754812D01*
X143602761Y-55893092D01*
X143602756Y-55893097D01*
X143450284Y-56058723D01*
X143450276Y-56058734D01*
X143327140Y-56247207D01*
X143236703Y-56453385D01*
X143181436Y-56671628D01*
X143181434Y-56671640D01*
X143162844Y-56895994D01*
X143162844Y-56896005D01*
X143181434Y-57120359D01*
X143181436Y-57120371D01*
X143236703Y-57338614D01*
X143327140Y-57544792D01*
X143450276Y-57733265D01*
X143450284Y-57733276D01*
X143602756Y-57898902D01*
X143602760Y-57898906D01*
X143780424Y-58037189D01*
X143822559Y-58059991D01*
X143823695Y-58060606D01*
X143873286Y-58109825D01*
X143888394Y-58178042D01*
X143864224Y-58243597D01*
X143835802Y-58271236D01*
X143654922Y-58397890D01*
X143654920Y-58397891D01*
X143487891Y-58564920D01*
X143487886Y-58564926D01*
X143352400Y-58758420D01*
X143352399Y-58758422D01*
X143252570Y-58972507D01*
X143252567Y-58972513D01*
X143195364Y-59185999D01*
X143195364Y-59186000D01*
X144092314Y-59186000D01*
X144066507Y-59226156D01*
X144026000Y-59364111D01*
X144026000Y-59507889D01*
X144066507Y-59645844D01*
X144092314Y-59686000D01*
X143195364Y-59686000D01*
X143252567Y-59899486D01*
X143252570Y-59899492D01*
X143352399Y-60113578D01*
X143487894Y-60307082D01*
X143654917Y-60474105D01*
X143848421Y-60609600D01*
X144062507Y-60709429D01*
X144062516Y-60709433D01*
X144276000Y-60766634D01*
X144276000Y-59871501D01*
X144383685Y-59920680D01*
X144490237Y-59936000D01*
X144561763Y-59936000D01*
X144668315Y-59920680D01*
X144776000Y-59871501D01*
X144776000Y-60766633D01*
X144989483Y-60709433D01*
X144989492Y-60709429D01*
X145203578Y-60609600D01*
X145397082Y-60474105D01*
X145564105Y-60307082D01*
X145694425Y-60120968D01*
X145749002Y-60077344D01*
X145818501Y-60070151D01*
X145880855Y-60101673D01*
X145897575Y-60120968D01*
X146027894Y-60307082D01*
X146194917Y-60474105D01*
X146388421Y-60609600D01*
X146602507Y-60709429D01*
X146602516Y-60709433D01*
X146816000Y-60766634D01*
X146816000Y-59871501D01*
X146923685Y-59920680D01*
X147030237Y-59936000D01*
X147101763Y-59936000D01*
X147208315Y-59920680D01*
X147316000Y-59871501D01*
X147316000Y-60766633D01*
X147529483Y-60709433D01*
X147529492Y-60709429D01*
X147743578Y-60609600D01*
X147937082Y-60474105D01*
X148104105Y-60307082D01*
X148234425Y-60120968D01*
X148289002Y-60077344D01*
X148358501Y-60070151D01*
X148420855Y-60101673D01*
X148437575Y-60120968D01*
X148567894Y-60307082D01*
X148734917Y-60474105D01*
X148928421Y-60609600D01*
X149142507Y-60709429D01*
X149142516Y-60709433D01*
X149356000Y-60766634D01*
X149356000Y-59871501D01*
X149463685Y-59920680D01*
X149570237Y-59936000D01*
X149641763Y-59936000D01*
X149748315Y-59920680D01*
X149856000Y-59871501D01*
X149856000Y-60766633D01*
X150069483Y-60709433D01*
X150069492Y-60709429D01*
X150283578Y-60609600D01*
X150477082Y-60474105D01*
X150644105Y-60307082D01*
X150779600Y-60113578D01*
X150879429Y-59899492D01*
X150879432Y-59899486D01*
X150936636Y-59686000D01*
X150039686Y-59686000D01*
X150065493Y-59645844D01*
X150106000Y-59507889D01*
X150106000Y-59364111D01*
X150065493Y-59226156D01*
X150039686Y-59186000D01*
X150936636Y-59186000D01*
X150936635Y-59185999D01*
X150879432Y-58972513D01*
X150879429Y-58972507D01*
X150779600Y-58758422D01*
X150779599Y-58758420D01*
X150644113Y-58564926D01*
X150644108Y-58564920D01*
X150528272Y-58449084D01*
X150494787Y-58387761D01*
X150499771Y-58318069D01*
X150541643Y-58262136D01*
X150572612Y-58245224D01*
X150702204Y-58196889D01*
X150819261Y-58109261D01*
X150906889Y-57992204D01*
X150957989Y-57855201D01*
X150961591Y-57821692D01*
X150964499Y-57794654D01*
X150964500Y-57794637D01*
X150964500Y-55997362D01*
X150964499Y-55997345D01*
X150960672Y-55961759D01*
X150957989Y-55936799D01*
X150906889Y-55799796D01*
X150819261Y-55682739D01*
X150702204Y-55595111D01*
X150627141Y-55567113D01*
X150571208Y-55525241D01*
X150546792Y-55459776D01*
X150561645Y-55391504D01*
X150611051Y-55342099D01*
X150671094Y-55326935D01*
X157039469Y-55358937D01*
X157106406Y-55378957D01*
X157151895Y-55431990D01*
X157161491Y-55501198D01*
X157155025Y-55526267D01*
X157144011Y-55555796D01*
X157144011Y-55555797D01*
X157137500Y-55616345D01*
X157137500Y-57413654D01*
X157144011Y-57474202D01*
X157144011Y-57474204D01*
X157188990Y-57594793D01*
X157195111Y-57611204D01*
X157282739Y-57728261D01*
X157399796Y-57815889D01*
X157438275Y-57830241D01*
X157517595Y-57859827D01*
X157573528Y-57901699D01*
X157597944Y-57967163D01*
X157583092Y-58035436D01*
X157565490Y-58059991D01*
X157420279Y-58217730D01*
X157420276Y-58217734D01*
X157297140Y-58406207D01*
X157206703Y-58612385D01*
X157151436Y-58830628D01*
X157151434Y-58830640D01*
X157132844Y-59054994D01*
X157132844Y-59055005D01*
X157151434Y-59279359D01*
X157151436Y-59279371D01*
X157206703Y-59497614D01*
X157297140Y-59703792D01*
X157420276Y-59892265D01*
X157420284Y-59892276D01*
X157572756Y-60057902D01*
X157572761Y-60057907D01*
X157628991Y-60101673D01*
X157750424Y-60196189D01*
X157750429Y-60196191D01*
X157750431Y-60196193D01*
X157786930Y-60215946D01*
X157836520Y-60265165D01*
X157851628Y-60333382D01*
X157827457Y-60398937D01*
X157786930Y-60434054D01*
X157750431Y-60453806D01*
X157750422Y-60453812D01*
X157572761Y-60592092D01*
X157572756Y-60592097D01*
X157420284Y-60757723D01*
X157420276Y-60757734D01*
X157297140Y-60946207D01*
X157206703Y-61152385D01*
X157151436Y-61370628D01*
X157151434Y-61370640D01*
X157132844Y-61594994D01*
X157132844Y-61595005D01*
X157151434Y-61819359D01*
X157151436Y-61819371D01*
X157206703Y-62037614D01*
X157297140Y-62243792D01*
X157420276Y-62432265D01*
X157420284Y-62432276D01*
X157572756Y-62597902D01*
X157572760Y-62597906D01*
X157750424Y-62736189D01*
X157750429Y-62736191D01*
X157750431Y-62736193D01*
X157786930Y-62755946D01*
X157836520Y-62805165D01*
X157851628Y-62873382D01*
X157827457Y-62938937D01*
X157786930Y-62974054D01*
X157750431Y-62993806D01*
X157750422Y-62993812D01*
X157572761Y-63132092D01*
X157572756Y-63132097D01*
X157420284Y-63297723D01*
X157420276Y-63297734D01*
X157297140Y-63486207D01*
X157206703Y-63692385D01*
X157151436Y-63910628D01*
X157151434Y-63910640D01*
X157132844Y-64134994D01*
X157132844Y-64135005D01*
X157151434Y-64359359D01*
X157151436Y-64359371D01*
X157206703Y-64577614D01*
X157297140Y-64783792D01*
X157420276Y-64972265D01*
X157420284Y-64972276D01*
X157572756Y-65137902D01*
X157572760Y-65137906D01*
X157750424Y-65276189D01*
X157750429Y-65276191D01*
X157750431Y-65276193D01*
X157786930Y-65295946D01*
X157836520Y-65345165D01*
X157851628Y-65413382D01*
X157827457Y-65478937D01*
X157786930Y-65514054D01*
X157750431Y-65533806D01*
X157750422Y-65533812D01*
X157572761Y-65672092D01*
X157572756Y-65672097D01*
X157420284Y-65837723D01*
X157420276Y-65837734D01*
X157297140Y-66026207D01*
X157206703Y-66232385D01*
X157151436Y-66450628D01*
X157151434Y-66450640D01*
X157132844Y-66674994D01*
X157132844Y-66675005D01*
X157151434Y-66899359D01*
X157151436Y-66899371D01*
X157206703Y-67117614D01*
X157297140Y-67323792D01*
X157420276Y-67512265D01*
X157420284Y-67512276D01*
X157572756Y-67677902D01*
X157572761Y-67677907D01*
X157589583Y-67691000D01*
X157750424Y-67816189D01*
X157750429Y-67816191D01*
X157750431Y-67816193D01*
X157786930Y-67835946D01*
X157836520Y-67885165D01*
X157851628Y-67953382D01*
X157827457Y-68018937D01*
X157786930Y-68054054D01*
X157750429Y-68073807D01*
X157746501Y-68076374D01*
X157679612Y-68096563D01*
X157612426Y-68077385D01*
X157584828Y-68051518D01*
X157584089Y-68052184D01*
X157451955Y-67905434D01*
X157430403Y-67889775D01*
X157297453Y-67793181D01*
X157122989Y-67715505D01*
X157122987Y-67715504D01*
X156936188Y-67675799D01*
X156827867Y-67675799D01*
X156760828Y-67656114D01*
X156715073Y-67603310D01*
X156704547Y-67538835D01*
X156705004Y-67534487D01*
X156704038Y-67525297D01*
X156685042Y-67344556D01*
X156626027Y-67162928D01*
X156530540Y-66997540D01*
X156480489Y-66941953D01*
X156402758Y-66855622D01*
X156402753Y-66855618D01*
X156385625Y-66843173D01*
X156342959Y-66787845D01*
X156336979Y-66718232D01*
X156366359Y-66659885D01*
X156441040Y-66576944D01*
X156536527Y-66411556D01*
X156595542Y-66229928D01*
X156615504Y-66040000D01*
X156595542Y-65850072D01*
X156536527Y-65668444D01*
X156441040Y-65503056D01*
X156313253Y-65361134D01*
X156158752Y-65248882D01*
X155984288Y-65171206D01*
X155984286Y-65171205D01*
X155797487Y-65131500D01*
X155772465Y-65131500D01*
X155705426Y-65111815D01*
X155659671Y-65059011D01*
X155649727Y-64989853D01*
X155676191Y-64931903D01*
X155675222Y-64931199D01*
X155678698Y-64926414D01*
X155678752Y-64926297D01*
X155678930Y-64926094D01*
X155679036Y-64925948D01*
X155679040Y-64925944D01*
X155774527Y-64760556D01*
X155833542Y-64578928D01*
X155853504Y-64389000D01*
X155833542Y-64199072D01*
X155774527Y-64017444D01*
X155679040Y-63852056D01*
X155551253Y-63710134D01*
X155396752Y-63597882D01*
X155222288Y-63520206D01*
X155222286Y-63520205D01*
X155035487Y-63480500D01*
X154844513Y-63480500D01*
X154657714Y-63520205D01*
X154483246Y-63597883D01*
X154328745Y-63710135D01*
X154200959Y-63852057D01*
X154105473Y-64017443D01*
X154105470Y-64017450D01*
X154053024Y-64178864D01*
X154046458Y-64199072D01*
X154026496Y-64389000D01*
X154046458Y-64578928D01*
X154046459Y-64578931D01*
X154105470Y-64760549D01*
X154105473Y-64760556D01*
X154200960Y-64925944D01*
X154328747Y-65067866D01*
X154483248Y-65180118D01*
X154657712Y-65257794D01*
X154844513Y-65297500D01*
X154869535Y-65297500D01*
X154936574Y-65317185D01*
X154982329Y-65369989D01*
X154992273Y-65439147D01*
X154965808Y-65497096D01*
X154966778Y-65497801D01*
X154963301Y-65502585D01*
X154963248Y-65502703D01*
X154963069Y-65502905D01*
X154962959Y-65503056D01*
X154867473Y-65668443D01*
X154867470Y-65668450D01*
X154812467Y-65837734D01*
X154808458Y-65850072D01*
X154788496Y-66040000D01*
X154808458Y-66229928D01*
X154808459Y-66229931D01*
X154867470Y-66411549D01*
X154867473Y-66411556D01*
X154962960Y-66576944D01*
X154977988Y-66593634D01*
X155090741Y-66718861D01*
X155090744Y-66718863D01*
X155090747Y-66718866D01*
X155107873Y-66731309D01*
X155150539Y-66786637D01*
X155156520Y-66856250D01*
X155127140Y-66914598D01*
X155052459Y-66997541D01*
X154956973Y-67162927D01*
X154956970Y-67162934D01*
X154897959Y-67344552D01*
X154897958Y-67344556D01*
X154877996Y-67534484D01*
X154897958Y-67724412D01*
X154897959Y-67724415D01*
X154956970Y-67906033D01*
X154956973Y-67906040D01*
X155052460Y-68071428D01*
X155149768Y-68179500D01*
X155168950Y-68200804D01*
X155180247Y-68213350D01*
X155334748Y-68325602D01*
X155509212Y-68403278D01*
X155696013Y-68442984D01*
X155804334Y-68442984D01*
X155871373Y-68462669D01*
X155917128Y-68515473D01*
X155927654Y-68579944D01*
X155927197Y-68584299D01*
X155927197Y-68584300D01*
X155928795Y-68599500D01*
X155947159Y-68774227D01*
X155947160Y-68774230D01*
X156006171Y-68955848D01*
X156006174Y-68955855D01*
X156101661Y-69121243D01*
X156177577Y-69205556D01*
X156226794Y-69260218D01*
X156229448Y-69263165D01*
X156383949Y-69375417D01*
X156558413Y-69453093D01*
X156745214Y-69492799D01*
X156936187Y-69492799D01*
X156936188Y-69492799D01*
X157036583Y-69471459D01*
X157106248Y-69476775D01*
X157161982Y-69518911D01*
X157182569Y-69562309D01*
X157206703Y-69657614D01*
X157297140Y-69863792D01*
X157420276Y-70052265D01*
X157420284Y-70052276D01*
X157572756Y-70217902D01*
X157572760Y-70217906D01*
X157750424Y-70356189D01*
X157750429Y-70356191D01*
X157750431Y-70356193D01*
X157786930Y-70375946D01*
X157836520Y-70425165D01*
X157851628Y-70493382D01*
X157827457Y-70558937D01*
X157786930Y-70594054D01*
X157750431Y-70613806D01*
X157750422Y-70613812D01*
X157572761Y-70752092D01*
X157572756Y-70752097D01*
X157420284Y-70917723D01*
X157420276Y-70917734D01*
X157297140Y-71106207D01*
X157206703Y-71312385D01*
X157151436Y-71530628D01*
X157151434Y-71530640D01*
X157132844Y-71754994D01*
X157132844Y-71755005D01*
X157151434Y-71979359D01*
X157151436Y-71979371D01*
X157206703Y-72197614D01*
X157297140Y-72403792D01*
X157420276Y-72592265D01*
X157420284Y-72592276D01*
X157572756Y-72757902D01*
X157572760Y-72757906D01*
X157750424Y-72896189D01*
X157786930Y-72915945D01*
X157836519Y-72965162D01*
X157851629Y-73033378D01*
X157827459Y-73098934D01*
X157786932Y-73134052D01*
X157750432Y-73153805D01*
X157750422Y-73153812D01*
X157572761Y-73292092D01*
X157572756Y-73292097D01*
X157420284Y-73457723D01*
X157420276Y-73457734D01*
X157297140Y-73646207D01*
X157206703Y-73852385D01*
X157151436Y-74070628D01*
X157151434Y-74070640D01*
X157132844Y-74294994D01*
X157132844Y-74295005D01*
X157151434Y-74519359D01*
X157151436Y-74519371D01*
X157206703Y-74737614D01*
X157297140Y-74943792D01*
X157420276Y-75132265D01*
X157420284Y-75132276D01*
X157572756Y-75297902D01*
X157572760Y-75297906D01*
X157750424Y-75436189D01*
X157750429Y-75436191D01*
X157750431Y-75436193D01*
X157786930Y-75455946D01*
X157836520Y-75505165D01*
X157851628Y-75573382D01*
X157827457Y-75638937D01*
X157786930Y-75674054D01*
X157750431Y-75693806D01*
X157750422Y-75693812D01*
X157572761Y-75832092D01*
X157572756Y-75832097D01*
X157420284Y-75997723D01*
X157420276Y-75997734D01*
X157297140Y-76186207D01*
X157206703Y-76392385D01*
X157151436Y-76610628D01*
X157151434Y-76610640D01*
X157132844Y-76834994D01*
X157132844Y-76835005D01*
X157151434Y-77059359D01*
X157151436Y-77059371D01*
X157206703Y-77277614D01*
X157297140Y-77483792D01*
X157420276Y-77672265D01*
X157420284Y-77672276D01*
X157572756Y-77837902D01*
X157572761Y-77837907D01*
X157622256Y-77876431D01*
X157750424Y-77976189D01*
X157750429Y-77976191D01*
X157750431Y-77976193D01*
X157786930Y-77995946D01*
X157836520Y-78045165D01*
X157851628Y-78113382D01*
X157827457Y-78178937D01*
X157786930Y-78214054D01*
X157750431Y-78233806D01*
X157750422Y-78233812D01*
X157572761Y-78372092D01*
X157572756Y-78372097D01*
X157420284Y-78537723D01*
X157420276Y-78537734D01*
X157297140Y-78726207D01*
X157206703Y-78932385D01*
X157151436Y-79150628D01*
X157151434Y-79150640D01*
X157132844Y-79374994D01*
X157132844Y-79375005D01*
X157151434Y-79599359D01*
X157151436Y-79599371D01*
X157206703Y-79817614D01*
X157297140Y-80023792D01*
X157420276Y-80212265D01*
X157420284Y-80212276D01*
X157572751Y-80377897D01*
X157572758Y-80377904D01*
X157572760Y-80377906D01*
X157750424Y-80516189D01*
X157750429Y-80516191D01*
X157750431Y-80516193D01*
X157786930Y-80535946D01*
X157836520Y-80585165D01*
X157851628Y-80653382D01*
X157827457Y-80718937D01*
X157786930Y-80754054D01*
X157750431Y-80773806D01*
X157750422Y-80773812D01*
X157572761Y-80912092D01*
X157572756Y-80912097D01*
X157420284Y-81077723D01*
X157420276Y-81077734D01*
X157297140Y-81266207D01*
X157206703Y-81472385D01*
X157151436Y-81690628D01*
X157151434Y-81690640D01*
X157132844Y-81914994D01*
X157132844Y-81915005D01*
X157151434Y-82139359D01*
X157151436Y-82139371D01*
X157206703Y-82357614D01*
X157297140Y-82563792D01*
X157420276Y-82752265D01*
X157420284Y-82752276D01*
X157572756Y-82917902D01*
X157572760Y-82917906D01*
X157750424Y-83056189D01*
X157750429Y-83056191D01*
X157750431Y-83056193D01*
X157786930Y-83075946D01*
X157836520Y-83125165D01*
X157851628Y-83193382D01*
X157827457Y-83258937D01*
X157786930Y-83294054D01*
X157750431Y-83313806D01*
X157750422Y-83313812D01*
X157572761Y-83452092D01*
X157572756Y-83452097D01*
X157420284Y-83617723D01*
X157420276Y-83617734D01*
X157297140Y-83806207D01*
X157206703Y-84012385D01*
X157151436Y-84230628D01*
X157151434Y-84230640D01*
X157132844Y-84454994D01*
X157132844Y-84455006D01*
X157148893Y-84648693D01*
X157134812Y-84717129D01*
X157085967Y-84767088D01*
X157017866Y-84782709D01*
X156974887Y-84772214D01*
X156878288Y-84729206D01*
X156878287Y-84729205D01*
X156878283Y-84729204D01*
X156691487Y-84689500D01*
X156500513Y-84689500D01*
X156313714Y-84729205D01*
X156139246Y-84806883D01*
X155984745Y-84919135D01*
X155856959Y-85061057D01*
X155761473Y-85226443D01*
X155761470Y-85226450D01*
X155705402Y-85399010D01*
X155702458Y-85408072D01*
X155682496Y-85598000D01*
X155702458Y-85787928D01*
X155702459Y-85787931D01*
X155761470Y-85969549D01*
X155761473Y-85969556D01*
X155856960Y-86134944D01*
X155984747Y-86276866D01*
X156139248Y-86389118D01*
X156313712Y-86466794D01*
X156500513Y-86506500D01*
X156691487Y-86506500D01*
X156878288Y-86466794D01*
X157040446Y-86394596D01*
X157109694Y-86385312D01*
X157172971Y-86414940D01*
X157210184Y-86474075D01*
X157209519Y-86543941D01*
X157208160Y-86548143D01*
X157206703Y-86552383D01*
X157151436Y-86770628D01*
X157151434Y-86770640D01*
X157132844Y-86994994D01*
X157132844Y-86995005D01*
X157151434Y-87219359D01*
X157151436Y-87219371D01*
X157158185Y-87246020D01*
X157155560Y-87315840D01*
X157115604Y-87373158D01*
X157076297Y-87394391D01*
X157070717Y-87396203D01*
X156896244Y-87473884D01*
X156741745Y-87586135D01*
X156613959Y-87728057D01*
X156518473Y-87893443D01*
X156518470Y-87893450D01*
X156459459Y-88075068D01*
X156459458Y-88075072D01*
X156439496Y-88265000D01*
X156459458Y-88454928D01*
X156459459Y-88454931D01*
X156518470Y-88636549D01*
X156518473Y-88636556D01*
X156613960Y-88801944D01*
X156741747Y-88943866D01*
X156896248Y-89056118D01*
X156896253Y-89056120D01*
X156898721Y-89057545D01*
X156899868Y-89058747D01*
X156901506Y-89059938D01*
X156901288Y-89060237D01*
X156946938Y-89108111D01*
X156960164Y-89176717D01*
X156934199Y-89241583D01*
X156877286Y-89282114D01*
X156810944Y-89286225D01*
X156669686Y-89256200D01*
X156478712Y-89256200D01*
X156291913Y-89295905D01*
X156117445Y-89373583D01*
X155962944Y-89485835D01*
X155835158Y-89627757D01*
X155739672Y-89793143D01*
X155739669Y-89793150D01*
X155685589Y-89959592D01*
X155680657Y-89974772D01*
X155660695Y-90164700D01*
X155680657Y-90354628D01*
X155680658Y-90354631D01*
X155739669Y-90536249D01*
X155739672Y-90536256D01*
X155835159Y-90701644D01*
X155962946Y-90843566D01*
X156117447Y-90955818D01*
X156291911Y-91033494D01*
X156478712Y-91073200D01*
X156669686Y-91073200D01*
X156856487Y-91033494D01*
X157030951Y-90955818D01*
X157185452Y-90843566D01*
X157313239Y-90701644D01*
X157387738Y-90572608D01*
X157438301Y-90524396D01*
X157506908Y-90511172D01*
X157571285Y-90536758D01*
X157572760Y-90537906D01*
X157750424Y-90676189D01*
X157750429Y-90676191D01*
X157750431Y-90676193D01*
X157786930Y-90695946D01*
X157836520Y-90745165D01*
X157851628Y-90813382D01*
X157827457Y-90878937D01*
X157786930Y-90914054D01*
X157750431Y-90933806D01*
X157750422Y-90933812D01*
X157572761Y-91072092D01*
X157572756Y-91072097D01*
X157420284Y-91237723D01*
X157420276Y-91237734D01*
X157297140Y-91426207D01*
X157206703Y-91632385D01*
X157151436Y-91850628D01*
X157151434Y-91850640D01*
X157132844Y-92074994D01*
X157132844Y-92075005D01*
X157145277Y-92225051D01*
X157131196Y-92293487D01*
X157082351Y-92343446D01*
X157072137Y-92348570D01*
X156896248Y-92426881D01*
X156741745Y-92539135D01*
X156613959Y-92681057D01*
X156518473Y-92846443D01*
X156518470Y-92846450D01*
X156475584Y-92978441D01*
X156459458Y-93028072D01*
X156439496Y-93218000D01*
X156459458Y-93407928D01*
X156459459Y-93407931D01*
X156518470Y-93589549D01*
X156518473Y-93589556D01*
X156613960Y-93754944D01*
X156741747Y-93896866D01*
X156896248Y-94009118D01*
X157070712Y-94086794D01*
X157094262Y-94091799D01*
X157155742Y-94124989D01*
X157189520Y-94186152D01*
X157188687Y-94243529D01*
X157151436Y-94390627D01*
X157151434Y-94390640D01*
X157132844Y-94614994D01*
X157132844Y-94615005D01*
X157151434Y-94839359D01*
X157151436Y-94839371D01*
X157206703Y-95057614D01*
X157297140Y-95263792D01*
X157420276Y-95452265D01*
X157420284Y-95452276D01*
X157572756Y-95617902D01*
X157572760Y-95617906D01*
X157750424Y-95756189D01*
X157750429Y-95756191D01*
X157750431Y-95756193D01*
X157786930Y-95775946D01*
X157836520Y-95825165D01*
X157851628Y-95893382D01*
X157827457Y-95958937D01*
X157786930Y-95994054D01*
X157750431Y-96013806D01*
X157750422Y-96013812D01*
X157572761Y-96152092D01*
X157572756Y-96152097D01*
X157420284Y-96317723D01*
X157420276Y-96317734D01*
X157297140Y-96506207D01*
X157206703Y-96712385D01*
X157151436Y-96930628D01*
X157151434Y-96930640D01*
X157132844Y-97154994D01*
X157132844Y-97155005D01*
X157151434Y-97379359D01*
X157151436Y-97379371D01*
X157206703Y-97597614D01*
X157297140Y-97803792D01*
X157420276Y-97992265D01*
X157420284Y-97992276D01*
X157572756Y-98157902D01*
X157572760Y-98157906D01*
X157750424Y-98296189D01*
X157750429Y-98296191D01*
X157750431Y-98296193D01*
X157786930Y-98315946D01*
X157836520Y-98365165D01*
X157851628Y-98433382D01*
X157827457Y-98498937D01*
X157786930Y-98534054D01*
X157750431Y-98553806D01*
X157750422Y-98553812D01*
X157572761Y-98692092D01*
X157572756Y-98692097D01*
X157420284Y-98857723D01*
X157420276Y-98857734D01*
X157297140Y-99046207D01*
X157206703Y-99252385D01*
X157151436Y-99470628D01*
X157151434Y-99470640D01*
X157132844Y-99694994D01*
X157132844Y-99695005D01*
X157151434Y-99919359D01*
X157151436Y-99919371D01*
X157206703Y-100137614D01*
X157297140Y-100343792D01*
X157420276Y-100532265D01*
X157420284Y-100532276D01*
X157572756Y-100697902D01*
X157572760Y-100697906D01*
X157750424Y-100836189D01*
X157750429Y-100836191D01*
X157750431Y-100836193D01*
X157786930Y-100855946D01*
X157836520Y-100905165D01*
X157851628Y-100973382D01*
X157827457Y-101038937D01*
X157786930Y-101074054D01*
X157750431Y-101093806D01*
X157750422Y-101093812D01*
X157572761Y-101232092D01*
X157572756Y-101232097D01*
X157420284Y-101397723D01*
X157420276Y-101397734D01*
X157297140Y-101586207D01*
X157206703Y-101792385D01*
X157151436Y-102010628D01*
X157151434Y-102010640D01*
X157132844Y-102234994D01*
X157132844Y-102235006D01*
X157142436Y-102350767D01*
X157128355Y-102419203D01*
X157079510Y-102469162D01*
X157011409Y-102484783D01*
X156945673Y-102461105D01*
X156911473Y-102423007D01*
X156891987Y-102389256D01*
X156859540Y-102333056D01*
X156731753Y-102191134D01*
X156577252Y-102078882D01*
X156425647Y-102011383D01*
X156372412Y-101966135D01*
X156352090Y-101899286D01*
X156371135Y-101832062D01*
X156403194Y-101797790D01*
X156440253Y-101770866D01*
X156568040Y-101628944D01*
X156663527Y-101463556D01*
X156722542Y-101281928D01*
X156742504Y-101092000D01*
X156722542Y-100902072D01*
X156663527Y-100720444D01*
X156568040Y-100555056D01*
X156440253Y-100413134D01*
X156285752Y-100300882D01*
X156111288Y-100223206D01*
X156111286Y-100223205D01*
X155924487Y-100183500D01*
X155733513Y-100183500D01*
X155546714Y-100223205D01*
X155546711Y-100223206D01*
X155546712Y-100223206D01*
X155418899Y-100280112D01*
X155372246Y-100300883D01*
X155217745Y-100413135D01*
X155089959Y-100555057D01*
X154994473Y-100720443D01*
X154994470Y-100720450D01*
X154935459Y-100902068D01*
X154935458Y-100902072D01*
X154915496Y-101092000D01*
X154935458Y-101281928D01*
X154935459Y-101281931D01*
X154994470Y-101463549D01*
X154994473Y-101463556D01*
X155089960Y-101628944D01*
X155217747Y-101770866D01*
X155372248Y-101883118D01*
X155523853Y-101950616D01*
X155577087Y-101995864D01*
X155597409Y-102062713D01*
X155578364Y-102129937D01*
X155546302Y-102164211D01*
X155509246Y-102191134D01*
X155381459Y-102333057D01*
X155285973Y-102498443D01*
X155285970Y-102498450D01*
X155227756Y-102677616D01*
X155226958Y-102680072D01*
X155206996Y-102870000D01*
X155226958Y-103059928D01*
X155226959Y-103059931D01*
X155285970Y-103241549D01*
X155285972Y-103241553D01*
X155285973Y-103241556D01*
X155325459Y-103309949D01*
X155365615Y-103379501D01*
X155382087Y-103447401D01*
X155365615Y-103503499D01*
X155285972Y-103641446D01*
X155285970Y-103641450D01*
X155226959Y-103823068D01*
X155226958Y-103823072D01*
X155206996Y-104013000D01*
X155226958Y-104202928D01*
X155226959Y-104202931D01*
X155285970Y-104384549D01*
X155285973Y-104384556D01*
X155381460Y-104549944D01*
X155509247Y-104691866D01*
X155663748Y-104804118D01*
X155838212Y-104881794D01*
X156025013Y-104921500D01*
X156215987Y-104921500D01*
X156402788Y-104881794D01*
X156577252Y-104804118D01*
X156731753Y-104691866D01*
X156859540Y-104549944D01*
X156932697Y-104423231D01*
X156983260Y-104375020D01*
X157051867Y-104361796D01*
X157116732Y-104387764D01*
X157157261Y-104444677D01*
X157160586Y-104514468D01*
X157160287Y-104515672D01*
X157151438Y-104550617D01*
X157151434Y-104550640D01*
X157132844Y-104774994D01*
X157132844Y-104775005D01*
X157151434Y-104999359D01*
X157151436Y-104999371D01*
X157206703Y-105217614D01*
X157297140Y-105423792D01*
X157420276Y-105612265D01*
X157420284Y-105612276D01*
X157572756Y-105777902D01*
X157572760Y-105777906D01*
X157750424Y-105916189D01*
X157750429Y-105916191D01*
X157750431Y-105916193D01*
X157786930Y-105935946D01*
X157836520Y-105985165D01*
X157851628Y-106053382D01*
X157827457Y-106118937D01*
X157786930Y-106154054D01*
X157750431Y-106173806D01*
X157750422Y-106173812D01*
X157572761Y-106312092D01*
X157572756Y-106312097D01*
X157420284Y-106477723D01*
X157420276Y-106477734D01*
X157297140Y-106666207D01*
X157206703Y-106872385D01*
X157151436Y-107090628D01*
X157151434Y-107090640D01*
X157132844Y-107314994D01*
X157132844Y-107315005D01*
X157151434Y-107539359D01*
X157151436Y-107539371D01*
X157206703Y-107757614D01*
X157297140Y-107963792D01*
X157420276Y-108152265D01*
X157420284Y-108152276D01*
X157572756Y-108317902D01*
X157572760Y-108317906D01*
X157750424Y-108456189D01*
X157786930Y-108475945D01*
X157836519Y-108525162D01*
X157851629Y-108593378D01*
X157827459Y-108658934D01*
X157786932Y-108694052D01*
X157750432Y-108713805D01*
X157750422Y-108713812D01*
X157572761Y-108852092D01*
X157572756Y-108852097D01*
X157420284Y-109017723D01*
X157420276Y-109017734D01*
X157297140Y-109206207D01*
X157206703Y-109412385D01*
X157151436Y-109630628D01*
X157151434Y-109630640D01*
X157132844Y-109854994D01*
X157132844Y-109855005D01*
X157151434Y-110079359D01*
X157151436Y-110079371D01*
X157206703Y-110297614D01*
X157297140Y-110503792D01*
X157420276Y-110692265D01*
X157420284Y-110692276D01*
X157572756Y-110857902D01*
X157572760Y-110857906D01*
X157750424Y-110996189D01*
X157750429Y-110996191D01*
X157750431Y-110996193D01*
X157786930Y-111015946D01*
X157836520Y-111065165D01*
X157851628Y-111133382D01*
X157827457Y-111198937D01*
X157786930Y-111234054D01*
X157750431Y-111253806D01*
X157750422Y-111253812D01*
X157572761Y-111392092D01*
X157572756Y-111392097D01*
X157420284Y-111557723D01*
X157420276Y-111557734D01*
X157297140Y-111746207D01*
X157206703Y-111952385D01*
X157151436Y-112170628D01*
X157151434Y-112170640D01*
X157132844Y-112394994D01*
X157132844Y-112395005D01*
X157151434Y-112619359D01*
X157151437Y-112619375D01*
X157170390Y-112694220D01*
X157167764Y-112764040D01*
X157127808Y-112821357D01*
X157063206Y-112847973D01*
X156999751Y-112837939D01*
X156877788Y-112783638D01*
X156877786Y-112783637D01*
X156690987Y-112743932D01*
X156500013Y-112743932D01*
X156495141Y-112744967D01*
X156483982Y-112747339D01*
X156414315Y-112742021D01*
X156358583Y-112699881D01*
X156334885Y-112639012D01*
X156315973Y-112459072D01*
X156256958Y-112277444D01*
X156161471Y-112112056D01*
X156033684Y-111970134D01*
X155879183Y-111857882D01*
X155704719Y-111780206D01*
X155704717Y-111780205D01*
X155517918Y-111740500D01*
X155326944Y-111740500D01*
X155140145Y-111780205D01*
X154965677Y-111857883D01*
X154811176Y-111970135D01*
X154683391Y-112112055D01*
X154643356Y-112181398D01*
X154592788Y-112229613D01*
X154524181Y-112242835D01*
X154463084Y-112219715D01*
X154348984Y-112136816D01*
X154348980Y-112136814D01*
X154174516Y-112059138D01*
X154174514Y-112059137D01*
X153987715Y-112019432D01*
X153796741Y-112019432D01*
X153609942Y-112059137D01*
X153435474Y-112136815D01*
X153280973Y-112249067D01*
X153153187Y-112390989D01*
X153057701Y-112556375D01*
X153057698Y-112556382D01*
X153029248Y-112643944D01*
X152998686Y-112738004D01*
X152978724Y-112927932D01*
X152998686Y-113117860D01*
X152998687Y-113117863D01*
X153057698Y-113299481D01*
X153057701Y-113299488D01*
X153153188Y-113464876D01*
X153233519Y-113554093D01*
X153279504Y-113605165D01*
X153280975Y-113606798D01*
X153435476Y-113719050D01*
X153609940Y-113796726D01*
X153796741Y-113836432D01*
X153987715Y-113836432D01*
X154174516Y-113796726D01*
X154348980Y-113719050D01*
X154503481Y-113606798D01*
X154631268Y-113464876D01*
X154671303Y-113395532D01*
X154721868Y-113347319D01*
X154790475Y-113334095D01*
X154851574Y-113357215D01*
X154965679Y-113440118D01*
X155140143Y-113517794D01*
X155326944Y-113557500D01*
X155517914Y-113557500D01*
X155517918Y-113557500D01*
X155533944Y-113554093D01*
X155603608Y-113559408D01*
X155659343Y-113601544D01*
X155683045Y-113662420D01*
X155701958Y-113842360D01*
X155701959Y-113842363D01*
X155760970Y-114023981D01*
X155760973Y-114023988D01*
X155856460Y-114189376D01*
X155984247Y-114331298D01*
X156138748Y-114443550D01*
X156313212Y-114521226D01*
X156500013Y-114560932D01*
X156690987Y-114560932D01*
X156877788Y-114521226D01*
X157006925Y-114463730D01*
X157076172Y-114454446D01*
X157139449Y-114484074D01*
X157176662Y-114543209D01*
X157177564Y-114607449D01*
X157151437Y-114710624D01*
X157151434Y-114710640D01*
X157132844Y-114934994D01*
X157132844Y-114935005D01*
X157151434Y-115159359D01*
X157151436Y-115159371D01*
X157206703Y-115377614D01*
X157297140Y-115583792D01*
X157420276Y-115772265D01*
X157420284Y-115772276D01*
X157572756Y-115937902D01*
X157572761Y-115937907D01*
X157623630Y-115977500D01*
X157750424Y-116076189D01*
X157750429Y-116076191D01*
X157750431Y-116076193D01*
X157786930Y-116095946D01*
X157836520Y-116145165D01*
X157851628Y-116213382D01*
X157827457Y-116278937D01*
X157786930Y-116314054D01*
X157750431Y-116333806D01*
X157750422Y-116333812D01*
X157572761Y-116472092D01*
X157572756Y-116472097D01*
X157420284Y-116637723D01*
X157420276Y-116637734D01*
X157297140Y-116826207D01*
X157206703Y-117032385D01*
X157151436Y-117250628D01*
X157151434Y-117250640D01*
X157132844Y-117474994D01*
X157132844Y-117475005D01*
X157151434Y-117699359D01*
X157151436Y-117699371D01*
X157206703Y-117917614D01*
X157297140Y-118123792D01*
X157420276Y-118312265D01*
X157420284Y-118312276D01*
X157572756Y-118477902D01*
X157572760Y-118477906D01*
X157750424Y-118616189D01*
X157750429Y-118616191D01*
X157750431Y-118616193D01*
X157786930Y-118635946D01*
X157836520Y-118685165D01*
X157851628Y-118753382D01*
X157827457Y-118818937D01*
X157786930Y-118854054D01*
X157750431Y-118873806D01*
X157750422Y-118873812D01*
X157572761Y-119012092D01*
X157572756Y-119012097D01*
X157420284Y-119177723D01*
X157420276Y-119177734D01*
X157297140Y-119366207D01*
X157206703Y-119572385D01*
X157151436Y-119790628D01*
X157151434Y-119790640D01*
X157132844Y-120014994D01*
X157132844Y-120015005D01*
X157151434Y-120239359D01*
X157151436Y-120239371D01*
X157206703Y-120457614D01*
X157297140Y-120663792D01*
X157420276Y-120852265D01*
X157420284Y-120852276D01*
X157572756Y-121017902D01*
X157572760Y-121017906D01*
X157750424Y-121156189D01*
X157750429Y-121156191D01*
X157750431Y-121156193D01*
X157786930Y-121175946D01*
X157836520Y-121225165D01*
X157851628Y-121293382D01*
X157827457Y-121358937D01*
X157786930Y-121394054D01*
X157750431Y-121413806D01*
X157750422Y-121413812D01*
X157572761Y-121552092D01*
X157572756Y-121552097D01*
X157420284Y-121717723D01*
X157420276Y-121717734D01*
X157297140Y-121906207D01*
X157206703Y-122112385D01*
X157151436Y-122330628D01*
X157151434Y-122330640D01*
X157132844Y-122554994D01*
X157132844Y-122555005D01*
X157151434Y-122779359D01*
X157151436Y-122779371D01*
X157158185Y-122806020D01*
X157155560Y-122875840D01*
X157115604Y-122933158D01*
X157076297Y-122954391D01*
X157070717Y-122956203D01*
X156896244Y-123033884D01*
X156741745Y-123146135D01*
X156613959Y-123288057D01*
X156518473Y-123453443D01*
X156518470Y-123453450D01*
X156459459Y-123635068D01*
X156459458Y-123635072D01*
X156439496Y-123825000D01*
X156459458Y-124014928D01*
X156459459Y-124014931D01*
X156518470Y-124196549D01*
X156518473Y-124196556D01*
X156613960Y-124361944D01*
X156741747Y-124503866D01*
X156896248Y-124616118D01*
X157070712Y-124693794D01*
X157070718Y-124693795D01*
X157076291Y-124695606D01*
X157133968Y-124735040D01*
X157161170Y-124799398D01*
X157158185Y-124843977D01*
X157151435Y-124870630D01*
X157151435Y-124870633D01*
X157132844Y-125094994D01*
X157132844Y-125095005D01*
X157151434Y-125319359D01*
X157151436Y-125319371D01*
X157206703Y-125537614D01*
X157297140Y-125743792D01*
X157420276Y-125932265D01*
X157420284Y-125932276D01*
X157568292Y-126093053D01*
X157572760Y-126097906D01*
X157750424Y-126236189D01*
X157777972Y-126251097D01*
X157793695Y-126259606D01*
X157843286Y-126308825D01*
X157858394Y-126377042D01*
X157834224Y-126442597D01*
X157805802Y-126470236D01*
X157624922Y-126596890D01*
X157624920Y-126596891D01*
X157457891Y-126763920D01*
X157457886Y-126763926D01*
X157322400Y-126957420D01*
X157322399Y-126957422D01*
X157222570Y-127171507D01*
X157222567Y-127171513D01*
X157165364Y-127384999D01*
X157165364Y-127385000D01*
X158062314Y-127385000D01*
X158036507Y-127425156D01*
X157996000Y-127563111D01*
X157996000Y-127706889D01*
X158036507Y-127844844D01*
X158062314Y-127885000D01*
X157165364Y-127885000D01*
X157222567Y-128098486D01*
X157222570Y-128098492D01*
X157322399Y-128312578D01*
X157457894Y-128506082D01*
X157624917Y-128673105D01*
X157811031Y-128803425D01*
X157854656Y-128858003D01*
X157861848Y-128927501D01*
X157830326Y-128989856D01*
X157811031Y-129006575D01*
X157624922Y-129136890D01*
X157624920Y-129136891D01*
X157457891Y-129303920D01*
X157457886Y-129303926D01*
X157322400Y-129497420D01*
X157322399Y-129497422D01*
X157222570Y-129711507D01*
X157222567Y-129711513D01*
X157165364Y-129924999D01*
X157165364Y-129925000D01*
X158062314Y-129925000D01*
X158036507Y-129965156D01*
X157996000Y-130103111D01*
X157996000Y-130246889D01*
X158036507Y-130384844D01*
X158062314Y-130425000D01*
X157165364Y-130425000D01*
X157222567Y-130638486D01*
X157222570Y-130638492D01*
X157322399Y-130852578D01*
X157457894Y-131046082D01*
X157518131Y-131106319D01*
X157551616Y-131167642D01*
X157546632Y-131237334D01*
X157504760Y-131293267D01*
X157439296Y-131317684D01*
X157430450Y-131318000D01*
X148806230Y-131318000D01*
X148739191Y-131298315D01*
X148693436Y-131245511D01*
X148683492Y-131176353D01*
X148712517Y-131112797D01*
X148771295Y-131075023D01*
X148774136Y-131074225D01*
X148799486Y-131067432D01*
X148799492Y-131067429D01*
X149013578Y-130967600D01*
X149207082Y-130832105D01*
X149374105Y-130665082D01*
X149509600Y-130471578D01*
X149609429Y-130257492D01*
X149609432Y-130257486D01*
X149666636Y-130044000D01*
X148769686Y-130044000D01*
X148795493Y-130003844D01*
X148836000Y-129865889D01*
X148836000Y-129722111D01*
X148795493Y-129584156D01*
X148769686Y-129544000D01*
X149666636Y-129544000D01*
X149666635Y-129543999D01*
X149609432Y-129330513D01*
X149609429Y-129330507D01*
X149509600Y-129116422D01*
X149509599Y-129116420D01*
X149374113Y-128922926D01*
X149374108Y-128922920D01*
X149207082Y-128755894D01*
X149020968Y-128625575D01*
X148977344Y-128570998D01*
X148970151Y-128501499D01*
X149001673Y-128439145D01*
X149020968Y-128422425D01*
X149207082Y-128292105D01*
X149374105Y-128125082D01*
X149509600Y-127931578D01*
X149609429Y-127717492D01*
X149609432Y-127717486D01*
X149666636Y-127504000D01*
X148769686Y-127504000D01*
X148795493Y-127463844D01*
X148836000Y-127325889D01*
X148836000Y-127182111D01*
X148795493Y-127044156D01*
X148769686Y-127004000D01*
X149666636Y-127004000D01*
X149666635Y-127003999D01*
X149609432Y-126790513D01*
X149609429Y-126790507D01*
X149509600Y-126576422D01*
X149509599Y-126576420D01*
X149374113Y-126382926D01*
X149374108Y-126382920D01*
X149207082Y-126215894D01*
X149020968Y-126085575D01*
X148977344Y-126030998D01*
X148970151Y-125961499D01*
X149001673Y-125899145D01*
X149020968Y-125882425D01*
X149207082Y-125752105D01*
X149374105Y-125585082D01*
X149450486Y-125476000D01*
X150724496Y-125476000D01*
X150744458Y-125665928D01*
X150744459Y-125665931D01*
X150803470Y-125847549D01*
X150803473Y-125847556D01*
X150898960Y-126012944D01*
X151026747Y-126154866D01*
X151181248Y-126267118D01*
X151355712Y-126344794D01*
X151542513Y-126384500D01*
X151733487Y-126384500D01*
X151920288Y-126344794D01*
X152094752Y-126267118D01*
X152249253Y-126154866D01*
X152377040Y-126012944D01*
X152472527Y-125847556D01*
X152531542Y-125665928D01*
X152551504Y-125476000D01*
X152531542Y-125286072D01*
X152472527Y-125104444D01*
X152377040Y-124939056D01*
X152249253Y-124797134D01*
X152094752Y-124684882D01*
X151920288Y-124607206D01*
X151920286Y-124607205D01*
X151733487Y-124567500D01*
X151542513Y-124567500D01*
X151355714Y-124607205D01*
X151181246Y-124684883D01*
X151026745Y-124797135D01*
X150898959Y-124939057D01*
X150803473Y-125104443D01*
X150803470Y-125104450D01*
X150744459Y-125286068D01*
X150744458Y-125286072D01*
X150724496Y-125476000D01*
X149450486Y-125476000D01*
X149509600Y-125391578D01*
X149609429Y-125177492D01*
X149609432Y-125177486D01*
X149666636Y-124964000D01*
X148769686Y-124964000D01*
X148795493Y-124923844D01*
X148836000Y-124785889D01*
X148836000Y-124642111D01*
X148795493Y-124504156D01*
X148769686Y-124464000D01*
X149666636Y-124464000D01*
X149666635Y-124463999D01*
X149609432Y-124250513D01*
X149609429Y-124250507D01*
X149509600Y-124036422D01*
X149509599Y-124036420D01*
X149374113Y-123842926D01*
X149374108Y-123842920D01*
X149207082Y-123675894D01*
X149020968Y-123545575D01*
X148977344Y-123490998D01*
X148970151Y-123421499D01*
X149001673Y-123359145D01*
X149020968Y-123342425D01*
X149057278Y-123317000D01*
X150634996Y-123317000D01*
X150654958Y-123506928D01*
X150654959Y-123506931D01*
X150713970Y-123688549D01*
X150713973Y-123688556D01*
X150809460Y-123853944D01*
X150937247Y-123995866D01*
X151091748Y-124108118D01*
X151266212Y-124185794D01*
X151453013Y-124225500D01*
X151643987Y-124225500D01*
X151830788Y-124185794D01*
X152005252Y-124108118D01*
X152159753Y-123995866D01*
X152287540Y-123853944D01*
X152383027Y-123688556D01*
X152442042Y-123506928D01*
X152462004Y-123317000D01*
X152442042Y-123127072D01*
X152383027Y-122945444D01*
X152287540Y-122780056D01*
X152159753Y-122638134D01*
X152005252Y-122525882D01*
X151830788Y-122448206D01*
X151830786Y-122448205D01*
X151643987Y-122408500D01*
X151453013Y-122408500D01*
X151266214Y-122448205D01*
X151091746Y-122525883D01*
X150937245Y-122638135D01*
X150809459Y-122780057D01*
X150713973Y-122945443D01*
X150713970Y-122945450D01*
X150654959Y-123127068D01*
X150654958Y-123127072D01*
X150634996Y-123317000D01*
X149057278Y-123317000D01*
X149207082Y-123212105D01*
X149374105Y-123045082D01*
X149509600Y-122851578D01*
X149609429Y-122637492D01*
X149609432Y-122637486D01*
X149666636Y-122424000D01*
X148769686Y-122424000D01*
X148795493Y-122383844D01*
X148836000Y-122245889D01*
X148836000Y-122102111D01*
X148795493Y-121964156D01*
X148769686Y-121924000D01*
X149666636Y-121924000D01*
X149666635Y-121923999D01*
X149609432Y-121710513D01*
X149609429Y-121710507D01*
X149509600Y-121496422D01*
X149509599Y-121496420D01*
X149374113Y-121302926D01*
X149374108Y-121302920D01*
X149207082Y-121135894D01*
X149013578Y-121000399D01*
X148799492Y-120900570D01*
X148799486Y-120900567D01*
X148586000Y-120843364D01*
X148586000Y-121738498D01*
X148478315Y-121689320D01*
X148371763Y-121674000D01*
X148300237Y-121674000D01*
X148193685Y-121689320D01*
X148086000Y-121738498D01*
X148086000Y-120843364D01*
X148085999Y-120843364D01*
X147872513Y-120900567D01*
X147872507Y-120900570D01*
X147658422Y-121000399D01*
X147658420Y-121000400D01*
X147464926Y-121135886D01*
X147349084Y-121251728D01*
X147287761Y-121285212D01*
X147218069Y-121280228D01*
X147162136Y-121238356D01*
X147145223Y-121207384D01*
X147096889Y-121077796D01*
X147009261Y-120960739D01*
X146892204Y-120873111D01*
X146871254Y-120865297D01*
X146755203Y-120822011D01*
X146694654Y-120815500D01*
X146694638Y-120815500D01*
X144897362Y-120815500D01*
X144897345Y-120815500D01*
X144836797Y-120822011D01*
X144836795Y-120822011D01*
X144699795Y-120873111D01*
X144582739Y-120960739D01*
X144495111Y-121077794D01*
X144478893Y-121121277D01*
X144437021Y-121177209D01*
X144371556Y-121201625D01*
X144303283Y-121186772D01*
X144255325Y-121139942D01*
X144252983Y-121135886D01*
X144249040Y-121129056D01*
X144185146Y-121058094D01*
X144121254Y-120987135D01*
X144110186Y-120979093D01*
X143966752Y-120874882D01*
X143792288Y-120797206D01*
X143792286Y-120797205D01*
X143605487Y-120757500D01*
X143414513Y-120757500D01*
X143227714Y-120797205D01*
X143227711Y-120797206D01*
X143227712Y-120797206D01*
X143074777Y-120865297D01*
X143053246Y-120874883D01*
X142898745Y-120987135D01*
X142770959Y-121129057D01*
X142675473Y-121294443D01*
X142675470Y-121294450D01*
X142616459Y-121476068D01*
X142616458Y-121476072D01*
X142596496Y-121666000D01*
X142616458Y-121855928D01*
X142616459Y-121855931D01*
X142675470Y-122037549D01*
X142675473Y-122037556D01*
X142770960Y-122202944D01*
X142898747Y-122344866D01*
X143053248Y-122457118D01*
X143227712Y-122534794D01*
X143414513Y-122574500D01*
X143605487Y-122574500D01*
X143792288Y-122534794D01*
X143966752Y-122457118D01*
X144121253Y-122344866D01*
X144221351Y-122233694D01*
X144280836Y-122197047D01*
X144350693Y-122198377D01*
X144408742Y-122237264D01*
X144436552Y-122301360D01*
X144437500Y-122316668D01*
X144437500Y-123072654D01*
X144444011Y-123133202D01*
X144444011Y-123133204D01*
X144481557Y-123233866D01*
X144495111Y-123270204D01*
X144582739Y-123387261D01*
X144699796Y-123474889D01*
X144751737Y-123494262D01*
X144817595Y-123518827D01*
X144873528Y-123560699D01*
X144897944Y-123626163D01*
X144883092Y-123694436D01*
X144865490Y-123718991D01*
X144720279Y-123876730D01*
X144720276Y-123876734D01*
X144597140Y-124065207D01*
X144506703Y-124271385D01*
X144451436Y-124489628D01*
X144451434Y-124489640D01*
X144432844Y-124713994D01*
X144432844Y-124714005D01*
X144451434Y-124938359D01*
X144451436Y-124938371D01*
X144506703Y-125156614D01*
X144597140Y-125362792D01*
X144720276Y-125551265D01*
X144720284Y-125551276D01*
X144872756Y-125716902D01*
X144872760Y-125716906D01*
X145050424Y-125855189D01*
X145086930Y-125874945D01*
X145136519Y-125924162D01*
X145151629Y-125992378D01*
X145127459Y-126057934D01*
X145086932Y-126093052D01*
X145050432Y-126112805D01*
X145050422Y-126112812D01*
X144872761Y-126251092D01*
X144872756Y-126251097D01*
X144720284Y-126416723D01*
X144720276Y-126416734D01*
X144597140Y-126605207D01*
X144506703Y-126811385D01*
X144451436Y-127029628D01*
X144451434Y-127029640D01*
X144432844Y-127253994D01*
X144432844Y-127254005D01*
X144451434Y-127478359D01*
X144451436Y-127478371D01*
X144506703Y-127696614D01*
X144597140Y-127902792D01*
X144720276Y-128091265D01*
X144720284Y-128091276D01*
X144872756Y-128256902D01*
X144872760Y-128256906D01*
X145050424Y-128395189D01*
X145050429Y-128395191D01*
X145050431Y-128395193D01*
X145086930Y-128414946D01*
X145136520Y-128464165D01*
X145151628Y-128532382D01*
X145127457Y-128597937D01*
X145086930Y-128633054D01*
X145050431Y-128652806D01*
X145050422Y-128652812D01*
X144872761Y-128791092D01*
X144872756Y-128791097D01*
X144720284Y-128956723D01*
X144720276Y-128956734D01*
X144597140Y-129145207D01*
X144506703Y-129351385D01*
X144451436Y-129569628D01*
X144451434Y-129569640D01*
X144432844Y-129793994D01*
X144432844Y-129794005D01*
X144451434Y-130018359D01*
X144451436Y-130018371D01*
X144506703Y-130236614D01*
X144597140Y-130442792D01*
X144720276Y-130631265D01*
X144720284Y-130631276D01*
X144872756Y-130796902D01*
X144872760Y-130796906D01*
X145050424Y-130935189D01*
X145050425Y-130935189D01*
X145050427Y-130935191D01*
X145110314Y-130967600D01*
X145248426Y-131042342D01*
X145304626Y-131061635D01*
X145348562Y-131076719D01*
X145405577Y-131117105D01*
X145431708Y-131181904D01*
X145418656Y-131250544D01*
X145370568Y-131301232D01*
X145308299Y-131318000D01*
X136701550Y-131318000D01*
X136634511Y-131298315D01*
X136588756Y-131245511D01*
X136578812Y-131176353D01*
X136607837Y-131112797D01*
X136613869Y-131106319D01*
X136674105Y-131046082D01*
X136809600Y-130852578D01*
X136909429Y-130638492D01*
X136909432Y-130638486D01*
X136966636Y-130425000D01*
X136069686Y-130425000D01*
X136095493Y-130384844D01*
X136136000Y-130246889D01*
X136136000Y-130103111D01*
X136095493Y-129965156D01*
X136069686Y-129925000D01*
X136966636Y-129925000D01*
X136966635Y-129924999D01*
X136909432Y-129711513D01*
X136909429Y-129711507D01*
X136809600Y-129497422D01*
X136809599Y-129497420D01*
X136674113Y-129303926D01*
X136674108Y-129303920D01*
X136507082Y-129136894D01*
X136320968Y-129006575D01*
X136277344Y-128951998D01*
X136270151Y-128882499D01*
X136301673Y-128820145D01*
X136320968Y-128803425D01*
X136507082Y-128673105D01*
X136674105Y-128506082D01*
X136809600Y-128312578D01*
X136909429Y-128098492D01*
X136909432Y-128098486D01*
X136965564Y-127889000D01*
X141580496Y-127889000D01*
X141600458Y-128078928D01*
X141600459Y-128078931D01*
X141659470Y-128260549D01*
X141659473Y-128260556D01*
X141754960Y-128425944D01*
X141882747Y-128567866D01*
X142037248Y-128680118D01*
X142211712Y-128757794D01*
X142398513Y-128797500D01*
X142589487Y-128797500D01*
X142776288Y-128757794D01*
X142950752Y-128680118D01*
X143105253Y-128567866D01*
X143233040Y-128425944D01*
X143328527Y-128260556D01*
X143387542Y-128078928D01*
X143407504Y-127889000D01*
X143387542Y-127699072D01*
X143328527Y-127517444D01*
X143233040Y-127352056D01*
X143105253Y-127210134D01*
X142950752Y-127097882D01*
X142776288Y-127020206D01*
X142776286Y-127020205D01*
X142589487Y-126980500D01*
X142398513Y-126980500D01*
X142211714Y-127020205D01*
X142037246Y-127097883D01*
X141882745Y-127210135D01*
X141754959Y-127352057D01*
X141659473Y-127517443D01*
X141659470Y-127517450D01*
X141601256Y-127696616D01*
X141600458Y-127699072D01*
X141580496Y-127889000D01*
X136965564Y-127889000D01*
X136966636Y-127885000D01*
X136069686Y-127885000D01*
X136095493Y-127844844D01*
X136136000Y-127706889D01*
X136136000Y-127563111D01*
X136095493Y-127425156D01*
X136069686Y-127385000D01*
X136966636Y-127385000D01*
X136966635Y-127384999D01*
X136909432Y-127171513D01*
X136909429Y-127171507D01*
X136809600Y-126957422D01*
X136809599Y-126957420D01*
X136674113Y-126763926D01*
X136674108Y-126763920D01*
X136507082Y-126596894D01*
X136326197Y-126470236D01*
X136282572Y-126415659D01*
X136275380Y-126346160D01*
X136306902Y-126283806D01*
X136338300Y-126259608D01*
X136381576Y-126236189D01*
X136559240Y-126097906D01*
X136671817Y-125975616D01*
X136711715Y-125932276D01*
X136711716Y-125932274D01*
X136711722Y-125932268D01*
X136834860Y-125743791D01*
X136925296Y-125537616D01*
X136980564Y-125319368D01*
X136983323Y-125286072D01*
X136999156Y-125095005D01*
X136999156Y-125094994D01*
X136980565Y-124870640D01*
X136980563Y-124870628D01*
X136942193Y-124719108D01*
X136925296Y-124652384D01*
X136834860Y-124446209D01*
X136711722Y-124257732D01*
X136711719Y-124257729D01*
X136711715Y-124257723D01*
X136559243Y-124092097D01*
X136559238Y-124092092D01*
X136381577Y-123953812D01*
X136381572Y-123953808D01*
X136345068Y-123934053D01*
X136295478Y-123884833D01*
X136280371Y-123816616D01*
X136304542Y-123751061D01*
X136345069Y-123715945D01*
X136381576Y-123696189D01*
X136559240Y-123557906D01*
X136658614Y-123449957D01*
X136711715Y-123392276D01*
X136711716Y-123392274D01*
X136711722Y-123392268D01*
X136834860Y-123203791D01*
X136914599Y-123022002D01*
X136959553Y-122968518D01*
X137026289Y-122947827D01*
X137093617Y-122966501D01*
X137135541Y-123009813D01*
X137182959Y-123091942D01*
X137182958Y-123091942D01*
X137220111Y-123133204D01*
X137310747Y-123233866D01*
X137465248Y-123346118D01*
X137639712Y-123423794D01*
X137826513Y-123463500D01*
X138017487Y-123463500D01*
X138204288Y-123423794D01*
X138378752Y-123346118D01*
X138533253Y-123233866D01*
X138661040Y-123091944D01*
X138756527Y-122926556D01*
X138815542Y-122744928D01*
X138824808Y-122656765D01*
X138851391Y-122592153D01*
X138908689Y-122552168D01*
X138973907Y-122548439D01*
X139096513Y-122574500D01*
X139096514Y-122574500D01*
X139287487Y-122574500D01*
X139474288Y-122534794D01*
X139648752Y-122457118D01*
X139803253Y-122344866D01*
X139931040Y-122202944D01*
X140026527Y-122037556D01*
X140085542Y-121855928D01*
X140105504Y-121666000D01*
X140085542Y-121476072D01*
X140026527Y-121294444D01*
X139931040Y-121129056D01*
X139803253Y-120987134D01*
X139648752Y-120874882D01*
X139474288Y-120797206D01*
X139474286Y-120797205D01*
X139287487Y-120757500D01*
X139096513Y-120757500D01*
X138909714Y-120797205D01*
X138909711Y-120797206D01*
X138909712Y-120797206D01*
X138756777Y-120865297D01*
X138735246Y-120874883D01*
X138580745Y-120987135D01*
X138452959Y-121129057D01*
X138357473Y-121294443D01*
X138357470Y-121294450D01*
X138298459Y-121476068D01*
X138298458Y-121476072D01*
X138291732Y-121540071D01*
X138289192Y-121564233D01*
X138262607Y-121628847D01*
X138205309Y-121668831D01*
X138140090Y-121672560D01*
X138017487Y-121646500D01*
X137826513Y-121646500D01*
X137639714Y-121686205D01*
X137465246Y-121763883D01*
X137310745Y-121876135D01*
X137182960Y-122018055D01*
X137135541Y-122100187D01*
X137084973Y-122148402D01*
X137016366Y-122161624D01*
X136951502Y-122135656D01*
X136914598Y-122087995D01*
X136834860Y-121906209D01*
X136802010Y-121855928D01*
X136711722Y-121717732D01*
X136711719Y-121717729D01*
X136711715Y-121717723D01*
X136559243Y-121552097D01*
X136559238Y-121552092D01*
X136381577Y-121413812D01*
X136381578Y-121413812D01*
X136381576Y-121413811D01*
X136345070Y-121394055D01*
X136295479Y-121344836D01*
X136280371Y-121276619D01*
X136304541Y-121211064D01*
X136345070Y-121175945D01*
X136345084Y-121175936D01*
X136381576Y-121156189D01*
X136559240Y-121017906D01*
X136658614Y-120909957D01*
X136711715Y-120852276D01*
X136711716Y-120852274D01*
X136711722Y-120852268D01*
X136834860Y-120663791D01*
X136925296Y-120457616D01*
X136980564Y-120239368D01*
X136986234Y-120170942D01*
X136999156Y-120015005D01*
X136999156Y-120014994D01*
X136980565Y-119790640D01*
X136980563Y-119790628D01*
X136940899Y-119634000D01*
X136925296Y-119572384D01*
X136834860Y-119366209D01*
X136711722Y-119177732D01*
X136711719Y-119177729D01*
X136711715Y-119177723D01*
X136559243Y-119012097D01*
X136559238Y-119012092D01*
X136381577Y-118873812D01*
X136381578Y-118873812D01*
X136381576Y-118873811D01*
X136345070Y-118854055D01*
X136295479Y-118804836D01*
X136280371Y-118736619D01*
X136304541Y-118671064D01*
X136345070Y-118635945D01*
X136345084Y-118635936D01*
X136381576Y-118616189D01*
X136559240Y-118477906D01*
X136696522Y-118328778D01*
X136756406Y-118292790D01*
X136826245Y-118294891D01*
X136883861Y-118334415D01*
X136910962Y-118398814D01*
X136911069Y-118399800D01*
X136913920Y-118426925D01*
X136913921Y-118426929D01*
X136972933Y-118608549D01*
X136972936Y-118608556D01*
X137068423Y-118773944D01*
X137196210Y-118915866D01*
X137350711Y-119028118D01*
X137525175Y-119105794D01*
X137711976Y-119145500D01*
X137902950Y-119145500D01*
X138089751Y-119105794D01*
X138264215Y-119028118D01*
X138264226Y-119028109D01*
X138266032Y-119027068D01*
X138267218Y-119026780D01*
X138270152Y-119025474D01*
X138270390Y-119026010D01*
X138333933Y-119010595D01*
X138399960Y-119033447D01*
X138443150Y-119088368D01*
X138449792Y-119157922D01*
X138435421Y-119196453D01*
X138429222Y-119207189D01*
X138429218Y-119207198D01*
X138370207Y-119388816D01*
X138370206Y-119388820D01*
X138350244Y-119578748D01*
X138370206Y-119768676D01*
X138370207Y-119768679D01*
X138429218Y-119950297D01*
X138429221Y-119950304D01*
X138524708Y-120115692D01*
X138652495Y-120257614D01*
X138806996Y-120369866D01*
X138981460Y-120447542D01*
X139168261Y-120487248D01*
X139359235Y-120487248D01*
X139546036Y-120447542D01*
X139720500Y-120369866D01*
X139875001Y-120257614D01*
X139912621Y-120215832D01*
X139972103Y-120179185D01*
X140041960Y-120180514D01*
X140096919Y-120215833D01*
X140184288Y-120312866D01*
X140338789Y-120425118D01*
X140513253Y-120502794D01*
X140700054Y-120542500D01*
X140891028Y-120542500D01*
X141077829Y-120502794D01*
X141252293Y-120425118D01*
X141406794Y-120312866D01*
X141534581Y-120170944D01*
X141630068Y-120005556D01*
X141689083Y-119823928D01*
X141709045Y-119634000D01*
X141689083Y-119444072D01*
X141630068Y-119262444D01*
X141551292Y-119126000D01*
X144755496Y-119126000D01*
X144775458Y-119315928D01*
X144775459Y-119315931D01*
X144834470Y-119497549D01*
X144834473Y-119497556D01*
X144929960Y-119662944D01*
X145057747Y-119804866D01*
X145212248Y-119917118D01*
X145386712Y-119994794D01*
X145573513Y-120034500D01*
X145764487Y-120034500D01*
X145951288Y-119994794D01*
X146125752Y-119917118D01*
X146280253Y-119804866D01*
X146408040Y-119662944D01*
X146503527Y-119497556D01*
X146562542Y-119315928D01*
X146582504Y-119126000D01*
X149200496Y-119126000D01*
X149220458Y-119315928D01*
X149220459Y-119315931D01*
X149279470Y-119497549D01*
X149279473Y-119497556D01*
X149374960Y-119662944D01*
X149502747Y-119804866D01*
X149657248Y-119917118D01*
X149831712Y-119994794D01*
X150018513Y-120034500D01*
X150209487Y-120034500D01*
X150396288Y-119994794D01*
X150570752Y-119917118D01*
X150725253Y-119804866D01*
X150853040Y-119662944D01*
X150948527Y-119497556D01*
X151007542Y-119315928D01*
X151027504Y-119126000D01*
X151007542Y-118936072D01*
X150948527Y-118754444D01*
X150853040Y-118589056D01*
X150725253Y-118447134D01*
X150570752Y-118334882D01*
X150396288Y-118257206D01*
X150396286Y-118257205D01*
X150209487Y-118217500D01*
X150018513Y-118217500D01*
X149831714Y-118257205D01*
X149757197Y-118290382D01*
X149678777Y-118325297D01*
X149657246Y-118334883D01*
X149502745Y-118447135D01*
X149374959Y-118589057D01*
X149279473Y-118754443D01*
X149279470Y-118754450D01*
X149220459Y-118936068D01*
X149220458Y-118936072D01*
X149200496Y-119126000D01*
X146582504Y-119126000D01*
X146562542Y-118936072D01*
X146503527Y-118754444D01*
X146408040Y-118589056D01*
X146326149Y-118498107D01*
X146306581Y-118476374D01*
X146276351Y-118413382D01*
X146284976Y-118344047D01*
X146329718Y-118290382D01*
X146348291Y-118280125D01*
X146379752Y-118266118D01*
X146534253Y-118153866D01*
X146662040Y-118011944D01*
X146757527Y-117846556D01*
X146816542Y-117664928D01*
X146836504Y-117475000D01*
X146816542Y-117285072D01*
X146757527Y-117103444D01*
X146662040Y-116938056D01*
X146534253Y-116796134D01*
X146379752Y-116683882D01*
X146205288Y-116606206D01*
X146205286Y-116606205D01*
X146018487Y-116566500D01*
X145827513Y-116566500D01*
X145640714Y-116606205D01*
X145466246Y-116683883D01*
X145311745Y-116796135D01*
X145183959Y-116938057D01*
X145088473Y-117103443D01*
X145088470Y-117103450D01*
X145029459Y-117285068D01*
X145029458Y-117285072D01*
X145009496Y-117475000D01*
X145029458Y-117664928D01*
X145029459Y-117664931D01*
X145088470Y-117846549D01*
X145088473Y-117846556D01*
X145183960Y-118011944D01*
X145254056Y-118089794D01*
X145285418Y-118124625D01*
X145315648Y-118187617D01*
X145307023Y-118256952D01*
X145262281Y-118310617D01*
X145243706Y-118320876D01*
X145212245Y-118334883D01*
X145057745Y-118447135D01*
X144929959Y-118589057D01*
X144834473Y-118754443D01*
X144834470Y-118754450D01*
X144775459Y-118936068D01*
X144775458Y-118936072D01*
X144755496Y-119126000D01*
X141551292Y-119126000D01*
X141534581Y-119097056D01*
X141406794Y-118955134D01*
X141252293Y-118842882D01*
X141077829Y-118765206D01*
X141077827Y-118765205D01*
X140891028Y-118725500D01*
X140700054Y-118725500D01*
X140513255Y-118765205D01*
X140338787Y-118842883D01*
X140184285Y-118955136D01*
X140146666Y-118996915D01*
X140087179Y-119033562D01*
X140017322Y-119032231D01*
X139962368Y-118996913D01*
X139875002Y-118899883D01*
X139839119Y-118873812D01*
X139720500Y-118787630D01*
X139546036Y-118709954D01*
X139546034Y-118709953D01*
X139359235Y-118670248D01*
X139168261Y-118670248D01*
X138981462Y-118709953D01*
X138981459Y-118709954D01*
X138981460Y-118709954D01*
X138806996Y-118787630D01*
X138806994Y-118787631D01*
X138806986Y-118787635D01*
X138805160Y-118788689D01*
X138803972Y-118788976D01*
X138801059Y-118790274D01*
X138800821Y-118789740D01*
X138737258Y-118805151D01*
X138671234Y-118782288D01*
X138628052Y-118727360D01*
X138621421Y-118657806D01*
X138635789Y-118619295D01*
X138641990Y-118608556D01*
X138701005Y-118426928D01*
X138720967Y-118237000D01*
X138701005Y-118047072D01*
X138641990Y-117865444D01*
X138546503Y-117700056D01*
X138418716Y-117558134D01*
X138264215Y-117445882D01*
X138089751Y-117368206D01*
X138089749Y-117368205D01*
X137902950Y-117328500D01*
X137711976Y-117328500D01*
X137525177Y-117368205D01*
X137350709Y-117445883D01*
X137253537Y-117516483D01*
X137198644Y-117556366D01*
X137195109Y-117558934D01*
X137129302Y-117582414D01*
X137061248Y-117566589D01*
X137012553Y-117516483D01*
X136998647Y-117468856D01*
X136980325Y-117247740D01*
X136994406Y-117179304D01*
X137043251Y-117129345D01*
X137103901Y-117113500D01*
X137178450Y-117113500D01*
X137365251Y-117073794D01*
X137539715Y-116996118D01*
X137694216Y-116883866D01*
X137822003Y-116741944D01*
X137917490Y-116576556D01*
X137976505Y-116394928D01*
X137996467Y-116205000D01*
X137977601Y-116025500D01*
X138405496Y-116025500D01*
X138425458Y-116215428D01*
X138425459Y-116215431D01*
X138484470Y-116397049D01*
X138484473Y-116397056D01*
X138579960Y-116562444D01*
X138707747Y-116704366D01*
X138862248Y-116816618D01*
X139036712Y-116894294D01*
X139223513Y-116934000D01*
X139414487Y-116934000D01*
X139601288Y-116894294D01*
X139775752Y-116816618D01*
X139930253Y-116704366D01*
X140058040Y-116562444D01*
X140153527Y-116397056D01*
X140212542Y-116215428D01*
X140232504Y-116025500D01*
X140212542Y-115835572D01*
X140153527Y-115653944D01*
X140058040Y-115488556D01*
X139930253Y-115346634D01*
X139775752Y-115234382D01*
X139601288Y-115156706D01*
X139601286Y-115156705D01*
X139414487Y-115117000D01*
X139223513Y-115117000D01*
X139036714Y-115156705D01*
X139036711Y-115156706D01*
X139036712Y-115156706D01*
X138918795Y-115209206D01*
X138862246Y-115234383D01*
X138707745Y-115346635D01*
X138579959Y-115488557D01*
X138484473Y-115653943D01*
X138484470Y-115653950D01*
X138426149Y-115833444D01*
X138425458Y-115835572D01*
X138405496Y-116025500D01*
X137977601Y-116025500D01*
X137976505Y-116015072D01*
X137917490Y-115833444D01*
X137822003Y-115668056D01*
X137694216Y-115526134D01*
X137539715Y-115413882D01*
X137365251Y-115336206D01*
X137365249Y-115336205D01*
X137178450Y-115296500D01*
X137103901Y-115296500D01*
X137036862Y-115276815D01*
X136991107Y-115224011D01*
X136980325Y-115162260D01*
X136999156Y-114935005D01*
X136999156Y-114934994D01*
X136980565Y-114710640D01*
X136980563Y-114710628D01*
X136940899Y-114553999D01*
X136925296Y-114492384D01*
X136834860Y-114286209D01*
X136711722Y-114097732D01*
X136711719Y-114097729D01*
X136711715Y-114097723D01*
X136559243Y-113932097D01*
X136559238Y-113932092D01*
X136398030Y-113806618D01*
X136381576Y-113793811D01*
X136345070Y-113774055D01*
X136310758Y-113740000D01*
X137521996Y-113740000D01*
X137541958Y-113929928D01*
X137541959Y-113929931D01*
X137600970Y-114111549D01*
X137600973Y-114111556D01*
X137696460Y-114276944D01*
X137824247Y-114418866D01*
X137978748Y-114531118D01*
X138153212Y-114608794D01*
X138340013Y-114648500D01*
X138530987Y-114648500D01*
X138717788Y-114608794D01*
X138892252Y-114531118D01*
X139046753Y-114418866D01*
X139174540Y-114276944D01*
X139270027Y-114111556D01*
X139329042Y-113929928D01*
X139349004Y-113740000D01*
X139329042Y-113550072D01*
X139270027Y-113368444D01*
X139174540Y-113203056D01*
X139046753Y-113061134D01*
X138983943Y-113015500D01*
X139548496Y-113015500D01*
X139568458Y-113205428D01*
X139568459Y-113205431D01*
X139627470Y-113387049D01*
X139627472Y-113387053D01*
X139627473Y-113387056D01*
X139722960Y-113552444D01*
X139850747Y-113694366D01*
X140005248Y-113806618D01*
X140179712Y-113884294D01*
X140366513Y-113924000D01*
X140557487Y-113924000D01*
X140744288Y-113884294D01*
X140918752Y-113806618D01*
X141073253Y-113694366D01*
X141201040Y-113552444D01*
X141296527Y-113387056D01*
X141355542Y-113205428D01*
X141375504Y-113015500D01*
X141781037Y-113015500D01*
X141800999Y-113205428D01*
X141801000Y-113205431D01*
X141860011Y-113387049D01*
X141860013Y-113387053D01*
X141860014Y-113387056D01*
X141955501Y-113552444D01*
X142083288Y-113694366D01*
X142237789Y-113806618D01*
X142412253Y-113884294D01*
X142599054Y-113924000D01*
X142790024Y-113924000D01*
X142790028Y-113924000D01*
X142823880Y-113916804D01*
X142893541Y-113922119D01*
X142949276Y-113964254D01*
X142973383Y-114029833D01*
X142962940Y-114088524D01*
X142960973Y-114092941D01*
X142901959Y-114274568D01*
X142901958Y-114274572D01*
X142881996Y-114464500D01*
X142901958Y-114654428D01*
X142901959Y-114654431D01*
X142960970Y-114836049D01*
X142960973Y-114836056D01*
X143056460Y-115001444D01*
X143184247Y-115143366D01*
X143338748Y-115255618D01*
X143513212Y-115333294D01*
X143700013Y-115373000D01*
X143890987Y-115373000D01*
X144077788Y-115333294D01*
X144252252Y-115255618D01*
X144406753Y-115143366D01*
X144534540Y-115001444D01*
X144630027Y-114836056D01*
X144689042Y-114654428D01*
X144709004Y-114464500D01*
X144689042Y-114274572D01*
X144630027Y-114092944D01*
X144534540Y-113927556D01*
X144414120Y-113793816D01*
X144406754Y-113785635D01*
X144390815Y-113774054D01*
X144252252Y-113673382D01*
X144077788Y-113595706D01*
X144077786Y-113595705D01*
X143890987Y-113556000D01*
X143700013Y-113556000D01*
X143666163Y-113563195D01*
X143596496Y-113557879D01*
X143540762Y-113515742D01*
X143516657Y-113450162D01*
X143527106Y-113391462D01*
X143529069Y-113387053D01*
X143530486Y-113382690D01*
X143588083Y-113205428D01*
X143608045Y-113015500D01*
X143603551Y-112972745D01*
X148983996Y-112972745D01*
X149003958Y-113162673D01*
X149003959Y-113162676D01*
X149062970Y-113344294D01*
X149062973Y-113344301D01*
X149158460Y-113509689D01*
X149260790Y-113623339D01*
X149280744Y-113645500D01*
X149286247Y-113651611D01*
X149440748Y-113763863D01*
X149615212Y-113841539D01*
X149802013Y-113881245D01*
X149808480Y-113881925D01*
X149808270Y-113883913D01*
X149866221Y-113900930D01*
X149911976Y-113953734D01*
X149921920Y-114022892D01*
X149906569Y-114067245D01*
X149840059Y-114182443D01*
X149840056Y-114182450D01*
X149791693Y-114331298D01*
X149781044Y-114364072D01*
X149761082Y-114554000D01*
X149781044Y-114743928D01*
X149781045Y-114743931D01*
X149840056Y-114925549D01*
X149840059Y-114925556D01*
X149935546Y-115090944D01*
X150063333Y-115232866D01*
X150217834Y-115345118D01*
X150392298Y-115422794D01*
X150579099Y-115462500D01*
X150679409Y-115462500D01*
X150746448Y-115482185D01*
X150792203Y-115534989D01*
X150802147Y-115604147D01*
X150797340Y-115624818D01*
X150749428Y-115772276D01*
X150744458Y-115787572D01*
X150724496Y-115977500D01*
X150744458Y-116167428D01*
X150744459Y-116167431D01*
X150803470Y-116349049D01*
X150803473Y-116349056D01*
X150898960Y-116514444D01*
X151026747Y-116656366D01*
X151181248Y-116768618D01*
X151355712Y-116846294D01*
X151542513Y-116886000D01*
X151733487Y-116886000D01*
X151920288Y-116846294D01*
X151973037Y-116822808D01*
X152042283Y-116813523D01*
X152105560Y-116843151D01*
X152142774Y-116902285D01*
X152146791Y-116923126D01*
X152151213Y-116965193D01*
X152161958Y-117067428D01*
X152161959Y-117067431D01*
X152220970Y-117249049D01*
X152220973Y-117249056D01*
X152316460Y-117414444D01*
X152444247Y-117556366D01*
X152598748Y-117668618D01*
X152773212Y-117746294D01*
X152960013Y-117786000D01*
X153150987Y-117786000D01*
X153337788Y-117746294D01*
X153512252Y-117668618D01*
X153666753Y-117556366D01*
X153794540Y-117414444D01*
X153890027Y-117249056D01*
X153949042Y-117067428D01*
X153949042Y-117067420D01*
X153950392Y-117061075D01*
X153952588Y-117061541D01*
X153975215Y-117006493D01*
X154032499Y-116966489D01*
X154097759Y-116962746D01*
X154209513Y-116986500D01*
X154400486Y-116986500D01*
X154400487Y-116986500D01*
X154525731Y-116959878D01*
X154595394Y-116965193D01*
X154651128Y-117007330D01*
X154675234Y-117072910D01*
X154674830Y-117094129D01*
X154671129Y-117129345D01*
X154661496Y-117221000D01*
X154681458Y-117410928D01*
X154681459Y-117410931D01*
X154740470Y-117592549D01*
X154740473Y-117592556D01*
X154835960Y-117757944D01*
X154963747Y-117899866D01*
X155118248Y-118012118D01*
X155292712Y-118089794D01*
X155479513Y-118129500D01*
X155670487Y-118129500D01*
X155857288Y-118089794D01*
X156031752Y-118012118D01*
X156186253Y-117899866D01*
X156314040Y-117757944D01*
X156409527Y-117592556D01*
X156468542Y-117410928D01*
X156488504Y-117221000D01*
X156468542Y-117031072D01*
X156409527Y-116849444D01*
X156314040Y-116684056D01*
X156186253Y-116542134D01*
X156031752Y-116429882D01*
X155857288Y-116352206D01*
X155857286Y-116352205D01*
X155670487Y-116312500D01*
X155479513Y-116312500D01*
X155479512Y-116312500D01*
X155354270Y-116339120D01*
X155284603Y-116333804D01*
X155228870Y-116291666D01*
X155204765Y-116226086D01*
X155205168Y-116204877D01*
X155218504Y-116078000D01*
X155198542Y-115888072D01*
X155139527Y-115706444D01*
X155044040Y-115541056D01*
X154916253Y-115399134D01*
X154761752Y-115286882D01*
X154587288Y-115209206D01*
X154587286Y-115209205D01*
X154400487Y-115169500D01*
X154209513Y-115169500D01*
X154022714Y-115209205D01*
X153848246Y-115286883D01*
X153693745Y-115399135D01*
X153565959Y-115541057D01*
X153470473Y-115706443D01*
X153470470Y-115706450D01*
X153411459Y-115888067D01*
X153410108Y-115894426D01*
X153407926Y-115893962D01*
X153385228Y-115949074D01*
X153327917Y-115989038D01*
X153262740Y-115992753D01*
X153150988Y-115969000D01*
X153150987Y-115969000D01*
X152960013Y-115969000D01*
X152773214Y-116008705D01*
X152720461Y-116032191D01*
X152651210Y-116041474D01*
X152587935Y-116011844D01*
X152550723Y-115952708D01*
X152546709Y-115931885D01*
X152531542Y-115787572D01*
X152472527Y-115605944D01*
X152377040Y-115440556D01*
X152249253Y-115298634D01*
X152094752Y-115186382D01*
X151920288Y-115108706D01*
X151920286Y-115108705D01*
X151733487Y-115069000D01*
X151633177Y-115069000D01*
X151566138Y-115049315D01*
X151520383Y-114996511D01*
X151510439Y-114927353D01*
X151515246Y-114906682D01*
X151530488Y-114859768D01*
X151568128Y-114743928D01*
X151588090Y-114554000D01*
X151568128Y-114364072D01*
X151509113Y-114182444D01*
X151413626Y-114017056D01*
X151285839Y-113875134D01*
X151131338Y-113762882D01*
X150956874Y-113685206D01*
X150956872Y-113685205D01*
X150770072Y-113645499D01*
X150763606Y-113644820D01*
X150763815Y-113642831D01*
X150705865Y-113625815D01*
X150660110Y-113573011D01*
X150650166Y-113503853D01*
X150665517Y-113459500D01*
X150702447Y-113395535D01*
X150732027Y-113344301D01*
X150791042Y-113162673D01*
X150811004Y-112972745D01*
X150791042Y-112782817D01*
X150732027Y-112601189D01*
X150636540Y-112435801D01*
X150508753Y-112293879D01*
X150354252Y-112181627D01*
X150179788Y-112103951D01*
X150179786Y-112103950D01*
X149992987Y-112064245D01*
X149802013Y-112064245D01*
X149615214Y-112103950D01*
X149541400Y-112136814D01*
X149441263Y-112181398D01*
X149440746Y-112181628D01*
X149286245Y-112293880D01*
X149158459Y-112435802D01*
X149062973Y-112601188D01*
X149062970Y-112601195D01*
X149010059Y-112764040D01*
X149003958Y-112782817D01*
X148983996Y-112972745D01*
X143603551Y-112972745D01*
X143588083Y-112825572D01*
X143529068Y-112643944D01*
X143433581Y-112478556D01*
X143305794Y-112336634D01*
X143151293Y-112224382D01*
X142976829Y-112146706D01*
X142976827Y-112146705D01*
X142790028Y-112107000D01*
X142599054Y-112107000D01*
X142412255Y-112146705D01*
X142325020Y-112185543D01*
X142248272Y-112219715D01*
X142237787Y-112224383D01*
X142083286Y-112336635D01*
X141955500Y-112478557D01*
X141860014Y-112643943D01*
X141860011Y-112643950D01*
X141801000Y-112825568D01*
X141800999Y-112825572D01*
X141781037Y-113015500D01*
X141375504Y-113015500D01*
X141355542Y-112825572D01*
X141296527Y-112643944D01*
X141201040Y-112478556D01*
X141073253Y-112336634D01*
X140918752Y-112224382D01*
X140744288Y-112146706D01*
X140744286Y-112146705D01*
X140557487Y-112107000D01*
X140366513Y-112107000D01*
X140179714Y-112146705D01*
X140092480Y-112185543D01*
X140015731Y-112219715D01*
X140005246Y-112224383D01*
X139850745Y-112336635D01*
X139722959Y-112478557D01*
X139627473Y-112643943D01*
X139627470Y-112643950D01*
X139568459Y-112825568D01*
X139568458Y-112825572D01*
X139548496Y-113015500D01*
X138983943Y-113015500D01*
X138892252Y-112948882D01*
X138717788Y-112871206D01*
X138717786Y-112871205D01*
X138530987Y-112831500D01*
X138340013Y-112831500D01*
X138153214Y-112871205D01*
X137978746Y-112948883D01*
X137824245Y-113061135D01*
X137696459Y-113203057D01*
X137600973Y-113368443D01*
X137600970Y-113368450D01*
X137541959Y-113550068D01*
X137541958Y-113550072D01*
X137521996Y-113740000D01*
X136310758Y-113740000D01*
X136295479Y-113724836D01*
X136280371Y-113656619D01*
X136304541Y-113591064D01*
X136345070Y-113555945D01*
X136355922Y-113550072D01*
X136381576Y-113536189D01*
X136559240Y-113397906D01*
X136666975Y-113280876D01*
X136711715Y-113232276D01*
X136711716Y-113232274D01*
X136711722Y-113232268D01*
X136834860Y-113043791D01*
X136925296Y-112837616D01*
X136980564Y-112619368D01*
X136982070Y-112601195D01*
X136999156Y-112395005D01*
X136999156Y-112394994D01*
X136980565Y-112170640D01*
X136980563Y-112170628D01*
X136965731Y-112112057D01*
X136925296Y-111952384D01*
X136834860Y-111746209D01*
X136711722Y-111557732D01*
X136711719Y-111557729D01*
X136711715Y-111557723D01*
X136559243Y-111392097D01*
X136559238Y-111392092D01*
X136381577Y-111253812D01*
X136381578Y-111253812D01*
X136381576Y-111253811D01*
X136345070Y-111234055D01*
X136295479Y-111184836D01*
X136280371Y-111116619D01*
X136304541Y-111051064D01*
X136345070Y-111015945D01*
X136345084Y-111015936D01*
X136378229Y-110998000D01*
X145479996Y-110998000D01*
X145499958Y-111187928D01*
X145499959Y-111187931D01*
X145558970Y-111369549D01*
X145558973Y-111369556D01*
X145654460Y-111534944D01*
X145782247Y-111676866D01*
X145936748Y-111789118D01*
X146111212Y-111866794D01*
X146298013Y-111906500D01*
X146488987Y-111906500D01*
X146675788Y-111866794D01*
X146850252Y-111789118D01*
X147004753Y-111676866D01*
X147023607Y-111655925D01*
X147083094Y-111619277D01*
X147152951Y-111620606D01*
X147207908Y-111655925D01*
X147226761Y-111676864D01*
X147274247Y-111729602D01*
X147428748Y-111841854D01*
X147603212Y-111919530D01*
X147790013Y-111959236D01*
X147980987Y-111959236D01*
X148167788Y-111919530D01*
X148342252Y-111841854D01*
X148496753Y-111729602D01*
X148624540Y-111587680D01*
X148720027Y-111422292D01*
X148779042Y-111240664D01*
X148799004Y-111050736D01*
X148779042Y-110860808D01*
X148720027Y-110679180D01*
X148624540Y-110513792D01*
X148496753Y-110371870D01*
X148342252Y-110259618D01*
X148167788Y-110181942D01*
X148167786Y-110181941D01*
X147980987Y-110142236D01*
X147790013Y-110142236D01*
X147603214Y-110181941D01*
X147428746Y-110259619D01*
X147274244Y-110371872D01*
X147274240Y-110371875D01*
X147255390Y-110392811D01*
X147195903Y-110429459D01*
X147126046Y-110428128D01*
X147071091Y-110392810D01*
X147004754Y-110319135D01*
X146922837Y-110259618D01*
X146850252Y-110206882D01*
X146675788Y-110129206D01*
X146675786Y-110129205D01*
X146488987Y-110089500D01*
X146298013Y-110089500D01*
X146111214Y-110129205D01*
X146111211Y-110129206D01*
X146111212Y-110129206D01*
X145992765Y-110181942D01*
X145936746Y-110206883D01*
X145782245Y-110319135D01*
X145654459Y-110461057D01*
X145558973Y-110626443D01*
X145558970Y-110626450D01*
X145502902Y-110799010D01*
X145499958Y-110808072D01*
X145487877Y-110923015D01*
X145480187Y-110996187D01*
X145479996Y-110998000D01*
X136378229Y-110998000D01*
X136381576Y-110996189D01*
X136559240Y-110857906D01*
X136658614Y-110749957D01*
X136711715Y-110692276D01*
X136711716Y-110692274D01*
X136711722Y-110692268D01*
X136834860Y-110503791D01*
X136925296Y-110297616D01*
X136980564Y-110079368D01*
X136980565Y-110079359D01*
X136999156Y-109855005D01*
X136999156Y-109854994D01*
X136988633Y-109728000D01*
X141782037Y-109728000D01*
X141801999Y-109917928D01*
X141802000Y-109917931D01*
X141861011Y-110099549D01*
X141861014Y-110099556D01*
X141956501Y-110264944D01*
X142084288Y-110406866D01*
X142238789Y-110519118D01*
X142413253Y-110596794D01*
X142600054Y-110636500D01*
X142791028Y-110636500D01*
X142977829Y-110596794D01*
X143152293Y-110519118D01*
X143306794Y-110406866D01*
X143434581Y-110264944D01*
X143530068Y-110099556D01*
X143589083Y-109917928D01*
X143609045Y-109728000D01*
X143589083Y-109538072D01*
X143530068Y-109356444D01*
X143434581Y-109191056D01*
X143306794Y-109049134D01*
X143152293Y-108936882D01*
X142977829Y-108859206D01*
X142977827Y-108859205D01*
X142791028Y-108819500D01*
X142600054Y-108819500D01*
X142413255Y-108859205D01*
X142238787Y-108936883D01*
X142084286Y-109049135D01*
X141956500Y-109191057D01*
X141861014Y-109356443D01*
X141861011Y-109356450D01*
X141817878Y-109489201D01*
X141801999Y-109538072D01*
X141782037Y-109728000D01*
X136988633Y-109728000D01*
X136980565Y-109630640D01*
X136980563Y-109630628D01*
X136977876Y-109620018D01*
X136925296Y-109412384D01*
X136834860Y-109206209D01*
X136806149Y-109162264D01*
X136760897Y-109093000D01*
X136711722Y-109017732D01*
X136711719Y-109017729D01*
X136711715Y-109017723D01*
X136559243Y-108852097D01*
X136559238Y-108852092D01*
X136381577Y-108713812D01*
X136381572Y-108713808D01*
X136345068Y-108694053D01*
X136295478Y-108644833D01*
X136281276Y-108580701D01*
X139552795Y-108580701D01*
X139572757Y-108770629D01*
X139572758Y-108770632D01*
X139631769Y-108952250D01*
X139631772Y-108952257D01*
X139727259Y-109117645D01*
X139855046Y-109259567D01*
X140009547Y-109371819D01*
X140184011Y-109449495D01*
X140370812Y-109489201D01*
X140561786Y-109489201D01*
X140748587Y-109449495D01*
X140923051Y-109371819D01*
X141077552Y-109259567D01*
X141205339Y-109117645D01*
X141300826Y-108952257D01*
X141359841Y-108770629D01*
X141379803Y-108580701D01*
X141369576Y-108483400D01*
X146558896Y-108483400D01*
X146578858Y-108673328D01*
X146578859Y-108673331D01*
X146637870Y-108854949D01*
X146637873Y-108854956D01*
X146733360Y-109020344D01*
X146861147Y-109162266D01*
X147015648Y-109274518D01*
X147190112Y-109352194D01*
X147376913Y-109391900D01*
X147567887Y-109391900D01*
X147754688Y-109352194D01*
X147929152Y-109274518D01*
X148083653Y-109162266D01*
X148211440Y-109020344D01*
X148306927Y-108854956D01*
X148365942Y-108673328D01*
X148385904Y-108483400D01*
X148365942Y-108293472D01*
X148306927Y-108111844D01*
X148211440Y-107946456D01*
X148083653Y-107804534D01*
X147929152Y-107692282D01*
X147754688Y-107614606D01*
X147754686Y-107614605D01*
X147567887Y-107574900D01*
X147376913Y-107574900D01*
X147190114Y-107614605D01*
X147190111Y-107614606D01*
X147190112Y-107614606D01*
X147026515Y-107687444D01*
X147015646Y-107692283D01*
X146861145Y-107804535D01*
X146733359Y-107946457D01*
X146637873Y-108111843D01*
X146637870Y-108111850D01*
X146595197Y-108243185D01*
X146578858Y-108293472D01*
X146558896Y-108483400D01*
X141369576Y-108483400D01*
X141359841Y-108390773D01*
X141300826Y-108209145D01*
X141205339Y-108043757D01*
X141077552Y-107901835D01*
X140923051Y-107789583D01*
X140748587Y-107711907D01*
X140748585Y-107711906D01*
X140561786Y-107672201D01*
X140370812Y-107672201D01*
X140184013Y-107711906D01*
X140009545Y-107789584D01*
X139855044Y-107901836D01*
X139727258Y-108043758D01*
X139631772Y-108209144D01*
X139631769Y-108209151D01*
X139572758Y-108390769D01*
X139572757Y-108390773D01*
X139552795Y-108580701D01*
X136281276Y-108580701D01*
X136280371Y-108576616D01*
X136304542Y-108511061D01*
X136345069Y-108475945D01*
X136381576Y-108456189D01*
X136559240Y-108317906D01*
X136659363Y-108209144D01*
X136711715Y-108152276D01*
X136711716Y-108152274D01*
X136711722Y-108152268D01*
X136834860Y-107963791D01*
X136925296Y-107757616D01*
X136980564Y-107539368D01*
X136999156Y-107315000D01*
X148729996Y-107315000D01*
X148749958Y-107504928D01*
X148749959Y-107504931D01*
X148808970Y-107686549D01*
X148808973Y-107686556D01*
X148904460Y-107851944D01*
X149032247Y-107993866D01*
X149186748Y-108106118D01*
X149361212Y-108183794D01*
X149548013Y-108223500D01*
X149650114Y-108223500D01*
X149717153Y-108243185D01*
X149762908Y-108295989D01*
X149772852Y-108365147D01*
X149743827Y-108428703D01*
X149742264Y-108430472D01*
X149629187Y-108556057D01*
X149533701Y-108721443D01*
X149533698Y-108721450D01*
X149474687Y-108903068D01*
X149474686Y-108903072D01*
X149454724Y-109093000D01*
X149474686Y-109282928D01*
X149474687Y-109282931D01*
X149533698Y-109464549D01*
X149533701Y-109464556D01*
X149629188Y-109629944D01*
X149756975Y-109771866D01*
X149911476Y-109884118D01*
X150085940Y-109961794D01*
X150272741Y-110001500D01*
X150463715Y-110001500D01*
X150650516Y-109961794D01*
X150824980Y-109884118D01*
X150979481Y-109771866D01*
X151107268Y-109629944D01*
X151202755Y-109464556D01*
X151261770Y-109282928D01*
X151281732Y-109093000D01*
X151261770Y-108903072D01*
X151202755Y-108721444D01*
X151107268Y-108556056D01*
X150979481Y-108414134D01*
X150824980Y-108301882D01*
X150650516Y-108224206D01*
X150650514Y-108224205D01*
X150463715Y-108184500D01*
X150361614Y-108184500D01*
X150294575Y-108164815D01*
X150248820Y-108112011D01*
X150238876Y-108042853D01*
X150267901Y-107979297D01*
X150269464Y-107977528D01*
X150359247Y-107877813D01*
X150418733Y-107841164D01*
X150488590Y-107842494D01*
X150524278Y-107860464D01*
X150635976Y-107941618D01*
X150810440Y-108019294D01*
X150997241Y-108059000D01*
X151188215Y-108059000D01*
X151375016Y-108019294D01*
X151549480Y-107941618D01*
X151703981Y-107829366D01*
X151831768Y-107687444D01*
X151927255Y-107522056D01*
X151986270Y-107340428D01*
X151988943Y-107315000D01*
X154306996Y-107315000D01*
X154326958Y-107504928D01*
X154326959Y-107504931D01*
X154385970Y-107686549D01*
X154385973Y-107686556D01*
X154481460Y-107851944D01*
X154609247Y-107993866D01*
X154763748Y-108106118D01*
X154938212Y-108183794D01*
X155125013Y-108223500D01*
X155315987Y-108223500D01*
X155502788Y-108183794D01*
X155677252Y-108106118D01*
X155831753Y-107993866D01*
X155959540Y-107851944D01*
X156055027Y-107686556D01*
X156114042Y-107504928D01*
X156134004Y-107315000D01*
X156114042Y-107125072D01*
X156055027Y-106943444D01*
X155959540Y-106778056D01*
X155831753Y-106636134D01*
X155677252Y-106523882D01*
X155502788Y-106446206D01*
X155502786Y-106446205D01*
X155315987Y-106406500D01*
X155125013Y-106406500D01*
X154938214Y-106446205D01*
X154763746Y-106523883D01*
X154609245Y-106636135D01*
X154481459Y-106778057D01*
X154385973Y-106943443D01*
X154385970Y-106943450D01*
X154326959Y-107125068D01*
X154326958Y-107125072D01*
X154306996Y-107315000D01*
X151988943Y-107315000D01*
X152006232Y-107150500D01*
X151986270Y-106960572D01*
X151927255Y-106778944D01*
X151831768Y-106613556D01*
X151716709Y-106485769D01*
X151703982Y-106471635D01*
X151681049Y-106454973D01*
X151578637Y-106380566D01*
X151535974Y-106325238D01*
X151529995Y-106255625D01*
X151562601Y-106193830D01*
X151578634Y-106179936D01*
X151703981Y-106088866D01*
X151831768Y-105946944D01*
X151927255Y-105781556D01*
X151986270Y-105599928D01*
X152006232Y-105410000D01*
X151986270Y-105220072D01*
X151927255Y-105038444D01*
X151831768Y-104873056D01*
X151703981Y-104731134D01*
X151549480Y-104618882D01*
X151375016Y-104541206D01*
X151375014Y-104541205D01*
X151188215Y-104501500D01*
X150997241Y-104501500D01*
X150810442Y-104541205D01*
X150635974Y-104618883D01*
X150481473Y-104731135D01*
X150353687Y-104873057D01*
X150258201Y-105038443D01*
X150258198Y-105038450D01*
X150199984Y-105217616D01*
X150199186Y-105220072D01*
X150179224Y-105410000D01*
X150199186Y-105599928D01*
X150199187Y-105599931D01*
X150258198Y-105781549D01*
X150258201Y-105781556D01*
X150353688Y-105946944D01*
X150481475Y-106088866D01*
X150503456Y-106104836D01*
X150606816Y-106179932D01*
X150649481Y-106235262D01*
X150655460Y-106304876D01*
X150622854Y-106366671D01*
X150606816Y-106380568D01*
X150481473Y-106471635D01*
X150376981Y-106587686D01*
X150317494Y-106624335D01*
X150247637Y-106623004D01*
X150211946Y-106605032D01*
X150100256Y-106523884D01*
X149996601Y-106477734D01*
X149925788Y-106446206D01*
X149925786Y-106446205D01*
X149738987Y-106406500D01*
X149548013Y-106406500D01*
X149361214Y-106446205D01*
X149186746Y-106523883D01*
X149032245Y-106636135D01*
X148904459Y-106778057D01*
X148808973Y-106943443D01*
X148808970Y-106943450D01*
X148749959Y-107125068D01*
X148749958Y-107125072D01*
X148729996Y-107315000D01*
X136999156Y-107315000D01*
X136980564Y-107090632D01*
X136925296Y-106872384D01*
X136834860Y-106666209D01*
X136807502Y-106624335D01*
X136773291Y-106571970D01*
X136711722Y-106477732D01*
X136711719Y-106477729D01*
X136711715Y-106477723D01*
X136559243Y-106312097D01*
X136559238Y-106312092D01*
X136381577Y-106173812D01*
X136381578Y-106173812D01*
X136381576Y-106173811D01*
X136345070Y-106154055D01*
X136295479Y-106104836D01*
X136280371Y-106036619D01*
X136304541Y-105971064D01*
X136345070Y-105935945D01*
X136345084Y-105935936D01*
X136381576Y-105916189D01*
X136559240Y-105777906D01*
X136658614Y-105669957D01*
X136711715Y-105612276D01*
X136711716Y-105612274D01*
X136711722Y-105612268D01*
X136834860Y-105423791D01*
X136925296Y-105217616D01*
X136980564Y-104999368D01*
X136980565Y-104999359D01*
X136988633Y-104902000D01*
X140056496Y-104902000D01*
X140076458Y-105091928D01*
X140076459Y-105091931D01*
X140135470Y-105273549D01*
X140135473Y-105273556D01*
X140230960Y-105438944D01*
X140358747Y-105580866D01*
X140513248Y-105693118D01*
X140687712Y-105770794D01*
X140874513Y-105810500D01*
X141065487Y-105810500D01*
X141252288Y-105770794D01*
X141426752Y-105693118D01*
X141581253Y-105580866D01*
X141709040Y-105438944D01*
X141804527Y-105273556D01*
X141863542Y-105091928D01*
X141883504Y-104902000D01*
X141863542Y-104712072D01*
X141804527Y-104530444D01*
X141709040Y-104365056D01*
X141581253Y-104223134D01*
X141426752Y-104110882D01*
X141252288Y-104033206D01*
X141252286Y-104033205D01*
X141157228Y-104013000D01*
X143485496Y-104013000D01*
X143505458Y-104202928D01*
X143505459Y-104202931D01*
X143564470Y-104384549D01*
X143564473Y-104384556D01*
X143659960Y-104549944D01*
X143787747Y-104691866D01*
X143942248Y-104804118D01*
X144116712Y-104881794D01*
X144303513Y-104921500D01*
X144494487Y-104921500D01*
X144681288Y-104881794D01*
X144855752Y-104804118D01*
X145010253Y-104691866D01*
X145138040Y-104549944D01*
X145233527Y-104384556D01*
X145292542Y-104202928D01*
X145312504Y-104013000D01*
X145292542Y-103823072D01*
X145254020Y-103704517D01*
X145252026Y-103634679D01*
X145288106Y-103574846D01*
X145321517Y-103552921D01*
X145363752Y-103534118D01*
X145518253Y-103421866D01*
X145646040Y-103279944D01*
X145741527Y-103114556D01*
X145800542Y-102932928D01*
X145820504Y-102743000D01*
X145800542Y-102553072D01*
X145775153Y-102474937D01*
X145773159Y-102405096D01*
X145809239Y-102345263D01*
X145820200Y-102336301D01*
X145824665Y-102333057D01*
X145899253Y-102278866D01*
X146027040Y-102136944D01*
X146122527Y-101971556D01*
X146181542Y-101789928D01*
X146201504Y-101600000D01*
X146181542Y-101410072D01*
X146122527Y-101228444D01*
X146027040Y-101063056D01*
X145899253Y-100921134D01*
X145744752Y-100808882D01*
X145570288Y-100731206D01*
X145570286Y-100731205D01*
X145383487Y-100691500D01*
X145192513Y-100691500D01*
X145005714Y-100731205D01*
X144831246Y-100808883D01*
X144676745Y-100921135D01*
X144548959Y-101063057D01*
X144453473Y-101228443D01*
X144453470Y-101228450D01*
X144398467Y-101397734D01*
X144394458Y-101410072D01*
X144374496Y-101600000D01*
X144394458Y-101789928D01*
X144394459Y-101789931D01*
X144419845Y-101868061D01*
X144421840Y-101937902D01*
X144385760Y-101997735D01*
X144374801Y-102006696D01*
X144295746Y-102064134D01*
X144167959Y-102206057D01*
X144072473Y-102371443D01*
X144072470Y-102371450D01*
X144024501Y-102519085D01*
X144013458Y-102553072D01*
X143993496Y-102743000D01*
X144013458Y-102932928D01*
X144013459Y-102932931D01*
X144051978Y-103051480D01*
X144053973Y-103121321D01*
X144017893Y-103181154D01*
X143984484Y-103203077D01*
X143942247Y-103221882D01*
X143787745Y-103334135D01*
X143659959Y-103476057D01*
X143564473Y-103641443D01*
X143564470Y-103641450D01*
X143505459Y-103823068D01*
X143505458Y-103823072D01*
X143495799Y-103914973D01*
X143487546Y-103993500D01*
X143485496Y-104013000D01*
X141157228Y-104013000D01*
X141065487Y-103993500D01*
X140874513Y-103993500D01*
X140687714Y-104033205D01*
X140513246Y-104110883D01*
X140358745Y-104223135D01*
X140230959Y-104365057D01*
X140135473Y-104530443D01*
X140135470Y-104530450D01*
X140106737Y-104618883D01*
X140076458Y-104712072D01*
X140056496Y-104902000D01*
X136988633Y-104902000D01*
X136999156Y-104775005D01*
X136999156Y-104774994D01*
X136980565Y-104550640D01*
X136980563Y-104550628D01*
X136968122Y-104501500D01*
X136925296Y-104332384D01*
X136834860Y-104126209D01*
X136834857Y-104126205D01*
X136720366Y-103950963D01*
X136711722Y-103937732D01*
X136711719Y-103937729D01*
X136711715Y-103937723D01*
X136559243Y-103772097D01*
X136559238Y-103772092D01*
X136381577Y-103633812D01*
X136381572Y-103633808D01*
X136345068Y-103614053D01*
X136295478Y-103564833D01*
X136280371Y-103496616D01*
X136304542Y-103431061D01*
X136345069Y-103395945D01*
X136381576Y-103376189D01*
X136559240Y-103237906D01*
X136672799Y-103114549D01*
X136711715Y-103072276D01*
X136711716Y-103072274D01*
X136711722Y-103072268D01*
X136834860Y-102883791D01*
X136840909Y-102870000D01*
X139294496Y-102870000D01*
X139314458Y-103059928D01*
X139314459Y-103059931D01*
X139373470Y-103241549D01*
X139373472Y-103241553D01*
X139373473Y-103241556D01*
X139468960Y-103406944D01*
X139596747Y-103548866D01*
X139751248Y-103661118D01*
X139925712Y-103738794D01*
X140112513Y-103778500D01*
X140303487Y-103778500D01*
X140490288Y-103738794D01*
X140664752Y-103661118D01*
X140819253Y-103548866D01*
X140947040Y-103406944D01*
X141042527Y-103241556D01*
X141101542Y-103059928D01*
X141121504Y-102870000D01*
X141101542Y-102680072D01*
X141042527Y-102498444D01*
X140947040Y-102333056D01*
X140819253Y-102191134D01*
X140664752Y-102078882D01*
X140490288Y-102001206D01*
X140490286Y-102001205D01*
X140303487Y-101961500D01*
X140112513Y-101961500D01*
X139925714Y-102001205D01*
X139751246Y-102078883D01*
X139596745Y-102191135D01*
X139468959Y-102333057D01*
X139373473Y-102498443D01*
X139373470Y-102498450D01*
X139315256Y-102677616D01*
X139314458Y-102680072D01*
X139294496Y-102870000D01*
X136840909Y-102870000D01*
X136925296Y-102677616D01*
X136980564Y-102459368D01*
X136983577Y-102423007D01*
X136999156Y-102235005D01*
X136999156Y-102234994D01*
X136980565Y-102010640D01*
X136980563Y-102010628D01*
X136963088Y-101941621D01*
X136925296Y-101792384D01*
X136834860Y-101586209D01*
X136803386Y-101538035D01*
X136719781Y-101410068D01*
X136711722Y-101397732D01*
X136711719Y-101397729D01*
X136711715Y-101397723D01*
X136559243Y-101232097D01*
X136559238Y-101232092D01*
X136381577Y-101093812D01*
X136381578Y-101093812D01*
X136381576Y-101093811D01*
X136345070Y-101074055D01*
X136295479Y-101024836D01*
X136280371Y-100956619D01*
X136304541Y-100891064D01*
X136345070Y-100855945D01*
X136345084Y-100855936D01*
X136381576Y-100836189D01*
X136559240Y-100697906D01*
X136658614Y-100589957D01*
X136711715Y-100532276D01*
X136711716Y-100532274D01*
X136711722Y-100532268D01*
X136834860Y-100343791D01*
X136925296Y-100137616D01*
X136980564Y-99919368D01*
X136984719Y-99869224D01*
X136999156Y-99695005D01*
X136999156Y-99694994D01*
X136980565Y-99470640D01*
X136980563Y-99470628D01*
X136931378Y-99276401D01*
X136933256Y-99226425D01*
X136906745Y-99204747D01*
X136895548Y-99184565D01*
X136834860Y-99046209D01*
X136789555Y-98976864D01*
X136711722Y-98857732D01*
X136711719Y-98857729D01*
X136711715Y-98857723D01*
X136657244Y-98798553D01*
X137071996Y-98798553D01*
X137091958Y-98988481D01*
X137091959Y-98988484D01*
X137127035Y-99096438D01*
X137128713Y-99155196D01*
X137158344Y-99182888D01*
X137158926Y-99183885D01*
X137246460Y-99335497D01*
X137374247Y-99477419D01*
X137528748Y-99589671D01*
X137700713Y-99666234D01*
X137753950Y-99711484D01*
X137774272Y-99778333D01*
X137773598Y-99792474D01*
X137770496Y-99822000D01*
X137790458Y-100011928D01*
X137790459Y-100011931D01*
X137849470Y-100193549D01*
X137849473Y-100193556D01*
X137899446Y-100280112D01*
X137915919Y-100348013D01*
X137893066Y-100414039D01*
X137864947Y-100442428D01*
X137824748Y-100471635D01*
X137824746Y-100471637D01*
X137696959Y-100613560D01*
X137601473Y-100778946D01*
X137601470Y-100778953D01*
X137548057Y-100943342D01*
X137542458Y-100960575D01*
X137522496Y-101150503D01*
X137542458Y-101340431D01*
X137542459Y-101340434D01*
X137601470Y-101522052D01*
X137601473Y-101522059D01*
X137696960Y-101687447D01*
X137824747Y-101829369D01*
X137979248Y-101941621D01*
X138153712Y-102019297D01*
X138340513Y-102059003D01*
X138531487Y-102059003D01*
X138718288Y-102019297D01*
X138892752Y-101941621D01*
X139047253Y-101829369D01*
X139175040Y-101687447D01*
X139270527Y-101522059D01*
X139329542Y-101340431D01*
X139349504Y-101150503D01*
X139329542Y-100960575D01*
X139270527Y-100778947D01*
X139220551Y-100692387D01*
X139204079Y-100624489D01*
X139226931Y-100558462D01*
X139255049Y-100530075D01*
X139295253Y-100500866D01*
X139334750Y-100457000D01*
X142234896Y-100457000D01*
X142254858Y-100646928D01*
X142254859Y-100646931D01*
X142313870Y-100828549D01*
X142313873Y-100828556D01*
X142409360Y-100993944D01*
X142537147Y-101135866D01*
X142691648Y-101248118D01*
X142866112Y-101325794D01*
X143052913Y-101365500D01*
X143243887Y-101365500D01*
X143430688Y-101325794D01*
X143605152Y-101248118D01*
X143759653Y-101135866D01*
X143887440Y-100993944D01*
X143982927Y-100828556D01*
X144041942Y-100646928D01*
X144061904Y-100457000D01*
X144041942Y-100267072D01*
X143982927Y-100085444D01*
X143887440Y-99920056D01*
X143841672Y-99869225D01*
X149389905Y-99869225D01*
X149409867Y-100059153D01*
X149409868Y-100059156D01*
X149468879Y-100240774D01*
X149468882Y-100240781D01*
X149564369Y-100406169D01*
X149692156Y-100548091D01*
X149846657Y-100660343D01*
X150021121Y-100738019D01*
X150207922Y-100777725D01*
X150398895Y-100777725D01*
X150398896Y-100777725D01*
X150527034Y-100750488D01*
X150596700Y-100755804D01*
X150652433Y-100797940D01*
X150676539Y-100863520D01*
X150661362Y-100931722D01*
X150625700Y-100972095D01*
X150519716Y-101049098D01*
X150519712Y-101049101D01*
X150391925Y-101191024D01*
X150296439Y-101356410D01*
X150296436Y-101356417D01*
X150242616Y-101522059D01*
X150237424Y-101538039D01*
X150217462Y-101727967D01*
X150237424Y-101917895D01*
X150237425Y-101917898D01*
X150296436Y-102099516D01*
X150296439Y-102099523D01*
X150391926Y-102264911D01*
X150519713Y-102406833D01*
X150674214Y-102519085D01*
X150848678Y-102596761D01*
X151035479Y-102636467D01*
X151226453Y-102636467D01*
X151413254Y-102596761D01*
X151587718Y-102519085D01*
X151742219Y-102406833D01*
X151870006Y-102264911D01*
X151965493Y-102099523D01*
X152024508Y-101917895D01*
X152044470Y-101727967D01*
X152024508Y-101538039D01*
X151965493Y-101356411D01*
X151870006Y-101191023D01*
X151742219Y-101049101D01*
X151587718Y-100936849D01*
X151413254Y-100859173D01*
X151413252Y-100859172D01*
X151226453Y-100819467D01*
X151035479Y-100819467D01*
X150907341Y-100846703D01*
X150837673Y-100841387D01*
X150781940Y-100799250D01*
X150757835Y-100733670D01*
X150773012Y-100665468D01*
X150808674Y-100625096D01*
X150914662Y-100548091D01*
X151042449Y-100406169D01*
X151137936Y-100240781D01*
X151196951Y-100059153D01*
X151216913Y-99869225D01*
X151196951Y-99679297D01*
X151137936Y-99497669D01*
X151042449Y-99332281D01*
X150914662Y-99190359D01*
X150760161Y-99078107D01*
X150585697Y-99000431D01*
X150585695Y-99000430D01*
X150398896Y-98960725D01*
X150207922Y-98960725D01*
X150021123Y-99000430D01*
X149846655Y-99078108D01*
X149692154Y-99190360D01*
X149564368Y-99332282D01*
X149468882Y-99497668D01*
X149468879Y-99497675D01*
X149409868Y-99679293D01*
X149409867Y-99679297D01*
X149389905Y-99869225D01*
X143841672Y-99869225D01*
X143759653Y-99778134D01*
X143605152Y-99665882D01*
X143430688Y-99588206D01*
X143430686Y-99588205D01*
X143243887Y-99548500D01*
X143052913Y-99548500D01*
X142866114Y-99588205D01*
X142691646Y-99665883D01*
X142537145Y-99778135D01*
X142409359Y-99920057D01*
X142313873Y-100085443D01*
X142313870Y-100085450D01*
X142254859Y-100267068D01*
X142254858Y-100267072D01*
X142234896Y-100457000D01*
X139334750Y-100457000D01*
X139423040Y-100358944D01*
X139518527Y-100193556D01*
X139577542Y-100011928D01*
X139597504Y-99822000D01*
X139577542Y-99632072D01*
X139518527Y-99450444D01*
X139423040Y-99285056D01*
X139295253Y-99143134D01*
X139140752Y-99030882D01*
X138968784Y-98954317D01*
X138915548Y-98909067D01*
X138895227Y-98842218D01*
X138895901Y-98828074D01*
X138899004Y-98798556D01*
X138899004Y-98798555D01*
X138895471Y-98764938D01*
X138879042Y-98608625D01*
X138820027Y-98426997D01*
X138724540Y-98261609D01*
X138596753Y-98119687D01*
X138442252Y-98007435D01*
X138267788Y-97929759D01*
X138267786Y-97929758D01*
X138080987Y-97890053D01*
X137890013Y-97890053D01*
X137703214Y-97929758D01*
X137528746Y-98007436D01*
X137374245Y-98119688D01*
X137246459Y-98261610D01*
X137150973Y-98426996D01*
X137150970Y-98427003D01*
X137091959Y-98608621D01*
X137091958Y-98608625D01*
X137071996Y-98798553D01*
X136657244Y-98798553D01*
X136559243Y-98692097D01*
X136559238Y-98692092D01*
X136381577Y-98553812D01*
X136381578Y-98553812D01*
X136381576Y-98553811D01*
X136345070Y-98534055D01*
X136295479Y-98484836D01*
X136280371Y-98416619D01*
X136304541Y-98351064D01*
X136345070Y-98315945D01*
X136345084Y-98315936D01*
X136381576Y-98296189D01*
X136559240Y-98157906D01*
X136662643Y-98045582D01*
X136711715Y-97992276D01*
X136711716Y-97992274D01*
X136711722Y-97992268D01*
X136834860Y-97803791D01*
X136925296Y-97597616D01*
X136940423Y-97537879D01*
X136975962Y-97477724D01*
X137038382Y-97446331D01*
X137107866Y-97453669D01*
X137111026Y-97455023D01*
X137258712Y-97520777D01*
X137445513Y-97560483D01*
X137636487Y-97560483D01*
X137823288Y-97520777D01*
X137997752Y-97443101D01*
X138152253Y-97330849D01*
X138188365Y-97290743D01*
X140332105Y-97290743D01*
X140352067Y-97480671D01*
X140352068Y-97480674D01*
X140411079Y-97662292D01*
X140411082Y-97662299D01*
X140506569Y-97827687D01*
X140634356Y-97969609D01*
X140788857Y-98081861D01*
X140963321Y-98159537D01*
X141150122Y-98199243D01*
X141341096Y-98199243D01*
X141527897Y-98159537D01*
X141702361Y-98081861D01*
X141856862Y-97969609D01*
X141984649Y-97827687D01*
X142080136Y-97662299D01*
X142139151Y-97480671D01*
X142159113Y-97290743D01*
X142139151Y-97100815D01*
X142080136Y-96919187D01*
X141984649Y-96753799D01*
X141869590Y-96626012D01*
X141856863Y-96611878D01*
X141790781Y-96563866D01*
X141702361Y-96499625D01*
X141527897Y-96421949D01*
X141527895Y-96421948D01*
X141341096Y-96382243D01*
X141150122Y-96382243D01*
X140963323Y-96421948D01*
X140788855Y-96499626D01*
X140634354Y-96611878D01*
X140506568Y-96753800D01*
X140411082Y-96919186D01*
X140411079Y-96919193D01*
X140369390Y-97047500D01*
X140352067Y-97100815D01*
X140332105Y-97290743D01*
X138188365Y-97290743D01*
X138280040Y-97188927D01*
X138375527Y-97023539D01*
X138434542Y-96841911D01*
X138454504Y-96651983D01*
X138434542Y-96462055D01*
X138375527Y-96280427D01*
X138280040Y-96115039D01*
X138152253Y-95973117D01*
X138030971Y-95885000D01*
X137997755Y-95860867D01*
X137997754Y-95860866D01*
X137997752Y-95860865D01*
X137823288Y-95783189D01*
X137823286Y-95783188D01*
X137823285Y-95783188D01*
X137780345Y-95774061D01*
X137718863Y-95740869D01*
X137685087Y-95679706D01*
X137682808Y-95665751D01*
X137672542Y-95568072D01*
X137613527Y-95386444D01*
X137588389Y-95342905D01*
X137571918Y-95275006D01*
X137594771Y-95208979D01*
X137603615Y-95197950D01*
X137621375Y-95178226D01*
X142549869Y-95178226D01*
X142569831Y-95368154D01*
X142569832Y-95368157D01*
X142628843Y-95549775D01*
X142628846Y-95549782D01*
X142724333Y-95715170D01*
X142852120Y-95857092D01*
X143006621Y-95969344D01*
X143181085Y-96047020D01*
X143367886Y-96086726D01*
X143367898Y-96086726D01*
X143368977Y-96086840D01*
X143369569Y-96087083D01*
X143374242Y-96088077D01*
X143374060Y-96088931D01*
X143433591Y-96113424D01*
X143473577Y-96170721D01*
X143473947Y-96171842D01*
X143501471Y-96256552D01*
X143501473Y-96256556D01*
X143596960Y-96421944D01*
X143724747Y-96563866D01*
X143879248Y-96676118D01*
X144053712Y-96753794D01*
X144240513Y-96793500D01*
X144240526Y-96793500D01*
X144242203Y-96793677D01*
X144243119Y-96794053D01*
X144246869Y-96794851D01*
X144246723Y-96795536D01*
X144306818Y-96820260D01*
X144346803Y-96877557D01*
X144349464Y-96947376D01*
X144347174Y-96955316D01*
X144294088Y-97118697D01*
X144294087Y-97118701D01*
X144274125Y-97308629D01*
X144294087Y-97498557D01*
X144294088Y-97498560D01*
X144353099Y-97680178D01*
X144353102Y-97680185D01*
X144448589Y-97845573D01*
X144539120Y-97946118D01*
X144573160Y-97983924D01*
X144576376Y-97987495D01*
X144730877Y-98099747D01*
X144768790Y-98116627D01*
X144822025Y-98161875D01*
X144841673Y-98216941D01*
X144857107Y-98363784D01*
X144857108Y-98363787D01*
X144916119Y-98545405D01*
X144916122Y-98545412D01*
X145011609Y-98710800D01*
X145139396Y-98852722D01*
X145293897Y-98964974D01*
X145468361Y-99042650D01*
X145655162Y-99082356D01*
X145846136Y-99082356D01*
X146032937Y-99042650D01*
X146207401Y-98964974D01*
X146361902Y-98852722D01*
X146489689Y-98710800D01*
X146585176Y-98545412D01*
X146644191Y-98363784D01*
X146651105Y-98298000D01*
X147345496Y-98298000D01*
X147365458Y-98487928D01*
X147365459Y-98487931D01*
X147424470Y-98669549D01*
X147424473Y-98669556D01*
X147519960Y-98834944D01*
X147550500Y-98868862D01*
X147637037Y-98964972D01*
X147647747Y-98976866D01*
X147802248Y-99089118D01*
X147976712Y-99166794D01*
X148163513Y-99206500D01*
X148354487Y-99206500D01*
X148541288Y-99166794D01*
X148715752Y-99089118D01*
X148870253Y-98976866D01*
X148998040Y-98834944D01*
X149093527Y-98669556D01*
X149152542Y-98487928D01*
X149172504Y-98298000D01*
X149152542Y-98108072D01*
X149093527Y-97926444D01*
X148998040Y-97761056D01*
X148870253Y-97619134D01*
X148715752Y-97506882D01*
X148541288Y-97429206D01*
X148541286Y-97429205D01*
X148354487Y-97389500D01*
X148163513Y-97389500D01*
X147976714Y-97429205D01*
X147976711Y-97429206D01*
X147976712Y-97429206D01*
X147820947Y-97498557D01*
X147802246Y-97506883D01*
X147647745Y-97619135D01*
X147519959Y-97761057D01*
X147424473Y-97926443D01*
X147424470Y-97926450D01*
X147368163Y-98099747D01*
X147365458Y-98108072D01*
X147353377Y-98223015D01*
X147345687Y-98296187D01*
X147345496Y-98298000D01*
X146651105Y-98298000D01*
X146664153Y-98173856D01*
X146644191Y-97983928D01*
X146585661Y-97803792D01*
X146585178Y-97802306D01*
X146585177Y-97802305D01*
X146585176Y-97802300D01*
X146489689Y-97636912D01*
X146374630Y-97509125D01*
X146361903Y-97494991D01*
X146342193Y-97480671D01*
X146290483Y-97443101D01*
X146207403Y-97382739D01*
X146199838Y-97379371D01*
X146169486Y-97365857D01*
X146116250Y-97320605D01*
X146096604Y-97265543D01*
X146081171Y-97118701D01*
X146022156Y-96937073D01*
X145926669Y-96771685D01*
X145798882Y-96629763D01*
X145644381Y-96517511D01*
X145469917Y-96439835D01*
X145469915Y-96439834D01*
X145283118Y-96400129D01*
X145281412Y-96399950D01*
X145280491Y-96399571D01*
X145276760Y-96398778D01*
X145276905Y-96398095D01*
X145216800Y-96373359D01*
X145176820Y-96316058D01*
X145174167Y-96246239D01*
X145176444Y-96238344D01*
X145208723Y-96139000D01*
X147345496Y-96139000D01*
X147365458Y-96328928D01*
X147365459Y-96328931D01*
X147424470Y-96510549D01*
X147424473Y-96510556D01*
X147519960Y-96675944D01*
X147647747Y-96817866D01*
X147802248Y-96930118D01*
X147976712Y-97007794D01*
X148163513Y-97047500D01*
X148354487Y-97047500D01*
X148541288Y-97007794D01*
X148715752Y-96930118D01*
X148870253Y-96817866D01*
X148998040Y-96675944D01*
X149093527Y-96510556D01*
X149152542Y-96328928D01*
X149172504Y-96139000D01*
X149152542Y-95949072D01*
X149097495Y-95779658D01*
X149093529Y-95767450D01*
X149093528Y-95767449D01*
X149093527Y-95767444D01*
X148998040Y-95602056D01*
X148870253Y-95460134D01*
X148715752Y-95347882D01*
X148541288Y-95270206D01*
X148541286Y-95270205D01*
X148354487Y-95230500D01*
X148163513Y-95230500D01*
X147976714Y-95270205D01*
X147957086Y-95278944D01*
X147813425Y-95342906D01*
X147802246Y-95347883D01*
X147647745Y-95460135D01*
X147519959Y-95602057D01*
X147424473Y-95767443D01*
X147424470Y-95767450D01*
X147379239Y-95906658D01*
X147365458Y-95949072D01*
X147345496Y-96139000D01*
X145208723Y-96139000D01*
X145229542Y-96074928D01*
X145249504Y-95885000D01*
X145229542Y-95695072D01*
X145170527Y-95513444D01*
X145075040Y-95348056D01*
X144947253Y-95206134D01*
X144792752Y-95093882D01*
X144618288Y-95016206D01*
X144618286Y-95016205D01*
X144431481Y-94976498D01*
X144430381Y-94976383D01*
X144429787Y-94976138D01*
X144425131Y-94975149D01*
X144425312Y-94974296D01*
X144365769Y-94949792D01*
X144325791Y-94892490D01*
X144325425Y-94891382D01*
X144297902Y-94806676D01*
X144297901Y-94806675D01*
X144297900Y-94806670D01*
X144260563Y-94742000D01*
X149200496Y-94742000D01*
X149220458Y-94931928D01*
X149220459Y-94931931D01*
X149279470Y-95113549D01*
X149279473Y-95113556D01*
X149374960Y-95278944D01*
X149502747Y-95420866D01*
X149657248Y-95533118D01*
X149831712Y-95610794D01*
X150018513Y-95650500D01*
X150209487Y-95650500D01*
X150396288Y-95610794D01*
X150570752Y-95533118D01*
X150725253Y-95420866D01*
X150853040Y-95278944D01*
X150948527Y-95113556D01*
X151007542Y-94931928D01*
X151027504Y-94742000D01*
X151007542Y-94552072D01*
X150948527Y-94370444D01*
X150853040Y-94205056D01*
X150725253Y-94063134D01*
X150570752Y-93950882D01*
X150396288Y-93873206D01*
X150396286Y-93873205D01*
X150209487Y-93833500D01*
X150018513Y-93833500D01*
X149831714Y-93873205D01*
X149657246Y-93950883D01*
X149502745Y-94063135D01*
X149374959Y-94205057D01*
X149279473Y-94370443D01*
X149279470Y-94370450D01*
X149220459Y-94552068D01*
X149220458Y-94552072D01*
X149200496Y-94742000D01*
X144260563Y-94742000D01*
X144202413Y-94641282D01*
X144074626Y-94499360D01*
X143920125Y-94387108D01*
X143745661Y-94309432D01*
X143745659Y-94309431D01*
X143558860Y-94269726D01*
X143367886Y-94269726D01*
X143181087Y-94309431D01*
X143181084Y-94309432D01*
X143181085Y-94309432D01*
X143044052Y-94370443D01*
X143006619Y-94387109D01*
X142852118Y-94499361D01*
X142724332Y-94641283D01*
X142628846Y-94806669D01*
X142628843Y-94806676D01*
X142574103Y-94975149D01*
X142569831Y-94988298D01*
X142549869Y-95178226D01*
X137621375Y-95178226D01*
X137645040Y-95151944D01*
X137740527Y-94986556D01*
X137799542Y-94804928D01*
X137819504Y-94615000D01*
X137799542Y-94425072D01*
X137740527Y-94243444D01*
X137690342Y-94156522D01*
X137673870Y-94088623D01*
X137696723Y-94022596D01*
X137751644Y-93979405D01*
X137771944Y-93973234D01*
X137912788Y-93943297D01*
X138087252Y-93865621D01*
X138241753Y-93753369D01*
X138369540Y-93611447D01*
X138465027Y-93446059D01*
X138496240Y-93349997D01*
X140183496Y-93349997D01*
X140203458Y-93539925D01*
X140203459Y-93539928D01*
X140262470Y-93721546D01*
X140262473Y-93721553D01*
X140357960Y-93886941D01*
X140415533Y-93950882D01*
X140467968Y-94009118D01*
X140485747Y-94028863D01*
X140640248Y-94141115D01*
X140814712Y-94218791D01*
X141001513Y-94258497D01*
X141192487Y-94258497D01*
X141379288Y-94218791D01*
X141553752Y-94141115D01*
X141708253Y-94028863D01*
X141836040Y-93886941D01*
X141931527Y-93721553D01*
X141990542Y-93539925D01*
X142010504Y-93349997D01*
X141990542Y-93160069D01*
X141931527Y-92978441D01*
X141836040Y-92813053D01*
X141708253Y-92671131D01*
X141553752Y-92558879D01*
X141379288Y-92481203D01*
X141379286Y-92481202D01*
X141192487Y-92441497D01*
X141001513Y-92441497D01*
X140814714Y-92481202D01*
X140640246Y-92558880D01*
X140485745Y-92671132D01*
X140357959Y-92813054D01*
X140262473Y-92978440D01*
X140262470Y-92978447D01*
X140204466Y-93156967D01*
X140203458Y-93160069D01*
X140183496Y-93349997D01*
X138496240Y-93349997D01*
X138524042Y-93264431D01*
X138544004Y-93074503D01*
X138524042Y-92884575D01*
X138465027Y-92702947D01*
X138426807Y-92636748D01*
X138410335Y-92568851D01*
X138426806Y-92512755D01*
X138465027Y-92446556D01*
X138524042Y-92264928D01*
X138544004Y-92075000D01*
X138524042Y-91885072D01*
X138481194Y-91753200D01*
X141775296Y-91753200D01*
X141795258Y-91943128D01*
X141795259Y-91943131D01*
X141854270Y-92124749D01*
X141854273Y-92124756D01*
X141949760Y-92290144D01*
X142077547Y-92432066D01*
X142232048Y-92544318D01*
X142406512Y-92621994D01*
X142593313Y-92661700D01*
X142784287Y-92661700D01*
X142971088Y-92621994D01*
X143073029Y-92576607D01*
X151238889Y-92576607D01*
X151258851Y-92766535D01*
X151258852Y-92766538D01*
X151317863Y-92948156D01*
X151317866Y-92948163D01*
X151413353Y-93113551D01*
X151541140Y-93255473D01*
X151695641Y-93367725D01*
X151870105Y-93445401D01*
X152056906Y-93485107D01*
X152056908Y-93485107D01*
X152060314Y-93485831D01*
X152121796Y-93519023D01*
X152152464Y-93568802D01*
X152200471Y-93716552D01*
X152200473Y-93716556D01*
X152295960Y-93881944D01*
X152378157Y-93973233D01*
X152405498Y-94003599D01*
X152423747Y-94023866D01*
X152578248Y-94136118D01*
X152752712Y-94213794D01*
X152939513Y-94253500D01*
X153130487Y-94253500D01*
X153317288Y-94213794D01*
X153491752Y-94136118D01*
X153646253Y-94023866D01*
X153774040Y-93881944D01*
X153869527Y-93716556D01*
X153895819Y-93635637D01*
X153935256Y-93577963D01*
X153999615Y-93550764D01*
X154068461Y-93562678D01*
X154119937Y-93609923D01*
X154131681Y-93635638D01*
X154157970Y-93716550D01*
X154157973Y-93716556D01*
X154253460Y-93881944D01*
X154266894Y-93896864D01*
X154270799Y-93901201D01*
X154301029Y-93964193D01*
X154292403Y-94033528D01*
X154270801Y-94067143D01*
X154253961Y-94085846D01*
X154253957Y-94085851D01*
X154158473Y-94251235D01*
X154158470Y-94251242D01*
X154099459Y-94432860D01*
X154099458Y-94432864D01*
X154079496Y-94622792D01*
X154099458Y-94812720D01*
X154099459Y-94812723D01*
X154158470Y-94994341D01*
X154158473Y-94994348D01*
X154253960Y-95159736D01*
X154287770Y-95197286D01*
X154304673Y-95216059D01*
X154334903Y-95279051D01*
X154326277Y-95348386D01*
X154285410Y-95399348D01*
X154201746Y-95460134D01*
X154073959Y-95602057D01*
X153978473Y-95767443D01*
X153978470Y-95767450D01*
X153933239Y-95906658D01*
X153919458Y-95949072D01*
X153902014Y-96115040D01*
X153899868Y-96135462D01*
X153873283Y-96200076D01*
X153815986Y-96240061D01*
X153776547Y-96246500D01*
X153701513Y-96246500D01*
X153514714Y-96286205D01*
X153340246Y-96363883D01*
X153185745Y-96476135D01*
X153057959Y-96618057D01*
X152962473Y-96783443D01*
X152962470Y-96783450D01*
X152906628Y-96955316D01*
X152903458Y-96965072D01*
X152883496Y-97155000D01*
X152903458Y-97344928D01*
X152903459Y-97344931D01*
X152962470Y-97526549D01*
X152962472Y-97526553D01*
X152962473Y-97526556D01*
X152982061Y-97560483D01*
X153001133Y-97593517D01*
X153017605Y-97661417D01*
X152994752Y-97727444D01*
X152963581Y-97755790D01*
X152964506Y-97757062D01*
X152804745Y-97873135D01*
X152676959Y-98015057D01*
X152581473Y-98180443D01*
X152581470Y-98180450D01*
X152522459Y-98362068D01*
X152522458Y-98362072D01*
X152502496Y-98552000D01*
X152522458Y-98741928D01*
X152522459Y-98741931D01*
X152581470Y-98923549D01*
X152581473Y-98923556D01*
X152676960Y-99088944D01*
X152804747Y-99230866D01*
X152959248Y-99343118D01*
X153133712Y-99420794D01*
X153320513Y-99460500D01*
X153511487Y-99460500D01*
X153698288Y-99420794D01*
X153872752Y-99343118D01*
X154027253Y-99230866D01*
X154155040Y-99088944D01*
X154250527Y-98923556D01*
X154309542Y-98741928D01*
X154329504Y-98552000D01*
X154309542Y-98362072D01*
X154250527Y-98180444D01*
X154211867Y-98113483D01*
X154195394Y-98045582D01*
X154218247Y-97979556D01*
X154249424Y-97951218D01*
X154248494Y-97949938D01*
X154276268Y-97929759D01*
X154408253Y-97833866D01*
X154536040Y-97691944D01*
X154631527Y-97526556D01*
X154690542Y-97344928D01*
X154710132Y-97158537D01*
X154736717Y-97093924D01*
X154794014Y-97053939D01*
X154833453Y-97047500D01*
X154908487Y-97047500D01*
X155095288Y-97007794D01*
X155269752Y-96930118D01*
X155424253Y-96817866D01*
X155552040Y-96675944D01*
X155647527Y-96510556D01*
X155706542Y-96328928D01*
X155726504Y-96139000D01*
X155706542Y-95949072D01*
X155651495Y-95779658D01*
X155647529Y-95767450D01*
X155647528Y-95767449D01*
X155647527Y-95767444D01*
X155552040Y-95602056D01*
X155513281Y-95559010D01*
X155501326Y-95545732D01*
X155471096Y-95482740D01*
X155479722Y-95413405D01*
X155520591Y-95362442D01*
X155604253Y-95301658D01*
X155732040Y-95159736D01*
X155827527Y-94994348D01*
X155886542Y-94812720D01*
X155906504Y-94622792D01*
X155886542Y-94432864D01*
X155827527Y-94251236D01*
X155732040Y-94085848D01*
X155714699Y-94066589D01*
X155684470Y-94003599D01*
X155693095Y-93934263D01*
X155714701Y-93900645D01*
X155718104Y-93896866D01*
X155731540Y-93881944D01*
X155827027Y-93716556D01*
X155886042Y-93534928D01*
X155906004Y-93345000D01*
X155886042Y-93155072D01*
X155827027Y-92973444D01*
X155731540Y-92808056D01*
X155603753Y-92666134D01*
X155449252Y-92553882D01*
X155274788Y-92476206D01*
X155274786Y-92476205D01*
X155087987Y-92436500D01*
X154897013Y-92436500D01*
X154710214Y-92476205D01*
X154710211Y-92476206D01*
X154710212Y-92476206D01*
X154568871Y-92539135D01*
X154535746Y-92553883D01*
X154381245Y-92666135D01*
X154253459Y-92808057D01*
X154157973Y-92973443D01*
X154157970Y-92973450D01*
X154131681Y-93054361D01*
X154092243Y-93112037D01*
X154027885Y-93139235D01*
X153959038Y-93127320D01*
X153907563Y-93080076D01*
X153895819Y-93054361D01*
X153869529Y-92973450D01*
X153869528Y-92973449D01*
X153869527Y-92973444D01*
X153774040Y-92808056D01*
X153646253Y-92666134D01*
X153491752Y-92553882D01*
X153317288Y-92476206D01*
X153317286Y-92476205D01*
X153317285Y-92476205D01*
X153127078Y-92435775D01*
X153065596Y-92402582D01*
X153034928Y-92352803D01*
X152986922Y-92205057D01*
X152986921Y-92205056D01*
X152986920Y-92205051D01*
X152891433Y-92039663D01*
X152763646Y-91897741D01*
X152609145Y-91785489D01*
X152434681Y-91707813D01*
X152434679Y-91707812D01*
X152247880Y-91668107D01*
X152056906Y-91668107D01*
X151870107Y-91707812D01*
X151695639Y-91785490D01*
X151541138Y-91897742D01*
X151413352Y-92039664D01*
X151317866Y-92205050D01*
X151317863Y-92205057D01*
X151269858Y-92352803D01*
X151258851Y-92386679D01*
X151238889Y-92576607D01*
X143073029Y-92576607D01*
X143145552Y-92544318D01*
X143300053Y-92432066D01*
X143427840Y-92290144D01*
X143523327Y-92124756D01*
X143582342Y-91943128D01*
X143602304Y-91753200D01*
X143582342Y-91563272D01*
X143582339Y-91563265D01*
X143582134Y-91561306D01*
X143594703Y-91492576D01*
X143642435Y-91441552D01*
X143710175Y-91424434D01*
X143776417Y-91446656D01*
X143797602Y-91465369D01*
X143801693Y-91469912D01*
X143801697Y-91469916D01*
X143956198Y-91582168D01*
X144130662Y-91659844D01*
X144317463Y-91699550D01*
X144508437Y-91699550D01*
X144695238Y-91659844D01*
X144869702Y-91582168D01*
X145024203Y-91469916D01*
X145151990Y-91327994D01*
X145247477Y-91162606D01*
X145306492Y-90980978D01*
X145314786Y-90902057D01*
X145341369Y-90837448D01*
X145398666Y-90797462D01*
X145468485Y-90794802D01*
X145528659Y-90830311D01*
X145545493Y-90853023D01*
X145596458Y-90941297D01*
X145703403Y-91060071D01*
X145724247Y-91083221D01*
X145878748Y-91195473D01*
X146053212Y-91273149D01*
X146240013Y-91312855D01*
X146430987Y-91312855D01*
X146617788Y-91273149D01*
X146792252Y-91195473D01*
X146946753Y-91083221D01*
X147074540Y-90941299D01*
X147170027Y-90775911D01*
X147170027Y-90775908D01*
X147171602Y-90773182D01*
X147222168Y-90724966D01*
X147290775Y-90711742D01*
X147355640Y-90737710D01*
X147396169Y-90794624D01*
X147402309Y-90822212D01*
X147402958Y-90828385D01*
X147402958Y-90828386D01*
X147461970Y-91010006D01*
X147461973Y-91010013D01*
X147557460Y-91175401D01*
X147685247Y-91317323D01*
X147839748Y-91429575D01*
X148014212Y-91507251D01*
X148201013Y-91546957D01*
X148391987Y-91546957D01*
X148578788Y-91507251D01*
X148753252Y-91429575D01*
X148907753Y-91317323D01*
X149035540Y-91175401D01*
X149131027Y-91010013D01*
X149190042Y-90828385D01*
X149210004Y-90638457D01*
X149190042Y-90448529D01*
X149131027Y-90266901D01*
X149035540Y-90101513D01*
X148907753Y-89959591D01*
X148753252Y-89847339D01*
X148753250Y-89847338D01*
X148714935Y-89830279D01*
X148661699Y-89785028D01*
X148641378Y-89718179D01*
X148660424Y-89650955D01*
X148712791Y-89604700D01*
X148714857Y-89603756D01*
X148803888Y-89564118D01*
X148958389Y-89451866D01*
X149086176Y-89309944D01*
X149181663Y-89144556D01*
X149240678Y-88962928D01*
X149260640Y-88773000D01*
X149240678Y-88583072D01*
X149181663Y-88401444D01*
X149086176Y-88236056D01*
X148958389Y-88094134D01*
X148803888Y-87981882D01*
X148629424Y-87904206D01*
X148629422Y-87904205D01*
X148442623Y-87864500D01*
X148251649Y-87864500D01*
X148064850Y-87904205D01*
X147890382Y-87981883D01*
X147735881Y-88094135D01*
X147608095Y-88236057D01*
X147512609Y-88401443D01*
X147512606Y-88401450D01*
X147453595Y-88583068D01*
X147453594Y-88583072D01*
X147433632Y-88773000D01*
X147453594Y-88962928D01*
X147453595Y-88962931D01*
X147512606Y-89144549D01*
X147512609Y-89144556D01*
X147608096Y-89309944D01*
X147735883Y-89451866D01*
X147851079Y-89535561D01*
X147890384Y-89564118D01*
X147928699Y-89581177D01*
X147981936Y-89626427D01*
X148002257Y-89693276D01*
X147983212Y-89760500D01*
X147930846Y-89806755D01*
X147928699Y-89807735D01*
X147839748Y-89847338D01*
X147685245Y-89959592D01*
X147557458Y-90101514D01*
X147460397Y-90269630D01*
X147409830Y-90317846D01*
X147341223Y-90331069D01*
X147276358Y-90305100D01*
X147235830Y-90248186D01*
X147229690Y-90220596D01*
X147229042Y-90214427D01*
X147170027Y-90032799D01*
X147074540Y-89867411D01*
X146946753Y-89725489D01*
X146792252Y-89613237D01*
X146617788Y-89535561D01*
X146617786Y-89535560D01*
X146430987Y-89495855D01*
X146246466Y-89495855D01*
X146179427Y-89476170D01*
X146133672Y-89423366D01*
X146123728Y-89354208D01*
X146128534Y-89333540D01*
X146128636Y-89333223D01*
X146129042Y-89331976D01*
X146149004Y-89142048D01*
X146129042Y-88952120D01*
X146070027Y-88770492D01*
X145974540Y-88605104D01*
X145846753Y-88463182D01*
X145692252Y-88350930D01*
X145517788Y-88273254D01*
X145517786Y-88273253D01*
X145330987Y-88233548D01*
X145140013Y-88233548D01*
X144953214Y-88273253D01*
X144923106Y-88286658D01*
X144809726Y-88337138D01*
X144778746Y-88350931D01*
X144624245Y-88463183D01*
X144496459Y-88605105D01*
X144400973Y-88770491D01*
X144400970Y-88770498D01*
X144344640Y-88943866D01*
X144341958Y-88952120D01*
X144330878Y-89057545D01*
X144322864Y-89133794D01*
X144321996Y-89142048D01*
X144341958Y-89331976D01*
X144341959Y-89331979D01*
X144400970Y-89513597D01*
X144400973Y-89513604D01*
X144496459Y-89678991D01*
X144500278Y-89684247D01*
X144498253Y-89685718D01*
X144523616Y-89738573D01*
X144514989Y-89807908D01*
X144470246Y-89861572D01*
X144403593Y-89882528D01*
X144401236Y-89882550D01*
X144317463Y-89882550D01*
X144130664Y-89922255D01*
X143956196Y-89999933D01*
X143801695Y-90112185D01*
X143673909Y-90254107D01*
X143578423Y-90419493D01*
X143578420Y-90419500D01*
X143521630Y-90594283D01*
X143519408Y-90601122D01*
X143499446Y-90791050D01*
X143516763Y-90955816D01*
X143519615Y-90982944D01*
X143507045Y-91051673D01*
X143459313Y-91102697D01*
X143391573Y-91119815D01*
X143325332Y-91097593D01*
X143304146Y-91078879D01*
X143300055Y-91074336D01*
X143300054Y-91074335D01*
X143300053Y-91074334D01*
X143145552Y-90962082D01*
X142971088Y-90884406D01*
X142971086Y-90884405D01*
X142784287Y-90844700D01*
X142593313Y-90844700D01*
X142406514Y-90884405D01*
X142232046Y-90962083D01*
X142077545Y-91074335D01*
X141949759Y-91216257D01*
X141854273Y-91381643D01*
X141854270Y-91381650D01*
X141795259Y-91563268D01*
X141795258Y-91563272D01*
X141775296Y-91753200D01*
X138481194Y-91753200D01*
X138465027Y-91703444D01*
X138369540Y-91538056D01*
X138241753Y-91396134D01*
X138087252Y-91283882D01*
X137912788Y-91206206D01*
X137912786Y-91206205D01*
X137725987Y-91166500D01*
X137535013Y-91166500D01*
X137348214Y-91206205D01*
X137173746Y-91283883D01*
X137019245Y-91396135D01*
X137008829Y-91407704D01*
X136949343Y-91444352D01*
X136879486Y-91443021D01*
X136821438Y-91404134D01*
X136812872Y-91392553D01*
X136720366Y-91250963D01*
X136711722Y-91237732D01*
X136711719Y-91237729D01*
X136711715Y-91237723D01*
X136559243Y-91072097D01*
X136559238Y-91072092D01*
X136381577Y-90933812D01*
X136381578Y-90933812D01*
X136381576Y-90933811D01*
X136345070Y-90914055D01*
X136295479Y-90864836D01*
X136280371Y-90796619D01*
X136304541Y-90731064D01*
X136345070Y-90695945D01*
X136345084Y-90695936D01*
X136381576Y-90676189D01*
X136559240Y-90537906D01*
X136658614Y-90429957D01*
X136711715Y-90372276D01*
X136711716Y-90372274D01*
X136711722Y-90372268D01*
X136834860Y-90183791D01*
X136925296Y-89977616D01*
X136980564Y-89759368D01*
X136983001Y-89729957D01*
X136999156Y-89535005D01*
X136999156Y-89534994D01*
X136980565Y-89310640D01*
X136980563Y-89310628D01*
X136938506Y-89144549D01*
X136925296Y-89092384D01*
X136834860Y-88886209D01*
X136801000Y-88834383D01*
X136720366Y-88710963D01*
X136711722Y-88697732D01*
X136711719Y-88697729D01*
X136711715Y-88697723D01*
X136559243Y-88532097D01*
X136559238Y-88532092D01*
X136381577Y-88393812D01*
X136381578Y-88393812D01*
X136381576Y-88393811D01*
X136345070Y-88374055D01*
X136295479Y-88324836D01*
X136280371Y-88256619D01*
X136304541Y-88191064D01*
X136345070Y-88155945D01*
X136345861Y-88155517D01*
X136381576Y-88136189D01*
X136559240Y-87997906D01*
X136658614Y-87889957D01*
X136711715Y-87832276D01*
X136711716Y-87832274D01*
X136711722Y-87832268D01*
X136834860Y-87643791D01*
X136925296Y-87437616D01*
X136980564Y-87219368D01*
X136983919Y-87178878D01*
X136999156Y-86995005D01*
X136999156Y-86995000D01*
X139606496Y-86995000D01*
X139626458Y-87184928D01*
X139626459Y-87184931D01*
X139685470Y-87366549D01*
X139685473Y-87366556D01*
X139780960Y-87531944D01*
X139908747Y-87673866D01*
X140063248Y-87786118D01*
X140237712Y-87863794D01*
X140424513Y-87903500D01*
X140615485Y-87903500D01*
X140615487Y-87903500D01*
X140636289Y-87899078D01*
X140705955Y-87904393D01*
X140761689Y-87946530D01*
X140785391Y-88007406D01*
X140800958Y-88155517D01*
X140800959Y-88155520D01*
X140859970Y-88337138D01*
X140859973Y-88337145D01*
X140955460Y-88502533D01*
X141083247Y-88644455D01*
X141237748Y-88756707D01*
X141412212Y-88834383D01*
X141599013Y-88874089D01*
X141789987Y-88874089D01*
X141976788Y-88834383D01*
X142151252Y-88756707D01*
X142305753Y-88644455D01*
X142433540Y-88502533D01*
X142529027Y-88337145D01*
X142588042Y-88155517D01*
X142608004Y-87965589D01*
X142588042Y-87775661D01*
X142529027Y-87594033D01*
X142433540Y-87428645D01*
X142307947Y-87289160D01*
X142305754Y-87286724D01*
X142157318Y-87178878D01*
X142114653Y-87123548D01*
X142108674Y-87053934D01*
X142141280Y-86992139D01*
X142179767Y-86965282D01*
X142233149Y-86941515D01*
X142387650Y-86829263D01*
X142515437Y-86687341D01*
X142559920Y-86610294D01*
X150120496Y-86610294D01*
X150140458Y-86800222D01*
X150140459Y-86800225D01*
X150199470Y-86981843D01*
X150199473Y-86981850D01*
X150294960Y-87147238D01*
X150328899Y-87184931D01*
X150420553Y-87286724D01*
X150422747Y-87289160D01*
X150577248Y-87401412D01*
X150751712Y-87479088D01*
X150938513Y-87518794D01*
X151129486Y-87518794D01*
X151129487Y-87518794D01*
X151301312Y-87482271D01*
X151370977Y-87487587D01*
X151426710Y-87529723D01*
X151450816Y-87595303D01*
X151450412Y-87616517D01*
X151448996Y-87629995D01*
X151448996Y-87629996D01*
X151448996Y-87630000D01*
X151468958Y-87819928D01*
X151468959Y-87819931D01*
X151527970Y-88001549D01*
X151527973Y-88001556D01*
X151623460Y-88166944D01*
X151751247Y-88308866D01*
X151905748Y-88421118D01*
X152080212Y-88498794D01*
X152267013Y-88538500D01*
X152457987Y-88538500D01*
X152644788Y-88498794D01*
X152819252Y-88421118D01*
X152973753Y-88308866D01*
X153101540Y-88166944D01*
X153197027Y-88001556D01*
X153256042Y-87819928D01*
X153276004Y-87630000D01*
X153256042Y-87440072D01*
X153197027Y-87258444D01*
X153101540Y-87093056D01*
X152973753Y-86951134D01*
X152819252Y-86838882D01*
X152644788Y-86761206D01*
X152644786Y-86761205D01*
X152457987Y-86721500D01*
X152267013Y-86721500D01*
X152095189Y-86758022D01*
X152025522Y-86752706D01*
X151969788Y-86710569D01*
X151945683Y-86644989D01*
X151946086Y-86623777D01*
X151947504Y-86610294D01*
X151927542Y-86420366D01*
X151868527Y-86238738D01*
X151773040Y-86073350D01*
X151645253Y-85931428D01*
X151490752Y-85819176D01*
X151316288Y-85741500D01*
X151316286Y-85741499D01*
X151129487Y-85701794D01*
X150938513Y-85701794D01*
X150751714Y-85741499D01*
X150751711Y-85741500D01*
X150751712Y-85741500D01*
X150647433Y-85787928D01*
X150577246Y-85819177D01*
X150422745Y-85931429D01*
X150294959Y-86073351D01*
X150199473Y-86238737D01*
X150199470Y-86238744D01*
X150150611Y-86389118D01*
X150140458Y-86420366D01*
X150120496Y-86610294D01*
X142559920Y-86610294D01*
X142610924Y-86521953D01*
X142655342Y-86385248D01*
X142694779Y-86327574D01*
X142747489Y-86302278D01*
X142783185Y-86294691D01*
X142957649Y-86217015D01*
X143112150Y-86104763D01*
X143239937Y-85962841D01*
X143335424Y-85797453D01*
X143394439Y-85615825D01*
X143414401Y-85425897D01*
X143394439Y-85235969D01*
X143354585Y-85113312D01*
X143333632Y-85048824D01*
X143331637Y-84978983D01*
X143367717Y-84919150D01*
X143378681Y-84910186D01*
X143396731Y-84897072D01*
X143396732Y-84897071D01*
X143524519Y-84755149D01*
X143620006Y-84589761D01*
X143679021Y-84408133D01*
X143698983Y-84218205D01*
X143679021Y-84028277D01*
X143620006Y-83846649D01*
X143524519Y-83681261D01*
X143396732Y-83539339D01*
X143242231Y-83427087D01*
X143067767Y-83349411D01*
X143067765Y-83349410D01*
X142880966Y-83309705D01*
X142689992Y-83309705D01*
X142503193Y-83349410D01*
X142328725Y-83427088D01*
X142174224Y-83539340D01*
X142046438Y-83681262D01*
X141950952Y-83846648D01*
X141950949Y-83846655D01*
X141891938Y-84028273D01*
X141891937Y-84028277D01*
X141871975Y-84218205D01*
X141891937Y-84408133D01*
X141891938Y-84408136D01*
X141952744Y-84595277D01*
X141954739Y-84665118D01*
X141918659Y-84724951D01*
X141907701Y-84733911D01*
X141889645Y-84747029D01*
X141889643Y-84747031D01*
X141761856Y-84888954D01*
X141666370Y-85054340D01*
X141666368Y-85054344D01*
X141621951Y-85191044D01*
X141582513Y-85248719D01*
X141529804Y-85274015D01*
X141494109Y-85281602D01*
X141494109Y-85281603D01*
X141463186Y-85295371D01*
X141319641Y-85359281D01*
X141165142Y-85471532D01*
X141037356Y-85613454D01*
X140941870Y-85778840D01*
X140941867Y-85778847D01*
X140882856Y-85960465D01*
X140882855Y-85960469D01*
X140879531Y-85992097D01*
X140878451Y-86002375D01*
X140851866Y-86066989D01*
X140794568Y-86106973D01*
X140729349Y-86110702D01*
X140615487Y-86086500D01*
X140424513Y-86086500D01*
X140237714Y-86126205D01*
X140063246Y-86203883D01*
X139908745Y-86316135D01*
X139780959Y-86458057D01*
X139685473Y-86623443D01*
X139685470Y-86623450D01*
X139628034Y-86800222D01*
X139626458Y-86805072D01*
X139606496Y-86995000D01*
X136999156Y-86995000D01*
X136999156Y-86994994D01*
X136980565Y-86770640D01*
X136980563Y-86770628D01*
X136943291Y-86623444D01*
X136925296Y-86552384D01*
X136834860Y-86346209D01*
X136711722Y-86157732D01*
X136711719Y-86157729D01*
X136711715Y-86157723D01*
X136559243Y-85992097D01*
X136559238Y-85992092D01*
X136381577Y-85853812D01*
X136381578Y-85853812D01*
X136381576Y-85853811D01*
X136345070Y-85834055D01*
X136295479Y-85784836D01*
X136280371Y-85716619D01*
X136304541Y-85651064D01*
X136345070Y-85615945D01*
X136349675Y-85613453D01*
X136381576Y-85596189D01*
X136559240Y-85457906D01*
X136658614Y-85349957D01*
X136711715Y-85292276D01*
X136711715Y-85292274D01*
X136711722Y-85292268D01*
X136828640Y-85113310D01*
X136881786Y-85067955D01*
X136951017Y-85058531D01*
X137014353Y-85088033D01*
X137024598Y-85098161D01*
X137056747Y-85133866D01*
X137211248Y-85246118D01*
X137385712Y-85323794D01*
X137572513Y-85363500D01*
X137763487Y-85363500D01*
X137950288Y-85323794D01*
X138124752Y-85246118D01*
X138279253Y-85133866D01*
X138407040Y-84991944D01*
X138502527Y-84826556D01*
X138561542Y-84644928D01*
X138581504Y-84455000D01*
X138561542Y-84265072D01*
X138502527Y-84083444D01*
X138407040Y-83918056D01*
X138279253Y-83776134D01*
X138124752Y-83663882D01*
X137950288Y-83586206D01*
X137950286Y-83586205D01*
X137763487Y-83546500D01*
X137572513Y-83546500D01*
X137385714Y-83586205D01*
X137211246Y-83663883D01*
X137056744Y-83776136D01*
X137024597Y-83811839D01*
X136965110Y-83848487D01*
X136895253Y-83847156D01*
X136837205Y-83808269D01*
X136828644Y-83796695D01*
X136711722Y-83617732D01*
X136711715Y-83617725D01*
X136711715Y-83617723D01*
X136559243Y-83452097D01*
X136559238Y-83452092D01*
X136416436Y-83340944D01*
X136381576Y-83313811D01*
X136345070Y-83294055D01*
X136295479Y-83244836D01*
X136280371Y-83176619D01*
X136304541Y-83111064D01*
X136345070Y-83075945D01*
X136345084Y-83075936D01*
X136381576Y-83056189D01*
X136559240Y-82917906D01*
X136664100Y-82803999D01*
X136711715Y-82752276D01*
X136711716Y-82752274D01*
X136711722Y-82752268D01*
X136834860Y-82563791D01*
X136925296Y-82357616D01*
X136980564Y-82139368D01*
X136980565Y-82139359D01*
X136999156Y-81915005D01*
X136999156Y-81915000D01*
X140780996Y-81915000D01*
X140800958Y-82104928D01*
X140800959Y-82104931D01*
X140859970Y-82286549D01*
X140859973Y-82286556D01*
X140955460Y-82451944D01*
X141083247Y-82593866D01*
X141237748Y-82706118D01*
X141412212Y-82783794D01*
X141599013Y-82823500D01*
X141789987Y-82823500D01*
X141881727Y-82804000D01*
X149835496Y-82804000D01*
X149855458Y-82993928D01*
X149855459Y-82993931D01*
X149914470Y-83175549D01*
X149914473Y-83175556D01*
X150009960Y-83340944D01*
X150137747Y-83482866D01*
X150292248Y-83595118D01*
X150466712Y-83672794D01*
X150653513Y-83712500D01*
X150844487Y-83712500D01*
X151031288Y-83672794D01*
X151205752Y-83595118D01*
X151254325Y-83559827D01*
X151320129Y-83536347D01*
X151388183Y-83552172D01*
X151434596Y-83598144D01*
X151445907Y-83617734D01*
X151461953Y-83645527D01*
X151478426Y-83713427D01*
X151455573Y-83779454D01*
X151427455Y-83807843D01*
X151403304Y-83825390D01*
X151275518Y-83967312D01*
X151180032Y-84132698D01*
X151180029Y-84132705D01*
X151137022Y-84265068D01*
X151121017Y-84314327D01*
X151101055Y-84504255D01*
X151121017Y-84694183D01*
X151121018Y-84694186D01*
X151180029Y-84875804D01*
X151180032Y-84875811D01*
X151275519Y-85041199D01*
X151403306Y-85183121D01*
X151557807Y-85295373D01*
X151732271Y-85373049D01*
X151919072Y-85412755D01*
X152110046Y-85412755D01*
X152296847Y-85373049D01*
X152471311Y-85295373D01*
X152625812Y-85183121D01*
X152753599Y-85041199D01*
X152849086Y-84875811D01*
X152908101Y-84694183D01*
X152928063Y-84504255D01*
X152908101Y-84314327D01*
X152849086Y-84132699D01*
X152803244Y-84053299D01*
X152786772Y-83985401D01*
X152809624Y-83919374D01*
X152837748Y-83890982D01*
X152861893Y-83873440D01*
X152989680Y-83731518D01*
X153085167Y-83566130D01*
X153144182Y-83384502D01*
X153164144Y-83194574D01*
X153144182Y-83004646D01*
X153085167Y-82823018D01*
X152989680Y-82657630D01*
X152861893Y-82515708D01*
X152707392Y-82403456D01*
X152532928Y-82325780D01*
X152532926Y-82325779D01*
X152346127Y-82286074D01*
X152155153Y-82286074D01*
X151968354Y-82325779D01*
X151793886Y-82403457D01*
X151745314Y-82438747D01*
X151679507Y-82462226D01*
X151611453Y-82446400D01*
X151565043Y-82400429D01*
X151488040Y-82267056D01*
X151360253Y-82125134D01*
X151205752Y-82012882D01*
X151031288Y-81935206D01*
X151031286Y-81935205D01*
X150844487Y-81895500D01*
X150653513Y-81895500D01*
X150466714Y-81935205D01*
X150292246Y-82012883D01*
X150137745Y-82125135D01*
X150009959Y-82267057D01*
X149914473Y-82432443D01*
X149914470Y-82432450D01*
X149887418Y-82515709D01*
X149855458Y-82614072D01*
X149835496Y-82804000D01*
X141881727Y-82804000D01*
X141976788Y-82783794D01*
X142151252Y-82706118D01*
X142305753Y-82593866D01*
X142433540Y-82451944D01*
X142529027Y-82286556D01*
X142588042Y-82104928D01*
X142608004Y-81915000D01*
X142588042Y-81725072D01*
X142529027Y-81543444D01*
X142433540Y-81378056D01*
X142317067Y-81248699D01*
X147001596Y-81248699D01*
X147021558Y-81438627D01*
X147021559Y-81438630D01*
X147080570Y-81620248D01*
X147080573Y-81620255D01*
X147176060Y-81785643D01*
X147274976Y-81895500D01*
X147292532Y-81914999D01*
X147303847Y-81927565D01*
X147458348Y-82039817D01*
X147632812Y-82117493D01*
X147819613Y-82157199D01*
X148010587Y-82157199D01*
X148197388Y-82117493D01*
X148371852Y-82039817D01*
X148526353Y-81927565D01*
X148654140Y-81785643D01*
X148749627Y-81620255D01*
X148808642Y-81438627D01*
X148828604Y-81248699D01*
X148808642Y-81058771D01*
X148749627Y-80877143D01*
X148654140Y-80711755D01*
X148526353Y-80569833D01*
X148455011Y-80518000D01*
X149454496Y-80518000D01*
X149474458Y-80707928D01*
X149474459Y-80707931D01*
X149533470Y-80889549D01*
X149533473Y-80889556D01*
X149628960Y-81054944D01*
X149756747Y-81196866D01*
X149911248Y-81309118D01*
X150085712Y-81386794D01*
X150272513Y-81426500D01*
X150463487Y-81426500D01*
X150650288Y-81386794D01*
X150824752Y-81309118D01*
X150979253Y-81196866D01*
X151107040Y-81054944D01*
X151202527Y-80889556D01*
X151261542Y-80707928D01*
X151281504Y-80518000D01*
X151261542Y-80328072D01*
X151202527Y-80146444D01*
X151107040Y-79981056D01*
X150979253Y-79839134D01*
X150824752Y-79726882D01*
X150650288Y-79649206D01*
X150650286Y-79649205D01*
X150463487Y-79609500D01*
X150272513Y-79609500D01*
X150085714Y-79649205D01*
X149911246Y-79726883D01*
X149756745Y-79839135D01*
X149628959Y-79981057D01*
X149533473Y-80146443D01*
X149533470Y-80146450D01*
X149477402Y-80319010D01*
X149474458Y-80328072D01*
X149454496Y-80518000D01*
X148455011Y-80518000D01*
X148371852Y-80457581D01*
X148197388Y-80379905D01*
X148197386Y-80379904D01*
X148010587Y-80340199D01*
X147819613Y-80340199D01*
X147632814Y-80379904D01*
X147632811Y-80379905D01*
X147632812Y-80379905D01*
X147509372Y-80434864D01*
X147458346Y-80457582D01*
X147303845Y-80569834D01*
X147176059Y-80711756D01*
X147080573Y-80877142D01*
X147080570Y-80877149D01*
X147024623Y-81049337D01*
X147021558Y-81058771D01*
X147018175Y-81090963D01*
X147002917Y-81236135D01*
X147001596Y-81248699D01*
X142317067Y-81248699D01*
X142305753Y-81236134D01*
X142151252Y-81123882D01*
X141976788Y-81046206D01*
X141976786Y-81046205D01*
X141789987Y-81006500D01*
X141599013Y-81006500D01*
X141412214Y-81046205D01*
X141237746Y-81123883D01*
X141083245Y-81236135D01*
X140955459Y-81378057D01*
X140859973Y-81543443D01*
X140859970Y-81543450D01*
X140800959Y-81725068D01*
X140800958Y-81725072D01*
X140794592Y-81785641D01*
X140783046Y-81895500D01*
X140780996Y-81915000D01*
X136999156Y-81915000D01*
X136999156Y-81914994D01*
X136980565Y-81690640D01*
X136980563Y-81690628D01*
X136943291Y-81543444D01*
X136925296Y-81472384D01*
X136834860Y-81266209D01*
X136711722Y-81077732D01*
X136711719Y-81077729D01*
X136711715Y-81077723D01*
X136559243Y-80912097D01*
X136559238Y-80912092D01*
X136381577Y-80773812D01*
X136381578Y-80773812D01*
X136381576Y-80773811D01*
X136345070Y-80754055D01*
X136295479Y-80704836D01*
X136280371Y-80636619D01*
X136304541Y-80571064D01*
X136345070Y-80535945D01*
X136345084Y-80535936D01*
X136381576Y-80516189D01*
X136559240Y-80377906D01*
X136559244Y-80377900D01*
X136559249Y-80377897D01*
X136711715Y-80212276D01*
X136711716Y-80212274D01*
X136711722Y-80212268D01*
X136834860Y-80023791D01*
X136925296Y-79817616D01*
X136940899Y-79756000D01*
X138881996Y-79756000D01*
X138901958Y-79945928D01*
X138901959Y-79945931D01*
X138960970Y-80127549D01*
X138960973Y-80127556D01*
X139056460Y-80292944D01*
X139184247Y-80434866D01*
X139338748Y-80547118D01*
X139513212Y-80624794D01*
X139700013Y-80664500D01*
X139890987Y-80664500D01*
X140077788Y-80624794D01*
X140252252Y-80547118D01*
X140406753Y-80434866D01*
X140534540Y-80292944D01*
X140630027Y-80127556D01*
X140689042Y-79945928D01*
X140709004Y-79756000D01*
X140689042Y-79566072D01*
X140630027Y-79384444D01*
X140551251Y-79248000D01*
X143739496Y-79248000D01*
X143759458Y-79437928D01*
X143759459Y-79437931D01*
X143818470Y-79619549D01*
X143818473Y-79619556D01*
X143913960Y-79784944D01*
X144041747Y-79926866D01*
X144196248Y-80039118D01*
X144370712Y-80116794D01*
X144557513Y-80156500D01*
X144748487Y-80156500D01*
X144935288Y-80116794D01*
X145109752Y-80039118D01*
X145264253Y-79926866D01*
X145392040Y-79784944D01*
X145487527Y-79619556D01*
X145546542Y-79437928D01*
X145566504Y-79248000D01*
X145546542Y-79058072D01*
X145487527Y-78876444D01*
X145392040Y-78711056D01*
X145264253Y-78569134D01*
X145109752Y-78456882D01*
X144935288Y-78379206D01*
X144935286Y-78379205D01*
X144748487Y-78339500D01*
X144557513Y-78339500D01*
X144370714Y-78379205D01*
X144196246Y-78456883D01*
X144041745Y-78569135D01*
X143913959Y-78711057D01*
X143818473Y-78876443D01*
X143818470Y-78876450D01*
X143789737Y-78964883D01*
X143759458Y-79058072D01*
X143739496Y-79248000D01*
X140551251Y-79248000D01*
X140534540Y-79219056D01*
X140406753Y-79077134D01*
X140252252Y-78964882D01*
X140077788Y-78887206D01*
X140077786Y-78887205D01*
X139890987Y-78847500D01*
X139700013Y-78847500D01*
X139513214Y-78887205D01*
X139338746Y-78964883D01*
X139184245Y-79077135D01*
X139056459Y-79219057D01*
X138960973Y-79384443D01*
X138960970Y-79384450D01*
X138901959Y-79566068D01*
X138901958Y-79566072D01*
X138881996Y-79756000D01*
X136940899Y-79756000D01*
X136980564Y-79599368D01*
X136983323Y-79566072D01*
X136999156Y-79375005D01*
X136999156Y-79374994D01*
X136980565Y-79150640D01*
X136980563Y-79150628D01*
X136961952Y-79077134D01*
X136925296Y-78932384D01*
X136834860Y-78726209D01*
X136711722Y-78537732D01*
X136711719Y-78537729D01*
X136711715Y-78537723D01*
X136559243Y-78372097D01*
X136559238Y-78372092D01*
X136381577Y-78233812D01*
X136381578Y-78233812D01*
X136381576Y-78233811D01*
X136345070Y-78214055D01*
X136295479Y-78164836D01*
X136280371Y-78096619D01*
X136304541Y-78031064D01*
X136345070Y-77995945D01*
X136360767Y-77987450D01*
X136381576Y-77976189D01*
X136559240Y-77837906D01*
X136664099Y-77724000D01*
X136698621Y-77686500D01*
X150013996Y-77686500D01*
X150033958Y-77876428D01*
X150033959Y-77876431D01*
X150092970Y-78058049D01*
X150092973Y-78058056D01*
X150188460Y-78223444D01*
X150316247Y-78365366D01*
X150470748Y-78477618D01*
X150645212Y-78555294D01*
X150832013Y-78595000D01*
X151022987Y-78595000D01*
X151209788Y-78555294D01*
X151384252Y-78477618D01*
X151538753Y-78365366D01*
X151544485Y-78359000D01*
X154699496Y-78359000D01*
X154719458Y-78548928D01*
X154719459Y-78548931D01*
X154778470Y-78730549D01*
X154778473Y-78730556D01*
X154873960Y-78895944D01*
X155001747Y-79037866D01*
X155156248Y-79150118D01*
X155330712Y-79227794D01*
X155517513Y-79267500D01*
X155708487Y-79267500D01*
X155895288Y-79227794D01*
X156069752Y-79150118D01*
X156224253Y-79037866D01*
X156352040Y-78895944D01*
X156447527Y-78730556D01*
X156506542Y-78548928D01*
X156526504Y-78359000D01*
X156506542Y-78169072D01*
X156451495Y-77999658D01*
X156447529Y-77987450D01*
X156447528Y-77987449D01*
X156447527Y-77987444D01*
X156352040Y-77822056D01*
X156338458Y-77806972D01*
X156308229Y-77743981D01*
X156316853Y-77674646D01*
X156338459Y-77641027D01*
X156352040Y-77625944D01*
X156447527Y-77460556D01*
X156506542Y-77278928D01*
X156526504Y-77089000D01*
X156506542Y-76899072D01*
X156447527Y-76717444D01*
X156352040Y-76552056D01*
X156224253Y-76410134D01*
X156069752Y-76297882D01*
X155895288Y-76220206D01*
X155895286Y-76220205D01*
X155708487Y-76180500D01*
X155517513Y-76180500D01*
X155330714Y-76220205D01*
X155156246Y-76297883D01*
X155001745Y-76410135D01*
X154873959Y-76552057D01*
X154778473Y-76717443D01*
X154778470Y-76717450D01*
X154719459Y-76899068D01*
X154719458Y-76899072D01*
X154699496Y-77089000D01*
X154719458Y-77278928D01*
X154719459Y-77278931D01*
X154778470Y-77460549D01*
X154778473Y-77460556D01*
X154873957Y-77625940D01*
X154873961Y-77625945D01*
X154887542Y-77641029D01*
X154917771Y-77704022D01*
X154909145Y-77773357D01*
X154887542Y-77806971D01*
X154873961Y-77822054D01*
X154873957Y-77822059D01*
X154778473Y-77987443D01*
X154778470Y-77987450D01*
X154733239Y-78126658D01*
X154719458Y-78169072D01*
X154702560Y-78329843D01*
X154701546Y-78339500D01*
X154699496Y-78359000D01*
X151544485Y-78359000D01*
X151666540Y-78223444D01*
X151762027Y-78058056D01*
X151821042Y-77876428D01*
X151841004Y-77686500D01*
X151821042Y-77496572D01*
X151762027Y-77314944D01*
X151666540Y-77149556D01*
X151572371Y-77044971D01*
X151542142Y-76981981D01*
X151550767Y-76912645D01*
X151572372Y-76879028D01*
X151666540Y-76774444D01*
X151762027Y-76609056D01*
X151821042Y-76427428D01*
X151841004Y-76237500D01*
X151821042Y-76047572D01*
X151762027Y-75865944D01*
X151666540Y-75700556D01*
X151538753Y-75558634D01*
X151384252Y-75446382D01*
X151209788Y-75368706D01*
X151209786Y-75368705D01*
X151022987Y-75329000D01*
X150832013Y-75329000D01*
X150645214Y-75368705D01*
X150645211Y-75368706D01*
X150645212Y-75368706D01*
X150493647Y-75436187D01*
X150470746Y-75446383D01*
X150316245Y-75558635D01*
X150188459Y-75700557D01*
X150092973Y-75865943D01*
X150092970Y-75865950D01*
X150045853Y-76010963D01*
X150033958Y-76047572D01*
X150013996Y-76237500D01*
X150033958Y-76427428D01*
X150033959Y-76427431D01*
X150092970Y-76609049D01*
X150092973Y-76609056D01*
X150188460Y-76774444D01*
X150237043Y-76828400D01*
X150282627Y-76879028D01*
X150312857Y-76942020D01*
X150304231Y-77011355D01*
X150282627Y-77044972D01*
X150188459Y-77149557D01*
X150092973Y-77314943D01*
X150092970Y-77314950D01*
X150033959Y-77496568D01*
X150033958Y-77496572D01*
X150013996Y-77686500D01*
X136698621Y-77686500D01*
X136711715Y-77672276D01*
X136711716Y-77672274D01*
X136711722Y-77672268D01*
X136834860Y-77483791D01*
X136925296Y-77277616D01*
X136980564Y-77059368D01*
X136984851Y-77007634D01*
X136999156Y-76835005D01*
X136999156Y-76834994D01*
X136980565Y-76610640D01*
X136980563Y-76610628D01*
X136965731Y-76552057D01*
X136925296Y-76392384D01*
X136896616Y-76327000D01*
X137928996Y-76327000D01*
X137948958Y-76516928D01*
X137948959Y-76516931D01*
X138007970Y-76698549D01*
X138007973Y-76698556D01*
X138103460Y-76863944D01*
X138231247Y-77005866D01*
X138385748Y-77118118D01*
X138560212Y-77195794D01*
X138747013Y-77235500D01*
X138937987Y-77235500D01*
X139124788Y-77195794D01*
X139299252Y-77118118D01*
X139453753Y-77005866D01*
X139581540Y-76863944D01*
X139677027Y-76698556D01*
X139736042Y-76516928D01*
X139756004Y-76327000D01*
X139736042Y-76137072D01*
X139677027Y-75955444D01*
X139581540Y-75790056D01*
X139453753Y-75648134D01*
X139299252Y-75535882D01*
X139124788Y-75458206D01*
X139124786Y-75458205D01*
X138937987Y-75418500D01*
X138747013Y-75418500D01*
X138560214Y-75458205D01*
X138385746Y-75535883D01*
X138231245Y-75648135D01*
X138103459Y-75790057D01*
X138007973Y-75955443D01*
X138007970Y-75955450D01*
X137948959Y-76137068D01*
X137948958Y-76137072D01*
X137928996Y-76327000D01*
X136896616Y-76327000D01*
X136834860Y-76186209D01*
X136711722Y-75997732D01*
X136711719Y-75997729D01*
X136711715Y-75997723D01*
X136559243Y-75832097D01*
X136559238Y-75832092D01*
X136381577Y-75693812D01*
X136381578Y-75693812D01*
X136381576Y-75693811D01*
X136345070Y-75674055D01*
X136295479Y-75624836D01*
X136280371Y-75556619D01*
X136304541Y-75491064D01*
X136345070Y-75455945D01*
X136345084Y-75455936D01*
X136381576Y-75436189D01*
X136559240Y-75297906D01*
X136658614Y-75189957D01*
X136711715Y-75132276D01*
X136711716Y-75132274D01*
X136711722Y-75132268D01*
X136834860Y-74943791D01*
X136925296Y-74737616D01*
X136980564Y-74519368D01*
X136999156Y-74295000D01*
X136998284Y-74284482D01*
X136980565Y-74070640D01*
X136980563Y-74070628D01*
X136948273Y-73943118D01*
X136925705Y-73854000D01*
X144402996Y-73854000D01*
X144422958Y-74043928D01*
X144422959Y-74043931D01*
X144481970Y-74225549D01*
X144481973Y-74225556D01*
X144577460Y-74390944D01*
X144705247Y-74532866D01*
X144859748Y-74645118D01*
X145034212Y-74722794D01*
X145221013Y-74762500D01*
X145411987Y-74762500D01*
X145598788Y-74722794D01*
X145773252Y-74645118D01*
X145927753Y-74532866D01*
X146055540Y-74390944D01*
X146151027Y-74225556D01*
X146210042Y-74043928D01*
X146230004Y-73854000D01*
X146210042Y-73664072D01*
X146151027Y-73482444D01*
X146055540Y-73317056D01*
X145927753Y-73175134D01*
X145895912Y-73152000D01*
X147930496Y-73152000D01*
X147950458Y-73341928D01*
X147950459Y-73341931D01*
X148009470Y-73523549D01*
X148009473Y-73523556D01*
X148104960Y-73688944D01*
X148232747Y-73830866D01*
X148387248Y-73943118D01*
X148561712Y-74020794D01*
X148748513Y-74060500D01*
X148939487Y-74060500D01*
X149126288Y-74020794D01*
X149300752Y-73943118D01*
X149342308Y-73912926D01*
X152652545Y-73912926D01*
X152672507Y-74102854D01*
X152672508Y-74102857D01*
X152731519Y-74284475D01*
X152731522Y-74284482D01*
X152827009Y-74449870D01*
X152954796Y-74591792D01*
X153109297Y-74704044D01*
X153283761Y-74781720D01*
X153470562Y-74821426D01*
X153661536Y-74821426D01*
X153848337Y-74781720D01*
X154022801Y-74704044D01*
X154177302Y-74591792D01*
X154305089Y-74449870D01*
X154400576Y-74284482D01*
X154459591Y-74102854D01*
X154479553Y-73912926D01*
X154461124Y-73737589D01*
X154473693Y-73668863D01*
X154521425Y-73617839D01*
X154589166Y-73600721D01*
X154634876Y-73611349D01*
X154698763Y-73639794D01*
X154698766Y-73639794D01*
X154698767Y-73639795D01*
X154885564Y-73679500D01*
X155076538Y-73679500D01*
X155263339Y-73639794D01*
X155437803Y-73562118D01*
X155592304Y-73449866D01*
X155720091Y-73307944D01*
X155815578Y-73142556D01*
X155874593Y-72960928D01*
X155894555Y-72771000D01*
X155874593Y-72581072D01*
X155815578Y-72399444D01*
X155720091Y-72234056D01*
X155592304Y-72092134D01*
X155437803Y-71979882D01*
X155263339Y-71902206D01*
X155263337Y-71902205D01*
X155076538Y-71862500D01*
X154885564Y-71862500D01*
X154698765Y-71902205D01*
X154698762Y-71902206D01*
X154698763Y-71902206D01*
X154525454Y-71979368D01*
X154524297Y-71979883D01*
X154369796Y-72092135D01*
X154242010Y-72234057D01*
X154146524Y-72399443D01*
X154146521Y-72399450D01*
X154087510Y-72581068D01*
X154087509Y-72581072D01*
X154073223Y-72716994D01*
X154067547Y-72771000D01*
X154085975Y-72946333D01*
X154073405Y-73015063D01*
X154025673Y-73066086D01*
X153957933Y-73083204D01*
X153912219Y-73072574D01*
X153848337Y-73044132D01*
X153848335Y-73044131D01*
X153661536Y-73004426D01*
X153470562Y-73004426D01*
X153283763Y-73044131D01*
X153109295Y-73121809D01*
X152954794Y-73234061D01*
X152827008Y-73375983D01*
X152731522Y-73541369D01*
X152731519Y-73541376D01*
X152672508Y-73722994D01*
X152672507Y-73722998D01*
X152652545Y-73912926D01*
X149342308Y-73912926D01*
X149455253Y-73830866D01*
X149583040Y-73688944D01*
X149678527Y-73523556D01*
X149737542Y-73341928D01*
X149757504Y-73152000D01*
X149737542Y-72962072D01*
X149678527Y-72780444D01*
X149583040Y-72615056D01*
X149556987Y-72586121D01*
X149526759Y-72523131D01*
X149535385Y-72453796D01*
X149576259Y-72402829D01*
X149580918Y-72399444D01*
X149585155Y-72396366D01*
X149712942Y-72254444D01*
X149808429Y-72089056D01*
X149867444Y-71907428D01*
X149887406Y-71717500D01*
X149867444Y-71527572D01*
X149808429Y-71345944D01*
X149712942Y-71180556D01*
X149585155Y-71038634D01*
X149430654Y-70926382D01*
X149256190Y-70848706D01*
X149256188Y-70848705D01*
X149069389Y-70809000D01*
X148878415Y-70809000D01*
X148691616Y-70848705D01*
X148613200Y-70883618D01*
X148529569Y-70920853D01*
X148517148Y-70926383D01*
X148362647Y-71038635D01*
X148234861Y-71180557D01*
X148139375Y-71345943D01*
X148139372Y-71345950D01*
X148082860Y-71519877D01*
X148080360Y-71527572D01*
X148060398Y-71717500D01*
X148080360Y-71907428D01*
X148080361Y-71907431D01*
X148139372Y-72089049D01*
X148139375Y-72089056D01*
X148234862Y-72254444D01*
X148260912Y-72283376D01*
X148291142Y-72346366D01*
X148282518Y-72415702D01*
X148241652Y-72466663D01*
X148232750Y-72473130D01*
X148232746Y-72473134D01*
X148104959Y-72615057D01*
X148009473Y-72780443D01*
X148009470Y-72780450D01*
X147950459Y-72962068D01*
X147950458Y-72962072D01*
X147930496Y-73152000D01*
X145895912Y-73152000D01*
X145773252Y-73062882D01*
X145598788Y-72985206D01*
X145598786Y-72985205D01*
X145411987Y-72945500D01*
X145221013Y-72945500D01*
X145034214Y-72985205D01*
X145034211Y-72985206D01*
X145034212Y-72985206D01*
X144901862Y-73044132D01*
X144859746Y-73062883D01*
X144705245Y-73175135D01*
X144577459Y-73317057D01*
X144481973Y-73482443D01*
X144481970Y-73482450D01*
X144428762Y-73646209D01*
X144422958Y-73664072D01*
X144402996Y-73854000D01*
X136925705Y-73854000D01*
X136925296Y-73852384D01*
X136834860Y-73646209D01*
X136711722Y-73457732D01*
X136711719Y-73457729D01*
X136711715Y-73457723D01*
X136559243Y-73292097D01*
X136559238Y-73292092D01*
X136381577Y-73153812D01*
X136381572Y-73153808D01*
X136345068Y-73134053D01*
X136295478Y-73084833D01*
X136280371Y-73016616D01*
X136304542Y-72951061D01*
X136345069Y-72915945D01*
X136381576Y-72896189D01*
X136559240Y-72757906D01*
X136658614Y-72649957D01*
X136711715Y-72592276D01*
X136711715Y-72592274D01*
X136711722Y-72592268D01*
X136785441Y-72479431D01*
X136838587Y-72434076D01*
X136907818Y-72424652D01*
X136971154Y-72454154D01*
X136981394Y-72464278D01*
X137019247Y-72506317D01*
X137173748Y-72618569D01*
X137348212Y-72696245D01*
X137535013Y-72735951D01*
X137725987Y-72735951D01*
X137912788Y-72696245D01*
X138087252Y-72618569D01*
X138241753Y-72506317D01*
X138369540Y-72364395D01*
X138465027Y-72199007D01*
X138524042Y-72017379D01*
X138544004Y-71827451D01*
X138524042Y-71637523D01*
X138465027Y-71455895D01*
X138369540Y-71290507D01*
X138241753Y-71148585D01*
X138087252Y-71036333D01*
X137912788Y-70958657D01*
X137912786Y-70958656D01*
X137912787Y-70958656D01*
X137855329Y-70946443D01*
X137793847Y-70913250D01*
X137760071Y-70852086D01*
X137763179Y-70786838D01*
X137799542Y-70674928D01*
X137819504Y-70485000D01*
X137799542Y-70295072D01*
X137740527Y-70113444D01*
X137667207Y-69986450D01*
X137645041Y-69948057D01*
X137645036Y-69948050D01*
X137572850Y-69867879D01*
X137542620Y-69804887D01*
X137541000Y-69784907D01*
X137541000Y-69762746D01*
X137560685Y-69695707D01*
X137613489Y-69649952D01*
X137682647Y-69640008D01*
X137715430Y-69649465D01*
X137835209Y-69702794D01*
X138022010Y-69742500D01*
X138212984Y-69742500D01*
X138399785Y-69702794D01*
X138574249Y-69625118D01*
X138728750Y-69512866D01*
X138856537Y-69370944D01*
X138952024Y-69205556D01*
X139011039Y-69023928D01*
X139031001Y-68834000D01*
X139019231Y-68722019D01*
X139031800Y-68653293D01*
X139079532Y-68602269D01*
X139147272Y-68585151D01*
X139168332Y-68587770D01*
X139223513Y-68599500D01*
X139414484Y-68599500D01*
X139414487Y-68599500D01*
X139469665Y-68587771D01*
X139539328Y-68593086D01*
X139595063Y-68635222D01*
X139619169Y-68700802D01*
X139618765Y-68722022D01*
X139607673Y-68827561D01*
X139606996Y-68834000D01*
X139626958Y-69023928D01*
X139626959Y-69023931D01*
X139685970Y-69205549D01*
X139685973Y-69205556D01*
X139781460Y-69370944D01*
X139909247Y-69512866D01*
X140063748Y-69625118D01*
X140238212Y-69702794D01*
X140425013Y-69742500D01*
X140615987Y-69742500D01*
X140802788Y-69702794D01*
X140977252Y-69625118D01*
X141131753Y-69512866D01*
X141259540Y-69370944D01*
X141355027Y-69205556D01*
X141414042Y-69023928D01*
X141434004Y-68834000D01*
X141414042Y-68644072D01*
X141355027Y-68462444D01*
X141259540Y-68297056D01*
X141134933Y-68158666D01*
X141131754Y-68155135D01*
X141046352Y-68093086D01*
X140977252Y-68042882D01*
X140802788Y-67965206D01*
X140802786Y-67965205D01*
X140707728Y-67945000D01*
X141961496Y-67945000D01*
X141981458Y-68134928D01*
X141981459Y-68134931D01*
X142040470Y-68316549D01*
X142040473Y-68316556D01*
X142135960Y-68481944D01*
X142263747Y-68623866D01*
X142418248Y-68736118D01*
X142592712Y-68813794D01*
X142779513Y-68853500D01*
X142970486Y-68853500D01*
X142970487Y-68853500D01*
X143095731Y-68826878D01*
X143165394Y-68832193D01*
X143221128Y-68874330D01*
X143245234Y-68939910D01*
X143244830Y-68961129D01*
X143231496Y-69087999D01*
X143231496Y-69088000D01*
X143251458Y-69277928D01*
X143251459Y-69277931D01*
X143310470Y-69459549D01*
X143310473Y-69459556D01*
X143405960Y-69624944D01*
X143533747Y-69766866D01*
X143688248Y-69879118D01*
X143862712Y-69956794D01*
X144049513Y-69996500D01*
X144240487Y-69996500D01*
X144319477Y-69979709D01*
X144345258Y-69977000D01*
X144764370Y-69977000D01*
X144831409Y-69996685D01*
X144877164Y-70049489D01*
X144887108Y-70118647D01*
X144882302Y-70139313D01*
X144872958Y-70168072D01*
X144859610Y-70295072D01*
X144853187Y-70356187D01*
X144852996Y-70358000D01*
X144872958Y-70547928D01*
X144872959Y-70547931D01*
X144931970Y-70729549D01*
X144931973Y-70729556D01*
X144965096Y-70786926D01*
X144981569Y-70854826D01*
X144958716Y-70920853D01*
X144935307Y-70944488D01*
X144935576Y-70944786D01*
X144930746Y-70949134D01*
X144802959Y-71091057D01*
X144707473Y-71256443D01*
X144707470Y-71256450D01*
X144648458Y-71438070D01*
X144648458Y-71438072D01*
X144647217Y-71449874D01*
X144620629Y-71514487D01*
X144563330Y-71554469D01*
X144493510Y-71557125D01*
X144433339Y-71521613D01*
X144431798Y-71519934D01*
X144375253Y-71457134D01*
X144220752Y-71344882D01*
X144046288Y-71267206D01*
X144046286Y-71267205D01*
X143859487Y-71227500D01*
X143668513Y-71227500D01*
X143481714Y-71267205D01*
X143307246Y-71344883D01*
X143152745Y-71457135D01*
X143024959Y-71599057D01*
X142929473Y-71764443D01*
X142929470Y-71764450D01*
X142897612Y-71862500D01*
X142870458Y-71946072D01*
X142850496Y-72136000D01*
X142870458Y-72325928D01*
X142870459Y-72325931D01*
X142929470Y-72507549D01*
X142929473Y-72507556D01*
X143024960Y-72672944D01*
X143152747Y-72814866D01*
X143307248Y-72927118D01*
X143481712Y-73004794D01*
X143668513Y-73044500D01*
X143859487Y-73044500D01*
X144046288Y-73004794D01*
X144220752Y-72927118D01*
X144375253Y-72814866D01*
X144503040Y-72672944D01*
X144598527Y-72507556D01*
X144657542Y-72325928D01*
X144658782Y-72314129D01*
X144685365Y-72249517D01*
X144742662Y-72209532D01*
X144812481Y-72206872D01*
X144872655Y-72242381D01*
X144874161Y-72244021D01*
X144930747Y-72306866D01*
X145085248Y-72419118D01*
X145259712Y-72496794D01*
X145446513Y-72536500D01*
X145637487Y-72536500D01*
X145824288Y-72496794D01*
X145998752Y-72419118D01*
X146153253Y-72306866D01*
X146281040Y-72164944D01*
X146376527Y-71999556D01*
X146435542Y-71817928D01*
X146455504Y-71628000D01*
X146435542Y-71438072D01*
X146376527Y-71256444D01*
X146343402Y-71199070D01*
X146326930Y-71131174D01*
X146349782Y-71065147D01*
X146373192Y-71041514D01*
X146372923Y-71041215D01*
X146377747Y-71036869D01*
X146377753Y-71036866D01*
X146505540Y-70894944D01*
X146601027Y-70729556D01*
X146660042Y-70547928D01*
X146680004Y-70358000D01*
X146660042Y-70168072D01*
X146601027Y-69986444D01*
X146505540Y-69821056D01*
X146377753Y-69679134D01*
X146223252Y-69566882D01*
X146048788Y-69489206D01*
X146048786Y-69489205D01*
X145861987Y-69449500D01*
X145671013Y-69449500D01*
X145623704Y-69459556D01*
X145592023Y-69466290D01*
X145566242Y-69469000D01*
X145147130Y-69469000D01*
X145080091Y-69449315D01*
X145034336Y-69396511D01*
X145024392Y-69327353D01*
X145029197Y-69306686D01*
X145038542Y-69277928D01*
X145058504Y-69088000D01*
X145038542Y-68898072D01*
X144979527Y-68716444D01*
X144884040Y-68551056D01*
X144756253Y-68409134D01*
X144601752Y-68296882D01*
X144427288Y-68219206D01*
X144427286Y-68219205D01*
X144240487Y-68179500D01*
X144049513Y-68179500D01*
X144049512Y-68179500D01*
X143924270Y-68206120D01*
X143854603Y-68200804D01*
X143798870Y-68158666D01*
X143774765Y-68093086D01*
X143775168Y-68071877D01*
X143788504Y-67945000D01*
X143768542Y-67755072D01*
X143709527Y-67573444D01*
X143614040Y-67408056D01*
X143491985Y-67272500D01*
X144882496Y-67272500D01*
X144902458Y-67462428D01*
X144902459Y-67462431D01*
X144961470Y-67644049D01*
X144961473Y-67644056D01*
X145056960Y-67809444D01*
X145143389Y-67905433D01*
X145167230Y-67931912D01*
X145184747Y-67951366D01*
X145339248Y-68063618D01*
X145513712Y-68141294D01*
X145700513Y-68181000D01*
X145891487Y-68181000D01*
X146078288Y-68141294D01*
X146252752Y-68063618D01*
X146407253Y-67951366D01*
X146412985Y-67945000D01*
X148209000Y-67945000D01*
X148209000Y-70485000D01*
X150749000Y-70485000D01*
X150749000Y-69342000D01*
X152502496Y-69342000D01*
X152522458Y-69531928D01*
X152522459Y-69531931D01*
X152581470Y-69713549D01*
X152581473Y-69713556D01*
X152676960Y-69878944D01*
X152804747Y-70020866D01*
X152959248Y-70133118D01*
X153133712Y-70210794D01*
X153320513Y-70250500D01*
X153511487Y-70250500D01*
X153698288Y-70210794D01*
X153872752Y-70133118D01*
X153975069Y-70058779D01*
X154040872Y-70035301D01*
X154108926Y-70051126D01*
X154157621Y-70101231D01*
X154171272Y-70146135D01*
X154173457Y-70166925D01*
X154173458Y-70166929D01*
X154232470Y-70348549D01*
X154232473Y-70348556D01*
X154327960Y-70513944D01*
X154455747Y-70655866D01*
X154610248Y-70768118D01*
X154784712Y-70845794D01*
X154971513Y-70885500D01*
X155162487Y-70885500D01*
X155349288Y-70845794D01*
X155523752Y-70768118D01*
X155678253Y-70655866D01*
X155806040Y-70513944D01*
X155901527Y-70348556D01*
X155960542Y-70166928D01*
X155980504Y-69977000D01*
X155960542Y-69787072D01*
X155901527Y-69605444D01*
X155806040Y-69440056D01*
X155678253Y-69298134D01*
X155523752Y-69185882D01*
X155349288Y-69108206D01*
X155349286Y-69108205D01*
X155162487Y-69068500D01*
X154971513Y-69068500D01*
X154784714Y-69108205D01*
X154610243Y-69185884D01*
X154507932Y-69260218D01*
X154442126Y-69283698D01*
X154374072Y-69267872D01*
X154325377Y-69217767D01*
X154311727Y-69172864D01*
X154309542Y-69152072D01*
X154299524Y-69121241D01*
X154250529Y-68970450D01*
X154250528Y-68970449D01*
X154250527Y-68970444D01*
X154155040Y-68805056D01*
X154027253Y-68663134D01*
X153872752Y-68550882D01*
X153698288Y-68473206D01*
X153698286Y-68473205D01*
X153511487Y-68433500D01*
X153320513Y-68433500D01*
X153133714Y-68473205D01*
X152959246Y-68550883D01*
X152804745Y-68663135D01*
X152676959Y-68805057D01*
X152581473Y-68970443D01*
X152581470Y-68970450D01*
X152532475Y-69121243D01*
X152522458Y-69152072D01*
X152502496Y-69342000D01*
X150749000Y-69342000D01*
X150749000Y-67945000D01*
X148209000Y-67945000D01*
X146412985Y-67945000D01*
X146535040Y-67809444D01*
X146630527Y-67644056D01*
X146689542Y-67462428D01*
X146709504Y-67272500D01*
X146689542Y-67082572D01*
X146630527Y-66900944D01*
X146535040Y-66735556D01*
X146527336Y-66727000D01*
X149835496Y-66727000D01*
X149855458Y-66916928D01*
X149855459Y-66916931D01*
X149914470Y-67098549D01*
X149914473Y-67098556D01*
X150009960Y-67263944D01*
X150137747Y-67405866D01*
X150292248Y-67518118D01*
X150466712Y-67595794D01*
X150653513Y-67635500D01*
X150844487Y-67635500D01*
X151031288Y-67595794D01*
X151205752Y-67518118D01*
X151360253Y-67405866D01*
X151488040Y-67263944D01*
X151583527Y-67098556D01*
X151642542Y-66916928D01*
X151662504Y-66727000D01*
X151642542Y-66537072D01*
X151583527Y-66355444D01*
X151488040Y-66190056D01*
X151360253Y-66048134D01*
X151205752Y-65935882D01*
X151031288Y-65858206D01*
X151031286Y-65858205D01*
X150844487Y-65818500D01*
X150653513Y-65818500D01*
X150466714Y-65858205D01*
X150466711Y-65858206D01*
X150466712Y-65858206D01*
X150364870Y-65903549D01*
X150292246Y-65935883D01*
X150137745Y-66048135D01*
X150009959Y-66190057D01*
X149914473Y-66355443D01*
X149914470Y-66355450D01*
X149855459Y-66537068D01*
X149855458Y-66537072D01*
X149835496Y-66727000D01*
X146527336Y-66727000D01*
X146407253Y-66593634D01*
X146252752Y-66481382D01*
X146078288Y-66403706D01*
X146078286Y-66403705D01*
X145891487Y-66364000D01*
X145700513Y-66364000D01*
X145513714Y-66403705D01*
X145339246Y-66481383D01*
X145184745Y-66593635D01*
X145056959Y-66735557D01*
X144961473Y-66900943D01*
X144961470Y-66900950D01*
X144904526Y-67076206D01*
X144902458Y-67082572D01*
X144882496Y-67272500D01*
X143491985Y-67272500D01*
X143486253Y-67266134D01*
X143331752Y-67153882D01*
X143157288Y-67076206D01*
X143157286Y-67076205D01*
X142970487Y-67036500D01*
X142779513Y-67036500D01*
X142592714Y-67076205D01*
X142418246Y-67153883D01*
X142263745Y-67266135D01*
X142135959Y-67408057D01*
X142040473Y-67573443D01*
X142040470Y-67573450D01*
X141981459Y-67755068D01*
X141981458Y-67755072D01*
X141961496Y-67945000D01*
X140707728Y-67945000D01*
X140615987Y-67925500D01*
X140425013Y-67925500D01*
X140369836Y-67937228D01*
X140300168Y-67931912D01*
X140244435Y-67889775D01*
X140220330Y-67824195D01*
X140220733Y-67802987D01*
X140232504Y-67691000D01*
X140212542Y-67501072D01*
X140153527Y-67319444D01*
X140058040Y-67154056D01*
X139930253Y-67012134D01*
X139775752Y-66899882D01*
X139601288Y-66822206D01*
X139601286Y-66822205D01*
X139414487Y-66782500D01*
X139223513Y-66782500D01*
X139036714Y-66822205D01*
X139036711Y-66822206D01*
X139036712Y-66822206D01*
X138863403Y-66899368D01*
X138862246Y-66899883D01*
X138707745Y-67012135D01*
X138579959Y-67154057D01*
X138484473Y-67319443D01*
X138484470Y-67319450D01*
X138425459Y-67501068D01*
X138425458Y-67501072D01*
X138411329Y-67635500D01*
X138405496Y-67691000D01*
X138417265Y-67802977D01*
X138404695Y-67871707D01*
X138356963Y-67922730D01*
X138289223Y-67939848D01*
X138268164Y-67937229D01*
X138212984Y-67925500D01*
X138022010Y-67925500D01*
X137835211Y-67965205D01*
X137660743Y-68042883D01*
X137506242Y-68155135D01*
X137378456Y-68297057D01*
X137282970Y-68462443D01*
X137282967Y-68462450D01*
X137223956Y-68644068D01*
X137223955Y-68644072D01*
X137215663Y-68722963D01*
X137189079Y-68787576D01*
X137131782Y-68827561D01*
X137092343Y-68834000D01*
X137033336Y-68834000D01*
X136966297Y-68814315D01*
X136920542Y-68761511D01*
X136919780Y-68759809D01*
X136909387Y-68736116D01*
X136834860Y-68566209D01*
X136711722Y-68377732D01*
X136711719Y-68377729D01*
X136711715Y-68377723D01*
X136559243Y-68212097D01*
X136559238Y-68212092D01*
X136381577Y-68073812D01*
X136381578Y-68073812D01*
X136381576Y-68073811D01*
X136345070Y-68054055D01*
X136295479Y-68004836D01*
X136280371Y-67936619D01*
X136304541Y-67871064D01*
X136345070Y-67835945D01*
X136345084Y-67835936D01*
X136381576Y-67816189D01*
X136559240Y-67677906D01*
X136658614Y-67569957D01*
X136711715Y-67512276D01*
X136711716Y-67512274D01*
X136711722Y-67512268D01*
X136834860Y-67323791D01*
X136925296Y-67117616D01*
X136980564Y-66899368D01*
X136984189Y-66855622D01*
X136999156Y-66675005D01*
X136999156Y-66674994D01*
X136980565Y-66450640D01*
X136980563Y-66450628D01*
X136958626Y-66364000D01*
X136925296Y-66232384D01*
X136834860Y-66026209D01*
X136711722Y-65837732D01*
X136711719Y-65837729D01*
X136711715Y-65837723D01*
X136559243Y-65672097D01*
X136559238Y-65672092D01*
X136381577Y-65533812D01*
X136381578Y-65533812D01*
X136381576Y-65533811D01*
X136345070Y-65514055D01*
X136295479Y-65464836D01*
X136280371Y-65396619D01*
X136304541Y-65331064D01*
X136345070Y-65295945D01*
X136345084Y-65295936D01*
X136381576Y-65276189D01*
X136559240Y-65137906D01*
X136658614Y-65029957D01*
X136711715Y-64972276D01*
X136711716Y-64972274D01*
X136711722Y-64972268D01*
X136834860Y-64783791D01*
X136925296Y-64577616D01*
X136980564Y-64359368D01*
X136980565Y-64359359D01*
X136999156Y-64135005D01*
X136999156Y-64134994D01*
X136980565Y-63910640D01*
X136980563Y-63910628D01*
X136965731Y-63852057D01*
X136925296Y-63692384D01*
X136834860Y-63486209D01*
X136711722Y-63297732D01*
X136711719Y-63297729D01*
X136711715Y-63297723D01*
X136629578Y-63208500D01*
X137262496Y-63208500D01*
X137282458Y-63398428D01*
X137282459Y-63398431D01*
X137341470Y-63580049D01*
X137341473Y-63580056D01*
X137436960Y-63745444D01*
X137564747Y-63887366D01*
X137719248Y-63999618D01*
X137893712Y-64077294D01*
X138080513Y-64117000D01*
X138271487Y-64117000D01*
X138458288Y-64077294D01*
X138632752Y-63999618D01*
X138787253Y-63887366D01*
X138826750Y-63843500D01*
X140310496Y-63843500D01*
X140330458Y-64033428D01*
X140330459Y-64033431D01*
X140389470Y-64215049D01*
X140389473Y-64215056D01*
X140484960Y-64380444D01*
X140612747Y-64522366D01*
X140767248Y-64634618D01*
X140941712Y-64712294D01*
X141128513Y-64752000D01*
X141170800Y-64752000D01*
X141237839Y-64771685D01*
X141283594Y-64824489D01*
X141293538Y-64893647D01*
X141264513Y-64957203D01*
X141262950Y-64958972D01*
X141230459Y-64995057D01*
X141134973Y-65160443D01*
X141134970Y-65160450D01*
X141075959Y-65342068D01*
X141075958Y-65342072D01*
X141055996Y-65532000D01*
X141075958Y-65721928D01*
X141075959Y-65721931D01*
X141134970Y-65903549D01*
X141134973Y-65903556D01*
X141230460Y-66068944D01*
X141332790Y-66182593D01*
X141339510Y-66190057D01*
X141358247Y-66210866D01*
X141512748Y-66323118D01*
X141687212Y-66400794D01*
X141874013Y-66440500D01*
X142064987Y-66440500D01*
X142251788Y-66400794D01*
X142426252Y-66323118D01*
X142580753Y-66210866D01*
X142708540Y-66068944D01*
X142804027Y-65903556D01*
X142863042Y-65721928D01*
X142883004Y-65532000D01*
X142863042Y-65342072D01*
X142804027Y-65160444D01*
X142708540Y-64995056D01*
X142580753Y-64853134D01*
X142426252Y-64740882D01*
X142251788Y-64663206D01*
X142251786Y-64663205D01*
X142064987Y-64623500D01*
X142022700Y-64623500D01*
X141955661Y-64603815D01*
X141909906Y-64551011D01*
X141899962Y-64481853D01*
X141928987Y-64418297D01*
X141930550Y-64416528D01*
X141937778Y-64408500D01*
X141963040Y-64380444D01*
X142058527Y-64215056D01*
X142117542Y-64033428D01*
X142137504Y-63843500D01*
X142117542Y-63653572D01*
X142067643Y-63500000D01*
X148438496Y-63500000D01*
X148458458Y-63689928D01*
X148458459Y-63689931D01*
X148517470Y-63871549D01*
X148517473Y-63871556D01*
X148612960Y-64036944D01*
X148740747Y-64178866D01*
X148895248Y-64291118D01*
X149069712Y-64368794D01*
X149256513Y-64408500D01*
X149447487Y-64408500D01*
X149539227Y-64389000D01*
X151359496Y-64389000D01*
X151379458Y-64578928D01*
X151379459Y-64578931D01*
X151438470Y-64760549D01*
X151438473Y-64760556D01*
X151533960Y-64925944D01*
X151661747Y-65067866D01*
X151816248Y-65180118D01*
X151990712Y-65257794D01*
X152177513Y-65297500D01*
X152368487Y-65297500D01*
X152555288Y-65257794D01*
X152729752Y-65180118D01*
X152884253Y-65067866D01*
X153012040Y-64925944D01*
X153107527Y-64760556D01*
X153166542Y-64578928D01*
X153186504Y-64389000D01*
X153166542Y-64199072D01*
X153107527Y-64017444D01*
X153012040Y-63852056D01*
X152884253Y-63710134D01*
X152729752Y-63597882D01*
X152555288Y-63520206D01*
X152555286Y-63520205D01*
X152368487Y-63480500D01*
X152177513Y-63480500D01*
X151990714Y-63520205D01*
X151816246Y-63597883D01*
X151661745Y-63710135D01*
X151533959Y-63852057D01*
X151438473Y-64017443D01*
X151438470Y-64017450D01*
X151386024Y-64178864D01*
X151379458Y-64199072D01*
X151359496Y-64389000D01*
X149539227Y-64389000D01*
X149634288Y-64368794D01*
X149808752Y-64291118D01*
X149963253Y-64178866D01*
X150091040Y-64036944D01*
X150186527Y-63871556D01*
X150245542Y-63689928D01*
X150265504Y-63500000D01*
X150245542Y-63310072D01*
X150186527Y-63128444D01*
X150091040Y-62963056D01*
X149963253Y-62821134D01*
X149808752Y-62708882D01*
X149634288Y-62631206D01*
X149634286Y-62631205D01*
X149447487Y-62591500D01*
X149256513Y-62591500D01*
X149069714Y-62631205D01*
X148895246Y-62708883D01*
X148740745Y-62821135D01*
X148612959Y-62963057D01*
X148517473Y-63128443D01*
X148517470Y-63128450D01*
X148462467Y-63297734D01*
X148458458Y-63310072D01*
X148438496Y-63500000D01*
X142067643Y-63500000D01*
X142058527Y-63471944D01*
X141963040Y-63306556D01*
X141835253Y-63164634D01*
X141680752Y-63052382D01*
X141506288Y-62974706D01*
X141506286Y-62974705D01*
X141319487Y-62935000D01*
X141128513Y-62935000D01*
X140941714Y-62974705D01*
X140767246Y-63052383D01*
X140612745Y-63164635D01*
X140484959Y-63306557D01*
X140389473Y-63471943D01*
X140389470Y-63471950D01*
X140330459Y-63653568D01*
X140330458Y-63653572D01*
X140310496Y-63843500D01*
X138826750Y-63843500D01*
X138915040Y-63745444D01*
X139010527Y-63580056D01*
X139069542Y-63398428D01*
X139089504Y-63208500D01*
X139069542Y-63018572D01*
X139010527Y-62836944D01*
X138915040Y-62671556D01*
X138787253Y-62529634D01*
X138632752Y-62417382D01*
X138458288Y-62339706D01*
X138458286Y-62339705D01*
X138271487Y-62300000D01*
X138080513Y-62300000D01*
X137893714Y-62339705D01*
X137719246Y-62417383D01*
X137564745Y-62529635D01*
X137436959Y-62671557D01*
X137341473Y-62836943D01*
X137341470Y-62836950D01*
X137296711Y-62974705D01*
X137282458Y-63018572D01*
X137262496Y-63208500D01*
X136629578Y-63208500D01*
X136559243Y-63132097D01*
X136559238Y-63132092D01*
X136440797Y-63039905D01*
X136381576Y-62993811D01*
X136345070Y-62974055D01*
X136295479Y-62924836D01*
X136280371Y-62856619D01*
X136304541Y-62791064D01*
X136345070Y-62755945D01*
X136345084Y-62755936D01*
X136381576Y-62736189D01*
X136559240Y-62597906D01*
X136658614Y-62489957D01*
X136711715Y-62432276D01*
X136711716Y-62432274D01*
X136711722Y-62432268D01*
X136834860Y-62243791D01*
X136925296Y-62037616D01*
X136980564Y-61819368D01*
X136999156Y-61595000D01*
X150216496Y-61595000D01*
X150236458Y-61784928D01*
X150236459Y-61784931D01*
X150295470Y-61966549D01*
X150295473Y-61966556D01*
X150390960Y-62131944D01*
X150518747Y-62273866D01*
X150673248Y-62386118D01*
X150847712Y-62463794D01*
X151034513Y-62503500D01*
X151225487Y-62503500D01*
X151412288Y-62463794D01*
X151586752Y-62386118D01*
X151692115Y-62309566D01*
X151757920Y-62286087D01*
X151825974Y-62301912D01*
X151837877Y-62309561D01*
X151943248Y-62386118D01*
X152117712Y-62463794D01*
X152304513Y-62503500D01*
X152495487Y-62503500D01*
X152682288Y-62463794D01*
X152856752Y-62386118D01*
X153011253Y-62273866D01*
X153139040Y-62131944D01*
X153234527Y-61966556D01*
X153293542Y-61784928D01*
X153313504Y-61595000D01*
X153293542Y-61405072D01*
X153234527Y-61223444D01*
X153139040Y-61058056D01*
X153011253Y-60916134D01*
X152856752Y-60803882D01*
X152682288Y-60726206D01*
X152682286Y-60726205D01*
X152495487Y-60686500D01*
X152304513Y-60686500D01*
X152117714Y-60726205D01*
X151943243Y-60803884D01*
X151837885Y-60880432D01*
X151772079Y-60903912D01*
X151704025Y-60888086D01*
X151692115Y-60880432D01*
X151586756Y-60803884D01*
X151503091Y-60766634D01*
X151412288Y-60726206D01*
X151412286Y-60726205D01*
X151225487Y-60686500D01*
X151034513Y-60686500D01*
X150847714Y-60726205D01*
X150673246Y-60803883D01*
X150518745Y-60916135D01*
X150390959Y-61058057D01*
X150295473Y-61223443D01*
X150295470Y-61223450D01*
X150236459Y-61405068D01*
X150236458Y-61405072D01*
X150216496Y-61595000D01*
X136999156Y-61595000D01*
X136980564Y-61370632D01*
X136925296Y-61152384D01*
X136834860Y-60946209D01*
X136832441Y-60942507D01*
X136773291Y-60851970D01*
X136711722Y-60757732D01*
X136711719Y-60757729D01*
X136711715Y-60757723D01*
X136559243Y-60592097D01*
X136559238Y-60592092D01*
X136381577Y-60453812D01*
X136381578Y-60453812D01*
X136381576Y-60453811D01*
X136345070Y-60434055D01*
X136295479Y-60384836D01*
X136280371Y-60316619D01*
X136304541Y-60251064D01*
X136345070Y-60215945D01*
X136345084Y-60215936D01*
X136381576Y-60196189D01*
X136559240Y-60057906D01*
X136658614Y-59949957D01*
X136711715Y-59892276D01*
X136711716Y-59892274D01*
X136711722Y-59892268D01*
X136834860Y-59703791D01*
X136925296Y-59497616D01*
X136980564Y-59279368D01*
X136980565Y-59279359D01*
X136999156Y-59055005D01*
X136999156Y-59054994D01*
X136980565Y-58830640D01*
X136980563Y-58830628D01*
X136925296Y-58612385D01*
X136904476Y-58564920D01*
X136834860Y-58406209D01*
X136822807Y-58387761D01*
X136746678Y-58271236D01*
X136711722Y-58217732D01*
X136711719Y-58217729D01*
X136711715Y-58217723D01*
X136566510Y-58059991D01*
X136535587Y-57997337D01*
X136543447Y-57927911D01*
X136587594Y-57873755D01*
X136614405Y-57859827D01*
X136694584Y-57829920D01*
X136732204Y-57815889D01*
X136849261Y-57728261D01*
X136936889Y-57611204D01*
X136987989Y-57474201D01*
X136991591Y-57440692D01*
X136994499Y-57413654D01*
X136994500Y-57413637D01*
X136994500Y-55616362D01*
X136994499Y-55616345D01*
X136991157Y-55585270D01*
X136987989Y-55555799D01*
X136983592Y-55544011D01*
X136948497Y-55449919D01*
X136939519Y-55425849D01*
X136934535Y-55356159D01*
X136968019Y-55294836D01*
X137029342Y-55261350D01*
X137056312Y-55258519D01*
X144369236Y-55295267D01*
G37*
%TD.AperFunction*%
%TA.AperFunction,Conductor*%
G36*
X135886000Y-129739498D02*
G01*
X135778315Y-129690320D01*
X135671763Y-129675000D01*
X135600237Y-129675000D01*
X135493685Y-129690320D01*
X135386000Y-129739498D01*
X135386000Y-128070501D01*
X135493685Y-128119680D01*
X135600237Y-128135000D01*
X135671763Y-128135000D01*
X135778315Y-128119680D01*
X135886000Y-128070501D01*
X135886000Y-129739498D01*
G37*
%TD.AperFunction*%
%TA.AperFunction,Conductor*%
G36*
X158746000Y-129739498D02*
G01*
X158638315Y-129690320D01*
X158531763Y-129675000D01*
X158460237Y-129675000D01*
X158353685Y-129690320D01*
X158246000Y-129739498D01*
X158246000Y-128070501D01*
X158353685Y-128119680D01*
X158460237Y-128135000D01*
X158531763Y-128135000D01*
X158638315Y-128119680D01*
X158746000Y-128070501D01*
X158746000Y-129739498D01*
G37*
%TD.AperFunction*%
%TA.AperFunction,Conductor*%
G36*
X148586000Y-129358498D02*
G01*
X148478315Y-129309320D01*
X148371763Y-129294000D01*
X148300237Y-129294000D01*
X148193685Y-129309320D01*
X148086000Y-129358498D01*
X148086000Y-127689501D01*
X148193685Y-127738680D01*
X148300237Y-127754000D01*
X148371763Y-127754000D01*
X148478315Y-127738680D01*
X148586000Y-127689501D01*
X148586000Y-129358498D01*
G37*
%TD.AperFunction*%
%TA.AperFunction,Conductor*%
G36*
X148586000Y-126818498D02*
G01*
X148478315Y-126769320D01*
X148371763Y-126754000D01*
X148300237Y-126754000D01*
X148193685Y-126769320D01*
X148086000Y-126818498D01*
X148086000Y-125149501D01*
X148193685Y-125198680D01*
X148300237Y-125214000D01*
X148371763Y-125214000D01*
X148478315Y-125198680D01*
X148586000Y-125149501D01*
X148586000Y-126818498D01*
G37*
%TD.AperFunction*%
%TA.AperFunction,Conductor*%
G36*
X148586000Y-124278498D02*
G01*
X148478315Y-124229320D01*
X148371763Y-124214000D01*
X148300237Y-124214000D01*
X148193685Y-124229320D01*
X148086000Y-124278498D01*
X148086000Y-122609501D01*
X148193685Y-122658680D01*
X148300237Y-122674000D01*
X148371763Y-122674000D01*
X148478315Y-122658680D01*
X148586000Y-122609501D01*
X148586000Y-124278498D01*
G37*
%TD.AperFunction*%
%TA.AperFunction,Conductor*%
G36*
X146606507Y-59226156D02*
G01*
X146566000Y-59364111D01*
X146566000Y-59507889D01*
X146606507Y-59645844D01*
X146632314Y-59686000D01*
X144959686Y-59686000D01*
X144985493Y-59645844D01*
X145026000Y-59507889D01*
X145026000Y-59364111D01*
X144985493Y-59226156D01*
X144959686Y-59186000D01*
X146632314Y-59186000D01*
X146606507Y-59226156D01*
G37*
%TD.AperFunction*%
%TA.AperFunction,Conductor*%
G36*
X149146507Y-59226156D02*
G01*
X149106000Y-59364111D01*
X149106000Y-59507889D01*
X149146507Y-59645844D01*
X149172314Y-59686000D01*
X147499686Y-59686000D01*
X147525493Y-59645844D01*
X147566000Y-59507889D01*
X147566000Y-59364111D01*
X147525493Y-59226156D01*
X147499686Y-59186000D01*
X149172314Y-59186000D01*
X149146507Y-59226156D01*
G37*
%TD.AperFunction*%
%TD*%
M02*
