%TF.GenerationSoftware,KiCad,Pcbnew,7.0.6-0*%
%TF.CreationDate,2023-07-25T21:46:34-07:00*%
%TF.ProjectId,84CP02,38344350-3032-42e6-9b69-6361645f7063,rev?*%
%TF.SameCoordinates,Original*%
%TF.FileFunction,Soldermask,Bot*%
%TF.FilePolarity,Negative*%
%FSLAX46Y46*%
G04 Gerber Fmt 4.6, Leading zero omitted, Abs format (unit mm)*
G04 Created by KiCad (PCBNEW 7.0.6-0) date 2023-07-25 21:46:34*
%MOMM*%
%LPD*%
G01*
G04 APERTURE LIST*
%ADD10R,1.700000X1.700000*%
%ADD11O,1.700000X1.700000*%
G04 APERTURE END LIST*
D10*
%TO.C,J3*%
X145796000Y-122174000D03*
D11*
X148336000Y-122174000D03*
X145796000Y-124714000D03*
X148336000Y-124714000D03*
X145796000Y-127254000D03*
X148336000Y-127254000D03*
X145796000Y-129794000D03*
X148336000Y-129794000D03*
%TD*%
D10*
%TO.C,J4*%
X149606000Y-56896000D03*
D11*
X149606000Y-59436000D03*
X147066000Y-56896000D03*
X147066000Y-59436000D03*
X144526000Y-56896000D03*
X144526000Y-59436000D03*
%TD*%
D10*
%TO.C,J1*%
X135636000Y-56515000D03*
D11*
X135636000Y-59055000D03*
X135636000Y-61595000D03*
X135636000Y-64135000D03*
X135636000Y-66675000D03*
X135636000Y-69215000D03*
X135636000Y-71755000D03*
X135636000Y-74295000D03*
X135636000Y-76835000D03*
X135636000Y-79375000D03*
X135636000Y-81915000D03*
X135636000Y-84455000D03*
X135636000Y-86995000D03*
X135636000Y-89535000D03*
X135636000Y-92075000D03*
X135636000Y-94615000D03*
X135636000Y-97155000D03*
X135636000Y-99695000D03*
X135636000Y-102235000D03*
X135636000Y-104775000D03*
X135636000Y-107315000D03*
X135636000Y-109855000D03*
X135636000Y-112395000D03*
X135636000Y-114935000D03*
X135636000Y-117475000D03*
X135636000Y-120015000D03*
X135636000Y-122555000D03*
X135636000Y-125095000D03*
X135636000Y-127635000D03*
X135636000Y-130175000D03*
%TD*%
D10*
%TO.C,J2*%
X158496000Y-56515000D03*
D11*
X158496000Y-59055000D03*
X158496000Y-61595000D03*
X158496000Y-64135000D03*
X158496000Y-66675000D03*
X158496000Y-69215000D03*
X158496000Y-71755000D03*
X158496000Y-74295000D03*
X158496000Y-76835000D03*
X158496000Y-79375000D03*
X158496000Y-81915000D03*
X158496000Y-84455000D03*
X158496000Y-86995000D03*
X158496000Y-89535000D03*
X158496000Y-92075000D03*
X158496000Y-94615000D03*
X158496000Y-97155000D03*
X158496000Y-99695000D03*
X158496000Y-102235000D03*
X158496000Y-104775000D03*
X158496000Y-107315000D03*
X158496000Y-109855000D03*
X158496000Y-112395000D03*
X158496000Y-114935000D03*
X158496000Y-117475000D03*
X158496000Y-120015000D03*
X158496000Y-122555000D03*
X158496000Y-125095000D03*
X158496000Y-127635000D03*
X158496000Y-130175000D03*
%TD*%
M02*
