M48
; DRILL file {KiCad 7.0.6-0} date 2023 July 25, Tuesday 21:46:25
; FORMAT={-:-/ absolute / metric / decimal}
; #@! TF.CreationDate,2023-07-25T21:46:25-07:00
; #@! TF.GenerationSoftware,Kicad,Pcbnew,7.0.6-0
; #@! TF.FileFunction,Plated,1,4,PTH
FMAT,2
METRIC
; #@! TA.AperFunction,Plated,PTH,ViaDrill
T1C0.400
; #@! TA.AperFunction,Plated,PTH,ComponentDrill
T2C1.000
%
G90
G05
T1
X136.779Y-95.758
X136.906Y-70.485
X136.906Y-94.615
X137.083Y-116.205
X137.541Y-96.652
X137.63Y-71.827
X137.63Y-92.075
X137.63Y-93.075
X137.668Y-84.455
X137.807Y-118.237
X137.922Y-122.555
X137.986Y-98.799
X138.117Y-68.834
X138.176Y-63.208
X138.435Y-113.74
X138.436Y-101.151
X138.684Y-99.822
X138.843Y-76.327
X139.192Y-121.666
X139.264Y-119.579
X139.319Y-67.691
X139.319Y-116.025
X139.796Y-79.756
X140.208Y-102.87
X140.462Y-113.015
X140.466Y-108.581
X140.52Y-86.995
X140.52Y-68.834
X140.796Y-119.634
X140.97Y-104.902
X141.097Y-93.35
X141.224Y-63.843
X141.246Y-97.291
X141.695Y-81.915
X141.695Y-87.966
X141.776Y-86.15
X141.969Y-65.532
X142.494Y-127.889
X142.501Y-85.426
X142.689Y-91.753
X142.695Y-113.015
X142.696Y-109.728
X142.785Y-84.218
X142.875Y-67.945
X143.148Y-100.457
X143.463Y-95.178
X143.51Y-121.666
X143.764Y-72.136
X143.796Y-114.465
X144.145Y-69.088
X144.336Y-95.885
X144.399Y-104.013
X144.413Y-90.791
X144.653Y-79.248
X144.907Y-102.743
X145.188Y-97.309
X145.236Y-89.142
X145.288Y-101.6
X145.316Y-73.854
X145.542Y-71.628
X145.669Y-119.126
X145.751Y-98.174
X145.766Y-70.358
X145.796Y-67.272
X145.923Y-117.475
X146.335Y-90.404
X146.393Y-110.998
X146.939Y-85.344
X147.2Y-92.202
X147.2Y-94.22
X147.409Y-97.371
X147.472Y-108.483
X147.886Y-111.051
X147.915Y-81.249
X148.259Y-96.139
X148.259Y-98.298
X148.296Y-90.638
X148.347Y-88.773
X148.844Y-73.152
X148.974Y-71.718
X149.352Y-63.5
X149.643Y-107.315
X149.897Y-112.973
X150.114Y-94.742
X150.114Y-119.126
X150.303Y-99.869
X150.368Y-80.518
X150.368Y-109.093
X150.675Y-114.554
X150.749Y-66.727
X150.749Y-82.804
X150.927Y-76.237
X150.927Y-77.686
X151.034Y-86.61
X151.093Y-105.41
X151.093Y-107.15
X151.13Y-61.595
X151.131Y-101.728
X151.548Y-123.317
X151.638Y-115.977
X151.638Y-125.476
X152.015Y-84.504
X152.152Y-92.577
X152.251Y-83.195
X152.273Y-64.389
X152.362Y-87.63
X152.4Y-61.595
X153.035Y-93.345
X153.055Y-116.877
X153.416Y-69.342
X153.416Y-98.552
X153.566Y-73.913
X153.797Y-97.155
X153.892Y-112.928
X154.305Y-116.078
X154.813Y-96.139
X154.94Y-64.389
X154.981Y-72.771
X154.993Y-93.345
X154.993Y-94.623
X155.067Y-69.977
X155.22Y-107.315
X155.422Y-112.649
X155.575Y-117.221
X155.613Y-77.089
X155.613Y-78.359
X155.702Y-66.04
X155.791Y-67.534
X155.829Y-101.092
X156.12Y-102.87
X156.12Y-104.013
X156.574Y-90.165
X156.595Y-113.652
X156.596Y-85.598
X156.841Y-68.584
X157.353Y-88.265
X157.353Y-93.218
X157.353Y-123.825
T2
X135.636Y-56.515
X135.636Y-59.055
X135.636Y-61.595
X135.636Y-64.135
X135.636Y-66.675
X135.636Y-69.215
X135.636Y-71.755
X135.636Y-74.295
X135.636Y-76.835
X135.636Y-79.375
X135.636Y-81.915
X135.636Y-84.455
X135.636Y-86.995
X135.636Y-89.535
X135.636Y-92.075
X135.636Y-94.615
X135.636Y-97.155
X135.636Y-99.695
X135.636Y-102.235
X135.636Y-104.775
X135.636Y-107.315
X135.636Y-109.855
X135.636Y-112.395
X135.636Y-114.935
X135.636Y-117.475
X135.636Y-120.015
X135.636Y-122.555
X135.636Y-125.095
X135.636Y-127.635
X135.636Y-130.175
X144.526Y-56.896
X144.526Y-59.436
X145.796Y-122.174
X145.796Y-124.714
X145.796Y-127.254
X145.796Y-129.794
X147.066Y-56.896
X147.066Y-59.436
X148.336Y-122.174
X148.336Y-124.714
X148.336Y-127.254
X148.336Y-129.794
X149.606Y-56.896
X149.606Y-59.436
X158.496Y-56.515
X158.496Y-59.055
X158.496Y-61.595
X158.496Y-64.135
X158.496Y-66.675
X158.496Y-69.215
X158.496Y-71.755
X158.496Y-74.295
X158.496Y-76.835
X158.496Y-79.375
X158.496Y-81.915
X158.496Y-84.455
X158.496Y-86.995
X158.496Y-89.535
X158.496Y-92.075
X158.496Y-94.615
X158.496Y-97.155
X158.496Y-99.695
X158.496Y-102.235
X158.496Y-104.775
X158.496Y-107.315
X158.496Y-109.855
X158.496Y-112.395
X158.496Y-114.935
X158.496Y-117.475
X158.496Y-120.015
X158.496Y-122.555
X158.496Y-125.095
X158.496Y-127.635
X158.496Y-130.175
T0
M30
