%TF.GenerationSoftware,KiCad,Pcbnew,7.0.6-0*%
%TF.CreationDate,2023-07-25T21:46:34-07:00*%
%TF.ProjectId,84CP02,38344350-3032-42e6-9b69-6361645f7063,rev?*%
%TF.SameCoordinates,Original*%
%TF.FileFunction,Copper,L4,Bot*%
%TF.FilePolarity,Positive*%
%FSLAX46Y46*%
G04 Gerber Fmt 4.6, Leading zero omitted, Abs format (unit mm)*
G04 Created by KiCad (PCBNEW 7.0.6-0) date 2023-07-25 21:46:34*
%MOMM*%
%LPD*%
G01*
G04 APERTURE LIST*
%TA.AperFunction,ComponentPad*%
%ADD10R,1.700000X1.700000*%
%TD*%
%TA.AperFunction,ComponentPad*%
%ADD11O,1.700000X1.700000*%
%TD*%
%TA.AperFunction,ViaPad*%
%ADD12C,0.800000*%
%TD*%
%TA.AperFunction,Conductor*%
%ADD13C,0.500000*%
%TD*%
%TA.AperFunction,Conductor*%
%ADD14C,0.250000*%
%TD*%
G04 APERTURE END LIST*
D10*
%TO.P,J3,1,Pin_1*%
%TO.N,Net-(J3-Pin_1)*%
X145796000Y-122174000D03*
D11*
%TO.P,J3,2,Pin_2*%
%TO.N,GND*%
X148336000Y-122174000D03*
%TO.P,J3,3,Pin_3*%
%TO.N,Net-(J3-Pin_3)*%
X145796000Y-124714000D03*
%TO.P,J3,4,Pin_4*%
%TO.N,GND*%
X148336000Y-124714000D03*
%TO.P,J3,5,Pin_5*%
%TO.N,Net-(J3-Pin_5)*%
X145796000Y-127254000D03*
%TO.P,J3,6,Pin_6*%
%TO.N,GND*%
X148336000Y-127254000D03*
%TO.P,J3,7,Pin_7*%
%TO.N,Net-(J3-Pin_7)*%
X145796000Y-129794000D03*
%TO.P,J3,8,Pin_8*%
%TO.N,GND*%
X148336000Y-129794000D03*
%TD*%
D10*
%TO.P,J4,1,Pin_1*%
%TO.N,VCC*%
X149606000Y-56896000D03*
D11*
%TO.P,J4,2,Pin_2*%
%TO.N,GND*%
X149606000Y-59436000D03*
%TO.P,J4,3,Pin_3*%
%TO.N,VCC*%
X147066000Y-56896000D03*
%TO.P,J4,4,Pin_4*%
%TO.N,GND*%
X147066000Y-59436000D03*
%TO.P,J4,5,Pin_5*%
%TO.N,VCC*%
X144526000Y-56896000D03*
%TO.P,J4,6,Pin_6*%
%TO.N,GND*%
X144526000Y-59436000D03*
%TD*%
D10*
%TO.P,J1,1,Pin_1*%
%TO.N,VCC*%
X135636000Y-56515000D03*
D11*
%TO.P,J1,2,Pin_2*%
X135636000Y-59055000D03*
%TO.P,J1,3,Pin_3*%
%TO.N,/J1-3*%
X135636000Y-61595000D03*
%TO.P,J1,4,Pin_4*%
%TO.N,/J1-4*%
X135636000Y-64135000D03*
%TO.P,J1,5,Pin_5*%
%TO.N,/J1-5*%
X135636000Y-66675000D03*
%TO.P,J1,6,Pin_6*%
%TO.N,/J1-6*%
X135636000Y-69215000D03*
%TO.P,J1,7,Pin_7*%
%TO.N,/J1-7*%
X135636000Y-71755000D03*
%TO.P,J1,8,Pin_8*%
%TO.N,/J1-8*%
X135636000Y-74295000D03*
%TO.P,J1,9,Pin_9*%
%TO.N,/J1-9*%
X135636000Y-76835000D03*
%TO.P,J1,10,Pin_10*%
%TO.N,/J1-10*%
X135636000Y-79375000D03*
%TO.P,J1,11,Pin_11*%
%TO.N,/J1-11*%
X135636000Y-81915000D03*
%TO.P,J1,12,Pin_12*%
%TO.N,/J1-12*%
X135636000Y-84455000D03*
%TO.P,J1,13,Pin_13*%
%TO.N,/J1-13*%
X135636000Y-86995000D03*
%TO.P,J1,14,Pin_14*%
%TO.N,/J1-14*%
X135636000Y-89535000D03*
%TO.P,J1,15,Pin_15*%
%TO.N,/J1-15*%
X135636000Y-92075000D03*
%TO.P,J1,16,Pin_16*%
%TO.N,/J1-16*%
X135636000Y-94615000D03*
%TO.P,J1,17,Pin_17*%
%TO.N,/J1-17*%
X135636000Y-97155000D03*
%TO.P,J1,18,Pin_18*%
%TO.N,/J1-18*%
X135636000Y-99695000D03*
%TO.P,J1,19,Pin_19*%
%TO.N,/J1-19*%
X135636000Y-102235000D03*
%TO.P,J1,20,Pin_20*%
%TO.N,/J1-20*%
X135636000Y-104775000D03*
%TO.P,J1,21,Pin_21*%
%TO.N,/J1-21*%
X135636000Y-107315000D03*
%TO.P,J1,22,Pin_22*%
%TO.N,/J1-22*%
X135636000Y-109855000D03*
%TO.P,J1,23,Pin_23*%
%TO.N,/J1-23*%
X135636000Y-112395000D03*
%TO.P,J1,24,Pin_24*%
%TO.N,/J1-24*%
X135636000Y-114935000D03*
%TO.P,J1,25,Pin_25*%
%TO.N,/J1-25*%
X135636000Y-117475000D03*
%TO.P,J1,26,Pin_26*%
%TO.N,/J1-26*%
X135636000Y-120015000D03*
%TO.P,J1,27,Pin_27*%
%TO.N,/J1-27*%
X135636000Y-122555000D03*
%TO.P,J1,28,Pin_28*%
%TO.N,/J1-28*%
X135636000Y-125095000D03*
%TO.P,J1,29,Pin_29*%
%TO.N,GND*%
X135636000Y-127635000D03*
%TO.P,J1,30,Pin_30*%
X135636000Y-130175000D03*
%TD*%
D10*
%TO.P,J2,1,Pin_1*%
%TO.N,VCC*%
X158496000Y-56515000D03*
D11*
%TO.P,J2,2,Pin_2*%
X158496000Y-59055000D03*
%TO.P,J2,3,Pin_3*%
%TO.N,/J2-3*%
X158496000Y-61595000D03*
%TO.P,J2,4,Pin_4*%
%TO.N,/J2-4*%
X158496000Y-64135000D03*
%TO.P,J2,5,Pin_5*%
%TO.N,/J2-5*%
X158496000Y-66675000D03*
%TO.P,J2,6,Pin_6*%
%TO.N,/J2-6*%
X158496000Y-69215000D03*
%TO.P,J2,7,Pin_7*%
%TO.N,/J2-7*%
X158496000Y-71755000D03*
%TO.P,J2,8,Pin_8*%
%TO.N,/J2-8*%
X158496000Y-74295000D03*
%TO.P,J2,9,Pin_9*%
%TO.N,/J2-9*%
X158496000Y-76835000D03*
%TO.P,J2,10,Pin_10*%
%TO.N,/J2-10*%
X158496000Y-79375000D03*
%TO.P,J2,11,Pin_11*%
%TO.N,/J2-11*%
X158496000Y-81915000D03*
%TO.P,J2,12,Pin_12*%
%TO.N,/J2-12*%
X158496000Y-84455000D03*
%TO.P,J2,13,Pin_13*%
%TO.N,/J2-13*%
X158496000Y-86995000D03*
%TO.P,J2,14,Pin_14*%
%TO.N,/J2-14*%
X158496000Y-89535000D03*
%TO.P,J2,15,Pin_15*%
%TO.N,/J2-15*%
X158496000Y-92075000D03*
%TO.P,J2,16,Pin_16*%
%TO.N,/J2-16*%
X158496000Y-94615000D03*
%TO.P,J2,17,Pin_17*%
%TO.N,/J2-17*%
X158496000Y-97155000D03*
%TO.P,J2,18,Pin_18*%
%TO.N,/J2-18*%
X158496000Y-99695000D03*
%TO.P,J2,19,Pin_19*%
%TO.N,/J2-19*%
X158496000Y-102235000D03*
%TO.P,J2,20,Pin_20*%
%TO.N,/J2-20*%
X158496000Y-104775000D03*
%TO.P,J2,21,Pin_21*%
%TO.N,/J2-21*%
X158496000Y-107315000D03*
%TO.P,J2,22,Pin_22*%
%TO.N,/J2-22*%
X158496000Y-109855000D03*
%TO.P,J2,23,Pin_23*%
%TO.N,/J2-23*%
X158496000Y-112395000D03*
%TO.P,J2,24,Pin_24*%
%TO.N,/J2-24*%
X158496000Y-114935000D03*
%TO.P,J2,25,Pin_25*%
%TO.N,/J2-25*%
X158496000Y-117475000D03*
%TO.P,J2,26,Pin_26*%
%TO.N,/J2-26*%
X158496000Y-120015000D03*
%TO.P,J2,27,Pin_27*%
%TO.N,/J2-27*%
X158496000Y-122555000D03*
%TO.P,J2,28,Pin_28*%
%TO.N,/J2-28*%
X158496000Y-125095000D03*
%TO.P,J2,29,Pin_29*%
%TO.N,GND*%
X158496000Y-127635000D03*
%TO.P,J2,30,Pin_30*%
X158496000Y-130175000D03*
%TD*%
D12*
%TO.N,VCC*%
X148296500Y-90638457D03*
X148259000Y-96139000D03*
X147915100Y-81248699D03*
%TO.N,GND*%
X147200149Y-92202000D03*
X146939000Y-85344000D03*
X147409500Y-97371500D03*
X147200149Y-94219702D03*
%TO.N,/J1-3*%
X151130000Y-61595000D03*
X150303409Y-99869225D03*
%TO.N,/J1-4*%
X152400000Y-61595000D03*
X150749000Y-82804000D03*
%TO.N,/J1-5*%
X154992500Y-93345000D03*
X155702000Y-66040000D03*
%TO.N,/J1-6*%
X141969500Y-65532000D03*
X142500897Y-85425897D03*
%TO.N,/J1-7*%
X138117497Y-68834000D03*
X152014559Y-84504255D03*
X138176000Y-63208500D03*
X152273000Y-64389000D03*
%TO.N,/J1-8*%
X148973902Y-71717500D03*
X151092728Y-105410000D03*
%TO.N,/J1-9*%
X143764000Y-72136000D03*
X144336000Y-95885000D03*
%TO.N,/J1-10*%
X148259000Y-98298000D03*
X148844000Y-73152000D03*
%TO.N,/J1-11*%
X141694500Y-81915000D03*
X141776397Y-86150397D03*
%TO.N,/J1-12*%
X137668000Y-84455000D03*
X137630500Y-71827451D03*
X153035000Y-93345000D03*
X153416000Y-69342000D03*
%TO.N,/J1-15*%
X139319000Y-67691000D03*
X145750649Y-98173856D03*
X145796000Y-67272500D03*
X137630500Y-92075000D03*
%TO.N,/J1-16*%
X136906000Y-94615000D03*
X136906000Y-70485000D03*
X152250640Y-83194574D03*
X150749000Y-66727000D03*
%TO.N,/J1-17*%
X150674586Y-114554000D03*
X138436000Y-101150503D03*
X151092728Y-107150500D03*
X138435500Y-113740000D03*
%TO.N,/J1-18*%
X150927500Y-76237500D03*
X140208000Y-102870000D03*
X150927500Y-77686500D03*
X138842500Y-76327000D03*
%TO.N,/J1-19*%
X140970000Y-104902000D03*
X139795500Y-79756000D03*
%TO.N,/J1-20*%
X148347136Y-88773000D03*
X147885500Y-111050736D03*
%TO.N,/J1-21*%
X153797000Y-97155000D03*
X153892228Y-112927932D03*
%TO.N,/J1-22*%
X149643500Y-107315000D03*
X149897500Y-112972745D03*
%TO.N,/J1-23*%
X140462000Y-113015500D03*
X137630500Y-93074503D03*
%TO.N,/J1-24*%
X154305000Y-116078000D03*
X154813000Y-96139000D03*
%TO.N,/J1-25*%
X145288000Y-101600000D03*
X145923000Y-117475000D03*
%TO.N,/J1-26*%
X139263748Y-119578748D03*
X139319000Y-116025500D03*
X153416000Y-98552000D03*
X153055500Y-116877500D03*
%TO.N,/J1-27*%
X141694500Y-87965589D03*
X137922000Y-122555000D03*
%TO.N,/J1-28*%
X152362500Y-87630000D03*
X151638000Y-125476000D03*
%TO.N,/J2-3*%
X149352000Y-63500000D03*
X150368000Y-80518000D03*
%TO.N,/J2-4*%
X154940000Y-64389000D03*
X152152393Y-92576607D03*
%TO.N,/J2-5*%
X141245609Y-97290743D03*
X141224000Y-63843500D03*
%TO.N,/J2-6*%
X143463373Y-95178226D03*
X144145000Y-69088000D03*
%TO.N,/J2-7*%
X157353000Y-88265000D03*
%TO.N,/J2-8*%
X145235500Y-89142048D03*
X145542000Y-71628000D03*
%TO.N,/J2-11*%
X155613000Y-78359000D03*
X155829000Y-101092000D03*
%TO.N,/J2-12*%
X145766500Y-70358000D03*
X155613000Y-77089000D03*
X155067000Y-69977000D03*
X145187629Y-97308629D03*
%TO.N,/J2-13*%
X140520000Y-86995000D03*
X140520500Y-68834000D03*
X156840701Y-68584299D03*
X156596000Y-85598000D03*
%TO.N,/J2-14*%
X142694541Y-113015500D03*
X156595500Y-113652432D03*
X142695541Y-109728000D03*
%TO.N,/J2-15*%
X151548500Y-123317000D03*
X157353000Y-123825000D03*
X151130966Y-101727967D03*
X157353000Y-93218000D03*
%TO.N,/J2-16*%
X155791500Y-67534484D03*
X156574199Y-90164700D03*
X142875000Y-67945000D03*
X142785479Y-84218205D03*
%TO.N,/J2-17*%
X153566049Y-73912926D03*
X145316500Y-73854000D03*
X144653000Y-79248000D03*
X154993000Y-94622792D03*
%TO.N,/J2-18*%
X146393500Y-110998000D03*
X156120500Y-102870000D03*
X146335500Y-90404355D03*
X155422431Y-112649000D03*
%TO.N,/J2-19*%
X137082963Y-116205000D03*
X136779000Y-95758000D03*
X155575000Y-117221000D03*
X156120500Y-104013000D03*
%TO.N,/J2-21*%
X155220500Y-107315000D03*
X154981051Y-72771000D03*
%TO.N,/J2-22*%
X140466299Y-108580701D03*
X141097000Y-93349997D03*
%TO.N,/J2-23*%
X144412950Y-90791050D03*
X143795500Y-114464500D03*
%TO.N,/J2-24*%
X151638000Y-115977500D03*
X151034000Y-86610294D03*
%TO.N,/J2-25*%
X137541000Y-96651983D03*
X137807463Y-118237000D03*
%TO.N,/J2-26*%
X138684000Y-99822000D03*
X140795541Y-119634000D03*
%TO.N,/J2-27*%
X137985500Y-98798553D03*
X139192000Y-121666000D03*
%TO.N,/J2-28*%
X142494000Y-127889000D03*
X142688800Y-91753200D03*
%TO.N,Net-(J3-Pin_1)*%
X143510000Y-121666000D03*
X143148400Y-100457000D03*
%TO.N,Net-(J3-Pin_3)*%
X144399000Y-104013000D03*
%TO.N,Net-(J3-Pin_5)*%
X145669000Y-119126000D03*
X150114000Y-119126000D03*
X144907000Y-102743000D03*
%TO.N,Net-(J3-Pin_7)*%
X150114000Y-94742000D03*
X147472400Y-108483400D03*
X150368228Y-109093000D03*
%TD*%
D13*
%TO.N,VCC*%
X147828000Y-63052478D02*
X150906000Y-59974478D01*
X147828000Y-81161599D02*
X147828000Y-63052478D01*
X150906000Y-58196000D02*
X149606000Y-56896000D01*
D14*
X148259000Y-90675957D02*
X148296500Y-90638457D01*
D13*
X150906000Y-59974478D02*
X150906000Y-58196000D01*
X148259000Y-96139000D02*
X148259000Y-90675957D01*
X147915100Y-81248699D02*
X147828000Y-81161599D01*
%TO.N,GND*%
X146685000Y-89408000D02*
X146685000Y-85598000D01*
X147200149Y-94219702D02*
X147200149Y-92202000D01*
X146812000Y-80391000D02*
X147066000Y-80137000D01*
X147193000Y-97155000D02*
X147409500Y-97371500D01*
X147066000Y-80137000D02*
X147066000Y-59436000D01*
X147200149Y-92202000D02*
X147200149Y-89923149D01*
X147193000Y-94226851D02*
X147193000Y-97155000D01*
X146685000Y-85598000D02*
X146939000Y-85344000D01*
X147200149Y-94219702D02*
X147193000Y-94226851D01*
X146939000Y-85344000D02*
X146812000Y-85217000D01*
X146812000Y-85217000D02*
X146812000Y-80391000D01*
X147200149Y-89923149D02*
X146685000Y-89408000D01*
D14*
%TO.N,/J1-3*%
X150241000Y-81661000D02*
X149675000Y-82227000D01*
X149675000Y-88969568D02*
X150371500Y-89666068D01*
X151130000Y-61595000D02*
X151130000Y-62992000D01*
X150854000Y-72418397D02*
X150591049Y-72681348D01*
X150876000Y-81661000D02*
X150241000Y-81661000D01*
X149352000Y-64770000D02*
X149352000Y-69723000D01*
X150371500Y-89666068D02*
X150371500Y-93093104D01*
X150591049Y-74452951D02*
X149753000Y-75291000D01*
X150854000Y-71225000D02*
X150854000Y-72418397D01*
X151188000Y-81349000D02*
X150876000Y-81661000D01*
X151188000Y-79942396D02*
X151188000Y-81349000D01*
X150591049Y-72681348D02*
X150591049Y-74452951D01*
X149675000Y-82227000D02*
X149675000Y-88969568D01*
X149352000Y-69723000D02*
X150854000Y-71225000D01*
X149753000Y-78507396D02*
X151188000Y-79942396D01*
X149753000Y-75291000D02*
X149753000Y-78507396D01*
X150371500Y-93093104D02*
X151326000Y-94047604D01*
X151326000Y-94047604D02*
X151326000Y-98846634D01*
X151130000Y-62992000D02*
X149352000Y-64770000D01*
X151326000Y-98846634D02*
X150303409Y-99869225D01*
%TO.N,/J1-4*%
X151304000Y-72604793D02*
X151041049Y-72867744D01*
X151304000Y-70913000D02*
X151304000Y-72604793D01*
X151003000Y-82804000D02*
X150749000Y-82804000D01*
X150203000Y-78321000D02*
X151638000Y-79756000D01*
X151041049Y-74764951D02*
X150203000Y-75603000D01*
X149860000Y-69469000D02*
X151304000Y-70913000D01*
X152400000Y-62738000D02*
X149860000Y-65278000D01*
X152400000Y-61595000D02*
X152400000Y-62738000D01*
X149860000Y-65278000D02*
X149860000Y-69469000D01*
X151638000Y-79756000D02*
X151638000Y-82169000D01*
X151638000Y-82169000D02*
X151003000Y-82804000D01*
X150203000Y-75603000D02*
X150203000Y-78321000D01*
X151041049Y-72867744D02*
X151041049Y-74764951D01*
%TO.N,/J1-5*%
X154189000Y-86511344D02*
X154189000Y-84947812D01*
X154992500Y-93132799D02*
X154437500Y-92577799D01*
X154992500Y-93345000D02*
X154992500Y-93132799D01*
X154189000Y-84947812D02*
X155071000Y-84065812D01*
X154438500Y-73539500D02*
X154178000Y-73279000D01*
X154178000Y-73279000D02*
X154178000Y-67564000D01*
X154437500Y-92577799D02*
X154437500Y-86759844D01*
X154438500Y-79254500D02*
X154438500Y-73539500D01*
X154178000Y-67564000D02*
X155702000Y-66040000D01*
X155071000Y-84065812D02*
X155071000Y-79887000D01*
X154437500Y-86759844D02*
X154189000Y-86511344D01*
X155071000Y-79887000D02*
X154438500Y-79254500D01*
%TO.N,/J1-6*%
X142060479Y-82574326D02*
X142060479Y-84985479D01*
X142419500Y-81614695D02*
X142419500Y-82215305D01*
X142060479Y-84985479D02*
X142500897Y-85425897D01*
X141969500Y-65532000D02*
X141969500Y-81190000D01*
X141994805Y-81190000D02*
X142419500Y-81614695D01*
X141969500Y-81190000D02*
X141994805Y-81190000D01*
X142419500Y-82215305D02*
X142060479Y-82574326D01*
%TO.N,/J1-7*%
X152014559Y-84455253D02*
X152014559Y-84504255D01*
X153035000Y-83434812D02*
X152014559Y-84455253D01*
X152638500Y-80000084D02*
X153035000Y-80396584D01*
X153035000Y-80396584D02*
X153035000Y-83434812D01*
X152273000Y-66228305D02*
X151638000Y-66863305D01*
X151941049Y-73240536D02*
X151941049Y-74586023D01*
X151941049Y-74586023D02*
X152638500Y-75283474D01*
X151638000Y-69723000D02*
X152204000Y-70289000D01*
X152273000Y-64389000D02*
X152273000Y-66228305D01*
X138176000Y-63208500D02*
X138176000Y-68775497D01*
X152204000Y-72977585D02*
X151941049Y-73240536D01*
X152204000Y-70289000D02*
X152204000Y-72977585D01*
X138176000Y-68775497D02*
X138117497Y-68834000D01*
X151638000Y-66863305D02*
X151638000Y-69723000D01*
X152638500Y-75283474D02*
X152638500Y-80000084D01*
%TO.N,/J1-8*%
X150876000Y-98268834D02*
X150876000Y-94234000D01*
X149577514Y-100167930D02*
X149577514Y-99567320D01*
X148853000Y-74414396D02*
X149294000Y-73973396D01*
X150876000Y-94234000D02*
X149921500Y-93279500D01*
X148853000Y-79130000D02*
X148853000Y-74414396D01*
X151092728Y-105410000D02*
X150495000Y-105410000D01*
X150114000Y-105029000D02*
X150114000Y-100704416D01*
X149921500Y-93279500D02*
X149921500Y-89852464D01*
X149691049Y-73574951D02*
X149691049Y-72434647D01*
X149294000Y-73973396D02*
X149294000Y-73972000D01*
X149921500Y-89852464D02*
X149225000Y-89155964D01*
X150114000Y-100704416D02*
X149577514Y-100167930D01*
X149225000Y-79502000D02*
X148853000Y-79130000D01*
X150495000Y-105410000D02*
X150114000Y-105029000D01*
X149294000Y-73972000D02*
X149691049Y-73574951D01*
X149225000Y-89155964D02*
X149225000Y-79502000D01*
X149691049Y-72434647D02*
X148973902Y-71717500D01*
X149577514Y-99567320D02*
X150876000Y-98268834D01*
%TO.N,/J1-9*%
X143452000Y-86136495D02*
X143452000Y-90854699D01*
X144526000Y-74725201D02*
X144526000Y-76835000D01*
X143960479Y-81246486D02*
X143960479Y-85628016D01*
X143325000Y-80611007D02*
X143960479Y-81246486D01*
X143960479Y-85628016D02*
X143452000Y-86136495D01*
X144336000Y-91738699D02*
X144336000Y-95885000D01*
X143764000Y-72136000D02*
X143764000Y-73963201D01*
X143452000Y-90854699D02*
X144336000Y-91738699D01*
X143764000Y-73963201D02*
X144526000Y-74725201D01*
X143325000Y-78036000D02*
X143325000Y-80611007D01*
X144526000Y-76835000D02*
X143325000Y-78036000D01*
%TO.N,/J1-10*%
X149021500Y-91684346D02*
X148844000Y-91861846D01*
X148844000Y-73152000D02*
X148844000Y-73787000D01*
X147574000Y-89229828D02*
X148257629Y-89913457D01*
X148844000Y-95504000D02*
X149098000Y-95758000D01*
X149098000Y-96325305D02*
X148209000Y-97214305D01*
X148209000Y-97214305D02*
X148209000Y-98248000D01*
X148717000Y-79630396D02*
X148717000Y-86614000D01*
X149021500Y-90338152D02*
X149021500Y-91684346D01*
X147574000Y-87757000D02*
X147574000Y-89229828D01*
X149098000Y-95758000D02*
X149098000Y-96325305D01*
X148257629Y-89913457D02*
X148596805Y-89913457D01*
X148844000Y-91861846D02*
X148844000Y-95504000D01*
X148209000Y-98248000D02*
X148259000Y-98298000D01*
X148717000Y-86614000D02*
X147574000Y-87757000D01*
X148596805Y-89913457D02*
X149021500Y-90338152D01*
X148403000Y-74228000D02*
X148403000Y-79316396D01*
X148844000Y-73787000D02*
X148403000Y-74228000D01*
X148403000Y-79316396D02*
X148717000Y-79630396D01*
%TO.N,/J1-11*%
X141478000Y-85852000D02*
X141776397Y-86150397D01*
X141694500Y-81915000D02*
X141478000Y-82131500D01*
X141478000Y-82131500D02*
X141478000Y-85852000D01*
%TO.N,/J1-12*%
X153289000Y-84453604D02*
X153289000Y-84963000D01*
X154171000Y-80259792D02*
X154171000Y-83571604D01*
X153416000Y-73038377D02*
X152841049Y-73613328D01*
X153538500Y-79627292D02*
X154171000Y-80259792D01*
X152841049Y-74213231D02*
X153538500Y-74910682D01*
X153416000Y-69342000D02*
X153416000Y-73038377D01*
X137630500Y-71827451D02*
X137668000Y-71864951D01*
X153538500Y-74910682D02*
X153538500Y-79627292D01*
X154171000Y-83571604D02*
X153289000Y-84453604D01*
X152908000Y-85344000D02*
X152908000Y-86503136D01*
X153537500Y-92842500D02*
X153035000Y-93345000D01*
X153537500Y-87132636D02*
X153537500Y-92842500D01*
X152841049Y-73613328D02*
X152841049Y-74213231D01*
X152908000Y-86503136D02*
X153537500Y-87132636D01*
X137668000Y-71864951D02*
X137668000Y-84455000D01*
X153289000Y-84963000D02*
X152908000Y-85344000D01*
%TO.N,/J1-15*%
X145738000Y-90843308D02*
X145738000Y-94988903D01*
X137668000Y-92037500D02*
X137668000Y-85480305D01*
X138118000Y-83879695D02*
X138118000Y-72956000D01*
X145960500Y-88841743D02*
X145960500Y-89618799D01*
X139319000Y-71755000D02*
X139319000Y-67691000D01*
X145738000Y-80195000D02*
X145738000Y-88619243D01*
X146491000Y-79442000D02*
X145738000Y-80195000D01*
X145738000Y-94988903D02*
X145961000Y-95211903D01*
X145796000Y-67272500D02*
X146491000Y-67967500D01*
X145961000Y-95211903D02*
X145961000Y-97963505D01*
X137668000Y-85480305D02*
X138393000Y-84755305D01*
X137630500Y-92075000D02*
X137668000Y-92037500D01*
X145611000Y-90716308D02*
X145738000Y-90843308D01*
X138393000Y-84154695D02*
X138118000Y-83879695D01*
X146491000Y-67967500D02*
X146491000Y-79442000D01*
X145961000Y-97963505D02*
X145750649Y-98173856D01*
X145738000Y-88619243D02*
X145960500Y-88841743D01*
X138118000Y-72956000D02*
X139319000Y-71755000D01*
X145611000Y-89968299D02*
X145611000Y-90716308D01*
X138393000Y-84755305D02*
X138393000Y-84154695D01*
X145960500Y-89618799D02*
X145611000Y-89968299D01*
%TO.N,/J1-16*%
X136906000Y-90678000D02*
X136906000Y-70485000D01*
X151491049Y-73054140D02*
X151754000Y-72791189D01*
X150749000Y-69596000D02*
X150749000Y-66727000D01*
X151754000Y-72791189D02*
X151754000Y-70601000D01*
X151491049Y-74772419D02*
X151491049Y-73054140D01*
X152188500Y-83132434D02*
X152188500Y-75469870D01*
X151754000Y-70601000D02*
X150749000Y-69596000D01*
X152250640Y-83194574D02*
X152188500Y-83132434D01*
X136906000Y-94615000D02*
X136906000Y-90678000D01*
X152188500Y-75469870D02*
X151491049Y-74772419D01*
%TO.N,/J1-17*%
X138161000Y-101425503D02*
X138161000Y-113465500D01*
X151092728Y-111543272D02*
X150674586Y-111961414D01*
X138436000Y-101150503D02*
X138161000Y-101425503D01*
X138161000Y-113465500D02*
X138435500Y-113740000D01*
X151092728Y-107150500D02*
X151092728Y-111543272D01*
X150674586Y-111961414D02*
X150674586Y-114554000D01*
%TO.N,/J1-18*%
X150927500Y-77686500D02*
X150927500Y-76237500D01*
X140208000Y-99187000D02*
X140208000Y-102870000D01*
X138842500Y-76327000D02*
X138842500Y-97821500D01*
X138842500Y-97821500D02*
X140208000Y-99187000D01*
%TO.N,/J1-19*%
X140716000Y-102352695D02*
X140970000Y-102606695D01*
X140970000Y-102606695D02*
X140970000Y-104902000D01*
X139795500Y-79756000D02*
X139795500Y-98012500D01*
X139795500Y-98012500D02*
X140716000Y-98933000D01*
X140716000Y-98933000D02*
X140716000Y-102352695D01*
%TO.N,/J1-20*%
X149558500Y-95582104D02*
X149558500Y-96501201D01*
X149389000Y-94062500D02*
X149389000Y-95412604D01*
X149471500Y-93980000D02*
X149389000Y-94062500D01*
X149214000Y-101077208D02*
X149214000Y-106310000D01*
X148347136Y-88773000D02*
X148347136Y-88914496D01*
X148984000Y-97075701D02*
X148984000Y-98598305D01*
X149558500Y-96501201D02*
X148984000Y-97075701D01*
X148677514Y-98904791D02*
X148677514Y-100540722D01*
X148984000Y-98598305D02*
X148677514Y-98904791D01*
X148844000Y-106680000D02*
X148844000Y-110092236D01*
X148844000Y-110092236D02*
X147885500Y-111050736D01*
X149471500Y-90038860D02*
X149471500Y-93980000D01*
X148677514Y-100540722D02*
X149214000Y-101077208D01*
X149214000Y-106310000D02*
X148844000Y-106680000D01*
X148347136Y-88914496D02*
X149471500Y-90038860D01*
X149389000Y-95412604D02*
X149558500Y-95582104D01*
%TO.N,/J1-21*%
X153946000Y-99800000D02*
X153946000Y-112874160D01*
X153797000Y-97155000D02*
X154384135Y-97155000D01*
X154384135Y-97155000D02*
X154559000Y-97329865D01*
X154559000Y-97329865D02*
X154559000Y-99187000D01*
X153946000Y-112874160D02*
X153892228Y-112927932D01*
X154559000Y-99187000D02*
X153946000Y-99800000D01*
%TO.N,/J1-22*%
X149606000Y-109982000D02*
X149987000Y-110363000D01*
X149606000Y-107352500D02*
X149606000Y-109982000D01*
X149987000Y-112883245D02*
X149897500Y-112972745D01*
X149987000Y-110363000D02*
X149987000Y-112883245D01*
X149643500Y-107315000D02*
X149606000Y-107352500D01*
%TO.N,/J1-23*%
X138303000Y-96388678D02*
X137795000Y-95880678D01*
X139610500Y-99398248D02*
X138303000Y-98090748D01*
X137795000Y-93239003D02*
X137630500Y-93074503D01*
X139061000Y-102239000D02*
X139610500Y-101689500D01*
X140462000Y-113015500D02*
X140462000Y-110998000D01*
X139061000Y-109597000D02*
X139061000Y-102239000D01*
X137795000Y-95880678D02*
X137795000Y-93239003D01*
X139610500Y-101689500D02*
X139610500Y-99398248D01*
X138303000Y-98090748D02*
X138303000Y-96388678D01*
X140462000Y-110998000D02*
X139061000Y-109597000D01*
%TO.N,/J1-24*%
X155194000Y-99314000D02*
X155194000Y-96520000D01*
X154432000Y-100076000D02*
X155194000Y-99314000D01*
X154617228Y-115765772D02*
X154617228Y-112627627D01*
X155194000Y-96520000D02*
X154813000Y-96139000D01*
X154305000Y-116078000D02*
X154617228Y-115765772D01*
X154617228Y-112627627D02*
X154432000Y-112442399D01*
X154432000Y-112442399D02*
X154432000Y-100076000D01*
%TO.N,/J1-25*%
X145420500Y-116972500D02*
X145923000Y-117475000D01*
X145420500Y-108711916D02*
X145420500Y-116972500D01*
X145288000Y-101600000D02*
X145796000Y-102108000D01*
X145796000Y-102108000D02*
X145796000Y-108336416D01*
X145796000Y-108336416D02*
X145420500Y-108711916D01*
%TO.N,/J1-26*%
X153416000Y-112141000D02*
X153167228Y-112389772D01*
X139319000Y-116025500D02*
X139319000Y-119523496D01*
X139319000Y-119523496D02*
X139263748Y-119578748D01*
X153416000Y-98552000D02*
X153416000Y-112141000D01*
X153167228Y-112389772D02*
X153167228Y-116765772D01*
X153167228Y-116765772D02*
X153055500Y-116877500D01*
%TO.N,/J1-27*%
X141520041Y-120861959D02*
X141520041Y-107017563D01*
X141732000Y-88003089D02*
X141694500Y-87965589D01*
X141732000Y-99314000D02*
X142233647Y-98812353D01*
X141732000Y-102095903D02*
X141732000Y-99314000D01*
X141520041Y-107017563D02*
X142182000Y-106355604D01*
X141870000Y-102233903D02*
X141732000Y-102095903D01*
X139827000Y-122555000D02*
X141520041Y-120861959D01*
X142182000Y-103955000D02*
X141870000Y-103643000D01*
X142233647Y-94553161D02*
X142720652Y-94066156D01*
X142182000Y-106355604D02*
X142182000Y-103955000D01*
X141732000Y-91821000D02*
X141732000Y-88003089D01*
X142233647Y-98812353D02*
X142233647Y-94553161D01*
X142720652Y-92809652D02*
X141732000Y-91821000D01*
X142720652Y-94066156D02*
X142720652Y-92809652D01*
X141870000Y-103643000D02*
X141870000Y-102233903D01*
X137922000Y-122555000D02*
X139827000Y-122555000D01*
%TO.N,/J1-28*%
X152273000Y-116367805D02*
X152717228Y-115923577D01*
X152717228Y-115923577D02*
X152717228Y-109410772D01*
X152342000Y-93790812D02*
X151271500Y-92720312D01*
X152717228Y-109410772D02*
X152908000Y-109220000D01*
X151257000Y-88735500D02*
X152362500Y-87630000D01*
X152273000Y-124841000D02*
X152273000Y-116367805D01*
X151271500Y-89041500D02*
X151257000Y-89027000D01*
X151257000Y-89027000D02*
X151257000Y-88735500D01*
X152908000Y-109220000D02*
X152908000Y-99695000D01*
X152342000Y-99129000D02*
X152342000Y-93790812D01*
X152908000Y-99695000D02*
X152342000Y-99129000D01*
X151638000Y-125476000D02*
X152273000Y-124841000D01*
X151271500Y-92720312D02*
X151271500Y-89041500D01*
%TO.N,/J2-3*%
X148902000Y-69909396D02*
X150404000Y-71411396D01*
X149303000Y-74979000D02*
X149303000Y-78693792D01*
X150141049Y-74140951D02*
X149303000Y-74979000D01*
X149352000Y-63500000D02*
X148902000Y-63950000D01*
X150141049Y-72494952D02*
X150141049Y-74140951D01*
X148902000Y-63950000D02*
X148902000Y-69909396D01*
X150368000Y-79758792D02*
X150368000Y-80518000D01*
X149303000Y-78693792D02*
X150368000Y-79758792D01*
X150404000Y-71411396D02*
X150404000Y-72232001D01*
X150404000Y-72232001D02*
X150141049Y-72494952D01*
%TO.N,/J2-4*%
X152739559Y-84366649D02*
X152739559Y-84804560D01*
X154940000Y-64516000D02*
X152654000Y-66802000D01*
X152654000Y-66802000D02*
X152654000Y-73163981D01*
X153088500Y-79813688D02*
X153721000Y-80446188D01*
X153087500Y-87329695D02*
X153087500Y-91641500D01*
X153721000Y-83385208D02*
X152739559Y-84366649D01*
X152391049Y-73426932D02*
X152391049Y-74399627D01*
X152739559Y-84804560D02*
X152314864Y-85229255D01*
X152391049Y-74399627D02*
X153088500Y-75097078D01*
X153721000Y-80446188D02*
X153721000Y-83385208D01*
X153087500Y-91641500D02*
X152152393Y-92576607D01*
X154940000Y-64389000D02*
X154940000Y-64516000D01*
X152314864Y-85229255D02*
X152314864Y-86557059D01*
X153088500Y-75097078D02*
X153088500Y-79813688D01*
X152314864Y-86557059D02*
X153087500Y-87329695D01*
X152654000Y-73163981D02*
X152391049Y-73426932D01*
%TO.N,/J2-5*%
X141245000Y-86694695D02*
X141245000Y-87295305D01*
X140970000Y-86419695D02*
X141245000Y-86694695D01*
X141245609Y-94904803D02*
X141245609Y-97290743D01*
X142270652Y-93879760D02*
X141245609Y-94904803D01*
X141224000Y-63843500D02*
X141245000Y-63864500D01*
X140843000Y-87697305D02*
X140843000Y-91621540D01*
X140970000Y-74803000D02*
X140970000Y-86419695D01*
X140843000Y-91621540D02*
X142270652Y-93049192D01*
X142270652Y-93049192D02*
X142270652Y-93879760D01*
X141245000Y-74528000D02*
X140970000Y-74803000D01*
X141245000Y-63864500D02*
X141245000Y-74528000D01*
X141245000Y-87295305D02*
X140843000Y-87697305D01*
%TO.N,/J2-6*%
X142875000Y-80797403D02*
X143319500Y-81241903D01*
X142875000Y-70358000D02*
X142875000Y-80797403D01*
X143319500Y-81241903D02*
X143319500Y-82588097D01*
X143620652Y-95020947D02*
X143463373Y-95178226D01*
X143319500Y-82588097D02*
X143510479Y-82779076D01*
X143002000Y-85950099D02*
X143002000Y-91041095D01*
X144145000Y-69088000D02*
X142875000Y-70358000D01*
X143510479Y-85441620D02*
X143002000Y-85950099D01*
X143002000Y-91041095D02*
X143620652Y-91659747D01*
X143510479Y-82779076D02*
X143510479Y-85441620D01*
X143620652Y-91659747D02*
X143620652Y-95020947D01*
%TO.N,/J2-7*%
X157321000Y-72930000D02*
X158496000Y-71755000D01*
X157353000Y-88265000D02*
X157321000Y-88233000D01*
X157321000Y-88233000D02*
X157321000Y-72930000D01*
%TO.N,/J2-8*%
X145288000Y-89089548D02*
X145235500Y-89142048D01*
X145542000Y-71628000D02*
X145542000Y-72644000D01*
X145542000Y-72644000D02*
X146041000Y-73143000D01*
X146041000Y-73143000D02*
X146041000Y-79003000D01*
X146041000Y-79003000D02*
X145288000Y-79756000D01*
X145288000Y-79756000D02*
X145288000Y-89089548D01*
%TO.N,/J2-11*%
X155613000Y-78905000D02*
X155971000Y-79263000D01*
X155421500Y-84988104D02*
X155421500Y-90651500D01*
X155421500Y-90651500D02*
X156167500Y-91397500D01*
X156167500Y-100753500D02*
X155829000Y-101092000D01*
X155971000Y-79263000D02*
X155971000Y-84438604D01*
X156167500Y-91397500D02*
X156167500Y-100753500D01*
X155613000Y-78359000D02*
X155613000Y-78905000D01*
X155971000Y-84438604D02*
X155421500Y-84988104D01*
%TO.N,/J2-12*%
X145161000Y-90154695D02*
X145161000Y-90902704D01*
X145288000Y-70358000D02*
X144591500Y-71054500D01*
X144591500Y-71054500D02*
X144591500Y-74154305D01*
X144591500Y-74154305D02*
X145034000Y-74596805D01*
X145288000Y-95175299D02*
X145511000Y-95398299D01*
X145034000Y-74596805D02*
X145034000Y-77089000D01*
X145511000Y-95398299D02*
X145511000Y-96985258D01*
X155067000Y-69977000D02*
X155705551Y-70615551D01*
X145766500Y-70358000D02*
X145288000Y-70358000D01*
X155705551Y-70615551D02*
X155705551Y-76996449D01*
X144410479Y-81060090D02*
X144410479Y-89404174D01*
X144410479Y-89404174D02*
X145161000Y-90154695D01*
X145161000Y-90902704D02*
X145288000Y-91029704D01*
X145511000Y-96985258D02*
X145187629Y-97308629D01*
X143775000Y-78348000D02*
X143775000Y-80424611D01*
X155705551Y-76996449D02*
X155613000Y-77089000D01*
X145034000Y-77089000D02*
X143775000Y-78348000D01*
X143775000Y-80424611D02*
X144410479Y-81060090D01*
X145288000Y-91029704D02*
X145288000Y-95175299D01*
%TO.N,/J2-13*%
X140520500Y-68834000D02*
X140520000Y-68834500D01*
X156871000Y-68614598D02*
X156840701Y-68584299D01*
X156871000Y-85323000D02*
X156871000Y-68614598D01*
X156596000Y-85598000D02*
X156871000Y-85323000D01*
X140520000Y-68834500D02*
X140520000Y-86995000D01*
%TO.N,/J2-14*%
X142695541Y-109728000D02*
X142695541Y-113014500D01*
X156595500Y-113652432D02*
X156845000Y-113402932D01*
X156845000Y-94234000D02*
X156628000Y-94017000D01*
X156628000Y-91403000D02*
X158496000Y-89535000D01*
X156628000Y-94017000D02*
X156628000Y-91403000D01*
X156845000Y-113402932D02*
X156845000Y-94234000D01*
%TO.N,/J2-15*%
X157321000Y-123793000D02*
X157353000Y-123825000D01*
X151817228Y-114501772D02*
X150749000Y-115570000D01*
X157321000Y-93250000D02*
X157321000Y-123793000D01*
X151511000Y-123279500D02*
X151548500Y-123317000D01*
X150749000Y-115570000D02*
X150749000Y-118227695D01*
X151130966Y-101727967D02*
X151817228Y-102414229D01*
X151817228Y-102414229D02*
X151817228Y-114501772D01*
X157353000Y-93218000D02*
X157321000Y-93250000D01*
X151511000Y-118989695D02*
X151511000Y-123279500D01*
X150749000Y-118227695D02*
X151511000Y-118989695D01*
%TO.N,/J2-16*%
X142875000Y-67945000D02*
X142419500Y-68400500D01*
X142510479Y-82760722D02*
X142510479Y-83943205D01*
X142419500Y-80978299D02*
X142869500Y-81428299D01*
X156591000Y-86741000D02*
X155871500Y-86021500D01*
X156421000Y-84625000D02*
X156421000Y-69426000D01*
X142869500Y-82401701D02*
X142510479Y-82760722D01*
X156421000Y-69426000D02*
X155791500Y-68796500D01*
X142869500Y-81428299D02*
X142869500Y-82401701D01*
X142510479Y-83943205D02*
X142785479Y-84218205D01*
X156591000Y-90147899D02*
X156591000Y-86741000D01*
X155791500Y-68796500D02*
X155791500Y-67534484D01*
X156574199Y-90164700D02*
X156591000Y-90147899D01*
X142419500Y-68400500D02*
X142419500Y-80978299D01*
X155871500Y-85174500D02*
X156421000Y-84625000D01*
X155871500Y-86021500D02*
X155871500Y-85174500D01*
%TO.N,/J2-17*%
X153739000Y-86697740D02*
X153739000Y-84640000D01*
X154993000Y-94622792D02*
X154267750Y-93897542D01*
X153988500Y-74106896D02*
X153794530Y-73912926D01*
X145591000Y-78310000D02*
X145591000Y-74128500D01*
X153794530Y-73912926D02*
X153566049Y-73912926D01*
X153987500Y-92764195D02*
X153987500Y-86946240D01*
X154621000Y-83758000D02*
X154621000Y-80073396D01*
X145591000Y-74128500D02*
X145316500Y-73854000D01*
X154621000Y-80073396D02*
X153988500Y-79440896D01*
X154267750Y-93044445D02*
X153987500Y-92764195D01*
X154267750Y-93897542D02*
X154267750Y-93044445D01*
X153987500Y-86946240D02*
X153739000Y-86697740D01*
X144653000Y-79248000D02*
X145591000Y-78310000D01*
X153988500Y-79440896D02*
X153988500Y-74106896D01*
X153739000Y-84640000D02*
X154621000Y-83758000D01*
%TO.N,/J2-18*%
X146475649Y-98474161D02*
X146431000Y-98518810D01*
X155945000Y-104862805D02*
X155945000Y-112126431D01*
X155945000Y-112126431D02*
X155422431Y-112649000D01*
X146475649Y-95090156D02*
X146475649Y-98474161D01*
X155395500Y-104313305D02*
X155945000Y-104862805D01*
X156120500Y-102870000D02*
X155395500Y-103595000D01*
X146304000Y-94918507D02*
X146475649Y-95090156D01*
X146335500Y-90404355D02*
X146304000Y-90435855D01*
X155395500Y-103595000D02*
X155395500Y-104313305D01*
X146431000Y-110960500D02*
X146393500Y-110998000D01*
X146304000Y-90435855D02*
X146304000Y-94918507D01*
X146431000Y-98518810D02*
X146431000Y-110960500D01*
%TO.N,/J2-19*%
X136811000Y-95790000D02*
X136779000Y-95758000D01*
X155871000Y-116925000D02*
X155871000Y-113242000D01*
X156395000Y-104287500D02*
X156120500Y-104013000D01*
X136811000Y-115933037D02*
X136811000Y-95790000D01*
X155871000Y-113242000D02*
X156395000Y-112718000D01*
X137082963Y-116205000D02*
X136811000Y-115933037D01*
X155575000Y-117221000D02*
X155871000Y-116925000D01*
X156395000Y-112718000D02*
X156395000Y-104287500D01*
%TO.N,/J2-21*%
X155255551Y-73045500D02*
X155255551Y-74106449D01*
X155255551Y-74106449D02*
X154888500Y-74473500D01*
X154945500Y-100451500D02*
X154945500Y-107040000D01*
X155521000Y-79577102D02*
X155521000Y-84252208D01*
X154887500Y-86573448D02*
X154887500Y-91133500D01*
X154639000Y-85134208D02*
X154639000Y-86324948D01*
X154888500Y-78944602D02*
X155521000Y-79577102D01*
X155717500Y-91963500D02*
X155717500Y-99679500D01*
X155717500Y-99679500D02*
X154945500Y-100451500D01*
X155521000Y-84252208D02*
X154639000Y-85134208D01*
X154639000Y-86324948D02*
X154887500Y-86573448D01*
X154888500Y-74473500D02*
X154888500Y-78944602D01*
X154981051Y-72771000D02*
X155255551Y-73045500D01*
X154887500Y-91133500D02*
X155717500Y-91963500D01*
X154945500Y-107040000D02*
X155220500Y-107315000D01*
%TO.N,/J2-22*%
X141420000Y-104209000D02*
X141732000Y-104521000D01*
X141070041Y-106831167D02*
X141070041Y-107976959D01*
X141224000Y-98552000D02*
X141224000Y-102224299D01*
X141097000Y-93349997D02*
X140245500Y-94201497D01*
X141224000Y-102224299D02*
X141420000Y-102420299D01*
X140245500Y-97573500D02*
X141224000Y-98552000D01*
X141420000Y-102420299D02*
X141420000Y-104209000D01*
X141732000Y-104521000D02*
X141732000Y-106169208D01*
X140245500Y-94201497D02*
X140245500Y-97573500D01*
X141070041Y-107976959D02*
X140466299Y-108580701D01*
X141732000Y-106169208D02*
X141070041Y-106831167D01*
%TO.N,/J2-23*%
X144303184Y-97167318D02*
X144303184Y-101813511D01*
X143870541Y-114389459D02*
X143795500Y-114464500D01*
X144412950Y-90791050D02*
X144786000Y-91164100D01*
X145061000Y-96409502D02*
X144303184Y-97167318D01*
X144786000Y-91164100D02*
X144786000Y-95309695D01*
X143532000Y-102584695D02*
X143532000Y-108732604D01*
X143532000Y-108732604D02*
X143870541Y-109071145D01*
X144303184Y-101813511D02*
X143532000Y-102584695D01*
X143870541Y-109071145D02*
X143870541Y-114389459D01*
X145061000Y-95584695D02*
X145061000Y-96409502D01*
X144786000Y-95309695D02*
X145061000Y-95584695D01*
%TO.N,/J2-24*%
X150821500Y-89227896D02*
X150821500Y-92906708D01*
X152458000Y-99881396D02*
X152458000Y-109033604D01*
X152267228Y-109224376D02*
X152267228Y-114813772D01*
X150821500Y-88534604D02*
X150807000Y-88549104D01*
X151034000Y-86610294D02*
X150821500Y-86822794D01*
X152267228Y-114813772D02*
X151638000Y-115443000D01*
X150821500Y-92906708D02*
X151892000Y-93977208D01*
X151638000Y-115443000D02*
X151638000Y-115977500D01*
X150807000Y-89213396D02*
X150821500Y-89227896D01*
X151892000Y-93977208D02*
X151892000Y-99315396D01*
X152458000Y-109033604D02*
X152267228Y-109224376D01*
X150821500Y-86822794D02*
X150821500Y-88534604D01*
X151892000Y-99315396D02*
X152458000Y-99881396D01*
X150807000Y-88549104D02*
X150807000Y-89213396D01*
%TO.N,/J2-25*%
X137807463Y-114948859D02*
X137261000Y-114402396D01*
X137807463Y-118237000D02*
X137807463Y-114948859D01*
X137261000Y-114402396D02*
X137261000Y-96931983D01*
X137261000Y-96931983D02*
X137541000Y-96651983D01*
%TO.N,/J2-26*%
X140795541Y-119634000D02*
X140335000Y-119173459D01*
X139160500Y-100298500D02*
X138684000Y-99822000D01*
X140335000Y-114300000D02*
X138611000Y-112576000D01*
X139160500Y-101503104D02*
X139160500Y-100298500D01*
X140335000Y-119173459D02*
X140335000Y-114300000D01*
X138611000Y-112576000D02*
X138611000Y-102052604D01*
X138611000Y-102052604D02*
X139160500Y-101503104D01*
%TO.N,/J2-27*%
X138540000Y-119277192D02*
X138540000Y-116525305D01*
X138538748Y-121012748D02*
X138538748Y-119278443D01*
X139192000Y-121666000D02*
X138538748Y-121012748D01*
X137711000Y-114216000D02*
X137711000Y-99073053D01*
X138540000Y-116525305D02*
X138340500Y-116325805D01*
X137711000Y-99073053D02*
X137985500Y-98798553D01*
X138340500Y-116325805D02*
X138340500Y-114845500D01*
X138538748Y-119278443D02*
X138540000Y-119277192D01*
X138340500Y-114845500D02*
X137711000Y-114216000D01*
%TO.N,/J2-28*%
X143170652Y-94319348D02*
X142683647Y-94806353D01*
X142240000Y-101967507D02*
X142632000Y-102359507D01*
X142240000Y-99695000D02*
X142240000Y-101967507D01*
X143002000Y-98933000D02*
X142240000Y-99695000D01*
X143002000Y-96338755D02*
X143002000Y-98933000D01*
X141970041Y-107203959D02*
X141970041Y-127365041D01*
X141970041Y-127365041D02*
X142494000Y-127889000D01*
X142632000Y-106542000D02*
X141970041Y-107203959D01*
X142683647Y-96020402D02*
X143002000Y-96338755D01*
X142683647Y-94806353D02*
X142683647Y-96020402D01*
X142688800Y-91753200D02*
X143170652Y-92235052D01*
X143170652Y-92235052D02*
X143170652Y-94319348D01*
X142632000Y-102359507D02*
X142632000Y-106542000D01*
%TO.N,Net-(J3-Pin_1)*%
X143420541Y-109257541D02*
X143420541Y-113814154D01*
X143071000Y-114163695D02*
X143071000Y-121227000D01*
X143082000Y-100523400D02*
X143082000Y-108919000D01*
X143148400Y-100457000D02*
X143082000Y-100523400D01*
X143420541Y-113814154D02*
X143071000Y-114163695D01*
X143082000Y-108919000D02*
X143420541Y-109257541D01*
X143071000Y-121227000D02*
X143510000Y-121666000D01*
%TO.N,Net-(J3-Pin_3)*%
X144520500Y-123438500D02*
X145796000Y-124714000D01*
X144520500Y-104134500D02*
X144520500Y-123438500D01*
X144399000Y-104013000D02*
X144520500Y-104134500D01*
%TO.N,Net-(J3-Pin_5)*%
X147066000Y-125984000D02*
X145796000Y-127254000D01*
X144970500Y-108525520D02*
X144970500Y-118427500D01*
X150622000Y-124089701D02*
X148727701Y-125984000D01*
X144970500Y-118427500D02*
X145669000Y-119126000D01*
X150622000Y-119634000D02*
X150622000Y-124089701D01*
X145161000Y-108335020D02*
X144970500Y-108525520D01*
X150114000Y-119126000D02*
X150622000Y-119634000D01*
X148727701Y-125984000D02*
X147066000Y-125984000D01*
X144907000Y-102743000D02*
X145161000Y-102997000D01*
X145161000Y-102997000D02*
X145161000Y-108335020D01*
%TO.N,Net-(J3-Pin_7)*%
X147161000Y-108794800D02*
X147161000Y-125010701D01*
X145383000Y-125889000D02*
X144621000Y-126651000D01*
X144621000Y-128619000D02*
X145796000Y-129794000D01*
X150368228Y-109093000D02*
X150368000Y-109092772D01*
X149434000Y-98784701D02*
X149434000Y-97262097D01*
X149434000Y-97262097D02*
X150114000Y-96582097D01*
X144621000Y-126651000D02*
X144621000Y-128619000D01*
X147472400Y-108483400D02*
X147161000Y-108794800D01*
X147161000Y-125010701D02*
X146282701Y-125889000D01*
X146282701Y-125889000D02*
X145383000Y-125889000D01*
X149127514Y-100354326D02*
X149127514Y-99091187D01*
X150114000Y-96582097D02*
X150114000Y-94742000D01*
X150368000Y-106183000D02*
X149664000Y-105479000D01*
X149664000Y-105479000D02*
X149664000Y-100890812D01*
X149127514Y-99091187D02*
X149434000Y-98784701D01*
X149664000Y-100890812D02*
X149127514Y-100354326D01*
X150368000Y-109092772D02*
X150368000Y-106183000D01*
%TD*%
M02*
