%TF.GenerationSoftware,KiCad,Pcbnew,7.0.6-0*%
%TF.CreationDate,2023-07-25T21:46:34-07:00*%
%TF.ProjectId,84CP02,38344350-3032-42e6-9b69-6361645f7063,rev?*%
%TF.SameCoordinates,Original*%
%TF.FileFunction,Legend,Top*%
%TF.FilePolarity,Positive*%
%FSLAX46Y46*%
G04 Gerber Fmt 4.6, Leading zero omitted, Abs format (unit mm)*
G04 Created by KiCad (PCBNEW 7.0.6-0) date 2023-07-25 21:46:34*
%MOMM*%
%LPD*%
G01*
G04 APERTURE LIST*
%ADD10C,0.150000*%
%ADD11C,0.120000*%
G04 APERTURE END LIST*
D10*
X152066666Y-58890819D02*
X152066666Y-59605104D01*
X152066666Y-59605104D02*
X152019047Y-59747961D01*
X152019047Y-59747961D02*
X151923809Y-59843200D01*
X151923809Y-59843200D02*
X151780952Y-59890819D01*
X151780952Y-59890819D02*
X151685714Y-59890819D01*
X152971428Y-59224152D02*
X152971428Y-59890819D01*
X152733333Y-58843200D02*
X152495238Y-59557485D01*
X152495238Y-59557485D02*
X153114285Y-59557485D01*
X146772333Y-81026080D02*
X146724714Y-81073700D01*
X146724714Y-81073700D02*
X146581857Y-81121319D01*
X146581857Y-81121319D02*
X146486619Y-81121319D01*
X146486619Y-81121319D02*
X146343762Y-81073700D01*
X146343762Y-81073700D02*
X146248524Y-80978461D01*
X146248524Y-80978461D02*
X146200905Y-80883223D01*
X146200905Y-80883223D02*
X146153286Y-80692747D01*
X146153286Y-80692747D02*
X146153286Y-80549890D01*
X146153286Y-80549890D02*
X146200905Y-80359414D01*
X146200905Y-80359414D02*
X146248524Y-80264176D01*
X146248524Y-80264176D02*
X146343762Y-80168938D01*
X146343762Y-80168938D02*
X146486619Y-80121319D01*
X146486619Y-80121319D02*
X146581857Y-80121319D01*
X146581857Y-80121319D02*
X146724714Y-80168938D01*
X146724714Y-80168938D02*
X146772333Y-80216557D01*
X147724714Y-81121319D02*
X147153286Y-81121319D01*
X147439000Y-81121319D02*
X147439000Y-80121319D01*
X147439000Y-80121319D02*
X147343762Y-80264176D01*
X147343762Y-80264176D02*
X147248524Y-80359414D01*
X147248524Y-80359414D02*
X147153286Y-80407033D01*
X147026333Y-105875080D02*
X146978714Y-105922700D01*
X146978714Y-105922700D02*
X146835857Y-105970319D01*
X146835857Y-105970319D02*
X146740619Y-105970319D01*
X146740619Y-105970319D02*
X146597762Y-105922700D01*
X146597762Y-105922700D02*
X146502524Y-105827461D01*
X146502524Y-105827461D02*
X146454905Y-105732223D01*
X146454905Y-105732223D02*
X146407286Y-105541747D01*
X146407286Y-105541747D02*
X146407286Y-105398890D01*
X146407286Y-105398890D02*
X146454905Y-105208414D01*
X146454905Y-105208414D02*
X146502524Y-105113176D01*
X146502524Y-105113176D02*
X146597762Y-105017938D01*
X146597762Y-105017938D02*
X146740619Y-104970319D01*
X146740619Y-104970319D02*
X146835857Y-104970319D01*
X146835857Y-104970319D02*
X146978714Y-105017938D01*
X146978714Y-105017938D02*
X147026333Y-105065557D01*
X147407286Y-105065557D02*
X147454905Y-105017938D01*
X147454905Y-105017938D02*
X147550143Y-104970319D01*
X147550143Y-104970319D02*
X147788238Y-104970319D01*
X147788238Y-104970319D02*
X147883476Y-105017938D01*
X147883476Y-105017938D02*
X147931095Y-105065557D01*
X147931095Y-105065557D02*
X147978714Y-105160795D01*
X147978714Y-105160795D02*
X147978714Y-105256033D01*
X147978714Y-105256033D02*
X147931095Y-105398890D01*
X147931095Y-105398890D02*
X147359667Y-105970319D01*
X147359667Y-105970319D02*
X147978714Y-105970319D01*
X137969666Y-55969819D02*
X137969666Y-56684104D01*
X137969666Y-56684104D02*
X137922047Y-56826961D01*
X137922047Y-56826961D02*
X137826809Y-56922200D01*
X137826809Y-56922200D02*
X137683952Y-56969819D01*
X137683952Y-56969819D02*
X137588714Y-56969819D01*
X138969666Y-56969819D02*
X138398238Y-56969819D01*
X138683952Y-56969819D02*
X138683952Y-55969819D01*
X138683952Y-55969819D02*
X138588714Y-56112676D01*
X138588714Y-56112676D02*
X138493476Y-56207914D01*
X138493476Y-56207914D02*
X138398238Y-56255533D01*
X155495666Y-55969819D02*
X155495666Y-56684104D01*
X155495666Y-56684104D02*
X155448047Y-56826961D01*
X155448047Y-56826961D02*
X155352809Y-56922200D01*
X155352809Y-56922200D02*
X155209952Y-56969819D01*
X155209952Y-56969819D02*
X155114714Y-56969819D01*
X155924238Y-56065057D02*
X155971857Y-56017438D01*
X155971857Y-56017438D02*
X156067095Y-55969819D01*
X156067095Y-55969819D02*
X156305190Y-55969819D01*
X156305190Y-55969819D02*
X156400428Y-56017438D01*
X156400428Y-56017438D02*
X156448047Y-56065057D01*
X156448047Y-56065057D02*
X156495666Y-56160295D01*
X156495666Y-56160295D02*
X156495666Y-56255533D01*
X156495666Y-56255533D02*
X156448047Y-56398390D01*
X156448047Y-56398390D02*
X155876619Y-56969819D01*
X155876619Y-56969819D02*
X156495666Y-56969819D01*
D11*
%TO.C,J3*%
X144466000Y-120844000D02*
X145796000Y-120844000D01*
X144466000Y-122174000D02*
X144466000Y-120844000D01*
X144466000Y-123444000D02*
X144466000Y-131124000D01*
X144466000Y-123444000D02*
X147066000Y-123444000D01*
X144466000Y-131124000D02*
X149666000Y-131124000D01*
X147066000Y-120844000D02*
X149666000Y-120844000D01*
X147066000Y-123444000D02*
X147066000Y-120844000D01*
X149666000Y-120844000D02*
X149666000Y-131124000D01*
%TO.C,J4*%
X150936000Y-55566000D02*
X150936000Y-56896000D01*
X149606000Y-55566000D02*
X150936000Y-55566000D01*
X148336000Y-55566000D02*
X143196000Y-55566000D01*
X148336000Y-55566000D02*
X148336000Y-58166000D01*
X143196000Y-55566000D02*
X143196000Y-60766000D01*
X150936000Y-58166000D02*
X150936000Y-60766000D01*
X148336000Y-58166000D02*
X150936000Y-58166000D01*
X150936000Y-60766000D02*
X143196000Y-60766000D01*
%TO.C,C1*%
X147674000Y-83072248D02*
X147674000Y-83594752D01*
X146204000Y-83072248D02*
X146204000Y-83594752D01*
%TO.C,U1*%
X147066000Y-86118369D02*
X146394249Y-86790120D01*
X146394249Y-86790120D02*
X145482081Y-85877952D01*
X139839369Y-93345000D02*
X140511120Y-92673249D01*
X147737751Y-86790120D02*
X147066000Y-86118369D01*
X140511120Y-94016751D02*
X139839369Y-93345000D01*
X153620880Y-92673249D02*
X154292631Y-93345000D01*
X146394249Y-99899880D02*
X147066000Y-100571631D01*
X154292631Y-93345000D02*
X153620880Y-94016751D01*
X147066000Y-100571631D02*
X147737751Y-99899880D01*
%TO.C,C2*%
X147928000Y-102587248D02*
X147928000Y-103109752D01*
X146458000Y-102587248D02*
X146458000Y-103109752D01*
%TD*%
M02*
