%TF.GenerationSoftware,KiCad,Pcbnew,7.0.6-0*%
%TF.CreationDate,2023-07-17T22:06:51-07:00*%
%TF.ProjectId,84CP01,38344350-3031-42e6-9b69-6361645f7063,rev?*%
%TF.SameCoordinates,Original*%
%TF.FileFunction,Copper,L4,Bot*%
%TF.FilePolarity,Positive*%
%FSLAX46Y46*%
G04 Gerber Fmt 4.6, Leading zero omitted, Abs format (unit mm)*
G04 Created by KiCad (PCBNEW 7.0.6-0) date 2023-07-17 22:06:51*
%MOMM*%
%LPD*%
G01*
G04 APERTURE LIST*
G04 Aperture macros list*
%AMRoundRect*
0 Rectangle with rounded corners*
0 $1 Rounding radius*
0 $2 $3 $4 $5 $6 $7 $8 $9 X,Y pos of 4 corners*
0 Add a 4 corners polygon primitive as box body*
4,1,4,$2,$3,$4,$5,$6,$7,$8,$9,$2,$3,0*
0 Add four circle primitives for the rounded corners*
1,1,$1+$1,$2,$3*
1,1,$1+$1,$4,$5*
1,1,$1+$1,$6,$7*
1,1,$1+$1,$8,$9*
0 Add four rect primitives between the rounded corners*
20,1,$1+$1,$2,$3,$4,$5,0*
20,1,$1+$1,$4,$5,$6,$7,0*
20,1,$1+$1,$6,$7,$8,$9,0*
20,1,$1+$1,$8,$9,$2,$3,0*%
G04 Aperture macros list end*
%TA.AperFunction,ComponentPad*%
%ADD10RoundRect,0.250000X-0.600000X-0.600000X0.600000X-0.600000X0.600000X0.600000X-0.600000X0.600000X0*%
%TD*%
%TA.AperFunction,ComponentPad*%
%ADD11C,1.700000*%
%TD*%
%TA.AperFunction,SMDPad,CuDef*%
%ADD12RoundRect,0.250000X-0.475000X0.337500X-0.475000X-0.337500X0.475000X-0.337500X0.475000X0.337500X0*%
%TD*%
%TA.AperFunction,ComponentPad*%
%ADD13R,1.700000X1.700000*%
%TD*%
%TA.AperFunction,ComponentPad*%
%ADD14O,1.700000X1.700000*%
%TD*%
%TA.AperFunction,ViaPad*%
%ADD15C,0.800000*%
%TD*%
%TA.AperFunction,Conductor*%
%ADD16C,0.250000*%
%TD*%
G04 APERTURE END LIST*
D10*
%TO.P,J2,1,Pin_1*%
%TO.N,Net-(J2-Pin_1)*%
X108130000Y-115904000D03*
D11*
%TO.P,J2,2,Pin_2*%
%TO.N,GND*%
X110670000Y-115904000D03*
%TO.P,J2,3,Pin_3*%
%TO.N,Net-(J2-Pin_3)*%
X108130000Y-118444000D03*
%TO.P,J2,4,Pin_4*%
%TO.N,GND*%
X110670000Y-118444000D03*
%TO.P,J2,5,Pin_5*%
%TO.N,Net-(J2-Pin_5)*%
X108130000Y-120984000D03*
%TO.P,J2,6,Pin_6*%
%TO.N,GND*%
X110670000Y-120984000D03*
%TO.P,J2,7,Pin_7*%
%TO.N,Net-(J2-Pin_7)*%
X108130000Y-123524000D03*
%TO.P,J2,8,Pin_8*%
%TO.N,GND*%
X110630000Y-123524000D03*
%TO.P,J2,9,Pin_9*%
X108130000Y-126064000D03*
%TO.P,J2,10,Pin_10*%
X110630000Y-125904000D03*
%TD*%
D12*
%TO.P,C2,1*%
%TO.N,VCC*%
X106680000Y-88603000D03*
%TO.P,C2,2*%
%TO.N,GND*%
X106680000Y-90678000D03*
%TD*%
%TO.P,C1,1*%
%TO.N,VCC*%
X111887000Y-88624500D03*
%TO.P,C1,2*%
%TO.N,GND*%
X111887000Y-90699500D03*
%TD*%
D13*
%TO.P,J3,1,Pin_1*%
%TO.N,VCC*%
X120650000Y-52832000D03*
D14*
%TO.P,J3,2,Pin_2*%
X120650000Y-55372000D03*
%TO.P,J3,3,Pin_3*%
%TO.N,/J2-3*%
X120650000Y-57912000D03*
%TO.P,J3,4,Pin_4*%
%TO.N,/J2-4*%
X120650000Y-60452000D03*
%TO.P,J3,5,Pin_5*%
%TO.N,/J2-5*%
X120650000Y-62992000D03*
%TO.P,J3,6,Pin_6*%
%TO.N,/J2-6*%
X120650000Y-65532000D03*
%TO.P,J3,7,Pin_7*%
%TO.N,/J2-7*%
X120650000Y-68072000D03*
%TO.P,J3,8,Pin_8*%
%TO.N,/J2-8*%
X120650000Y-70612000D03*
%TO.P,J3,9,Pin_9*%
%TO.N,/J2-9*%
X120650000Y-73152000D03*
%TO.P,J3,10,Pin_10*%
%TO.N,/J2-10*%
X120650000Y-75692000D03*
%TO.P,J3,11,Pin_11*%
%TO.N,/J2-11*%
X120650000Y-78232000D03*
%TO.P,J3,12,Pin_12*%
%TO.N,/J2-12*%
X120650000Y-80772000D03*
%TO.P,J3,13,Pin_13*%
%TO.N,/J2-13*%
X120650000Y-83312000D03*
%TO.P,J3,14,Pin_14*%
%TO.N,/J2-14*%
X120650000Y-85852000D03*
%TO.P,J3,15,Pin_15*%
%TO.N,/J2-15*%
X120650000Y-88392000D03*
%TO.P,J3,16,Pin_16*%
%TO.N,/J2-16*%
X120650000Y-90932000D03*
%TO.P,J3,17,Pin_17*%
%TO.N,/J2-17*%
X120650000Y-93472000D03*
%TO.P,J3,18,Pin_18*%
%TO.N,/J2-18*%
X120650000Y-96012000D03*
%TO.P,J3,19,Pin_19*%
%TO.N,/J2-19*%
X120650000Y-98552000D03*
%TO.P,J3,20,Pin_20*%
%TO.N,/J2-20*%
X120650000Y-101092000D03*
%TO.P,J3,21,Pin_21*%
%TO.N,/J2-21*%
X120650000Y-103632000D03*
%TO.P,J3,22,Pin_22*%
%TO.N,/J2-22*%
X120650000Y-106172000D03*
%TO.P,J3,23,Pin_23*%
%TO.N,/J2-23*%
X120650000Y-108712000D03*
%TO.P,J3,24,Pin_24*%
%TO.N,/J2-24*%
X120650000Y-111252000D03*
%TO.P,J3,25,Pin_25*%
%TO.N,/J2-25*%
X120650000Y-113792000D03*
%TO.P,J3,26,Pin_26*%
%TO.N,/J2-26*%
X120650000Y-116332000D03*
%TO.P,J3,27,Pin_27*%
%TO.N,/J2-27*%
X120650000Y-118872000D03*
%TO.P,J3,28,Pin_28*%
%TO.N,/J2-28*%
X120650000Y-121412000D03*
%TO.P,J3,29,Pin_29*%
%TO.N,GND*%
X120650000Y-123952000D03*
%TO.P,J3,30,Pin_30*%
X120650000Y-126492000D03*
%TD*%
D13*
%TO.P,J1,1,Pin_1*%
%TO.N,VCC*%
X97790000Y-52832000D03*
D14*
%TO.P,J1,2,Pin_2*%
X97790000Y-55372000D03*
%TO.P,J1,3,Pin_3*%
%TO.N,/J1-3*%
X97790000Y-57912000D03*
%TO.P,J1,4,Pin_4*%
%TO.N,/J1-4*%
X97790000Y-60452000D03*
%TO.P,J1,5,Pin_5*%
%TO.N,/J1-5*%
X97790000Y-62992000D03*
%TO.P,J1,6,Pin_6*%
%TO.N,/J1-6*%
X97790000Y-65532000D03*
%TO.P,J1,7,Pin_7*%
%TO.N,/J1-7*%
X97790000Y-68072000D03*
%TO.P,J1,8,Pin_8*%
%TO.N,/J1-8*%
X97790000Y-70612000D03*
%TO.P,J1,9,Pin_9*%
%TO.N,/J1-9*%
X97790000Y-73152000D03*
%TO.P,J1,10,Pin_10*%
%TO.N,/J1-10*%
X97790000Y-75692000D03*
%TO.P,J1,11,Pin_11*%
%TO.N,/J1-11*%
X97790000Y-78232000D03*
%TO.P,J1,12,Pin_12*%
%TO.N,/J1-12*%
X97790000Y-80772000D03*
%TO.P,J1,13,Pin_13*%
%TO.N,/J1-13*%
X97790000Y-83312000D03*
%TO.P,J1,14,Pin_14*%
%TO.N,/J1-14*%
X97790000Y-85852000D03*
%TO.P,J1,15,Pin_15*%
%TO.N,/J1-15*%
X97790000Y-88392000D03*
%TO.P,J1,16,Pin_16*%
%TO.N,/J1-16*%
X97790000Y-90932000D03*
%TO.P,J1,17,Pin_17*%
%TO.N,/J1-17*%
X97790000Y-93472000D03*
%TO.P,J1,18,Pin_18*%
%TO.N,/J1-18*%
X97790000Y-96012000D03*
%TO.P,J1,19,Pin_19*%
%TO.N,/J1-19*%
X97790000Y-98552000D03*
%TO.P,J1,20,Pin_20*%
%TO.N,/J1-20*%
X97790000Y-101092000D03*
%TO.P,J1,21,Pin_21*%
%TO.N,/J1-21*%
X97790000Y-103632000D03*
%TO.P,J1,22,Pin_22*%
%TO.N,/J1-22*%
X97790000Y-106172000D03*
%TO.P,J1,23,Pin_23*%
%TO.N,/J1-23*%
X97790000Y-108712000D03*
%TO.P,J1,24,Pin_24*%
%TO.N,/J1-24*%
X97790000Y-111252000D03*
%TO.P,J1,25,Pin_25*%
%TO.N,/J1-25*%
X97790000Y-113792000D03*
%TO.P,J1,26,Pin_26*%
%TO.N,/J1-26*%
X97790000Y-116332000D03*
%TO.P,J1,27,Pin_27*%
%TO.N,/J1-27*%
X97790000Y-118872000D03*
%TO.P,J1,28,Pin_28*%
%TO.N,/J1-28*%
X97790000Y-121412000D03*
%TO.P,J1,29,Pin_29*%
%TO.N,GND*%
X97790000Y-123952000D03*
%TO.P,J1,30,Pin_30*%
X97790000Y-126492000D03*
%TD*%
D15*
%TO.N,VCC*%
X106680000Y-87249000D03*
X111887000Y-87249000D03*
%TO.N,GND*%
X106680000Y-92075000D03*
X111887000Y-92075000D03*
%TO.N,/J1-28*%
X110617000Y-99822000D03*
X107569000Y-111633000D03*
%TO.N,Net-(J2-Pin_5)*%
X106045000Y-96647000D03*
%TO.N,Net-(J2-Pin_7)*%
X113792000Y-89662000D03*
%TD*%
D16*
%TO.N,VCC*%
X111887000Y-88624500D02*
X111887000Y-87249000D01*
X106680000Y-87249000D02*
X106680000Y-88603000D01*
%TO.N,GND*%
X106680000Y-92075000D02*
X106680000Y-90678000D01*
X111887000Y-92075000D02*
X111887000Y-90699500D01*
%TO.N,/J1-28*%
X107569000Y-111633000D02*
X110617000Y-108585000D01*
X110617000Y-108585000D02*
X110617000Y-99822000D01*
%TO.N,Net-(J2-Pin_5)*%
X106045000Y-96647000D02*
X105765000Y-96927000D01*
X105791000Y-121031000D02*
X105838000Y-120984000D01*
X105765000Y-96927000D02*
X105765000Y-121005000D01*
X105765000Y-121005000D02*
X105791000Y-121031000D01*
X105838000Y-120984000D02*
X108130000Y-120984000D01*
%TO.N,Net-(J2-Pin_7)*%
X109353000Y-122301000D02*
X108130000Y-123524000D01*
X113665000Y-122301000D02*
X109353000Y-122301000D01*
X113792000Y-122174000D02*
X113665000Y-122301000D01*
X113792000Y-89662000D02*
X113792000Y-122174000D01*
%TD*%
M02*
