%TF.GenerationSoftware,KiCad,Pcbnew,7.0.6-0*%
%TF.CreationDate,2023-07-17T22:06:51-07:00*%
%TF.ProjectId,84CP01,38344350-3031-42e6-9b69-6361645f7063,rev?*%
%TF.SameCoordinates,Original*%
%TF.FileFunction,Copper,L2,Inr*%
%TF.FilePolarity,Positive*%
%FSLAX46Y46*%
G04 Gerber Fmt 4.6, Leading zero omitted, Abs format (unit mm)*
G04 Created by KiCad (PCBNEW 7.0.6-0) date 2023-07-17 22:06:51*
%MOMM*%
%LPD*%
G01*
G04 APERTURE LIST*
G04 Aperture macros list*
%AMRoundRect*
0 Rectangle with rounded corners*
0 $1 Rounding radius*
0 $2 $3 $4 $5 $6 $7 $8 $9 X,Y pos of 4 corners*
0 Add a 4 corners polygon primitive as box body*
4,1,4,$2,$3,$4,$5,$6,$7,$8,$9,$2,$3,0*
0 Add four circle primitives for the rounded corners*
1,1,$1+$1,$2,$3*
1,1,$1+$1,$4,$5*
1,1,$1+$1,$6,$7*
1,1,$1+$1,$8,$9*
0 Add four rect primitives between the rounded corners*
20,1,$1+$1,$2,$3,$4,$5,0*
20,1,$1+$1,$4,$5,$6,$7,0*
20,1,$1+$1,$6,$7,$8,$9,0*
20,1,$1+$1,$8,$9,$2,$3,0*%
G04 Aperture macros list end*
%TA.AperFunction,ComponentPad*%
%ADD10RoundRect,0.250000X-0.600000X-0.600000X0.600000X-0.600000X0.600000X0.600000X-0.600000X0.600000X0*%
%TD*%
%TA.AperFunction,ComponentPad*%
%ADD11C,1.700000*%
%TD*%
%TA.AperFunction,ComponentPad*%
%ADD12R,1.700000X1.700000*%
%TD*%
%TA.AperFunction,ComponentPad*%
%ADD13O,1.700000X1.700000*%
%TD*%
%TA.AperFunction,ViaPad*%
%ADD14C,0.800000*%
%TD*%
G04 APERTURE END LIST*
D10*
%TO.N,Net-(J2-Pin_1)*%
%TO.C,J2*%
X108130000Y-115904000D03*
D11*
%TO.N,GND*%
X110670000Y-115904000D03*
%TO.N,Net-(J2-Pin_3)*%
X108130000Y-118444000D03*
%TO.N,GND*%
X110670000Y-118444000D03*
%TO.N,Net-(J2-Pin_5)*%
X108130000Y-120984000D03*
%TO.N,GND*%
X110670000Y-120984000D03*
%TO.N,Net-(J2-Pin_7)*%
X108130000Y-123524000D03*
%TO.N,GND*%
X110630000Y-123524000D03*
X108130000Y-126064000D03*
X110630000Y-125904000D03*
%TD*%
D12*
%TO.N,VCC*%
%TO.C,J3*%
X120650000Y-52832000D03*
D13*
X120650000Y-55372000D03*
%TO.N,/J2-3*%
X120650000Y-57912000D03*
%TO.N,/J2-4*%
X120650000Y-60452000D03*
%TO.N,/J2-5*%
X120650000Y-62992000D03*
%TO.N,/J2-6*%
X120650000Y-65532000D03*
%TO.N,/J2-7*%
X120650000Y-68072000D03*
%TO.N,/J2-8*%
X120650000Y-70612000D03*
%TO.N,/J2-9*%
X120650000Y-73152000D03*
%TO.N,/J2-10*%
X120650000Y-75692000D03*
%TO.N,/J2-11*%
X120650000Y-78232000D03*
%TO.N,/J2-12*%
X120650000Y-80772000D03*
%TO.N,/J2-13*%
X120650000Y-83312000D03*
%TO.N,/J2-14*%
X120650000Y-85852000D03*
%TO.N,/J2-15*%
X120650000Y-88392000D03*
%TO.N,/J2-16*%
X120650000Y-90932000D03*
%TO.N,/J2-17*%
X120650000Y-93472000D03*
%TO.N,/J2-18*%
X120650000Y-96012000D03*
%TO.N,/J2-19*%
X120650000Y-98552000D03*
%TO.N,/J2-20*%
X120650000Y-101092000D03*
%TO.N,/J2-21*%
X120650000Y-103632000D03*
%TO.N,/J2-22*%
X120650000Y-106172000D03*
%TO.N,/J2-23*%
X120650000Y-108712000D03*
%TO.N,/J2-24*%
X120650000Y-111252000D03*
%TO.N,/J2-25*%
X120650000Y-113792000D03*
%TO.N,/J2-26*%
X120650000Y-116332000D03*
%TO.N,/J2-27*%
X120650000Y-118872000D03*
%TO.N,/J2-28*%
X120650000Y-121412000D03*
%TO.N,GND*%
X120650000Y-123952000D03*
X120650000Y-126492000D03*
%TD*%
D12*
%TO.N,VCC*%
%TO.C,J1*%
X97790000Y-52832000D03*
D13*
X97790000Y-55372000D03*
%TO.N,/J1-3*%
X97790000Y-57912000D03*
%TO.N,/J1-4*%
X97790000Y-60452000D03*
%TO.N,/J1-5*%
X97790000Y-62992000D03*
%TO.N,/J1-6*%
X97790000Y-65532000D03*
%TO.N,/J1-7*%
X97790000Y-68072000D03*
%TO.N,/J1-8*%
X97790000Y-70612000D03*
%TO.N,/J1-9*%
X97790000Y-73152000D03*
%TO.N,/J1-10*%
X97790000Y-75692000D03*
%TO.N,/J1-11*%
X97790000Y-78232000D03*
%TO.N,/J1-12*%
X97790000Y-80772000D03*
%TO.N,/J1-13*%
X97790000Y-83312000D03*
%TO.N,/J1-14*%
X97790000Y-85852000D03*
%TO.N,/J1-15*%
X97790000Y-88392000D03*
%TO.N,/J1-16*%
X97790000Y-90932000D03*
%TO.N,/J1-17*%
X97790000Y-93472000D03*
%TO.N,/J1-18*%
X97790000Y-96012000D03*
%TO.N,/J1-19*%
X97790000Y-98552000D03*
%TO.N,/J1-20*%
X97790000Y-101092000D03*
%TO.N,/J1-21*%
X97790000Y-103632000D03*
%TO.N,/J1-22*%
X97790000Y-106172000D03*
%TO.N,/J1-23*%
X97790000Y-108712000D03*
%TO.N,/J1-24*%
X97790000Y-111252000D03*
%TO.N,/J1-25*%
X97790000Y-113792000D03*
%TO.N,/J1-26*%
X97790000Y-116332000D03*
%TO.N,/J1-27*%
X97790000Y-118872000D03*
%TO.N,/J1-28*%
X97790000Y-121412000D03*
%TO.N,GND*%
X97790000Y-123952000D03*
X97790000Y-126492000D03*
%TD*%
D14*
%TO.N,VCC*%
X106680000Y-87249000D03*
X111887000Y-87249000D03*
%TO.N,GND*%
X106680000Y-92075000D03*
X111887000Y-92075000D03*
%TO.N,/J1-28*%
X110617000Y-99822000D03*
X107569000Y-111633000D03*
%TO.N,Net-(J2-Pin_5)*%
X106045000Y-96647000D03*
%TO.N,Net-(J2-Pin_7)*%
X113792000Y-89662000D03*
%TD*%
%TA.AperFunction,Conductor*%
%TO.N,VCC*%
G36*
X119301114Y-51582002D02*
G01*
X119347607Y-51635658D01*
X119357711Y-51705932D01*
X119351049Y-51732033D01*
X119298505Y-51872907D01*
X119292000Y-51933402D01*
X119292000Y-52578000D01*
X120218884Y-52578000D01*
X120190507Y-52622156D01*
X120150000Y-52760111D01*
X120150000Y-52903889D01*
X120190507Y-53041844D01*
X120218884Y-53086000D01*
X119292000Y-53086000D01*
X119292000Y-53730597D01*
X119298505Y-53791093D01*
X119349555Y-53927964D01*
X119349555Y-53927965D01*
X119437095Y-54044904D01*
X119554034Y-54132444D01*
X119669677Y-54175576D01*
X119726513Y-54218123D01*
X119751324Y-54284643D01*
X119736233Y-54354017D01*
X119718347Y-54378969D01*
X119574674Y-54535041D01*
X119451580Y-54723451D01*
X119361179Y-54929543D01*
X119361176Y-54929550D01*
X119313455Y-55117999D01*
X119313456Y-55118000D01*
X120218884Y-55118000D01*
X120190507Y-55162156D01*
X120150000Y-55300111D01*
X120150000Y-55443889D01*
X120190507Y-55581844D01*
X120218884Y-55626000D01*
X119313455Y-55626000D01*
X119361176Y-55814449D01*
X119361179Y-55814456D01*
X119451580Y-56020548D01*
X119574674Y-56208958D01*
X119727097Y-56374534D01*
X119904698Y-56512767D01*
X119904704Y-56512771D01*
X119938207Y-56530902D01*
X119988597Y-56580915D01*
X120003949Y-56650232D01*
X119979388Y-56716845D01*
X119938207Y-56752528D01*
X119904430Y-56770807D01*
X119904424Y-56770811D01*
X119726762Y-56909091D01*
X119574279Y-57074729D01*
X119574275Y-57074734D01*
X119451141Y-57263206D01*
X119360703Y-57469386D01*
X119360702Y-57469387D01*
X119305437Y-57687624D01*
X119286844Y-57912000D01*
X119305437Y-58136375D01*
X119360702Y-58354612D01*
X119360703Y-58354613D01*
X119451141Y-58560793D01*
X119574275Y-58749265D01*
X119574279Y-58749270D01*
X119726762Y-58914908D01*
X119781331Y-58957381D01*
X119904424Y-59053189D01*
X119937680Y-59071186D01*
X119988070Y-59121196D01*
X120003423Y-59190513D01*
X119978864Y-59257126D01*
X119937683Y-59292811D01*
X119904430Y-59310807D01*
X119904424Y-59310811D01*
X119726762Y-59449091D01*
X119574279Y-59614729D01*
X119574275Y-59614734D01*
X119451141Y-59803206D01*
X119360703Y-60009386D01*
X119360702Y-60009387D01*
X119305437Y-60227624D01*
X119286844Y-60451999D01*
X119305437Y-60676375D01*
X119360702Y-60894612D01*
X119360703Y-60894613D01*
X119451141Y-61100793D01*
X119574275Y-61289265D01*
X119574279Y-61289270D01*
X119726762Y-61454908D01*
X119781331Y-61497381D01*
X119904424Y-61593189D01*
X119937680Y-61611186D01*
X119988071Y-61661200D01*
X120003423Y-61730516D01*
X119978862Y-61797129D01*
X119937680Y-61832813D01*
X119904426Y-61850810D01*
X119904424Y-61850811D01*
X119726762Y-61989091D01*
X119574279Y-62154729D01*
X119574275Y-62154734D01*
X119451141Y-62343206D01*
X119360703Y-62549386D01*
X119360702Y-62549387D01*
X119305437Y-62767624D01*
X119286844Y-62992000D01*
X119305437Y-63216375D01*
X119360702Y-63434612D01*
X119360703Y-63434613D01*
X119451141Y-63640793D01*
X119574275Y-63829265D01*
X119574279Y-63829270D01*
X119726762Y-63994908D01*
X119781331Y-64037381D01*
X119904424Y-64133189D01*
X119937680Y-64151186D01*
X119988071Y-64201200D01*
X120003423Y-64270516D01*
X119978862Y-64337129D01*
X119937680Y-64372813D01*
X119904426Y-64390810D01*
X119904424Y-64390811D01*
X119726762Y-64529091D01*
X119574279Y-64694729D01*
X119574275Y-64694734D01*
X119451141Y-64883206D01*
X119360703Y-65089386D01*
X119360702Y-65089387D01*
X119305437Y-65307624D01*
X119286844Y-65532000D01*
X119305437Y-65756375D01*
X119360702Y-65974612D01*
X119360703Y-65974613D01*
X119451141Y-66180793D01*
X119574275Y-66369265D01*
X119574279Y-66369270D01*
X119726762Y-66534908D01*
X119781331Y-66577381D01*
X119904424Y-66673189D01*
X119937676Y-66691184D01*
X119937680Y-66691186D01*
X119988071Y-66741200D01*
X120003423Y-66810516D01*
X119978862Y-66877129D01*
X119937680Y-66912813D01*
X119904426Y-66930810D01*
X119904424Y-66930811D01*
X119726762Y-67069091D01*
X119574279Y-67234729D01*
X119574275Y-67234734D01*
X119451141Y-67423206D01*
X119360703Y-67629386D01*
X119360702Y-67629387D01*
X119305437Y-67847624D01*
X119286844Y-68071999D01*
X119305437Y-68296375D01*
X119360702Y-68514612D01*
X119360703Y-68514613D01*
X119451141Y-68720793D01*
X119574275Y-68909265D01*
X119574279Y-68909270D01*
X119726762Y-69074908D01*
X119781331Y-69117381D01*
X119904424Y-69213189D01*
X119937680Y-69231186D01*
X119988071Y-69281200D01*
X120003423Y-69350516D01*
X119978862Y-69417129D01*
X119937680Y-69452813D01*
X119904426Y-69470810D01*
X119904424Y-69470811D01*
X119726762Y-69609091D01*
X119574279Y-69774729D01*
X119574275Y-69774734D01*
X119451141Y-69963206D01*
X119360703Y-70169386D01*
X119360702Y-70169387D01*
X119305437Y-70387624D01*
X119286844Y-70611999D01*
X119305437Y-70836375D01*
X119360702Y-71054612D01*
X119360703Y-71054613D01*
X119451141Y-71260793D01*
X119574275Y-71449265D01*
X119574279Y-71449270D01*
X119726762Y-71614908D01*
X119781331Y-71657381D01*
X119904424Y-71753189D01*
X119937680Y-71771186D01*
X119988071Y-71821200D01*
X120003423Y-71890516D01*
X119978862Y-71957129D01*
X119937680Y-71992813D01*
X119904426Y-72010810D01*
X119904424Y-72010811D01*
X119726762Y-72149091D01*
X119574279Y-72314729D01*
X119574275Y-72314734D01*
X119451141Y-72503206D01*
X119360703Y-72709386D01*
X119360702Y-72709387D01*
X119305437Y-72927624D01*
X119286844Y-73152000D01*
X119305437Y-73376375D01*
X119360702Y-73594612D01*
X119360703Y-73594613D01*
X119451141Y-73800793D01*
X119574275Y-73989265D01*
X119574279Y-73989270D01*
X119726762Y-74154908D01*
X119781331Y-74197381D01*
X119904424Y-74293189D01*
X119937680Y-74311186D01*
X119988071Y-74361200D01*
X120003423Y-74430516D01*
X119978862Y-74497129D01*
X119937680Y-74532813D01*
X119904426Y-74550810D01*
X119904424Y-74550811D01*
X119726762Y-74689091D01*
X119574279Y-74854729D01*
X119574275Y-74854734D01*
X119451141Y-75043206D01*
X119360703Y-75249386D01*
X119360702Y-75249387D01*
X119305437Y-75467624D01*
X119286844Y-75692000D01*
X119305437Y-75916375D01*
X119360702Y-76134612D01*
X119360703Y-76134613D01*
X119451141Y-76340793D01*
X119574275Y-76529265D01*
X119574279Y-76529270D01*
X119726762Y-76694908D01*
X119781331Y-76737381D01*
X119904424Y-76833189D01*
X119937680Y-76851186D01*
X119988071Y-76901200D01*
X120003423Y-76970516D01*
X119978862Y-77037129D01*
X119937680Y-77072813D01*
X119904426Y-77090810D01*
X119904424Y-77090811D01*
X119726762Y-77229091D01*
X119574279Y-77394729D01*
X119574275Y-77394734D01*
X119451141Y-77583206D01*
X119360703Y-77789386D01*
X119360702Y-77789387D01*
X119305437Y-78007624D01*
X119286844Y-78232000D01*
X119305437Y-78456375D01*
X119360702Y-78674612D01*
X119360703Y-78674613D01*
X119451141Y-78880793D01*
X119574275Y-79069265D01*
X119574279Y-79069270D01*
X119726762Y-79234908D01*
X119781331Y-79277381D01*
X119904424Y-79373189D01*
X119937680Y-79391186D01*
X119988071Y-79441200D01*
X120003423Y-79510516D01*
X119978862Y-79577129D01*
X119937680Y-79612813D01*
X119904426Y-79630810D01*
X119904424Y-79630811D01*
X119726762Y-79769091D01*
X119574279Y-79934729D01*
X119574275Y-79934734D01*
X119451141Y-80123206D01*
X119360703Y-80329386D01*
X119360702Y-80329387D01*
X119305437Y-80547624D01*
X119286844Y-80771999D01*
X119305437Y-80996375D01*
X119360702Y-81214612D01*
X119360703Y-81214613D01*
X119451141Y-81420793D01*
X119574275Y-81609265D01*
X119574279Y-81609270D01*
X119726762Y-81774908D01*
X119781331Y-81817381D01*
X119904424Y-81913189D01*
X119937680Y-81931186D01*
X119988071Y-81981200D01*
X120003423Y-82050516D01*
X119978862Y-82117129D01*
X119937680Y-82152813D01*
X119904426Y-82170810D01*
X119904424Y-82170811D01*
X119726762Y-82309091D01*
X119574279Y-82474729D01*
X119574275Y-82474734D01*
X119451141Y-82663206D01*
X119360703Y-82869386D01*
X119360702Y-82869387D01*
X119305437Y-83087624D01*
X119286844Y-83312000D01*
X119305437Y-83536375D01*
X119360702Y-83754612D01*
X119360703Y-83754613D01*
X119451141Y-83960793D01*
X119574275Y-84149265D01*
X119574279Y-84149270D01*
X119726762Y-84314908D01*
X119781331Y-84357381D01*
X119904424Y-84453189D01*
X119937680Y-84471186D01*
X119988071Y-84521200D01*
X120003423Y-84590516D01*
X119978862Y-84657129D01*
X119937680Y-84692813D01*
X119904426Y-84710810D01*
X119904424Y-84710811D01*
X119726762Y-84849091D01*
X119574279Y-85014729D01*
X119574275Y-85014734D01*
X119451141Y-85203206D01*
X119360703Y-85409386D01*
X119360702Y-85409387D01*
X119305437Y-85627624D01*
X119286844Y-85852000D01*
X119305437Y-86076375D01*
X119360702Y-86294612D01*
X119360703Y-86294613D01*
X119451141Y-86500793D01*
X119574275Y-86689265D01*
X119574279Y-86689270D01*
X119726762Y-86854908D01*
X119781331Y-86897381D01*
X119904424Y-86993189D01*
X119937680Y-87011186D01*
X119988071Y-87061200D01*
X120003423Y-87130516D01*
X119978862Y-87197129D01*
X119937680Y-87232813D01*
X119904426Y-87250810D01*
X119904424Y-87250811D01*
X119726762Y-87389091D01*
X119574279Y-87554729D01*
X119574275Y-87554734D01*
X119451141Y-87743206D01*
X119360703Y-87949386D01*
X119360702Y-87949387D01*
X119305437Y-88167624D01*
X119286844Y-88391999D01*
X119305437Y-88616375D01*
X119360702Y-88834612D01*
X119360703Y-88834613D01*
X119451141Y-89040793D01*
X119574275Y-89229265D01*
X119574279Y-89229270D01*
X119726762Y-89394908D01*
X119781331Y-89437381D01*
X119904424Y-89533189D01*
X119937680Y-89551186D01*
X119988071Y-89601200D01*
X120003423Y-89670516D01*
X119978862Y-89737129D01*
X119937680Y-89772813D01*
X119904426Y-89790810D01*
X119904424Y-89790811D01*
X119726762Y-89929091D01*
X119574279Y-90094729D01*
X119574275Y-90094734D01*
X119451141Y-90283206D01*
X119360703Y-90489386D01*
X119360702Y-90489387D01*
X119305437Y-90707624D01*
X119286844Y-90931999D01*
X119305437Y-91156375D01*
X119360702Y-91374612D01*
X119360703Y-91374613D01*
X119451141Y-91580793D01*
X119574275Y-91769265D01*
X119574279Y-91769270D01*
X119726762Y-91934908D01*
X119781331Y-91977381D01*
X119904424Y-92073189D01*
X119937680Y-92091186D01*
X119988071Y-92141200D01*
X120003423Y-92210516D01*
X119978862Y-92277129D01*
X119937680Y-92312813D01*
X119904426Y-92330810D01*
X119904424Y-92330811D01*
X119726762Y-92469091D01*
X119574279Y-92634729D01*
X119574275Y-92634734D01*
X119451141Y-92823206D01*
X119360703Y-93029386D01*
X119360702Y-93029387D01*
X119305437Y-93247624D01*
X119286844Y-93472000D01*
X119305437Y-93696375D01*
X119360702Y-93914612D01*
X119360703Y-93914613D01*
X119451141Y-94120793D01*
X119574275Y-94309265D01*
X119574279Y-94309270D01*
X119726762Y-94474908D01*
X119781331Y-94517381D01*
X119904424Y-94613189D01*
X119937680Y-94631186D01*
X119988071Y-94681200D01*
X120003423Y-94750516D01*
X119978862Y-94817129D01*
X119937680Y-94852813D01*
X119904426Y-94870810D01*
X119904424Y-94870811D01*
X119726762Y-95009091D01*
X119574279Y-95174729D01*
X119574275Y-95174734D01*
X119451141Y-95363206D01*
X119360703Y-95569386D01*
X119360702Y-95569387D01*
X119305437Y-95787624D01*
X119305436Y-95787630D01*
X119305436Y-95787632D01*
X119286844Y-96012000D01*
X119294969Y-96110058D01*
X119305437Y-96236375D01*
X119360702Y-96454612D01*
X119360703Y-96454613D01*
X119360704Y-96454616D01*
X119445090Y-96646999D01*
X119451141Y-96660793D01*
X119574275Y-96849265D01*
X119574279Y-96849270D01*
X119726762Y-97014908D01*
X119781331Y-97057381D01*
X119904424Y-97153189D01*
X119937680Y-97171186D01*
X119988071Y-97221200D01*
X120003423Y-97290516D01*
X119978862Y-97357129D01*
X119937680Y-97392813D01*
X119904426Y-97410810D01*
X119904424Y-97410811D01*
X119726762Y-97549091D01*
X119574279Y-97714729D01*
X119574275Y-97714734D01*
X119451141Y-97903206D01*
X119360703Y-98109386D01*
X119360702Y-98109387D01*
X119305437Y-98327624D01*
X119286844Y-98552000D01*
X119305437Y-98776375D01*
X119360702Y-98994612D01*
X119360703Y-98994613D01*
X119451141Y-99200793D01*
X119574275Y-99389265D01*
X119574279Y-99389270D01*
X119726762Y-99554908D01*
X119781331Y-99597381D01*
X119904424Y-99693189D01*
X119937680Y-99711186D01*
X119988071Y-99761200D01*
X120003423Y-99830516D01*
X119978862Y-99897129D01*
X119937680Y-99932813D01*
X119904426Y-99950810D01*
X119904424Y-99950811D01*
X119726762Y-100089091D01*
X119574279Y-100254729D01*
X119574275Y-100254734D01*
X119451141Y-100443206D01*
X119360703Y-100649386D01*
X119360702Y-100649387D01*
X119305437Y-100867624D01*
X119286844Y-101091999D01*
X119305437Y-101316375D01*
X119360702Y-101534612D01*
X119360703Y-101534613D01*
X119451141Y-101740793D01*
X119574275Y-101929265D01*
X119574279Y-101929270D01*
X119726762Y-102094908D01*
X119781331Y-102137381D01*
X119904424Y-102233189D01*
X119937680Y-102251186D01*
X119988071Y-102301200D01*
X120003423Y-102370516D01*
X119978862Y-102437129D01*
X119937680Y-102472813D01*
X119904426Y-102490810D01*
X119904424Y-102490811D01*
X119726762Y-102629091D01*
X119574279Y-102794729D01*
X119574275Y-102794734D01*
X119451141Y-102983206D01*
X119360703Y-103189386D01*
X119360702Y-103189387D01*
X119305437Y-103407624D01*
X119286844Y-103632000D01*
X119305437Y-103856375D01*
X119360702Y-104074612D01*
X119360703Y-104074613D01*
X119451141Y-104280793D01*
X119574275Y-104469265D01*
X119574279Y-104469270D01*
X119726762Y-104634908D01*
X119781331Y-104677381D01*
X119904424Y-104773189D01*
X119937680Y-104791186D01*
X119988071Y-104841200D01*
X120003423Y-104910516D01*
X119978862Y-104977129D01*
X119937680Y-105012813D01*
X119904426Y-105030810D01*
X119904424Y-105030811D01*
X119726762Y-105169091D01*
X119574279Y-105334729D01*
X119574275Y-105334734D01*
X119451141Y-105523206D01*
X119360703Y-105729386D01*
X119360702Y-105729387D01*
X119305437Y-105947624D01*
X119286844Y-106172000D01*
X119305437Y-106396375D01*
X119360702Y-106614612D01*
X119360703Y-106614613D01*
X119451141Y-106820793D01*
X119574275Y-107009265D01*
X119574279Y-107009270D01*
X119726762Y-107174908D01*
X119781331Y-107217381D01*
X119904424Y-107313189D01*
X119937680Y-107331186D01*
X119988071Y-107381200D01*
X120003423Y-107450516D01*
X119978862Y-107517129D01*
X119937680Y-107552813D01*
X119904426Y-107570810D01*
X119904424Y-107570811D01*
X119726762Y-107709091D01*
X119574279Y-107874729D01*
X119574275Y-107874734D01*
X119451141Y-108063206D01*
X119360703Y-108269386D01*
X119360702Y-108269387D01*
X119305437Y-108487624D01*
X119286844Y-108711999D01*
X119305437Y-108936375D01*
X119360702Y-109154612D01*
X119360703Y-109154613D01*
X119451141Y-109360793D01*
X119574275Y-109549265D01*
X119574279Y-109549270D01*
X119726762Y-109714908D01*
X119781331Y-109757381D01*
X119904424Y-109853189D01*
X119937680Y-109871186D01*
X119988071Y-109921200D01*
X120003423Y-109990516D01*
X119978862Y-110057129D01*
X119937680Y-110092813D01*
X119904426Y-110110810D01*
X119904424Y-110110811D01*
X119726762Y-110249091D01*
X119574279Y-110414729D01*
X119574275Y-110414734D01*
X119451141Y-110603206D01*
X119360703Y-110809386D01*
X119360702Y-110809387D01*
X119305437Y-111027624D01*
X119286844Y-111251999D01*
X119305437Y-111476375D01*
X119360702Y-111694612D01*
X119360703Y-111694613D01*
X119360704Y-111694616D01*
X119449110Y-111896162D01*
X119451141Y-111900793D01*
X119574275Y-112089265D01*
X119574279Y-112089270D01*
X119726762Y-112254908D01*
X119781331Y-112297381D01*
X119904424Y-112393189D01*
X119937674Y-112411183D01*
X119937680Y-112411186D01*
X119988071Y-112461200D01*
X120003423Y-112530516D01*
X119978862Y-112597129D01*
X119937680Y-112632813D01*
X119904426Y-112650810D01*
X119904424Y-112650811D01*
X119726762Y-112789091D01*
X119574279Y-112954729D01*
X119574275Y-112954734D01*
X119451141Y-113143206D01*
X119360703Y-113349386D01*
X119360702Y-113349387D01*
X119305437Y-113567624D01*
X119286844Y-113792000D01*
X119305437Y-114016375D01*
X119360702Y-114234612D01*
X119360703Y-114234613D01*
X119451141Y-114440793D01*
X119574275Y-114629265D01*
X119574279Y-114629270D01*
X119726762Y-114794908D01*
X119772286Y-114830341D01*
X119904424Y-114933189D01*
X119937680Y-114951186D01*
X119988071Y-115001200D01*
X120003423Y-115070516D01*
X119978862Y-115137129D01*
X119937680Y-115172813D01*
X119904426Y-115190810D01*
X119904424Y-115190811D01*
X119726762Y-115329091D01*
X119574279Y-115494729D01*
X119574275Y-115494734D01*
X119451141Y-115683206D01*
X119360703Y-115889386D01*
X119360702Y-115889387D01*
X119305437Y-116107624D01*
X119286844Y-116332000D01*
X119305437Y-116556375D01*
X119360702Y-116774612D01*
X119360703Y-116774613D01*
X119360704Y-116774616D01*
X119383567Y-116826738D01*
X119451141Y-116980793D01*
X119574275Y-117169265D01*
X119574279Y-117169270D01*
X119726762Y-117334908D01*
X119754348Y-117356379D01*
X119904424Y-117473189D01*
X119937680Y-117491186D01*
X119988071Y-117541200D01*
X120003423Y-117610516D01*
X119978862Y-117677129D01*
X119937680Y-117712813D01*
X119904426Y-117730810D01*
X119904424Y-117730811D01*
X119726762Y-117869091D01*
X119574279Y-118034729D01*
X119574275Y-118034734D01*
X119451141Y-118223206D01*
X119360703Y-118429386D01*
X119360702Y-118429387D01*
X119305437Y-118647624D01*
X119305436Y-118647630D01*
X119305436Y-118647632D01*
X119286844Y-118872000D01*
X119301438Y-119048126D01*
X119305437Y-119096375D01*
X119360702Y-119314612D01*
X119360703Y-119314613D01*
X119360704Y-119314616D01*
X119418731Y-119446906D01*
X119451141Y-119520793D01*
X119574275Y-119709265D01*
X119574279Y-119709270D01*
X119726762Y-119874908D01*
X119781331Y-119917381D01*
X119904424Y-120013189D01*
X119937680Y-120031186D01*
X119988071Y-120081200D01*
X120003423Y-120150516D01*
X119978862Y-120217129D01*
X119937680Y-120252813D01*
X119904426Y-120270810D01*
X119904424Y-120270811D01*
X119726762Y-120409091D01*
X119574279Y-120574729D01*
X119574275Y-120574734D01*
X119451141Y-120763206D01*
X119360703Y-120969386D01*
X119360702Y-120969387D01*
X119305437Y-121187624D01*
X119286844Y-121411999D01*
X119305437Y-121636375D01*
X119360702Y-121854612D01*
X119360703Y-121854613D01*
X119451141Y-122060793D01*
X119574275Y-122249265D01*
X119574279Y-122249270D01*
X119726762Y-122414908D01*
X119781331Y-122457381D01*
X119904424Y-122553189D01*
X119937680Y-122571186D01*
X119988071Y-122621200D01*
X120003423Y-122690516D01*
X119978862Y-122757129D01*
X119937680Y-122792813D01*
X119904426Y-122810810D01*
X119904424Y-122810811D01*
X119726762Y-122949091D01*
X119574279Y-123114729D01*
X119574275Y-123114734D01*
X119451141Y-123303206D01*
X119360703Y-123509386D01*
X119360702Y-123509387D01*
X119305437Y-123727624D01*
X119286844Y-123952000D01*
X119305437Y-124176375D01*
X119360702Y-124394612D01*
X119360703Y-124394613D01*
X119451141Y-124600793D01*
X119574275Y-124789265D01*
X119574279Y-124789270D01*
X119726762Y-124954908D01*
X119781331Y-124997381D01*
X119904424Y-125093189D01*
X119937680Y-125111186D01*
X119988071Y-125161200D01*
X120003423Y-125230516D01*
X119978862Y-125297129D01*
X119937680Y-125332813D01*
X119904426Y-125350810D01*
X119904424Y-125350811D01*
X119726762Y-125489091D01*
X119574279Y-125654729D01*
X119574275Y-125654734D01*
X119451141Y-125843206D01*
X119360703Y-126049386D01*
X119360702Y-126049387D01*
X119305437Y-126267624D01*
X119305436Y-126267630D01*
X119305436Y-126267632D01*
X119286844Y-126492000D01*
X119303274Y-126690282D01*
X119305437Y-126716375D01*
X119360702Y-126934612D01*
X119360703Y-126934613D01*
X119360704Y-126934616D01*
X119418731Y-127066906D01*
X119451141Y-127140793D01*
X119574275Y-127329265D01*
X119574279Y-127329270D01*
X119726762Y-127494908D01*
X119780287Y-127536568D01*
X119821758Y-127594193D01*
X119825492Y-127665092D01*
X119790302Y-127726754D01*
X119727361Y-127759602D01*
X119702896Y-127762000D01*
X98737104Y-127762000D01*
X98668983Y-127741998D01*
X98622490Y-127688342D01*
X98612386Y-127618068D01*
X98641880Y-127553488D01*
X98659713Y-127536568D01*
X98713237Y-127494908D01*
X98713240Y-127494906D01*
X98865722Y-127329268D01*
X98988860Y-127140791D01*
X99079296Y-126934616D01*
X99134564Y-126716368D01*
X99153156Y-126492000D01*
X99134564Y-126267632D01*
X99099298Y-126128368D01*
X99079297Y-126049387D01*
X99079296Y-126049386D01*
X99079296Y-126049384D01*
X98988860Y-125843209D01*
X98954998Y-125791379D01*
X98865724Y-125654734D01*
X98865720Y-125654729D01*
X98713237Y-125489091D01*
X98631382Y-125425381D01*
X98535576Y-125350811D01*
X98502319Y-125332813D01*
X98451929Y-125282802D01*
X98436576Y-125213485D01*
X98461136Y-125146872D01*
X98502320Y-125111186D01*
X98535576Y-125093189D01*
X98713240Y-124954906D01*
X98865722Y-124789268D01*
X98988860Y-124600791D01*
X99079296Y-124394616D01*
X99134564Y-124176368D01*
X99153156Y-123952000D01*
X99134564Y-123727632D01*
X99134562Y-123727624D01*
X99079297Y-123509387D01*
X99079296Y-123509386D01*
X99079296Y-123509384D01*
X98988860Y-123303209D01*
X98954998Y-123251379D01*
X98865724Y-123114734D01*
X98865720Y-123114729D01*
X98713237Y-122949091D01*
X98631382Y-122885381D01*
X98535576Y-122810811D01*
X98502319Y-122792813D01*
X98451929Y-122742802D01*
X98436576Y-122673485D01*
X98461136Y-122606872D01*
X98502320Y-122571186D01*
X98535576Y-122553189D01*
X98713240Y-122414906D01*
X98865722Y-122249268D01*
X98988860Y-122060791D01*
X99079296Y-121854616D01*
X99134564Y-121636368D01*
X99153156Y-121412000D01*
X99134564Y-121187632D01*
X99134562Y-121187624D01*
X99079297Y-120969387D01*
X99079296Y-120969386D01*
X99079296Y-120969384D01*
X98988860Y-120763209D01*
X98950931Y-120705154D01*
X98865724Y-120574734D01*
X98865720Y-120574729D01*
X98713237Y-120409091D01*
X98622293Y-120338306D01*
X98535576Y-120270811D01*
X98502319Y-120252813D01*
X98451929Y-120202802D01*
X98436576Y-120133485D01*
X98461136Y-120066872D01*
X98502320Y-120031186D01*
X98535576Y-120013189D01*
X98713240Y-119874906D01*
X98829472Y-119748646D01*
X105889500Y-119748646D01*
X105916337Y-119874908D01*
X105928856Y-119933803D01*
X105964203Y-120013192D01*
X106005850Y-120106732D01*
X106117113Y-120259873D01*
X106257783Y-120386533D01*
X106257785Y-120386534D01*
X106358109Y-120444455D01*
X106421716Y-120481179D01*
X106421718Y-120481179D01*
X106421721Y-120481181D01*
X106601743Y-120539674D01*
X106628394Y-120542475D01*
X106682875Y-120548201D01*
X106690240Y-120548975D01*
X106755897Y-120575988D01*
X106796527Y-120634209D01*
X106799230Y-120705154D01*
X106799215Y-120705214D01*
X106785437Y-120759626D01*
X106785436Y-120759629D01*
X106785436Y-120759632D01*
X106785140Y-120763206D01*
X106766844Y-120984000D01*
X106785437Y-121208375D01*
X106840702Y-121426612D01*
X106840703Y-121426613D01*
X106931141Y-121632793D01*
X107054275Y-121821265D01*
X107054279Y-121821270D01*
X107206762Y-121986908D01*
X107261331Y-122029381D01*
X107384424Y-122125189D01*
X107417680Y-122143186D01*
X107468071Y-122193200D01*
X107483423Y-122262516D01*
X107458862Y-122329129D01*
X107417680Y-122364813D01*
X107384426Y-122382810D01*
X107384424Y-122382811D01*
X107206762Y-122521091D01*
X107054279Y-122686729D01*
X107054275Y-122686734D01*
X106931141Y-122875206D01*
X106840703Y-123081386D01*
X106840702Y-123081387D01*
X106785437Y-123299624D01*
X106766844Y-123523999D01*
X106785437Y-123748375D01*
X106840702Y-123966612D01*
X106840703Y-123966613D01*
X106931141Y-124172793D01*
X107054275Y-124361265D01*
X107054279Y-124361270D01*
X107206762Y-124526908D01*
X107261331Y-124569381D01*
X107384424Y-124665189D01*
X107417680Y-124683186D01*
X107468071Y-124733200D01*
X107483423Y-124802516D01*
X107458862Y-124869129D01*
X107417680Y-124904813D01*
X107384426Y-124922810D01*
X107384424Y-124922811D01*
X107206762Y-125061091D01*
X107054279Y-125226729D01*
X107054275Y-125226734D01*
X106931141Y-125415206D01*
X106840703Y-125621386D01*
X106840702Y-125621387D01*
X106785437Y-125839624D01*
X106766844Y-126064000D01*
X106785437Y-126288375D01*
X106840702Y-126506612D01*
X106840703Y-126506613D01*
X106931141Y-126712793D01*
X107054275Y-126901265D01*
X107054279Y-126901270D01*
X107206762Y-127066908D01*
X107261331Y-127109381D01*
X107384424Y-127205189D01*
X107582426Y-127312342D01*
X107582427Y-127312342D01*
X107582428Y-127312343D01*
X107680212Y-127345912D01*
X107795365Y-127385444D01*
X108017431Y-127422500D01*
X108017435Y-127422500D01*
X108242565Y-127422500D01*
X108242569Y-127422500D01*
X108464635Y-127385444D01*
X108677574Y-127312342D01*
X108875576Y-127205189D01*
X109053240Y-127066906D01*
X109205722Y-126901268D01*
X109326784Y-126715967D01*
X109380786Y-126669880D01*
X109451134Y-126660305D01*
X109515491Y-126690282D01*
X109537749Y-126715969D01*
X109554275Y-126741265D01*
X109554279Y-126741270D01*
X109706762Y-126906908D01*
X109742361Y-126934616D01*
X109884424Y-127045189D01*
X110082426Y-127152342D01*
X110082427Y-127152342D01*
X110082428Y-127152343D01*
X110122615Y-127166139D01*
X110295365Y-127225444D01*
X110517431Y-127262500D01*
X110517435Y-127262500D01*
X110742565Y-127262500D01*
X110742569Y-127262500D01*
X110964635Y-127225444D01*
X111177574Y-127152342D01*
X111375576Y-127045189D01*
X111553240Y-126906906D01*
X111705722Y-126741268D01*
X111828860Y-126552791D01*
X111919296Y-126346616D01*
X111974564Y-126128368D01*
X111993156Y-125904000D01*
X111974564Y-125679632D01*
X111968259Y-125654734D01*
X111919297Y-125461387D01*
X111919296Y-125461386D01*
X111919296Y-125461384D01*
X111828860Y-125255209D01*
X111807164Y-125222000D01*
X111705724Y-125066734D01*
X111705720Y-125066729D01*
X111573228Y-124922807D01*
X111553240Y-124901094D01*
X111553239Y-124901093D01*
X111553237Y-124901091D01*
X111493765Y-124854802D01*
X111440610Y-124813430D01*
X111399141Y-124755807D01*
X111395407Y-124684908D01*
X111430597Y-124623246D01*
X111440602Y-124614576D01*
X111553240Y-124526906D01*
X111705722Y-124361268D01*
X111828860Y-124172791D01*
X111919296Y-123966616D01*
X111974564Y-123748368D01*
X111993156Y-123524000D01*
X111974564Y-123299632D01*
X111945094Y-123183258D01*
X111919297Y-123081387D01*
X111919296Y-123081386D01*
X111919296Y-123081384D01*
X111828860Y-122875209D01*
X111751715Y-122757129D01*
X111705724Y-122686734D01*
X111705720Y-122686729D01*
X111553237Y-122521091D01*
X111471382Y-122457381D01*
X111375576Y-122382811D01*
X111362318Y-122375636D01*
X111311928Y-122325624D01*
X111296576Y-122256307D01*
X111321137Y-122189694D01*
X111362318Y-122154010D01*
X111415576Y-122125189D01*
X111593240Y-121986906D01*
X111745722Y-121821268D01*
X111868860Y-121632791D01*
X111959296Y-121426616D01*
X112014564Y-121208368D01*
X112033156Y-120984000D01*
X112014564Y-120759632D01*
X112002345Y-120711379D01*
X111959297Y-120541387D01*
X111959296Y-120541386D01*
X111959296Y-120541384D01*
X111868860Y-120335209D01*
X111862140Y-120324924D01*
X111745724Y-120146734D01*
X111745720Y-120146729D01*
X111593237Y-119981091D01*
X111511382Y-119917381D01*
X111415576Y-119842811D01*
X111382319Y-119824813D01*
X111331929Y-119774802D01*
X111316576Y-119705485D01*
X111341136Y-119638872D01*
X111382320Y-119603186D01*
X111415576Y-119585189D01*
X111593240Y-119446906D01*
X111745722Y-119281268D01*
X111868860Y-119092791D01*
X111959296Y-118886616D01*
X112014564Y-118668368D01*
X112033156Y-118444000D01*
X112014564Y-118219632D01*
X111985094Y-118103258D01*
X111959297Y-118001387D01*
X111959296Y-118001386D01*
X111959296Y-118001384D01*
X111868860Y-117795209D01*
X111862140Y-117784924D01*
X111745724Y-117606734D01*
X111745720Y-117606729D01*
X111593237Y-117441091D01*
X111484399Y-117356379D01*
X111415576Y-117302811D01*
X111382319Y-117284813D01*
X111331929Y-117234802D01*
X111316576Y-117165485D01*
X111341136Y-117098872D01*
X111382320Y-117063186D01*
X111415576Y-117045189D01*
X111593240Y-116906906D01*
X111745722Y-116741268D01*
X111868860Y-116552791D01*
X111959296Y-116346616D01*
X112014564Y-116128368D01*
X112033156Y-115904000D01*
X112014564Y-115679632D01*
X111985094Y-115563258D01*
X111959297Y-115461387D01*
X111959296Y-115461386D01*
X111959296Y-115461384D01*
X111868860Y-115255209D01*
X111799849Y-115149579D01*
X111745724Y-115066734D01*
X111745720Y-115066729D01*
X111593237Y-114901091D01*
X111511382Y-114837381D01*
X111415576Y-114762811D01*
X111217574Y-114655658D01*
X111217572Y-114655657D01*
X111217571Y-114655656D01*
X111004639Y-114582557D01*
X111004630Y-114582555D01*
X110960476Y-114575187D01*
X110782569Y-114545500D01*
X110557431Y-114545500D01*
X110409210Y-114570233D01*
X110335369Y-114582555D01*
X110335360Y-114582557D01*
X110122428Y-114655656D01*
X110122426Y-114655658D01*
X109924426Y-114762810D01*
X109924424Y-114762811D01*
X109746759Y-114901094D01*
X109633483Y-115024143D01*
X109572630Y-115060714D01*
X109501666Y-115058579D01*
X109443121Y-115018417D01*
X109426144Y-114987481D01*
X109425217Y-114987914D01*
X109422116Y-114981266D01*
X109422115Y-114981262D01*
X109329030Y-114830348D01*
X109329029Y-114830347D01*
X109329024Y-114830341D01*
X109203658Y-114704975D01*
X109203652Y-114704970D01*
X109151845Y-114673015D01*
X109052738Y-114611885D01*
X108898393Y-114560741D01*
X108884427Y-114556113D01*
X108884420Y-114556112D01*
X108780553Y-114545500D01*
X107479455Y-114545500D01*
X107375574Y-114556112D01*
X107207261Y-114611885D01*
X107056347Y-114704970D01*
X107056341Y-114704975D01*
X106930975Y-114830341D01*
X106930970Y-114830347D01*
X106837885Y-114981262D01*
X106782113Y-115149572D01*
X106782112Y-115149579D01*
X106771500Y-115253446D01*
X106771500Y-116554544D01*
X106782112Y-116658425D01*
X106837885Y-116826738D01*
X106930970Y-116977652D01*
X106930975Y-116977658D01*
X107056341Y-117103024D01*
X107056347Y-117103029D01*
X107056348Y-117103030D01*
X107207262Y-117196115D01*
X107207268Y-117196117D01*
X107213914Y-117199217D01*
X107212943Y-117201299D01*
X107262167Y-117235372D01*
X107289430Y-117300925D01*
X107276924Y-117370811D01*
X107241564Y-117414003D01*
X107206764Y-117441089D01*
X107054279Y-117606729D01*
X107054275Y-117606734D01*
X106931141Y-117795206D01*
X106840703Y-118001386D01*
X106840702Y-118001387D01*
X106785437Y-118219624D01*
X106766844Y-118444000D01*
X106781883Y-118625491D01*
X106767574Y-118695031D01*
X106717941Y-118745796D01*
X106669484Y-118761206D01*
X106601742Y-118768325D01*
X106421721Y-118826818D01*
X106421713Y-118826822D01*
X106257785Y-118921465D01*
X106257783Y-118921466D01*
X106117113Y-119048126D01*
X106005850Y-119201267D01*
X106005849Y-119201267D01*
X105928855Y-119374199D01*
X105889500Y-119559353D01*
X105889500Y-119748646D01*
X98829472Y-119748646D01*
X98865722Y-119709268D01*
X98988860Y-119520791D01*
X99079296Y-119314616D01*
X99134564Y-119096368D01*
X99153156Y-118872000D01*
X99134564Y-118647632D01*
X99128957Y-118625491D01*
X99079297Y-118429387D01*
X99079296Y-118429386D01*
X99079296Y-118429384D01*
X98988860Y-118223209D01*
X98954998Y-118171379D01*
X98865724Y-118034734D01*
X98865720Y-118034729D01*
X98713237Y-117869091D01*
X98622293Y-117798306D01*
X98535576Y-117730811D01*
X98502319Y-117712813D01*
X98451929Y-117662802D01*
X98436576Y-117593485D01*
X98461136Y-117526872D01*
X98502320Y-117491186D01*
X98535576Y-117473189D01*
X98713240Y-117334906D01*
X98865722Y-117169268D01*
X98988860Y-116980791D01*
X99079296Y-116774616D01*
X99134564Y-116556368D01*
X99153156Y-116332000D01*
X99134564Y-116107632D01*
X99134562Y-116107624D01*
X99079297Y-115889387D01*
X99079296Y-115889386D01*
X99079296Y-115889384D01*
X98988860Y-115683209D01*
X98954998Y-115631379D01*
X98865724Y-115494734D01*
X98865720Y-115494729D01*
X98713237Y-115329091D01*
X98631382Y-115265381D01*
X98535576Y-115190811D01*
X98502319Y-115172813D01*
X98451929Y-115122802D01*
X98436576Y-115053485D01*
X98461136Y-114986872D01*
X98502320Y-114951186D01*
X98535576Y-114933189D01*
X98713240Y-114794906D01*
X98865722Y-114629268D01*
X98988860Y-114440791D01*
X99079296Y-114234616D01*
X99134564Y-114016368D01*
X99153156Y-113792000D01*
X99134564Y-113567632D01*
X99079296Y-113349384D01*
X98988860Y-113143209D01*
X98954998Y-113091379D01*
X98865724Y-112954734D01*
X98865720Y-112954729D01*
X98713237Y-112789091D01*
X98631382Y-112725381D01*
X98535576Y-112650811D01*
X98535569Y-112650807D01*
X98502318Y-112632812D01*
X98451928Y-112582798D01*
X98436576Y-112513481D01*
X98461137Y-112446869D01*
X98502315Y-112411188D01*
X98535576Y-112393189D01*
X98713240Y-112254906D01*
X98865722Y-112089268D01*
X98988860Y-111900791D01*
X99079296Y-111694616D01*
X99094900Y-111632999D01*
X106655496Y-111632999D01*
X106675457Y-111822927D01*
X106699253Y-111896162D01*
X106734473Y-112004556D01*
X106762841Y-112053691D01*
X106829958Y-112169941D01*
X106829965Y-112169951D01*
X106957744Y-112311864D01*
X106957747Y-112311866D01*
X107112248Y-112424118D01*
X107286712Y-112501794D01*
X107473513Y-112541500D01*
X107664487Y-112541500D01*
X107851288Y-112501794D01*
X108025752Y-112424118D01*
X108180253Y-112311866D01*
X108308040Y-112169944D01*
X108403527Y-112004556D01*
X108462542Y-111822928D01*
X108482504Y-111633000D01*
X108462542Y-111443072D01*
X108403527Y-111261444D01*
X108308040Y-111096056D01*
X108308038Y-111096054D01*
X108308034Y-111096048D01*
X108180255Y-110954135D01*
X108025752Y-110841882D01*
X107851288Y-110764206D01*
X107664487Y-110724500D01*
X107473513Y-110724500D01*
X107286711Y-110764206D01*
X107112247Y-110841882D01*
X106957744Y-110954135D01*
X106829965Y-111096048D01*
X106829958Y-111096058D01*
X106734476Y-111261438D01*
X106734473Y-111261445D01*
X106675457Y-111443072D01*
X106655496Y-111632999D01*
X99094900Y-111632999D01*
X99134564Y-111476368D01*
X99153156Y-111252000D01*
X99134564Y-111027632D01*
X99079296Y-110809384D01*
X98988860Y-110603209D01*
X98954998Y-110551379D01*
X98865724Y-110414734D01*
X98865720Y-110414729D01*
X98713237Y-110249091D01*
X98631382Y-110185381D01*
X98535576Y-110110811D01*
X98502319Y-110092813D01*
X98451929Y-110042802D01*
X98436576Y-109973485D01*
X98461136Y-109906872D01*
X98502320Y-109871186D01*
X98535576Y-109853189D01*
X98713240Y-109714906D01*
X98865722Y-109549268D01*
X98988860Y-109360791D01*
X99079296Y-109154616D01*
X99134564Y-108936368D01*
X99153156Y-108712000D01*
X99134564Y-108487632D01*
X99079296Y-108269384D01*
X98988860Y-108063209D01*
X98954998Y-108011379D01*
X98865724Y-107874734D01*
X98865720Y-107874729D01*
X98713237Y-107709091D01*
X98631382Y-107645381D01*
X98535576Y-107570811D01*
X98502319Y-107552813D01*
X98451929Y-107502802D01*
X98436576Y-107433485D01*
X98461136Y-107366872D01*
X98502320Y-107331186D01*
X98535576Y-107313189D01*
X98713240Y-107174906D01*
X98865722Y-107009268D01*
X98988860Y-106820791D01*
X99079296Y-106614616D01*
X99134564Y-106396368D01*
X99153156Y-106172000D01*
X99134564Y-105947632D01*
X99079296Y-105729384D01*
X98988860Y-105523209D01*
X98954998Y-105471379D01*
X98865724Y-105334734D01*
X98865720Y-105334729D01*
X98713237Y-105169091D01*
X98631382Y-105105381D01*
X98535576Y-105030811D01*
X98502319Y-105012813D01*
X98451929Y-104962802D01*
X98436576Y-104893485D01*
X98461136Y-104826872D01*
X98502320Y-104791186D01*
X98535576Y-104773189D01*
X98713240Y-104634906D01*
X98865722Y-104469268D01*
X98988860Y-104280791D01*
X99079296Y-104074616D01*
X99134564Y-103856368D01*
X99153156Y-103632000D01*
X99134564Y-103407632D01*
X99079296Y-103189384D01*
X98988860Y-102983209D01*
X98954998Y-102931379D01*
X98865724Y-102794734D01*
X98865720Y-102794729D01*
X98713237Y-102629091D01*
X98631382Y-102565381D01*
X98535576Y-102490811D01*
X98502319Y-102472813D01*
X98451929Y-102422802D01*
X98436576Y-102353485D01*
X98461136Y-102286872D01*
X98502320Y-102251186D01*
X98535576Y-102233189D01*
X98713240Y-102094906D01*
X98865722Y-101929268D01*
X98988860Y-101740791D01*
X99079296Y-101534616D01*
X99134564Y-101316368D01*
X99153156Y-101092000D01*
X99134564Y-100867632D01*
X99134562Y-100867624D01*
X99079297Y-100649387D01*
X99079296Y-100649386D01*
X99079296Y-100649384D01*
X98988860Y-100443209D01*
X98933805Y-100358941D01*
X98865724Y-100254734D01*
X98865720Y-100254729D01*
X98713237Y-100089091D01*
X98614097Y-100011927D01*
X98535576Y-99950811D01*
X98502319Y-99932813D01*
X98451929Y-99882802D01*
X98438462Y-99822000D01*
X109703496Y-99822000D01*
X109723457Y-100011927D01*
X109748530Y-100089091D01*
X109782473Y-100193556D01*
X109782476Y-100193561D01*
X109877958Y-100358941D01*
X109877965Y-100358951D01*
X110005744Y-100500864D01*
X110005747Y-100500866D01*
X110160248Y-100613118D01*
X110334712Y-100690794D01*
X110521513Y-100730500D01*
X110712487Y-100730500D01*
X110899288Y-100690794D01*
X111073752Y-100613118D01*
X111228253Y-100500866D01*
X111228255Y-100500864D01*
X111356034Y-100358951D01*
X111356035Y-100358949D01*
X111356040Y-100358944D01*
X111451527Y-100193556D01*
X111510542Y-100011928D01*
X111530504Y-99822000D01*
X111510542Y-99632072D01*
X111451527Y-99450444D01*
X111356040Y-99285056D01*
X111356038Y-99285054D01*
X111356034Y-99285048D01*
X111228255Y-99143135D01*
X111073752Y-99030882D01*
X110899288Y-98953206D01*
X110712487Y-98913500D01*
X110521513Y-98913500D01*
X110334711Y-98953206D01*
X110160247Y-99030882D01*
X110005744Y-99143135D01*
X109877965Y-99285048D01*
X109877958Y-99285058D01*
X109782476Y-99450438D01*
X109782473Y-99450445D01*
X109723457Y-99632072D01*
X109703496Y-99822000D01*
X98438462Y-99822000D01*
X98436576Y-99813485D01*
X98461136Y-99746872D01*
X98502320Y-99711186D01*
X98535576Y-99693189D01*
X98713240Y-99554906D01*
X98865722Y-99389268D01*
X98988860Y-99200791D01*
X99079296Y-98994616D01*
X99134564Y-98776368D01*
X99153156Y-98552000D01*
X99134564Y-98327632D01*
X99079296Y-98109384D01*
X98988860Y-97903209D01*
X98954998Y-97851379D01*
X98865724Y-97714734D01*
X98865720Y-97714729D01*
X98713237Y-97549091D01*
X98631382Y-97485381D01*
X98535576Y-97410811D01*
X98502319Y-97392813D01*
X98451929Y-97342802D01*
X98436576Y-97273485D01*
X98461136Y-97206872D01*
X98502320Y-97171186D01*
X98535576Y-97153189D01*
X98713240Y-97014906D01*
X98865722Y-96849268D01*
X98988860Y-96660791D01*
X98994909Y-96647000D01*
X105131496Y-96647000D01*
X105132946Y-96660793D01*
X105151457Y-96836927D01*
X105169682Y-96893015D01*
X105210473Y-97018556D01*
X105210476Y-97018561D01*
X105305958Y-97183941D01*
X105305965Y-97183951D01*
X105433744Y-97325864D01*
X105433747Y-97325866D01*
X105588248Y-97438118D01*
X105762712Y-97515794D01*
X105949513Y-97555500D01*
X106140487Y-97555500D01*
X106327288Y-97515794D01*
X106501752Y-97438118D01*
X106656253Y-97325866D01*
X106784040Y-97183944D01*
X106879527Y-97018556D01*
X106938542Y-96836928D01*
X106958504Y-96647000D01*
X106938542Y-96457072D01*
X106879527Y-96275444D01*
X106784040Y-96110056D01*
X106784038Y-96110054D01*
X106784034Y-96110048D01*
X106656255Y-95968135D01*
X106501752Y-95855882D01*
X106327288Y-95778206D01*
X106140487Y-95738500D01*
X105949513Y-95738500D01*
X105762711Y-95778206D01*
X105588247Y-95855882D01*
X105433744Y-95968135D01*
X105305965Y-96110048D01*
X105305958Y-96110058D01*
X105210476Y-96275438D01*
X105210473Y-96275445D01*
X105151457Y-96457072D01*
X105131496Y-96646999D01*
X105131496Y-96647000D01*
X98994909Y-96647000D01*
X99079296Y-96454616D01*
X99134564Y-96236368D01*
X99153156Y-96012000D01*
X99134564Y-95787632D01*
X99079296Y-95569384D01*
X98988860Y-95363209D01*
X98954998Y-95311379D01*
X98865724Y-95174734D01*
X98865720Y-95174729D01*
X98713237Y-95009091D01*
X98631382Y-94945381D01*
X98535576Y-94870811D01*
X98502319Y-94852813D01*
X98451929Y-94802802D01*
X98436576Y-94733485D01*
X98461136Y-94666872D01*
X98502320Y-94631186D01*
X98535576Y-94613189D01*
X98713240Y-94474906D01*
X98865722Y-94309268D01*
X98988860Y-94120791D01*
X99079296Y-93914616D01*
X99134564Y-93696368D01*
X99153156Y-93472000D01*
X99134564Y-93247632D01*
X99079296Y-93029384D01*
X98988860Y-92823209D01*
X98943555Y-92753864D01*
X98865724Y-92634734D01*
X98865720Y-92634729D01*
X98713237Y-92469091D01*
X98631382Y-92405381D01*
X98535576Y-92330811D01*
X98502319Y-92312813D01*
X98451929Y-92262802D01*
X98436576Y-92193485D01*
X98461136Y-92126872D01*
X98502320Y-92091186D01*
X98532231Y-92074999D01*
X105766496Y-92074999D01*
X105786457Y-92264927D01*
X105807865Y-92330811D01*
X105845473Y-92446556D01*
X105845476Y-92446561D01*
X105940958Y-92611941D01*
X105940965Y-92611951D01*
X106068744Y-92753864D01*
X106068747Y-92753866D01*
X106223248Y-92866118D01*
X106397712Y-92943794D01*
X106584513Y-92983500D01*
X106775487Y-92983500D01*
X106962288Y-92943794D01*
X107136752Y-92866118D01*
X107291253Y-92753866D01*
X107398522Y-92634732D01*
X107419034Y-92611951D01*
X107419035Y-92611949D01*
X107419040Y-92611944D01*
X107514527Y-92446556D01*
X107573542Y-92264928D01*
X107593504Y-92075000D01*
X107593504Y-92074999D01*
X110973496Y-92074999D01*
X110993457Y-92264927D01*
X111014865Y-92330811D01*
X111052473Y-92446556D01*
X111052476Y-92446561D01*
X111147958Y-92611941D01*
X111147965Y-92611951D01*
X111275744Y-92753864D01*
X111275747Y-92753866D01*
X111430248Y-92866118D01*
X111604712Y-92943794D01*
X111791513Y-92983500D01*
X111982487Y-92983500D01*
X112169288Y-92943794D01*
X112343752Y-92866118D01*
X112498253Y-92753866D01*
X112605522Y-92634732D01*
X112626034Y-92611951D01*
X112626035Y-92611949D01*
X112626040Y-92611944D01*
X112721527Y-92446556D01*
X112780542Y-92264928D01*
X112800504Y-92075000D01*
X112780542Y-91885072D01*
X112721527Y-91703444D01*
X112626040Y-91538056D01*
X112626038Y-91538054D01*
X112626034Y-91538048D01*
X112498255Y-91396135D01*
X112343752Y-91283882D01*
X112169288Y-91206206D01*
X111982487Y-91166500D01*
X111791513Y-91166500D01*
X111604711Y-91206206D01*
X111430247Y-91283882D01*
X111275744Y-91396135D01*
X111147965Y-91538048D01*
X111147958Y-91538058D01*
X111052476Y-91703438D01*
X111052473Y-91703445D01*
X110993457Y-91885072D01*
X110973496Y-92074999D01*
X107593504Y-92074999D01*
X107573542Y-91885072D01*
X107514527Y-91703444D01*
X107419040Y-91538056D01*
X107419038Y-91538054D01*
X107419034Y-91538048D01*
X107291255Y-91396135D01*
X107136752Y-91283882D01*
X106962288Y-91206206D01*
X106775487Y-91166500D01*
X106584513Y-91166500D01*
X106397711Y-91206206D01*
X106223247Y-91283882D01*
X106068744Y-91396135D01*
X105940965Y-91538048D01*
X105940958Y-91538058D01*
X105845476Y-91703438D01*
X105845473Y-91703445D01*
X105786457Y-91885072D01*
X105766496Y-92074999D01*
X98532231Y-92074999D01*
X98535576Y-92073189D01*
X98713240Y-91934906D01*
X98865722Y-91769268D01*
X98988860Y-91580791D01*
X99079296Y-91374616D01*
X99134564Y-91156368D01*
X99153156Y-90932000D01*
X99134564Y-90707632D01*
X99134562Y-90707624D01*
X99079297Y-90489387D01*
X99079296Y-90489386D01*
X99079296Y-90489384D01*
X98988860Y-90283209D01*
X98933805Y-90198941D01*
X98865724Y-90094734D01*
X98865720Y-90094729D01*
X98713237Y-89929091D01*
X98614097Y-89851927D01*
X98535576Y-89790811D01*
X98502319Y-89772813D01*
X98451929Y-89722802D01*
X98438462Y-89661999D01*
X112878496Y-89661999D01*
X112898457Y-89851927D01*
X112923530Y-89929091D01*
X112957473Y-90033556D01*
X112957476Y-90033561D01*
X113052958Y-90198941D01*
X113052965Y-90198951D01*
X113180744Y-90340864D01*
X113180747Y-90340866D01*
X113335248Y-90453118D01*
X113509712Y-90530794D01*
X113696513Y-90570500D01*
X113887487Y-90570500D01*
X114074288Y-90530794D01*
X114248752Y-90453118D01*
X114403253Y-90340866D01*
X114403255Y-90340864D01*
X114531034Y-90198951D01*
X114531035Y-90198949D01*
X114531040Y-90198944D01*
X114626527Y-90033556D01*
X114685542Y-89851928D01*
X114705504Y-89662000D01*
X114685542Y-89472072D01*
X114626527Y-89290444D01*
X114531040Y-89125056D01*
X114531038Y-89125054D01*
X114531034Y-89125048D01*
X114403255Y-88983135D01*
X114248752Y-88870882D01*
X114074288Y-88793206D01*
X113887487Y-88753500D01*
X113696513Y-88753500D01*
X113509711Y-88793206D01*
X113335247Y-88870882D01*
X113180744Y-88983135D01*
X113052965Y-89125048D01*
X113052958Y-89125058D01*
X112957476Y-89290438D01*
X112957473Y-89290445D01*
X112898457Y-89472072D01*
X112878496Y-89661999D01*
X98438462Y-89661999D01*
X98436576Y-89653485D01*
X98461136Y-89586872D01*
X98502320Y-89551186D01*
X98535576Y-89533189D01*
X98713240Y-89394906D01*
X98865722Y-89229268D01*
X98988860Y-89040791D01*
X99079296Y-88834616D01*
X99134564Y-88616368D01*
X99153156Y-88392000D01*
X99134564Y-88167632D01*
X99079296Y-87949384D01*
X98988860Y-87743209D01*
X98954998Y-87691379D01*
X98865724Y-87554734D01*
X98865720Y-87554729D01*
X98713237Y-87389091D01*
X98631382Y-87325381D01*
X98535576Y-87250811D01*
X98502319Y-87232813D01*
X98451929Y-87182802D01*
X98436576Y-87113485D01*
X98461136Y-87046872D01*
X98502320Y-87011186D01*
X98535576Y-86993189D01*
X98713240Y-86854906D01*
X98865722Y-86689268D01*
X98988860Y-86500791D01*
X99079296Y-86294616D01*
X99134564Y-86076368D01*
X99153156Y-85852000D01*
X99134564Y-85627632D01*
X99079296Y-85409384D01*
X98988860Y-85203209D01*
X98954998Y-85151379D01*
X98865724Y-85014734D01*
X98865720Y-85014729D01*
X98713237Y-84849091D01*
X98631382Y-84785381D01*
X98535576Y-84710811D01*
X98502319Y-84692813D01*
X98451929Y-84642802D01*
X98436576Y-84573485D01*
X98461136Y-84506872D01*
X98502320Y-84471186D01*
X98535576Y-84453189D01*
X98713240Y-84314906D01*
X98865722Y-84149268D01*
X98988860Y-83960791D01*
X99079296Y-83754616D01*
X99134564Y-83536368D01*
X99153156Y-83312000D01*
X99134564Y-83087632D01*
X99079296Y-82869384D01*
X98988860Y-82663209D01*
X98954998Y-82611379D01*
X98865724Y-82474734D01*
X98865720Y-82474729D01*
X98713237Y-82309091D01*
X98631382Y-82245381D01*
X98535576Y-82170811D01*
X98502319Y-82152813D01*
X98451929Y-82102802D01*
X98436576Y-82033485D01*
X98461136Y-81966872D01*
X98502320Y-81931186D01*
X98535576Y-81913189D01*
X98713240Y-81774906D01*
X98865722Y-81609268D01*
X98988860Y-81420791D01*
X99079296Y-81214616D01*
X99134564Y-80996368D01*
X99153156Y-80772000D01*
X99134564Y-80547632D01*
X99079296Y-80329384D01*
X98988860Y-80123209D01*
X98954998Y-80071379D01*
X98865724Y-79934734D01*
X98865720Y-79934729D01*
X98713237Y-79769091D01*
X98631382Y-79705381D01*
X98535576Y-79630811D01*
X98502319Y-79612813D01*
X98451929Y-79562802D01*
X98436576Y-79493485D01*
X98461136Y-79426872D01*
X98502320Y-79391186D01*
X98535576Y-79373189D01*
X98713240Y-79234906D01*
X98865722Y-79069268D01*
X98988860Y-78880791D01*
X99079296Y-78674616D01*
X99134564Y-78456368D01*
X99153156Y-78232000D01*
X99134564Y-78007632D01*
X99079296Y-77789384D01*
X98988860Y-77583209D01*
X98954998Y-77531379D01*
X98865724Y-77394734D01*
X98865720Y-77394729D01*
X98713237Y-77229091D01*
X98631382Y-77165381D01*
X98535576Y-77090811D01*
X98502319Y-77072813D01*
X98451929Y-77022802D01*
X98436576Y-76953485D01*
X98461136Y-76886872D01*
X98502320Y-76851186D01*
X98535576Y-76833189D01*
X98713240Y-76694906D01*
X98865722Y-76529268D01*
X98988860Y-76340791D01*
X99079296Y-76134616D01*
X99134564Y-75916368D01*
X99153156Y-75692000D01*
X99134564Y-75467632D01*
X99079296Y-75249384D01*
X98988860Y-75043209D01*
X98954998Y-74991379D01*
X98865724Y-74854734D01*
X98865720Y-74854729D01*
X98713237Y-74689091D01*
X98631382Y-74625381D01*
X98535576Y-74550811D01*
X98502319Y-74532813D01*
X98451929Y-74482802D01*
X98436576Y-74413485D01*
X98461136Y-74346872D01*
X98502320Y-74311186D01*
X98535576Y-74293189D01*
X98713240Y-74154906D01*
X98865722Y-73989268D01*
X98988860Y-73800791D01*
X99079296Y-73594616D01*
X99134564Y-73376368D01*
X99153156Y-73152000D01*
X99134564Y-72927632D01*
X99079296Y-72709384D01*
X98988860Y-72503209D01*
X98954998Y-72451379D01*
X98865724Y-72314734D01*
X98865720Y-72314729D01*
X98713237Y-72149091D01*
X98631382Y-72085381D01*
X98535576Y-72010811D01*
X98502319Y-71992813D01*
X98451929Y-71942802D01*
X98436576Y-71873485D01*
X98461136Y-71806872D01*
X98502320Y-71771186D01*
X98535576Y-71753189D01*
X98713240Y-71614906D01*
X98865722Y-71449268D01*
X98988860Y-71260791D01*
X99079296Y-71054616D01*
X99134564Y-70836368D01*
X99153156Y-70612000D01*
X99134564Y-70387632D01*
X99079296Y-70169384D01*
X98988860Y-69963209D01*
X98954998Y-69911379D01*
X98865724Y-69774734D01*
X98865720Y-69774729D01*
X98713237Y-69609091D01*
X98631382Y-69545381D01*
X98535576Y-69470811D01*
X98502319Y-69452813D01*
X98451929Y-69402802D01*
X98436576Y-69333485D01*
X98461136Y-69266872D01*
X98502320Y-69231186D01*
X98535576Y-69213189D01*
X98713240Y-69074906D01*
X98865722Y-68909268D01*
X98988860Y-68720791D01*
X99079296Y-68514616D01*
X99134564Y-68296368D01*
X99153156Y-68072000D01*
X99134564Y-67847632D01*
X99079296Y-67629384D01*
X98988860Y-67423209D01*
X98954998Y-67371379D01*
X98865724Y-67234734D01*
X98865720Y-67234729D01*
X98713237Y-67069091D01*
X98631382Y-67005381D01*
X98535576Y-66930811D01*
X98502319Y-66912813D01*
X98451929Y-66862802D01*
X98436576Y-66793485D01*
X98461136Y-66726872D01*
X98502320Y-66691186D01*
X98502324Y-66691184D01*
X98535576Y-66673189D01*
X98713240Y-66534906D01*
X98865722Y-66369268D01*
X98988860Y-66180791D01*
X99079296Y-65974616D01*
X99134564Y-65756368D01*
X99153156Y-65532000D01*
X99134564Y-65307632D01*
X99079296Y-65089384D01*
X98988860Y-64883209D01*
X98954998Y-64831379D01*
X98865724Y-64694734D01*
X98865720Y-64694729D01*
X98713237Y-64529091D01*
X98631382Y-64465381D01*
X98535576Y-64390811D01*
X98502319Y-64372813D01*
X98451929Y-64322802D01*
X98436576Y-64253485D01*
X98461136Y-64186872D01*
X98502320Y-64151186D01*
X98535576Y-64133189D01*
X98713240Y-63994906D01*
X98865722Y-63829268D01*
X98988860Y-63640791D01*
X99079296Y-63434616D01*
X99134564Y-63216368D01*
X99153156Y-62992000D01*
X99134564Y-62767632D01*
X99079296Y-62549384D01*
X98988860Y-62343209D01*
X98954998Y-62291379D01*
X98865724Y-62154734D01*
X98865720Y-62154729D01*
X98713237Y-61989091D01*
X98631382Y-61925381D01*
X98535576Y-61850811D01*
X98502319Y-61832813D01*
X98451929Y-61782802D01*
X98436576Y-61713485D01*
X98461136Y-61646872D01*
X98502320Y-61611186D01*
X98535576Y-61593189D01*
X98713240Y-61454906D01*
X98865722Y-61289268D01*
X98988860Y-61100791D01*
X99079296Y-60894616D01*
X99134564Y-60676368D01*
X99153156Y-60452000D01*
X99134564Y-60227632D01*
X99079296Y-60009384D01*
X98988860Y-59803209D01*
X98954998Y-59751379D01*
X98865724Y-59614734D01*
X98865720Y-59614729D01*
X98713237Y-59449091D01*
X98631382Y-59385381D01*
X98535576Y-59310811D01*
X98502319Y-59292813D01*
X98451929Y-59242802D01*
X98436576Y-59173485D01*
X98461136Y-59106872D01*
X98502320Y-59071186D01*
X98502326Y-59071183D01*
X98535576Y-59053189D01*
X98713240Y-58914906D01*
X98865722Y-58749268D01*
X98988860Y-58560791D01*
X99079296Y-58354616D01*
X99134564Y-58136368D01*
X99153156Y-57912000D01*
X99134564Y-57687632D01*
X99079296Y-57469384D01*
X98988860Y-57263209D01*
X98954998Y-57211379D01*
X98865724Y-57074734D01*
X98865720Y-57074729D01*
X98713237Y-56909091D01*
X98631382Y-56845381D01*
X98535576Y-56770811D01*
X98501792Y-56752528D01*
X98451402Y-56702516D01*
X98436050Y-56633199D01*
X98460610Y-56566586D01*
X98501793Y-56530901D01*
X98535300Y-56512767D01*
X98535301Y-56512767D01*
X98712902Y-56374534D01*
X98865325Y-56208958D01*
X98988419Y-56020548D01*
X99078820Y-55814456D01*
X99078823Y-55814449D01*
X99126544Y-55626000D01*
X98221116Y-55626000D01*
X98249493Y-55581844D01*
X98290000Y-55443889D01*
X98290000Y-55300111D01*
X98249493Y-55162156D01*
X98221116Y-55118000D01*
X99126544Y-55118000D01*
X99126544Y-55117999D01*
X99078823Y-54929550D01*
X99078820Y-54929543D01*
X98988419Y-54723451D01*
X98865325Y-54535041D01*
X98721652Y-54378969D01*
X98690232Y-54315304D01*
X98698219Y-54244758D01*
X98743079Y-54189729D01*
X98770322Y-54175576D01*
X98885965Y-54132444D01*
X99002904Y-54044904D01*
X99090444Y-53927965D01*
X99090444Y-53927964D01*
X99141494Y-53791093D01*
X99147999Y-53730597D01*
X99148000Y-53730585D01*
X99148000Y-53086000D01*
X98221116Y-53086000D01*
X98249493Y-53041844D01*
X98290000Y-52903889D01*
X98290000Y-52760111D01*
X98249493Y-52622156D01*
X98221116Y-52578000D01*
X99148000Y-52578000D01*
X99148000Y-51933414D01*
X99147999Y-51933402D01*
X99141494Y-51872907D01*
X99088951Y-51732033D01*
X99083886Y-51661217D01*
X99117911Y-51598905D01*
X99180224Y-51564880D01*
X99207007Y-51562000D01*
X119232993Y-51562000D01*
X119301114Y-51582002D01*
G37*
%TD.AperFunction*%
%TA.AperFunction,Conductor*%
G36*
X98044000Y-54938325D02*
G01*
X97932315Y-54887320D01*
X97825763Y-54872000D01*
X97754237Y-54872000D01*
X97647685Y-54887320D01*
X97536000Y-54938325D01*
X97536000Y-53265674D01*
X97647685Y-53316680D01*
X97754237Y-53332000D01*
X97825763Y-53332000D01*
X97932315Y-53316680D01*
X98044000Y-53265674D01*
X98044000Y-54938325D01*
G37*
%TD.AperFunction*%
%TA.AperFunction,Conductor*%
G36*
X120904000Y-54938325D02*
G01*
X120792315Y-54887320D01*
X120685763Y-54872000D01*
X120614237Y-54872000D01*
X120507685Y-54887320D01*
X120396000Y-54938325D01*
X120396000Y-53265674D01*
X120507685Y-53316680D01*
X120614237Y-53332000D01*
X120685763Y-53332000D01*
X120792315Y-53316680D01*
X120904000Y-53265674D01*
X120904000Y-54938325D01*
G37*
%TD.AperFunction*%
%TD*%
M02*
