%TF.GenerationSoftware,KiCad,Pcbnew,7.0.6-0*%
%TF.CreationDate,2023-07-17T22:06:51-07:00*%
%TF.ProjectId,84CP01,38344350-3031-42e6-9b69-6361645f7063,rev?*%
%TF.SameCoordinates,Original*%
%TF.FileFunction,Soldermask,Bot*%
%TF.FilePolarity,Negative*%
%FSLAX46Y46*%
G04 Gerber Fmt 4.6, Leading zero omitted, Abs format (unit mm)*
G04 Created by KiCad (PCBNEW 7.0.6-0) date 2023-07-17 22:06:51*
%MOMM*%
%LPD*%
G01*
G04 APERTURE LIST*
G04 Aperture macros list*
%AMRoundRect*
0 Rectangle with rounded corners*
0 $1 Rounding radius*
0 $2 $3 $4 $5 $6 $7 $8 $9 X,Y pos of 4 corners*
0 Add a 4 corners polygon primitive as box body*
4,1,4,$2,$3,$4,$5,$6,$7,$8,$9,$2,$3,0*
0 Add four circle primitives for the rounded corners*
1,1,$1+$1,$2,$3*
1,1,$1+$1,$4,$5*
1,1,$1+$1,$6,$7*
1,1,$1+$1,$8,$9*
0 Add four rect primitives between the rounded corners*
20,1,$1+$1,$2,$3,$4,$5,0*
20,1,$1+$1,$4,$5,$6,$7,0*
20,1,$1+$1,$6,$7,$8,$9,0*
20,1,$1+$1,$8,$9,$2,$3,0*%
G04 Aperture macros list end*
%ADD10C,1.300000*%
%ADD11RoundRect,0.250000X-0.600000X-0.600000X0.600000X-0.600000X0.600000X0.600000X-0.600000X0.600000X0*%
%ADD12C,1.700000*%
%ADD13RoundRect,0.250000X-0.475000X0.337500X-0.475000X-0.337500X0.475000X-0.337500X0.475000X0.337500X0*%
%ADD14R,1.700000X1.700000*%
%ADD15O,1.700000X1.700000*%
G04 APERTURE END LIST*
D10*
%TO.C,J2*%
X106790000Y-119654000D03*
D11*
X108130000Y-115904000D03*
D12*
X110670000Y-115904000D03*
X108130000Y-118444000D03*
X110670000Y-118444000D03*
X108130000Y-120984000D03*
X110670000Y-120984000D03*
X108130000Y-123524000D03*
X110630000Y-123524000D03*
X108130000Y-126064000D03*
X110630000Y-125904000D03*
%TD*%
D13*
%TO.C,C2*%
X106680000Y-88603000D03*
X106680000Y-90678000D03*
%TD*%
%TO.C,C1*%
X111887000Y-88624500D03*
X111887000Y-90699500D03*
%TD*%
D14*
%TO.C,J3*%
X120650000Y-52832000D03*
D15*
X120650000Y-55372000D03*
X120650000Y-57912000D03*
X120650000Y-60452000D03*
X120650000Y-62992000D03*
X120650000Y-65532000D03*
X120650000Y-68072000D03*
X120650000Y-70612000D03*
X120650000Y-73152000D03*
X120650000Y-75692000D03*
X120650000Y-78232000D03*
X120650000Y-80772000D03*
X120650000Y-83312000D03*
X120650000Y-85852000D03*
X120650000Y-88392000D03*
X120650000Y-90932000D03*
X120650000Y-93472000D03*
X120650000Y-96012000D03*
X120650000Y-98552000D03*
X120650000Y-101092000D03*
X120650000Y-103632000D03*
X120650000Y-106172000D03*
X120650000Y-108712000D03*
X120650000Y-111252000D03*
X120650000Y-113792000D03*
X120650000Y-116332000D03*
X120650000Y-118872000D03*
X120650000Y-121412000D03*
X120650000Y-123952000D03*
X120650000Y-126492000D03*
%TD*%
D14*
%TO.C,J1*%
X97790000Y-52832000D03*
D15*
X97790000Y-55372000D03*
X97790000Y-57912000D03*
X97790000Y-60452000D03*
X97790000Y-62992000D03*
X97790000Y-65532000D03*
X97790000Y-68072000D03*
X97790000Y-70612000D03*
X97790000Y-73152000D03*
X97790000Y-75692000D03*
X97790000Y-78232000D03*
X97790000Y-80772000D03*
X97790000Y-83312000D03*
X97790000Y-85852000D03*
X97790000Y-88392000D03*
X97790000Y-90932000D03*
X97790000Y-93472000D03*
X97790000Y-96012000D03*
X97790000Y-98552000D03*
X97790000Y-101092000D03*
X97790000Y-103632000D03*
X97790000Y-106172000D03*
X97790000Y-108712000D03*
X97790000Y-111252000D03*
X97790000Y-113792000D03*
X97790000Y-116332000D03*
X97790000Y-118872000D03*
X97790000Y-121412000D03*
X97790000Y-123952000D03*
X97790000Y-126492000D03*
%TD*%
M02*
