%TF.GenerationSoftware,KiCad,Pcbnew,7.0.6-0*%
%TF.CreationDate,2023-07-17T22:06:51-07:00*%
%TF.ProjectId,84CP01,38344350-3031-42e6-9b69-6361645f7063,rev?*%
%TF.SameCoordinates,Original*%
%TF.FileFunction,Legend,Top*%
%TF.FilePolarity,Positive*%
%FSLAX46Y46*%
G04 Gerber Fmt 4.6, Leading zero omitted, Abs format (unit mm)*
G04 Created by KiCad (PCBNEW 7.0.6-0) date 2023-07-17 22:06:51*
%MOMM*%
%LPD*%
G01*
G04 APERTURE LIST*
%ADD10C,0.150000*%
%ADD11C,0.120000*%
G04 APERTURE END LIST*
D10*
X105381636Y-58353390D02*
X105286398Y-58305771D01*
X105286398Y-58305771D02*
X105238779Y-58258152D01*
X105238779Y-58258152D02*
X105191160Y-58162914D01*
X105191160Y-58162914D02*
X105191160Y-58115295D01*
X105191160Y-58115295D02*
X105238779Y-58020057D01*
X105238779Y-58020057D02*
X105286398Y-57972438D01*
X105286398Y-57972438D02*
X105381636Y-57924819D01*
X105381636Y-57924819D02*
X105572112Y-57924819D01*
X105572112Y-57924819D02*
X105667350Y-57972438D01*
X105667350Y-57972438D02*
X105714969Y-58020057D01*
X105714969Y-58020057D02*
X105762588Y-58115295D01*
X105762588Y-58115295D02*
X105762588Y-58162914D01*
X105762588Y-58162914D02*
X105714969Y-58258152D01*
X105714969Y-58258152D02*
X105667350Y-58305771D01*
X105667350Y-58305771D02*
X105572112Y-58353390D01*
X105572112Y-58353390D02*
X105381636Y-58353390D01*
X105381636Y-58353390D02*
X105286398Y-58401009D01*
X105286398Y-58401009D02*
X105238779Y-58448628D01*
X105238779Y-58448628D02*
X105191160Y-58543866D01*
X105191160Y-58543866D02*
X105191160Y-58734342D01*
X105191160Y-58734342D02*
X105238779Y-58829580D01*
X105238779Y-58829580D02*
X105286398Y-58877200D01*
X105286398Y-58877200D02*
X105381636Y-58924819D01*
X105381636Y-58924819D02*
X105572112Y-58924819D01*
X105572112Y-58924819D02*
X105667350Y-58877200D01*
X105667350Y-58877200D02*
X105714969Y-58829580D01*
X105714969Y-58829580D02*
X105762588Y-58734342D01*
X105762588Y-58734342D02*
X105762588Y-58543866D01*
X105762588Y-58543866D02*
X105714969Y-58448628D01*
X105714969Y-58448628D02*
X105667350Y-58401009D01*
X105667350Y-58401009D02*
X105572112Y-58353390D01*
X106619731Y-58258152D02*
X106619731Y-58924819D01*
X106381636Y-57877200D02*
X106143541Y-58591485D01*
X106143541Y-58591485D02*
X106762588Y-58591485D01*
X107714969Y-58829580D02*
X107667350Y-58877200D01*
X107667350Y-58877200D02*
X107524493Y-58924819D01*
X107524493Y-58924819D02*
X107429255Y-58924819D01*
X107429255Y-58924819D02*
X107286398Y-58877200D01*
X107286398Y-58877200D02*
X107191160Y-58781961D01*
X107191160Y-58781961D02*
X107143541Y-58686723D01*
X107143541Y-58686723D02*
X107095922Y-58496247D01*
X107095922Y-58496247D02*
X107095922Y-58353390D01*
X107095922Y-58353390D02*
X107143541Y-58162914D01*
X107143541Y-58162914D02*
X107191160Y-58067676D01*
X107191160Y-58067676D02*
X107286398Y-57972438D01*
X107286398Y-57972438D02*
X107429255Y-57924819D01*
X107429255Y-57924819D02*
X107524493Y-57924819D01*
X107524493Y-57924819D02*
X107667350Y-57972438D01*
X107667350Y-57972438D02*
X107714969Y-58020057D01*
X108143541Y-58924819D02*
X108143541Y-57924819D01*
X108143541Y-57924819D02*
X108524493Y-57924819D01*
X108524493Y-57924819D02*
X108619731Y-57972438D01*
X108619731Y-57972438D02*
X108667350Y-58020057D01*
X108667350Y-58020057D02*
X108714969Y-58115295D01*
X108714969Y-58115295D02*
X108714969Y-58258152D01*
X108714969Y-58258152D02*
X108667350Y-58353390D01*
X108667350Y-58353390D02*
X108619731Y-58401009D01*
X108619731Y-58401009D02*
X108524493Y-58448628D01*
X108524493Y-58448628D02*
X108143541Y-58448628D01*
X109334017Y-57924819D02*
X109429255Y-57924819D01*
X109429255Y-57924819D02*
X109524493Y-57972438D01*
X109524493Y-57972438D02*
X109572112Y-58020057D01*
X109572112Y-58020057D02*
X109619731Y-58115295D01*
X109619731Y-58115295D02*
X109667350Y-58305771D01*
X109667350Y-58305771D02*
X109667350Y-58543866D01*
X109667350Y-58543866D02*
X109619731Y-58734342D01*
X109619731Y-58734342D02*
X109572112Y-58829580D01*
X109572112Y-58829580D02*
X109524493Y-58877200D01*
X109524493Y-58877200D02*
X109429255Y-58924819D01*
X109429255Y-58924819D02*
X109334017Y-58924819D01*
X109334017Y-58924819D02*
X109238779Y-58877200D01*
X109238779Y-58877200D02*
X109191160Y-58829580D01*
X109191160Y-58829580D02*
X109143541Y-58734342D01*
X109143541Y-58734342D02*
X109095922Y-58543866D01*
X109095922Y-58543866D02*
X109095922Y-58305771D01*
X109095922Y-58305771D02*
X109143541Y-58115295D01*
X109143541Y-58115295D02*
X109191160Y-58020057D01*
X109191160Y-58020057D02*
X109238779Y-57972438D01*
X109238779Y-57972438D02*
X109334017Y-57924819D01*
X110619731Y-58924819D02*
X110048303Y-58924819D01*
X110334017Y-58924819D02*
X110334017Y-57924819D01*
X110334017Y-57924819D02*
X110238779Y-58067676D01*
X110238779Y-58067676D02*
X110143541Y-58162914D01*
X110143541Y-58162914D02*
X110048303Y-58210533D01*
X111048303Y-58543866D02*
X111810208Y-58543866D01*
X112857826Y-58924819D02*
X112524493Y-58448628D01*
X112286398Y-58924819D02*
X112286398Y-57924819D01*
X112286398Y-57924819D02*
X112667350Y-57924819D01*
X112667350Y-57924819D02*
X112762588Y-57972438D01*
X112762588Y-57972438D02*
X112810207Y-58020057D01*
X112810207Y-58020057D02*
X112857826Y-58115295D01*
X112857826Y-58115295D02*
X112857826Y-58258152D01*
X112857826Y-58258152D02*
X112810207Y-58353390D01*
X112810207Y-58353390D02*
X112762588Y-58401009D01*
X112762588Y-58401009D02*
X112667350Y-58448628D01*
X112667350Y-58448628D02*
X112286398Y-58448628D01*
X113476874Y-57924819D02*
X113572112Y-57924819D01*
X113572112Y-57924819D02*
X113667350Y-57972438D01*
X113667350Y-57972438D02*
X113714969Y-58020057D01*
X113714969Y-58020057D02*
X113762588Y-58115295D01*
X113762588Y-58115295D02*
X113810207Y-58305771D01*
X113810207Y-58305771D02*
X113810207Y-58543866D01*
X113810207Y-58543866D02*
X113762588Y-58734342D01*
X113762588Y-58734342D02*
X113714969Y-58829580D01*
X113714969Y-58829580D02*
X113667350Y-58877200D01*
X113667350Y-58877200D02*
X113572112Y-58924819D01*
X113572112Y-58924819D02*
X113476874Y-58924819D01*
X113476874Y-58924819D02*
X113381636Y-58877200D01*
X113381636Y-58877200D02*
X113334017Y-58829580D01*
X113334017Y-58829580D02*
X113286398Y-58734342D01*
X113286398Y-58734342D02*
X113238779Y-58543866D01*
X113238779Y-58543866D02*
X113238779Y-58305771D01*
X113238779Y-58305771D02*
X113286398Y-58115295D01*
X113286398Y-58115295D02*
X113334017Y-58020057D01*
X113334017Y-58020057D02*
X113381636Y-57972438D01*
X113381636Y-57972438D02*
X113476874Y-57924819D01*
X114762588Y-58924819D02*
X114191160Y-58924819D01*
X114476874Y-58924819D02*
X114476874Y-57924819D01*
X114476874Y-57924819D02*
X114381636Y-58067676D01*
X114381636Y-58067676D02*
X114286398Y-58162914D01*
X114286398Y-58162914D02*
X114191160Y-58210533D01*
X109046666Y-112438819D02*
X109046666Y-113153104D01*
X109046666Y-113153104D02*
X108999047Y-113295961D01*
X108999047Y-113295961D02*
X108903809Y-113391200D01*
X108903809Y-113391200D02*
X108760952Y-113438819D01*
X108760952Y-113438819D02*
X108665714Y-113438819D01*
X109475238Y-112534057D02*
X109522857Y-112486438D01*
X109522857Y-112486438D02*
X109618095Y-112438819D01*
X109618095Y-112438819D02*
X109856190Y-112438819D01*
X109856190Y-112438819D02*
X109951428Y-112486438D01*
X109951428Y-112486438D02*
X109999047Y-112534057D01*
X109999047Y-112534057D02*
X110046666Y-112629295D01*
X110046666Y-112629295D02*
X110046666Y-112724533D01*
X110046666Y-112724533D02*
X109999047Y-112867390D01*
X109999047Y-112867390D02*
X109427619Y-113438819D01*
X109427619Y-113438819D02*
X110046666Y-113438819D01*
X108458095Y-78956819D02*
X108458095Y-79766342D01*
X108458095Y-79766342D02*
X108505714Y-79861580D01*
X108505714Y-79861580D02*
X108553333Y-79909200D01*
X108553333Y-79909200D02*
X108648571Y-79956819D01*
X108648571Y-79956819D02*
X108839047Y-79956819D01*
X108839047Y-79956819D02*
X108934285Y-79909200D01*
X108934285Y-79909200D02*
X108981904Y-79861580D01*
X108981904Y-79861580D02*
X109029523Y-79766342D01*
X109029523Y-79766342D02*
X109029523Y-78956819D01*
X110029523Y-79956819D02*
X109458095Y-79956819D01*
X109743809Y-79956819D02*
X109743809Y-78956819D01*
X109743809Y-78956819D02*
X109648571Y-79099676D01*
X109648571Y-79099676D02*
X109553333Y-79194914D01*
X109553333Y-79194914D02*
X109458095Y-79242533D01*
X105359580Y-89807166D02*
X105407200Y-89854785D01*
X105407200Y-89854785D02*
X105454819Y-89997642D01*
X105454819Y-89997642D02*
X105454819Y-90092880D01*
X105454819Y-90092880D02*
X105407200Y-90235737D01*
X105407200Y-90235737D02*
X105311961Y-90330975D01*
X105311961Y-90330975D02*
X105216723Y-90378594D01*
X105216723Y-90378594D02*
X105026247Y-90426213D01*
X105026247Y-90426213D02*
X104883390Y-90426213D01*
X104883390Y-90426213D02*
X104692914Y-90378594D01*
X104692914Y-90378594D02*
X104597676Y-90330975D01*
X104597676Y-90330975D02*
X104502438Y-90235737D01*
X104502438Y-90235737D02*
X104454819Y-90092880D01*
X104454819Y-90092880D02*
X104454819Y-89997642D01*
X104454819Y-89997642D02*
X104502438Y-89854785D01*
X104502438Y-89854785D02*
X104550057Y-89807166D01*
X104550057Y-89426213D02*
X104502438Y-89378594D01*
X104502438Y-89378594D02*
X104454819Y-89283356D01*
X104454819Y-89283356D02*
X104454819Y-89045261D01*
X104454819Y-89045261D02*
X104502438Y-88950023D01*
X104502438Y-88950023D02*
X104550057Y-88902404D01*
X104550057Y-88902404D02*
X104645295Y-88854785D01*
X104645295Y-88854785D02*
X104740533Y-88854785D01*
X104740533Y-88854785D02*
X104883390Y-88902404D01*
X104883390Y-88902404D02*
X105454819Y-89473832D01*
X105454819Y-89473832D02*
X105454819Y-88854785D01*
X110595580Y-89828666D02*
X110643200Y-89876285D01*
X110643200Y-89876285D02*
X110690819Y-90019142D01*
X110690819Y-90019142D02*
X110690819Y-90114380D01*
X110690819Y-90114380D02*
X110643200Y-90257237D01*
X110643200Y-90257237D02*
X110547961Y-90352475D01*
X110547961Y-90352475D02*
X110452723Y-90400094D01*
X110452723Y-90400094D02*
X110262247Y-90447713D01*
X110262247Y-90447713D02*
X110119390Y-90447713D01*
X110119390Y-90447713D02*
X109928914Y-90400094D01*
X109928914Y-90400094D02*
X109833676Y-90352475D01*
X109833676Y-90352475D02*
X109738438Y-90257237D01*
X109738438Y-90257237D02*
X109690819Y-90114380D01*
X109690819Y-90114380D02*
X109690819Y-90019142D01*
X109690819Y-90019142D02*
X109738438Y-89876285D01*
X109738438Y-89876285D02*
X109786057Y-89828666D01*
X110690819Y-88876285D02*
X110690819Y-89447713D01*
X110690819Y-89161999D02*
X109690819Y-89161999D01*
X109690819Y-89161999D02*
X109833676Y-89257237D01*
X109833676Y-89257237D02*
X109928914Y-89352475D01*
X109928914Y-89352475D02*
X109976533Y-89447713D01*
X117649666Y-52286819D02*
X117649666Y-53001104D01*
X117649666Y-53001104D02*
X117602047Y-53143961D01*
X117602047Y-53143961D02*
X117506809Y-53239200D01*
X117506809Y-53239200D02*
X117363952Y-53286819D01*
X117363952Y-53286819D02*
X117268714Y-53286819D01*
X118030619Y-52286819D02*
X118649666Y-52286819D01*
X118649666Y-52286819D02*
X118316333Y-52667771D01*
X118316333Y-52667771D02*
X118459190Y-52667771D01*
X118459190Y-52667771D02*
X118554428Y-52715390D01*
X118554428Y-52715390D02*
X118602047Y-52763009D01*
X118602047Y-52763009D02*
X118649666Y-52858247D01*
X118649666Y-52858247D02*
X118649666Y-53096342D01*
X118649666Y-53096342D02*
X118602047Y-53191580D01*
X118602047Y-53191580D02*
X118554428Y-53239200D01*
X118554428Y-53239200D02*
X118459190Y-53286819D01*
X118459190Y-53286819D02*
X118173476Y-53286819D01*
X118173476Y-53286819D02*
X118078238Y-53239200D01*
X118078238Y-53239200D02*
X118030619Y-53191580D01*
X99996666Y-52286819D02*
X99996666Y-53001104D01*
X99996666Y-53001104D02*
X99949047Y-53143961D01*
X99949047Y-53143961D02*
X99853809Y-53239200D01*
X99853809Y-53239200D02*
X99710952Y-53286819D01*
X99710952Y-53286819D02*
X99615714Y-53286819D01*
X100996666Y-53286819D02*
X100425238Y-53286819D01*
X100710952Y-53286819D02*
X100710952Y-52286819D01*
X100710952Y-52286819D02*
X100615714Y-52429676D01*
X100615714Y-52429676D02*
X100520476Y-52524914D01*
X100520476Y-52524914D02*
X100425238Y-52572533D01*
D11*
%TO.C,J2*%
X103420000Y-118194000D02*
X103420000Y-120904000D01*
X103420000Y-123614000D02*
X103420000Y-120904000D01*
X105980000Y-113774000D02*
X105980000Y-115904000D01*
X106280000Y-114074000D02*
X106280000Y-118194000D01*
X106280000Y-118194000D02*
X103420000Y-118194000D01*
X106280000Y-123614000D02*
X103420000Y-123614000D01*
X106280000Y-127734000D02*
X106280000Y-123614000D01*
X108130000Y-113774000D02*
X105980000Y-113774000D01*
X112480000Y-114074000D02*
X106280000Y-114074000D01*
X112480000Y-120904000D02*
X112480000Y-114074000D01*
X112480000Y-120904000D02*
X112480000Y-127734000D01*
X112480000Y-127734000D02*
X106280000Y-127734000D01*
%TO.C,U1*%
X109220000Y-82435369D02*
X108548249Y-83107120D01*
X108548249Y-83107120D02*
X107636081Y-82194952D01*
X101993369Y-89662000D02*
X102665120Y-88990249D01*
X109891751Y-83107120D02*
X109220000Y-82435369D01*
X102665120Y-90333751D02*
X101993369Y-89662000D01*
X115774880Y-88990249D02*
X116446631Y-89662000D01*
X108548249Y-96216880D02*
X109220000Y-96888631D01*
X116446631Y-89662000D02*
X115774880Y-90333751D01*
X109220000Y-96888631D02*
X109891751Y-96216880D01*
%TD*%
M02*
