M48
; DRILL file {KiCad 7.0.6-0} date 2023 July 19, Wednesday 15:44:53
; FORMAT={-:-/ absolute / metric / decimal}
; #@! TF.CreationDate,2023-07-19T15:44:53-07:00
; #@! TF.GenerationSoftware,Kicad,Pcbnew,7.0.6-0
; #@! TF.FileFunction,Plated,1,4,PTH
FMAT,2
METRIC
; #@! TA.AperFunction,Plated,PTH,ViaDrill
T1C0.400
; #@! TA.AperFunction,Plated,PTH,ComponentDrill
T2C1.000
; #@! TA.AperFunction,Plated,PTH,ComponentDrill
T3C1.200
%
G90
G05
T1
X106.045Y-96.647
X106.68Y-87.249
X106.68Y-92.075
X107.569Y-111.633
X110.617Y-99.822
X111.887Y-87.249
X111.887Y-92.075
X113.792Y-89.662
T2
X97.79Y-52.832
X97.79Y-55.372
X97.79Y-57.912
X97.79Y-60.452
X97.79Y-62.992
X97.79Y-65.532
X97.79Y-68.072
X97.79Y-70.612
X97.79Y-73.152
X97.79Y-75.692
X97.79Y-78.232
X97.79Y-80.772
X97.79Y-83.312
X97.79Y-85.852
X97.79Y-88.392
X97.79Y-90.932
X97.79Y-93.472
X97.79Y-96.012
X97.79Y-98.552
X97.79Y-101.092
X97.79Y-103.632
X97.79Y-106.172
X97.79Y-108.712
X97.79Y-111.252
X97.79Y-113.792
X97.79Y-116.332
X97.79Y-118.872
X97.79Y-121.412
X97.79Y-123.952
X97.79Y-126.492
X120.65Y-52.832
X120.65Y-55.372
X120.65Y-57.912
X120.65Y-60.452
X120.65Y-62.992
X120.65Y-65.532
X120.65Y-68.072
X120.65Y-70.612
X120.65Y-73.152
X120.65Y-75.692
X120.65Y-78.232
X120.65Y-80.772
X120.65Y-83.312
X120.65Y-85.852
X120.65Y-88.392
X120.65Y-90.932
X120.65Y-93.472
X120.65Y-96.012
X120.65Y-98.552
X120.65Y-101.092
X120.65Y-103.632
X120.65Y-106.172
X120.65Y-108.712
X120.65Y-111.252
X120.65Y-113.792
X120.65Y-116.332
X120.65Y-118.872
X120.65Y-121.412
X120.65Y-123.952
X120.65Y-126.492
T3
X108.13Y-115.904
X108.13Y-118.444
X108.13Y-120.984
X108.13Y-123.524
X108.13Y-126.064
X110.63Y-123.524
X110.63Y-125.904
X110.67Y-115.904
X110.67Y-118.444
X110.67Y-120.984
T0
M30
