%TF.GenerationSoftware,KiCad,Pcbnew,7.0.6-0*%
%TF.CreationDate,2023-07-17T22:06:51-07:00*%
%TF.ProjectId,84CP01,38344350-3031-42e6-9b69-6361645f7063,rev?*%
%TF.SameCoordinates,Original*%
%TF.FileFunction,Copper,L1,Top*%
%TF.FilePolarity,Positive*%
%FSLAX46Y46*%
G04 Gerber Fmt 4.6, Leading zero omitted, Abs format (unit mm)*
G04 Created by KiCad (PCBNEW 7.0.6-0) date 2023-07-17 22:06:51*
%MOMM*%
%LPD*%
G01*
G04 APERTURE LIST*
G04 Aperture macros list*
%AMRoundRect*
0 Rectangle with rounded corners*
0 $1 Rounding radius*
0 $2 $3 $4 $5 $6 $7 $8 $9 X,Y pos of 4 corners*
0 Add a 4 corners polygon primitive as box body*
4,1,4,$2,$3,$4,$5,$6,$7,$8,$9,$2,$3,0*
0 Add four circle primitives for the rounded corners*
1,1,$1+$1,$2,$3*
1,1,$1+$1,$4,$5*
1,1,$1+$1,$6,$7*
1,1,$1+$1,$8,$9*
0 Add four rect primitives between the rounded corners*
20,1,$1+$1,$2,$3,$4,$5,0*
20,1,$1+$1,$4,$5,$6,$7,0*
20,1,$1+$1,$6,$7,$8,$9,0*
20,1,$1+$1,$8,$9,$2,$3,0*%
G04 Aperture macros list end*
%TA.AperFunction,ComponentPad*%
%ADD10RoundRect,0.250000X-0.600000X-0.600000X0.600000X-0.600000X0.600000X0.600000X-0.600000X0.600000X0*%
%TD*%
%TA.AperFunction,ComponentPad*%
%ADD11C,1.700000*%
%TD*%
%TA.AperFunction,SMDPad,CuDef*%
%ADD12RoundRect,0.075000X-0.521491X0.415425X0.415425X-0.521491X0.521491X-0.415425X-0.415425X0.521491X0*%
%TD*%
%TA.AperFunction,SMDPad,CuDef*%
%ADD13RoundRect,0.075000X-0.521491X-0.415425X-0.415425X-0.521491X0.521491X0.415425X0.415425X0.521491X0*%
%TD*%
%TA.AperFunction,ComponentPad*%
%ADD14R,1.700000X1.700000*%
%TD*%
%TA.AperFunction,ComponentPad*%
%ADD15O,1.700000X1.700000*%
%TD*%
%TA.AperFunction,ViaPad*%
%ADD16C,0.800000*%
%TD*%
%TA.AperFunction,Conductor*%
%ADD17C,0.250000*%
%TD*%
G04 APERTURE END LIST*
D10*
%TO.P,J2,1,Pin_1*%
%TO.N,Net-(J2-Pin_1)*%
X108130000Y-115904000D03*
D11*
%TO.P,J2,2,Pin_2*%
%TO.N,GND*%
X110670000Y-115904000D03*
%TO.P,J2,3,Pin_3*%
%TO.N,Net-(J2-Pin_3)*%
X108130000Y-118444000D03*
%TO.P,J2,4,Pin_4*%
%TO.N,GND*%
X110670000Y-118444000D03*
%TO.P,J2,5,Pin_5*%
%TO.N,Net-(J2-Pin_5)*%
X108130000Y-120984000D03*
%TO.P,J2,6,Pin_6*%
%TO.N,GND*%
X110670000Y-120984000D03*
%TO.P,J2,7,Pin_7*%
%TO.N,Net-(J2-Pin_7)*%
X108130000Y-123524000D03*
%TO.P,J2,8,Pin_8*%
%TO.N,GND*%
X110630000Y-123524000D03*
%TO.P,J2,9,Pin_9*%
X108130000Y-126064000D03*
%TO.P,J2,10,Pin_10*%
X110630000Y-125904000D03*
%TD*%
D12*
%TO.P,U1,1,P1*%
%TO.N,/J1-3*%
X107867658Y-83006357D03*
%TO.P,U1,2,I/O/GTS2*%
%TO.N,/J1-4*%
X107514105Y-83359911D03*
%TO.P,U1,3,VCC*%
%TO.N,VCC*%
X107160551Y-83713464D03*
%TO.P,U1,4,P4*%
%TO.N,/J1-5*%
X106806998Y-84067018D03*
%TO.P,U1,5,I/O/GTS1*%
%TO.N,/J1-6*%
X106453445Y-84420571D03*
%TO.P,U1,6,P6*%
%TO.N,/J1-7*%
X106099891Y-84774124D03*
%TO.P,U1,7,P7*%
%TO.N,/J1-8*%
X105746338Y-85127678D03*
%TO.P,U1,8,P8*%
%TO.N,/J1-9*%
X105392785Y-85481231D03*
%TO.P,U1,9,P9*%
%TO.N,/J1-10*%
X105039231Y-85834785D03*
%TO.P,U1,10,P10*%
%TO.N,/J1-11*%
X104685678Y-86188338D03*
%TO.P,U1,11,P11*%
%TO.N,/J1-12*%
X104332124Y-86541891D03*
%TO.P,U1,12,P12*%
%TO.N,/J1-13*%
X103978571Y-86895445D03*
%TO.P,U1,13,P13*%
%TO.N,/J1-14*%
X103625018Y-87248998D03*
%TO.P,U1,14,GND*%
%TO.N,GND*%
X103271464Y-87602551D03*
%TO.P,U1,15,I/O/GCK1*%
%TO.N,/J1-15*%
X102917911Y-87956105D03*
%TO.P,U1,16,I/O/GCK2*%
%TO.N,/J1-16*%
X102564357Y-88309658D03*
D13*
%TO.P,U1,17,I/O/GCK3*%
%TO.N,/J1-17*%
X102564357Y-91014342D03*
%TO.P,U1,18,P18*%
%TO.N,/J1-18*%
X102917911Y-91367895D03*
%TO.P,U1,19,P19*%
%TO.N,/J1-19*%
X103271464Y-91721449D03*
%TO.P,U1,20,P20*%
%TO.N,/J1-20*%
X103625018Y-92075002D03*
%TO.P,U1,21,GND*%
%TO.N,GND*%
X103978571Y-92428555D03*
%TO.P,U1,22,P22*%
%TO.N,/J1-21*%
X104332124Y-92782109D03*
%TO.P,U1,23,P23*%
%TO.N,/J1-22*%
X104685678Y-93135662D03*
%TO.P,U1,24,P24*%
%TO.N,/J1-23*%
X105039231Y-93489215D03*
%TO.P,U1,25,P25*%
%TO.N,/J1-24*%
X105392785Y-93842769D03*
%TO.P,U1,26,VCCIO*%
%TO.N,VCC*%
X105746338Y-94196322D03*
%TO.P,U1,27,P27*%
%TO.N,/J1-25*%
X106099891Y-94549876D03*
%TO.P,U1,28,TDI*%
%TO.N,Net-(J2-Pin_1)*%
X106453445Y-94903429D03*
%TO.P,U1,29,TMS*%
%TO.N,Net-(J2-Pin_3)*%
X106806998Y-95256982D03*
%TO.P,U1,30,TCK*%
%TO.N,Net-(J2-Pin_5)*%
X107160551Y-95610536D03*
%TO.P,U1,31,P31*%
%TO.N,/J1-26*%
X107514105Y-95964089D03*
%TO.P,U1,32,P32*%
%TO.N,/J1-27*%
X107867658Y-96317643D03*
D12*
%TO.P,U1,33,P33*%
%TO.N,/J1-28*%
X110572342Y-96317643D03*
%TO.P,U1,34,P34*%
%TO.N,/J2-28*%
X110925895Y-95964089D03*
%TO.P,U1,35,P35*%
%TO.N,/J2-27*%
X111279449Y-95610536D03*
%TO.P,U1,36,P36*%
%TO.N,/J2-26*%
X111633002Y-95256982D03*
%TO.P,U1,37,VCC*%
%TO.N,VCC*%
X111986555Y-94903429D03*
%TO.P,U1,38,P38*%
%TO.N,/J2-25*%
X112340109Y-94549876D03*
%TO.P,U1,39,P39*%
%TO.N,/J2-24*%
X112693662Y-94196322D03*
%TO.P,U1,40,P40*%
%TO.N,/J2-23*%
X113047215Y-93842769D03*
%TO.P,U1,41,GND*%
%TO.N,GND*%
X113400769Y-93489215D03*
%TO.P,U1,42,P42*%
%TO.N,/J2-22*%
X113754322Y-93135662D03*
%TO.P,U1,43,P43*%
%TO.N,/J2-21*%
X114107876Y-92782109D03*
%TO.P,U1,44,P44*%
%TO.N,/J2-20*%
X114461429Y-92428555D03*
%TO.P,U1,45,P45*%
%TO.N,/J2-19*%
X114814982Y-92075002D03*
%TO.P,U1,46,P46*%
%TO.N,/J2-18*%
X115168536Y-91721449D03*
%TO.P,U1,47,P47*%
%TO.N,/J2-17*%
X115522089Y-91367895D03*
%TO.P,U1,48,P48*%
%TO.N,/J2-16*%
X115875643Y-91014342D03*
D13*
%TO.P,U1,49,P49*%
%TO.N,/J2-15*%
X115875643Y-88309658D03*
%TO.P,U1,50,P50*%
%TO.N,/J2-14*%
X115522089Y-87956105D03*
%TO.P,U1,51,P51*%
%TO.N,/J2-13*%
X115168536Y-87602551D03*
%TO.P,U1,52,P52*%
%TO.N,/J2-12*%
X114814982Y-87248998D03*
%TO.P,U1,53,TDO*%
%TO.N,Net-(J2-Pin_7)*%
X114461429Y-86895445D03*
%TO.P,U1,54,GND*%
%TO.N,GND*%
X114107876Y-86541891D03*
%TO.P,U1,55,VCCIO*%
%TO.N,VCC*%
X113754322Y-86188338D03*
%TO.P,U1,56,P56*%
%TO.N,/J2-11*%
X113400769Y-85834785D03*
%TO.P,U1,57,P57*%
%TO.N,/J2-10*%
X113047215Y-85481231D03*
%TO.P,U1,58,P58*%
%TO.N,/J2-9*%
X112693662Y-85127678D03*
%TO.P,U1,59,P59*%
%TO.N,/J2-8*%
X112340109Y-84774124D03*
%TO.P,U1,60,P60*%
%TO.N,/J2-7*%
X111986555Y-84420571D03*
%TO.P,U1,61,P61*%
%TO.N,/J2-6*%
X111633002Y-84067018D03*
%TO.P,U1,62,P62*%
%TO.N,/J2-5*%
X111279449Y-83713464D03*
%TO.P,U1,63,P63*%
%TO.N,/J2-4*%
X110925895Y-83359911D03*
%TO.P,U1,64,I/O/GSR*%
%TO.N,/J2-3*%
X110572342Y-83006357D03*
%TD*%
D14*
%TO.P,J3,1,Pin_1*%
%TO.N,VCC*%
X120650000Y-52832000D03*
D15*
%TO.P,J3,2,Pin_2*%
X120650000Y-55372000D03*
%TO.P,J3,3,Pin_3*%
%TO.N,/J2-3*%
X120650000Y-57912000D03*
%TO.P,J3,4,Pin_4*%
%TO.N,/J2-4*%
X120650000Y-60452000D03*
%TO.P,J3,5,Pin_5*%
%TO.N,/J2-5*%
X120650000Y-62992000D03*
%TO.P,J3,6,Pin_6*%
%TO.N,/J2-6*%
X120650000Y-65532000D03*
%TO.P,J3,7,Pin_7*%
%TO.N,/J2-7*%
X120650000Y-68072000D03*
%TO.P,J3,8,Pin_8*%
%TO.N,/J2-8*%
X120650000Y-70612000D03*
%TO.P,J3,9,Pin_9*%
%TO.N,/J2-9*%
X120650000Y-73152000D03*
%TO.P,J3,10,Pin_10*%
%TO.N,/J2-10*%
X120650000Y-75692000D03*
%TO.P,J3,11,Pin_11*%
%TO.N,/J2-11*%
X120650000Y-78232000D03*
%TO.P,J3,12,Pin_12*%
%TO.N,/J2-12*%
X120650000Y-80772000D03*
%TO.P,J3,13,Pin_13*%
%TO.N,/J2-13*%
X120650000Y-83312000D03*
%TO.P,J3,14,Pin_14*%
%TO.N,/J2-14*%
X120650000Y-85852000D03*
%TO.P,J3,15,Pin_15*%
%TO.N,/J2-15*%
X120650000Y-88392000D03*
%TO.P,J3,16,Pin_16*%
%TO.N,/J2-16*%
X120650000Y-90932000D03*
%TO.P,J3,17,Pin_17*%
%TO.N,/J2-17*%
X120650000Y-93472000D03*
%TO.P,J3,18,Pin_18*%
%TO.N,/J2-18*%
X120650000Y-96012000D03*
%TO.P,J3,19,Pin_19*%
%TO.N,/J2-19*%
X120650000Y-98552000D03*
%TO.P,J3,20,Pin_20*%
%TO.N,/J2-20*%
X120650000Y-101092000D03*
%TO.P,J3,21,Pin_21*%
%TO.N,/J2-21*%
X120650000Y-103632000D03*
%TO.P,J3,22,Pin_22*%
%TO.N,/J2-22*%
X120650000Y-106172000D03*
%TO.P,J3,23,Pin_23*%
%TO.N,/J2-23*%
X120650000Y-108712000D03*
%TO.P,J3,24,Pin_24*%
%TO.N,/J2-24*%
X120650000Y-111252000D03*
%TO.P,J3,25,Pin_25*%
%TO.N,/J2-25*%
X120650000Y-113792000D03*
%TO.P,J3,26,Pin_26*%
%TO.N,/J2-26*%
X120650000Y-116332000D03*
%TO.P,J3,27,Pin_27*%
%TO.N,/J2-27*%
X120650000Y-118872000D03*
%TO.P,J3,28,Pin_28*%
%TO.N,/J2-28*%
X120650000Y-121412000D03*
%TO.P,J3,29,Pin_29*%
%TO.N,GND*%
X120650000Y-123952000D03*
%TO.P,J3,30,Pin_30*%
X120650000Y-126492000D03*
%TD*%
D14*
%TO.P,J1,1,Pin_1*%
%TO.N,VCC*%
X97790000Y-52832000D03*
D15*
%TO.P,J1,2,Pin_2*%
X97790000Y-55372000D03*
%TO.P,J1,3,Pin_3*%
%TO.N,/J1-3*%
X97790000Y-57912000D03*
%TO.P,J1,4,Pin_4*%
%TO.N,/J1-4*%
X97790000Y-60452000D03*
%TO.P,J1,5,Pin_5*%
%TO.N,/J1-5*%
X97790000Y-62992000D03*
%TO.P,J1,6,Pin_6*%
%TO.N,/J1-6*%
X97790000Y-65532000D03*
%TO.P,J1,7,Pin_7*%
%TO.N,/J1-7*%
X97790000Y-68072000D03*
%TO.P,J1,8,Pin_8*%
%TO.N,/J1-8*%
X97790000Y-70612000D03*
%TO.P,J1,9,Pin_9*%
%TO.N,/J1-9*%
X97790000Y-73152000D03*
%TO.P,J1,10,Pin_10*%
%TO.N,/J1-10*%
X97790000Y-75692000D03*
%TO.P,J1,11,Pin_11*%
%TO.N,/J1-11*%
X97790000Y-78232000D03*
%TO.P,J1,12,Pin_12*%
%TO.N,/J1-12*%
X97790000Y-80772000D03*
%TO.P,J1,13,Pin_13*%
%TO.N,/J1-13*%
X97790000Y-83312000D03*
%TO.P,J1,14,Pin_14*%
%TO.N,/J1-14*%
X97790000Y-85852000D03*
%TO.P,J1,15,Pin_15*%
%TO.N,/J1-15*%
X97790000Y-88392000D03*
%TO.P,J1,16,Pin_16*%
%TO.N,/J1-16*%
X97790000Y-90932000D03*
%TO.P,J1,17,Pin_17*%
%TO.N,/J1-17*%
X97790000Y-93472000D03*
%TO.P,J1,18,Pin_18*%
%TO.N,/J1-18*%
X97790000Y-96012000D03*
%TO.P,J1,19,Pin_19*%
%TO.N,/J1-19*%
X97790000Y-98552000D03*
%TO.P,J1,20,Pin_20*%
%TO.N,/J1-20*%
X97790000Y-101092000D03*
%TO.P,J1,21,Pin_21*%
%TO.N,/J1-21*%
X97790000Y-103632000D03*
%TO.P,J1,22,Pin_22*%
%TO.N,/J1-22*%
X97790000Y-106172000D03*
%TO.P,J1,23,Pin_23*%
%TO.N,/J1-23*%
X97790000Y-108712000D03*
%TO.P,J1,24,Pin_24*%
%TO.N,/J1-24*%
X97790000Y-111252000D03*
%TO.P,J1,25,Pin_25*%
%TO.N,/J1-25*%
X97790000Y-113792000D03*
%TO.P,J1,26,Pin_26*%
%TO.N,/J1-26*%
X97790000Y-116332000D03*
%TO.P,J1,27,Pin_27*%
%TO.N,/J1-27*%
X97790000Y-118872000D03*
%TO.P,J1,28,Pin_28*%
%TO.N,/J1-28*%
X97790000Y-121412000D03*
%TO.P,J1,29,Pin_29*%
%TO.N,GND*%
X97790000Y-123952000D03*
%TO.P,J1,30,Pin_30*%
X97790000Y-126492000D03*
%TD*%
D16*
%TO.N,VCC*%
X106680000Y-87249000D03*
X111887000Y-87249000D03*
%TO.N,GND*%
X106680000Y-92075000D03*
X111887000Y-92075000D03*
%TO.N,/J1-28*%
X110617000Y-99822000D03*
X107569000Y-111633000D03*
%TO.N,Net-(J2-Pin_5)*%
X106045000Y-96647000D03*
%TO.N,Net-(J2-Pin_7)*%
X113792000Y-89662000D03*
%TD*%
D17*
%TO.N,VCC*%
X112693660Y-87249000D02*
X113754322Y-86188338D01*
X105746338Y-94196322D02*
X107405000Y-92537660D01*
X111887000Y-87249000D02*
X112693660Y-87249000D01*
X111162000Y-87974000D02*
X111887000Y-87249000D01*
X107728489Y-86200511D02*
X107728489Y-84281402D01*
X111986555Y-94903429D02*
X111162000Y-94078874D01*
X111162000Y-94078874D02*
X111162000Y-87974000D01*
X106680000Y-87249000D02*
X107728489Y-86200511D01*
X107405000Y-87974000D02*
X106680000Y-87249000D01*
X107728489Y-84281402D02*
X107160551Y-83713464D01*
X107405000Y-92537660D02*
X107405000Y-87974000D01*
%TO.N,/J1-3*%
X97790000Y-58039000D02*
X97790000Y-57912000D01*
X107315000Y-67564000D02*
X97790000Y-58039000D01*
X107867658Y-83006357D02*
X107315000Y-82453699D01*
X107315000Y-82453699D02*
X107315000Y-67564000D01*
%TO.N,/J1-4*%
X107514105Y-83359911D02*
X106865000Y-82710806D01*
X106865000Y-69527000D02*
X97790000Y-60452000D01*
X106865000Y-82710806D02*
X106865000Y-69527000D01*
%TO.N,/J1-5*%
X106172000Y-71374000D02*
X97790000Y-62992000D01*
X106806998Y-84067018D02*
X106172000Y-83432020D01*
X106172000Y-83432020D02*
X106172000Y-71374000D01*
%TO.N,/J1-6*%
X105722000Y-83689126D02*
X105722000Y-73464000D01*
X106453445Y-84420571D02*
X105722000Y-83689126D01*
X105722000Y-73464000D02*
X97790000Y-65532000D01*
%TO.N,/J1-7*%
X105029000Y-83703233D02*
X105029000Y-75311000D01*
X105029000Y-75311000D02*
X97790000Y-68072000D01*
X106099891Y-84774124D02*
X105029000Y-83703233D01*
%TO.N,/J1-8*%
X105746338Y-85127678D02*
X104579000Y-83960340D01*
X104579000Y-83960340D02*
X104579000Y-77401000D01*
X104579000Y-77401000D02*
X97790000Y-70612000D01*
%TO.N,/J1-9*%
X105392785Y-85481231D02*
X104129000Y-84217446D01*
X104129000Y-84217446D02*
X104129000Y-79491000D01*
X104129000Y-79491000D02*
X97790000Y-73152000D01*
%TO.N,/J1-10*%
X105039231Y-85834785D02*
X103679000Y-84474554D01*
X103679000Y-84474554D02*
X103679000Y-81581000D01*
X103679000Y-81581000D02*
X97790000Y-75692000D01*
%TO.N,GND*%
X103271464Y-87602551D02*
X106680000Y-91011087D01*
X105537000Y-92075000D02*
X106680000Y-92075000D01*
X111986554Y-92075000D02*
X113400769Y-93489215D01*
X106680000Y-91011087D02*
X106680000Y-92075000D01*
X103978571Y-92428555D02*
X104546508Y-91860618D01*
X104913235Y-91860618D02*
X105127617Y-92075000D01*
X105127617Y-92075000D02*
X105537000Y-92075000D01*
X104546508Y-91860618D02*
X104913235Y-91860618D01*
X114107876Y-86541891D02*
X114107876Y-86552124D01*
X114107876Y-86541891D02*
X113030000Y-87619767D01*
X111887000Y-92075000D02*
X111986554Y-92075000D01*
X113030000Y-87619767D02*
X113030000Y-90932000D01*
X113030000Y-90932000D02*
X111887000Y-92075000D01*
%TO.N,/J1-11*%
X103124000Y-84626660D02*
X103124000Y-83566000D01*
X104685678Y-86188338D02*
X103124000Y-84626660D01*
X103124000Y-83566000D02*
X97790000Y-78232000D01*
%TO.N,/J1-12*%
X98562233Y-80772000D02*
X97790000Y-80772000D01*
X104332124Y-86541891D02*
X98562233Y-80772000D01*
%TO.N,/J1-13*%
X100395126Y-83312000D02*
X97790000Y-83312000D01*
X103978571Y-86895445D02*
X100395126Y-83312000D01*
%TO.N,/J1-14*%
X102228020Y-85852000D02*
X97790000Y-85852000D01*
X103625018Y-87248998D02*
X102228020Y-85852000D01*
%TO.N,/J1-15*%
X101829806Y-86868000D02*
X99314000Y-86868000D01*
X102917911Y-87956105D02*
X101829806Y-86868000D01*
X99314000Y-86868000D02*
X97790000Y-88392000D01*
%TO.N,/J1-16*%
X101092000Y-87630000D02*
X97790000Y-90932000D01*
X101884699Y-87630000D02*
X101092000Y-87630000D01*
X102564357Y-88309658D02*
X101884699Y-87630000D01*
%TO.N,/J1-17*%
X100106699Y-93472000D02*
X97790000Y-93472000D01*
X102564357Y-91014342D02*
X100106699Y-93472000D01*
%TO.N,/J1-18*%
X102917911Y-91367895D02*
X98273806Y-96012000D01*
X98273806Y-96012000D02*
X97790000Y-96012000D01*
%TO.N,/J1-19*%
X103271464Y-91721449D02*
X102420000Y-92572913D01*
X102420000Y-92572913D02*
X102420000Y-93922000D01*
X102420000Y-93922000D02*
X97790000Y-98552000D01*
%TO.N,/J1-20*%
X102870000Y-96012000D02*
X97790000Y-101092000D01*
X102870000Y-92830020D02*
X102870000Y-96012000D01*
X103625018Y-92075002D02*
X102870000Y-92830020D01*
%TO.N,/J1-21*%
X104332124Y-92782109D02*
X103378000Y-93736233D01*
X103378000Y-93736233D02*
X103378000Y-98044000D01*
X103378000Y-98044000D02*
X97790000Y-103632000D01*
%TO.N,/J1-22*%
X103924847Y-100037153D02*
X97790000Y-106172000D01*
X104685678Y-93135662D02*
X103924847Y-93896493D01*
X103924847Y-93896493D02*
X103924847Y-100037153D01*
%TO.N,/J1-23*%
X104374847Y-94153599D02*
X104374847Y-102127153D01*
X105039231Y-93489215D02*
X104374847Y-94153599D01*
X104374847Y-102127153D02*
X97790000Y-108712000D01*
%TO.N,/J1-24*%
X104824847Y-94410707D02*
X104824847Y-104217153D01*
X105392785Y-93842769D02*
X104824847Y-94410707D01*
X104824847Y-104217153D02*
X97790000Y-111252000D01*
%TO.N,/J1-25*%
X106099891Y-94549876D02*
X105320000Y-95329767D01*
X105320000Y-95329767D02*
X105320000Y-106262000D01*
X105320000Y-106262000D02*
X97790000Y-113792000D01*
%TO.N,/J1-26*%
X106807000Y-107315000D02*
X97790000Y-116332000D01*
X107514105Y-95964089D02*
X106807000Y-96671194D01*
X106807000Y-96671194D02*
X106807000Y-107315000D01*
%TO.N,/J1-27*%
X107257000Y-96928301D02*
X107257000Y-109405000D01*
X107867658Y-96317643D02*
X107257000Y-96928301D01*
X107257000Y-109405000D02*
X97790000Y-118872000D01*
%TO.N,/J1-28*%
X110998000Y-99441000D02*
X110617000Y-99822000D01*
X110998000Y-96743301D02*
X110998000Y-99441000D01*
X107569000Y-111633000D02*
X97790000Y-121412000D01*
X110572342Y-96317643D02*
X110998000Y-96743301D01*
%TO.N,Net-(J2-Pin_1)*%
X108130000Y-115904000D02*
X108130000Y-115263000D01*
X109601000Y-94615000D02*
X109220000Y-94234000D01*
X109220000Y-94234000D02*
X107122874Y-94234000D01*
X107122874Y-94234000D02*
X106453445Y-94903429D01*
X109601000Y-113792000D02*
X109601000Y-94615000D01*
X108130000Y-115263000D02*
X109601000Y-113792000D01*
%TO.N,Net-(J2-Pin_3)*%
X107379980Y-94684000D02*
X108527000Y-94684000D01*
X108839000Y-113284000D02*
X108736827Y-113284000D01*
X108736827Y-113284000D02*
X106955000Y-115065827D01*
X106955000Y-115065827D02*
X106955000Y-117269000D01*
X108527000Y-94684000D02*
X108839000Y-94996000D01*
X106955000Y-117269000D02*
X108130000Y-118444000D01*
X108839000Y-94996000D02*
X108839000Y-113284000D01*
X106806998Y-95256982D02*
X107379980Y-94684000D01*
%TO.N,Net-(J2-Pin_5)*%
X107160551Y-95610536D02*
X106124087Y-96647000D01*
X106124087Y-96647000D02*
X106045000Y-96647000D01*
%TO.N,Net-(J2-Pin_7)*%
X113792000Y-87564874D02*
X113792000Y-89662000D01*
X114461429Y-86895445D02*
X113792000Y-87564874D01*
%TO.N,/J2-3*%
X111252000Y-82326699D02*
X111252000Y-67310000D01*
X111252000Y-67310000D02*
X120650000Y-57912000D01*
X110572342Y-83006357D02*
X111252000Y-82326699D01*
%TO.N,/J2-4*%
X111702000Y-82583806D02*
X111702000Y-69400000D01*
X110925895Y-83359911D02*
X111702000Y-82583806D01*
X111702000Y-69400000D02*
X120650000Y-60452000D01*
%TO.N,/J2-5*%
X111279449Y-83713464D02*
X112152000Y-82840913D01*
X112152000Y-71490000D02*
X120650000Y-62992000D01*
X112152000Y-82840913D02*
X112152000Y-71490000D01*
%TO.N,/J2-6*%
X112602000Y-83098020D02*
X112602000Y-73580000D01*
X112602000Y-73580000D02*
X120650000Y-65532000D01*
X111633002Y-84067018D02*
X112602000Y-83098020D01*
%TO.N,/J2-7*%
X111986555Y-84420571D02*
X113052000Y-83355126D01*
X113052000Y-83355126D02*
X113052000Y-75670000D01*
X113052000Y-75670000D02*
X120650000Y-68072000D01*
%TO.N,/J2-8*%
X113502000Y-83612233D02*
X113502000Y-77760000D01*
X112340109Y-84774124D02*
X113502000Y-83612233D01*
X113502000Y-77760000D02*
X120650000Y-70612000D01*
%TO.N,/J2-9*%
X112693662Y-85127678D02*
X113952000Y-83869340D01*
X113952000Y-79850000D02*
X120650000Y-73152000D01*
X113952000Y-83869340D02*
X113952000Y-79850000D01*
%TO.N,/J2-10*%
X113047215Y-85481231D02*
X114402000Y-84126446D01*
X114402000Y-81940000D02*
X120650000Y-75692000D01*
X114402000Y-84126446D02*
X114402000Y-81940000D01*
%TO.N,/J2-11*%
X113400769Y-85834785D02*
X114935000Y-84300554D01*
X114935000Y-84300554D02*
X114935000Y-83947000D01*
X114935000Y-83947000D02*
X120650000Y-78232000D01*
%TO.N,/J2-12*%
X115570000Y-85852000D02*
X120650000Y-80772000D01*
X120650000Y-81413980D02*
X120650000Y-80772000D01*
X115570000Y-86493980D02*
X115570000Y-85852000D01*
X114814982Y-87248998D02*
X115570000Y-86493980D01*
%TO.N,/J2-13*%
X115168536Y-87602551D02*
X119459087Y-83312000D01*
X119459087Y-83312000D02*
X120650000Y-83312000D01*
%TO.N,/J2-14*%
X117626194Y-85852000D02*
X120650000Y-85852000D01*
X115522089Y-87956105D02*
X117626194Y-85852000D01*
%TO.N,/J2-15*%
X116646946Y-87503000D02*
X119761000Y-87503000D01*
X115875643Y-88309658D02*
X115875643Y-88274303D01*
X119761000Y-87503000D02*
X120650000Y-88392000D01*
X115875643Y-88274303D02*
X116646946Y-87503000D01*
%TO.N,/J2-16*%
X120015000Y-91567000D02*
X120650000Y-90932000D01*
X116459000Y-91567000D02*
X120015000Y-91567000D01*
X115906342Y-91014342D02*
X116459000Y-91567000D01*
X115875643Y-91014342D02*
X115906342Y-91014342D01*
%TO.N,/J2-17*%
X115522089Y-91367895D02*
X117626194Y-93472000D01*
X117626194Y-93472000D02*
X120650000Y-93472000D01*
%TO.N,/J2-18*%
X115168536Y-91721449D02*
X119459087Y-96012000D01*
X119459087Y-96012000D02*
X120650000Y-96012000D01*
%TO.N,/J2-19*%
X115777000Y-93679000D02*
X120650000Y-98552000D01*
X115777000Y-93037020D02*
X115777000Y-93679000D01*
X114814982Y-92075002D02*
X115777000Y-93037020D01*
%TO.N,/J2-20*%
X115327000Y-93294126D02*
X115327000Y-95769000D01*
X114461429Y-92428555D02*
X115327000Y-93294126D01*
X115327000Y-95769000D02*
X120650000Y-101092000D01*
%TO.N,/J2-21*%
X114877000Y-97859000D02*
X120650000Y-103632000D01*
X114107876Y-92782109D02*
X114877000Y-93551233D01*
X114877000Y-93551233D02*
X114877000Y-97859000D01*
%TO.N,/J2-22*%
X113754322Y-93135662D02*
X114427000Y-93808340D01*
X114427000Y-93808340D02*
X114427000Y-99949000D01*
X114427000Y-99949000D02*
X120650000Y-106172000D01*
%TO.N,/J2-23*%
X113808046Y-94603600D02*
X113808046Y-101870046D01*
X113808046Y-101870046D02*
X120650000Y-108712000D01*
X113047215Y-93842769D02*
X113808046Y-94603600D01*
%TO.N,/J2-24*%
X113358046Y-103960046D02*
X120650000Y-111252000D01*
X113358046Y-94860706D02*
X113358046Y-103960046D01*
X112693662Y-94196322D02*
X113358046Y-94860706D01*
%TO.N,/J2-25*%
X112908046Y-106050046D02*
X120650000Y-113792000D01*
X112908046Y-95117813D02*
X112908046Y-106050046D01*
X112340109Y-94549876D02*
X112908046Y-95117813D01*
%TO.N,/J2-26*%
X112393833Y-108075833D02*
X120650000Y-116332000D01*
X111633002Y-95256982D02*
X112393833Y-96017813D01*
X112393833Y-96017813D02*
X112393833Y-108075833D01*
%TO.N,/J2-27*%
X111943833Y-110165833D02*
X120650000Y-118872000D01*
X111279449Y-95610536D02*
X111943833Y-96274920D01*
X111943833Y-96274920D02*
X111943833Y-110165833D01*
%TO.N,/J2-28*%
X111493833Y-112255833D02*
X120650000Y-121412000D01*
X111493833Y-96532027D02*
X111493833Y-112255833D01*
X110925895Y-95964089D02*
X111493833Y-96532027D01*
%TD*%
M02*
